<?xml version="1.0" encoding="UTF-8"?>
<svg id="Camada_1" xmlns="http://www.w3.org/2000/svg" version="1.1" viewBox="0 0 355 446.1">
  <!-- Generator: Adobe Illustrator 29.8.5, SVG Export Plug-In . SVG Version: 2.1.1 Build 2)  -->
  <defs>
    <style>
      .st0 {
        fill: #f18322;
      }
    </style>
  </defs>
  <path class="st0" d="M224,203.8c-.3-.2-.2-.1,0,0h0Z"/>
  <path class="st0" d="M224.5,204s-.4-.1-.5-.2l.4.2h.1,0,0Z"/>
  <path class="st0" d="M224.7,204.1h.2c0,0-.2,0-.3,0h0Z"/>
  <path class="st0" d="M338.6,149.2c7.7-25.8,10.5-54-2.4-78.7-12-22.9-34-42-59.1-48.7-16.2-4.4-33.9-4.7-49.7,1.1-7.2,2.7-13.6,6.8-19.6,11.7-1.2,1-2.5,2-3.6,3.1-1.5,1.4-1.8,2.4-2.5,4.1-.3.7-.6,1.3-.9,1.9-8.9-15.5-22.1-28.4-39.8-33.4-17.9-5-36-3-53.5,2.4-18.2,5.6-36.6,13.9-52.7,24.1-15.6,9.9-27.7,23.4-35.6,40.1-7.6,16-11.1,34.6-7.4,52,3.8,18.1,12.7,34.3,25.5,47.6,8.6,8.9,19.4,16.7,31.3,21.1-.4,1.4-.7,2.7-1.1,4-.8,2.8-1.8,5.5-2.6,8.2-1.8,6.1-3.8,12.1-5.9,18.1-1.8,5.2-3.8,10.3-5.7,15.4-.3-4.2-.7-8.3-1.3-12.5-1.3-9.4-2.1-18.6-4.8-27.8-1.5-5.2-3.2-10.5-5.8-15.3-2.8-5.2-6.7-9.6-10.8-13.8-2.3-2.4-12.5-2.4-10.7,2.6,1.8,5.4,3.6,10.7,6.1,15.7,2.6,5.4,5.4,10.7,7.7,16.1,2.4,5.5,4.5,11.1,6.3,16.7,1.8,5.7,2.6,11.7,3.2,17.6,1.1,11.7.9,23.5-.6,35.1-1.3,10.1-3.2,20.6-9.2,29-1.8,1.3-3.7,2.7-5.5,4-4.5,3.4-9,6.7-12.9,10.7-2,2-3.6,4.1-4.1,7-.4,2.5.8,4.7,1.9,6.9,1.5,2.8,6.5,2.5,8.6.7,2.2-1.9,4.8-3.2,6.8-5.3.7-.7,1.3-1.4,1.8-2.2,7-3.6,13.3-8.3,19.5-13.3,3.1-2.5,6.1-5.1,9-7.8-.1.6-.2,1.3,0,2.1.2.9,2.4,1,2.5,0,.3-2.9,2.9-4.1,5.5-2.9.9.4,1.7,1.2,2.5,1.8,1.8,1.5,3.6,3.1,5.4,4.6,3.3,2.9,6.6,5.9,10.1,8.6,7.9,6.1,16.3,12.1,25.2,16.6,9.5,4.8,19.7,8.2,30,10.9,4.7,1.2,9.3,2.5,14,3.5,1.6.4,3.2.7,4.9.9,0,.7,0,1.3,0,2,0,.2,0,.4.2.6-1.3,1-2.4,2.2-3.2,3.6-.4,0-.7.1-1,.2-.3,0-.6.1-.8.2-2.2-.3-4.5-.7-6.7-1.1-6.1-1.1-11.9-2.8-17.7-4.7-5.4-1.8-11.7-3.6-17.3-1.3-3.7,1.5-6.5,4.7-7.2,8.6,0,.5.6.8.9,1,8.7,3,17.6,5.5,26.8,6.7,9.7,1.2,20.1,1.1,28.7-4.3.8-.5,1.4-1.2,1.5-1.9.1,0,.3,0,.4,0,.5.8,1,1.5,1.5,2.2,0,6.9-1,13.8,0,20.7,1.4,10,7.2,18.7,16.8,22.3,5.5,2.1,12,2.3,17.5.3,2.8-1,9.6-6.4,3.9-8.5-2.3-.8-3.9-2-5.6-3.9-1.7-1.8-3.3-3.7-5-5.7-3.1-3.7-5.9-7.5-8.5-11.5-2.8-4.4-5.5-8.9-8-13.5-1.2-2.3-2.4-4.8-3.7-7.2,4.7,4.6,10.7,7.7,16.9,9.6,11.7,3.4,23.3,2.1,35.3,2,.9,0,3.3-.6,2.6-2-.4-.9.3-1.8.3-2.6,0-1.2-.3-2.1-1.1-3.1-2.1-2.6-5.5-3.9-8.6-5-6.3-2.2-13-3.6-19.7-4-7.1-.4-14.1,0-21.1.6-1.1-1.2-2.1-2.4-3.1-3.8.5-.3,1.1-.5,1.6-.8,3.8-2.1,7.5-4.7,10.7-7.7,6.1-6,11.3-13.7,14.6-21.6,1.6-3.9,3.6-7.9,4.2-12.1.7-5.1-4.9-6-8.7-5-9.4,2.5-16.6,11.4-21.1,19.4-3.2,5.6-5.3,11.5-6.9,17.6v-3.1c-.2-6-1.3-12-2.7-17.8-1.4-5.4-3.2-10.6-5.6-15.6-1.2-2.6-2.6-5.3-4.1-7.8-.3-.5-.7-1.1-1-1.5-.4-2.9-1.4-5.4-4.7-6.7-2-.7-5.4.8-3.9,2.3h0c1.4,1.8.5,5,.3,7.1-.4,3.3-.3,6.6,0,9.9.4,6,1.4,11.9,2.9,17.8,1.5,6.1,3.3,12.1,5.2,18,.7,2.1,1.4,4.5,2.3,6.8-1.1-.4-2.2-.7-3.3-1.1-4.9-1.8-9.5-4.1-14-6.8-9.2-5.4-18-11.5-27.3-16.8-10.3-5.8-20.6-11.2-31.2-16.4-.4-.2-.8-.4-1.3-.6.4,0,.7,0,.8-.1,1.4-.4,2.4-1.2,2.9-2.3,5.9-5.4,10.9-11.8,16.8-17.4,6-5.6,12.4-10.7,19.3-15.1,3.5-2.3,7.8-4.2,10.8-7.1.8-.8,1.5-1.9,2.4-2.7,1.5-1.4,3.6-2.5,5.4-3.5,7-4.2,14.3-6.7,22.4-7.7,14.8-1.7,29.9,1.6,42.6,9.4,6.1,3.7,11.7,8.1,16.6,13.2,5.9,6.2,9.9,13.5,13.4,21.2,3.6,8.1,6.3,16.6,8.6,25.1,2.5,8.9,5,17.9,6.8,27,1.8,9.3,2.7,19.1.3,28.4-2.1,8-6.5,15-12.2,21-5.5,5.7-11.8,10.5-18.5,14.7-7.5,4.7-15.4,9-23.8,12-16.3,5.8-32.1,4.6-48-2.3-17.4-7.5-31.5-20.8-42.6-35.8-5.7-7.8-11.1-16.4-15.3-25-4.5-9.3-7.2-19.7-5-30,.6-2.8-6.1-2.5-7.2-.6-9.4,17.4-1.3,38.6,8.2,54.2,9.9,16.4,23.3,31.1,40,40.8,18,10.5,40.1,15.5,60.8,12.5,20.1-2.9,39.2-13.3,55.1-25.7,15.1-11.8,25.9-27.7,26.7-47.3.4-10.7-1.8-21.2-4.1-31.6-2.1-9.7-4.2-19.5-7.5-28.9-6.2-17.7-16.9-33.6-33.2-43.5-14.8-9-33.3-12.6-50.4-12.6-8.5,0-16.8,1.2-25,2.9-9.3,1.8-18.1,4.6-27.1,7.2-5,1.4-9.3,4.6-13.3,7.8-3.3,2.6-6.5,5.4-9.5,8.4-6.2,6.3-11.6,13.4-16.3,20.9-2.1,3.4-3.8,6.7-4.6,10.7-3-1.5-6.2-2.7-9.5-2.8-.9,0-1.8.1-2.7.4,1.4-1.3,2.9-2.7,4.3-3.9.6-.6,1.3-1.1,1.9-1.8-.9,1.3-1.9,2.5-3,3.6-1.1,1.1,1.9,1.7,2.8.9,2.6-2.5,4.9-5.4,6.3-8.9.5-1.3-2.3-1.3-2.9-.7-2,1.9-4.9,3.1-7.2,4.6-2.2,1.4-4.3,2.9-6.4,4.6-4.2,3.3-8.2,6.9-12,10.7-4.6,4.5-9.3,8.9-14.3,12.8,2.9-3.5,6-6.8,9.1-10.2,6.7-7.4,13.6-14.5,20.7-21.4,3.8-3.6,7.7-6.8,12-9.9,4-2.9,8.4-5.2,12.4-8.3,1.9-1.5,3.5-3.2,5.1-5,.3,0,.6,0,.7,0,5.4-2.5,10.3-6.7,15-10.3,2.3-1.8,4.7-3.6,6.9-5.4,2.5-1.1,4.8-2.9,7.1-4.6,3-2.3,6.4-4.2,9.8-5.7,2.2-1,4.4-1.8,6.7-2.4.5.7,1.4,1.1,2.9,1.1,6.8,0,13.6,0,20.2-1.9,5.2-1.4,10-4.8,14.9-7.2,17.9-.6,35,5.5,52.6,8.8,10,1.8,20.1,3,30.2,3.5,4.9.2,9.7.3,14.6.1,4.6-.1,9.4,0,13.8-1.3.8-.2.4-.9-.2-1.1-4.9-1.1-10-.8-15-1.2-5-.4-10.1-.9-15.1-1.4-10.2-1.1-20.4-2.8-30.5-5-12.9-2.8-26.8-6.4-40.4-6.3,3.2-1.1,6.4-2,9.6-2.9,6.3-1.8,12.6-3.8,19-5.1,9.7-1.9,19.4-3.5,29-2.9,4.1,1.3,8.6,2,12.9,2.1,10.3,2.8,20.1,7.5,29.4,12.6,7.1,3.9,14.1,7.8,21.2,11.8.4.2.8.4,1.2.7-2.1-.3-4.3-.4-6.5-.4s-5.4.7-8.1,1c-3.6.3-3,3.5,0,4.1,2.5.5,4.6,1.5,7.2,1.8,2.9.4,5.8.5,8.8.3,2.8-.2,5.6-.4,8.4-.6.6,0,1.4-.2,2.4-.4,3.5,1.2,7.1,2,10.6,1.7,2.3,0,4.7-.6,5.3-2.3,1.1-3.1-1.5-5.5-3.7-7.3-3.2-2.7-6.8-4.7-10.5-6.7-6.6-3.6-13.2-7.4-20-10.8-6.6-3.4-13.4-6.7-20.3-9.4,6.1-2.1,12.1-5,17.4-8.6,20.8-14.1,32.4-36.1,39.4-59.7v-.2ZM132.1,363.6c-7.8,0-15.5-1.4-23.1-2.6.4-2.2,2.3-3.9,4.6-4.2,2.1-.3,4,.8,5.8,1.6,4.4,2,8.6,3.9,13.1,5.2h-.4ZM185.6,390.6c1.9,2,3.9,3.9,5.9,5.8.9.9,3.1,2.4,4.3,3.9-.3,0-.8-.1-1.1,0-.2,0-.4,0-.6-.2h-.2c-1.1-.4-2.2-.7-3.3-1.1-.2,0-.3,0-.2,0,0,0-.1,0-.3-.1-.5-.3-1.1-.6-1.6-.9-.9-.6-1.1-.8-2.1-1.8-1.9-1.9-3.2-4.1-4.6-6.4-1.3-2.1-2.3-4.4-3.3-6.7,2.3,2.6,4.7,5.1,7.1,7.6h0ZM193.5,359.2c5,.9,10,2.2,14.7,4.3,2.2,1,4.3,2.2,6.6,3.2.6.3,1.2.4,1.8.6-12.4,0-25.4-2.1-35.1-9.4,4.1.2,8.1.6,12.1,1.3h0ZM194.7,311.6c1.5-1.1,3.1-2,4.6-2.9,0,0,.2,0,.3-.2.1.3.3.6.3.8.2,1.7-.5,3.7-1,5.3-.5,1.9-1.1,3.8-2,5.7-3.4,7.2-8.4,13.2-14.7,18-3.4,2.6-7,4.9-10.7,6.8,5.2-12.8,11.8-25.1,23.3-33.4h0ZM155,303.9s.1.3.2.5c1.9,5.1,3,10.5,3.5,15.9.3,3.1.4,6.2.4,9.3-.8-3.2-1.5-6.5-2.1-9.8-1-5.3-1.7-10.5-2-15.9h0ZM203.3,154.5c2.6-5.7,4.8-11.8,6.6-17.9,1.2.6,2.5,1.1,3.7,1.6,1.9.6,3.9,1.2,6,1.4.4.4,1,.8,1.4,1.3,0,.4,0,.7,0,1.1-.5.2-1,.4-1.4.8-6.5,6.1-13.2,11.9-19.5,18.2,1.1-2.1,2.2-4.3,3.2-6.5h0ZM210.9,132.7c.8-3.1,1.5-6.3,2.1-9.4.5,1.5,1,3,1.5,4.5.9,2.6,2.1,5.2,3,7.8.2.5.4,1,.5,1.4-.7-.2-1.3-.5-1.9-.8-1.8-.9-3.6-2.1-5.1-3.5h0ZM98.4,228.1c-1.3,5.4-2.6,10.8-3.9,16.2-1.1,4.1-2.9,8.9-2.9,13.3-.7.2-1.3.4-1.8.7-5,2-8.9,5.6-11.5,10.3-1.1,2-1.2,4.3-2.1,6.4-.8,2.1-2.2,4.3-3.9,5.9-4.3,4-9.9,7-14.9,10.1-4.5,2.8-8.9,5.7-13.4,8.7,6.8-11.8,8.9-26.9,9.7-39.9v-1.4c2.5-4.1,4.4-8.7,6.4-12.9,2.6-5.6,5-11.4,7.2-17.1,2.2-5.7,4.3-11.5,6-17.5.8-2.9,1.4-5.9,2-8.9.2-.8.3-1.6.5-2.5,4,1,8.2,1.6,12.3,1.7,4,0,8.1-1,11.8-2.5,0,1.2.2,2.3.4,3.5.4,2.8,2.3,6.1,2.1,8.8-.2,2.7-1.2,5.6-1.8,8.2-.7,2.9-1.4,5.8-2.1,8.7h0ZM118.2,243.5c-.9.8-1.8,1.6-2.7,2.5-3.3,1.3-11.2,4.3-9.6,8.6,0,0,0,0,0,0-.7.7-1.5,1.4-2.3,2.1h0c-.8-.3-1.8-.4-2.7-.5,1.3-3.8,1.7-8.1,2.4-11.8,1-5.6,2-11.3,2.9-16.9.4-2.5.7-5,1.1-7.5.4-2.8.4-6.1,1.3-8.8.6-1.8,1.9-3.2,3.1-4.7,8.2,3.4,17.9.6,25.6-2.7,3.7-1.6,7.3-3.3,11-5.1,3.1-1.5,6.3-3.2,8.6-5.8h0c.7-.8-.3-2.1-1.9-2-7.7.1-15.4,2.4-22.7,4.5-1.6.5-3.3.9-5,1.4-.1,0-.3,0-.3,0-.4,0-.7.2-1.1.3-.7.2-1.5.3-2.2.4-.9.1-1.8.2-2.6.4h-1c-.7,0-1.4,0-2.2,0s-1.2,0-1.8,0c.2-.6.5-1.2.7-1.8,3.6-10.5,4.2-22,5.4-32.9.6-5.5,1.1-11,1.3-16.5.1-2.8.2-5.7,0-8.6h.4c5.4,0,10.8-.4,16.1-.8,5.1-.4,10.2-.9,15.4-1.5,3.9-.4,8.9-.3,11.6-3.6.5-.7.4-1.4-.4-1.8-7.8-3.8-17.5-3.6-26-3.9-7-.3-14.2-.4-21.3.3-.3-1.8,0-3.3.7-4.6,1.1.1,2.2,0,3.3,0,2-.1,4-.3,6-.7,3.9-.6,7.7-1.7,11.4-3,3.6-1.3,7.1-3,10.3-5,.8-.5,1.5-1,2.3-1.4.9-.5,2.1-.9,2.9-1.7,1.1-1.2.4-2.9-.6-3.9-1.3-1.7-4-2-6.1-2-2.7,0-5.4.7-7.9,1.3-4.9,1.1-9.6,2.5-14.2,4.4-4,1.6-8.1,3.5-10.7,7.1-2,2.9-2.6,6.7-1.1,9.9-.3,0-.7,0-1,.1.1-8.3-.7-16.4-2.1-24.5-.7-4.1-1.6-8.2-2.5-12.4-1.1-4.8-2.7-9.4-2.9-14.4,0-3-6.9-3.1-7.9-.6-3.3,8.7-2.3,19.7-1,28.8.7,4.6,1.7,9.2,3,13.7.3,1,.7,1.9,1,2.9-.6-.3-1.1-.5-1.7-.7-5.3-2.3-10.5-4.7-15.8-7-2.7-1.1-5.4-2.5-8.2-3.3-1.6-.5-3.3-1-5-1.2-2.2-.4-3.2.2-4.8-.7-.8-.4-3.6-.7-3.6.9.2,9.3,6.3,17.4,14.2,22.1,9.3,5.5,20.9,6.7,31.5,5.4.2,0,.3,0,.4,0-.2.6-.4,1.2-.5,1.8-.6,2.5-1.2,5.1-1.7,7.6-1.1,5.4-1.9,11-2.7,16.5-1.6,10.8-4.5,21.9-4.3,32.9v.4c-3.6-.7-7.1-1.9-10.7-2.7-3.5-.7-7.1-2.1-10.4-3.6-7-3.1-13.6-7.7-19.2-12.9-11.9-11.1-20.4-25.2-25.7-40.6-5.1-15-6.8-31.9-4.1-47.5,2.8-16.1,10.8-30.5,22.6-41.7,12.5-11.9,28.1-20.8,44-27.5,16.1-6.8,34.5-10.4,51.6-5.2,7.2,2.2,14.1,5.7,19.5,10.9,6,5.7,10.4,12.9,14.5,20,8.5,14.8,14.9,31.7,17.5,48.6,1.4,8.9,1.6,18.1.8,27.2h-.5c-.6,0-1.7.3-2,1-.4,1.3,0,2.8.5,4,.3.7.7,1.4,1.1,2.1-1.1,7.4-2.9,14.7-5.3,21.6-6.1,17.5-16.5,31.9-28.2,46.1-1.5,1.8.7,2.6,2.9,2.6-7.6,7.9-16.1,14.7-24.4,22-8.9,7.8-17.5,15.9-26.1,24h0ZM121.4,129.5c6,.1,12,.2,18,.8,6.6.6,13.3,2.2,20,2.5-2.6.5-6.4.7-7.3.7-4.1.4-8.2.6-12.2.7-3.9.1-7.9.2-11.8,0-1.5,0-3.5.2-5.1-.1-.4-1.6-.8-3.1-1.4-4.7h0ZM124.2,117.9c2.5-1.5,5.6-2.5,8-3.2,3.6-1.1,7.2-1.9,10.8-2.6.4,0,.8-.1,1.3-.2-3.1,1.9-6.7,3.2-10,4.3-2.7.8-5.4,1.4-8.2,1.7-.6,0-1.2,0-1.8.1h0ZM107.2,132.8s-.1.4-.1.6c-8.9-.4-18.4-.7-26.4-5.2-5.2-2.9-9.6-7.5-11.8-12.9,1.1.8,2.2,1.5,3.4,2.1,4.4,2.3,8.9,4.5,13.5,6.4,4.3,1.8,8.8,3.6,13.4,4.7,2.5.7,5,1,7.5,1.6.1,0,.3,0,.4.1.4.9.5,1.8.2,2.5h0ZM184,227.1c-7.1,3.4-14.8,5.1-22.5,6.1-3.8.5-7.3,1.4-11,2.6-3.4,1.2-6.9,2.7-10.4,3.5-.7.2-1.1.4-1.5.7-2.4.3-4.7.7-7.1,1.2,6.2-5.1,12.2-10.4,18.1-15.9,8.7-8.1,16.4-17.4,25.3-25.3,4.5-4,8.9-8.1,13.6-12,1-.8,1.9-1.6,2.9-2.4,1.4,2.5,2.5,5,3.7,7.7,1.9,4.1,4,8,7.1,11.4,3.8,4.1,8.8,7.2,14.4,8.1.4,0,.8.1,1.3.2-11.8,3.3-22.9,8.9-33.9,14.1h0ZM271.9,213.5c-.3,0-.6,0-.9.1-3.4-1.1-6.8-1.9-10.3-2.6-6.7-1.3-13.3-1.8-20-1.6-1.3-.4-3.4-.2-5.1.3-1,0-1.9.2-2.9.3.4-.3.7-.5,1.1-.8,1.4-1.2.7-3-.5-3.9-1.7-1.3-4.3-1.6-6.4-1.3,0,0-.5,0-.8.1h-.6c-.2,0-.4,0-.6-.1.3,0,.4.2-.2,0h-.2s0,0,.2,0c0,0-.2,0-.2,0h-.2.1c-.7-.4-1.4-.6-2.1-.9-.3,0-.5-.2-.8-.3-.5-.2-.4-.1.5.3-.4.3-4.4-2.4-4.9-2.7-.4-.2-.7-.4-1-.7,0,0-.4-.4-.6-.5-.8-.7-1.5-1.3-2.2-2-5.6-5.3-10.8-11-17.1-15.4,2.4-1.9,4.7-3.9,6.9-6,4.7-4.3,8.9-9,12.9-13.9-1.2,4.3-2.3,8.6-3.4,12.8-1.3,4.7-4,11.5-.1,15.7,3,3.2,9.2,4.8,12.9,2.1,2.7-2-.7-3.2-2.9-3.2h0c-.2-.4-.3-.6-.4-.9-.3-.6-.4-1.4-.5-2.1-.3-2.1,0-4.3.5-6.4.7-4.5,1.4-8.9,2.1-13.4.4-2.9.8-5.7,1.2-8.5.3,1.3.6,2.6.8,3.9.7,4.4.9,8.9.6,13.3-.4,4.3-1.9,8.6-2,12.8,0,1,1.9.9,2.4.4,3-3.5,4.5-8.3,5.6-12.7,1-4.2,1.7-8.6,1.6-12.9,0-3.2-.5-6.4-1.1-9.6,2,1.2,4.2,2.1,6,2.9,4.3,1.9,8.5,4.3,12.4,6.9,4,2.7,7.9,5.8,11.6,8.9.5.4,1.1.9,1.5,1.4.3.9.7,1.8,1,2.7.7,1.5,1.4,3.1,2.3,4.5,1.2,1.9,2.4,2.5,4.3,3.5.8.7,2.6.6,3.3,0,1.7-1.3,2.9-1.9,3.4-4,.4-1.7.7-3.4.7-5.1,0-3.6-1.1-7.6-2.6-10.8-3-6.3-7.4-12-13.2-16-6.4-4.4-13.7-7-21.3-8.8,2.5-2.9,4.8-6.1,6.7-9.3,6.9-12.2,8.8-26.8,10.8-40.4.5-3.5-7.7-3.2-8.9-.7-4.3,8.8-8.5,17.6-12.6,26.5-2,4.2-3.9,8.5-5.8,12.7-.7,1.5-1.5,3.1-2.3,4.6-.4-.7-.7-1.5-1-2.1-2.5-5.7-4.5-11.6-6-17.6-1.6-6.4-2.5-13.1-5.5-19-.5-1-1.9-1.5-3.3-1.5-.9-15-4.2-29.8-10.8-43.3,1.6-.9,3.2-1.9,4.8-2.8,1.3-.7,2.6-1.1,4-1.6,1.9-.7,3.2-1.7,4.9-2.8,4.8-3.2,9.9-6,15.3-8,5.4-2.1,10.3-3.4,16.1-3.9,0,0,2.3,0,2.6,0,1.5,0,3,0,4.5,0h.7c.6,0,1.1.1,1.7.2,1.8.2,3.7.5,5.6.9,4.2.8,9.8,2.8,13.8,4.7,4.7,2.3,9.3,5,13.5,8.3,8.6,6.7,16.1,15,22,24.2,6.5,10.3,11.5,21.4,13.2,33.6,1.7,12.1,1.1,24.6.3,36.8-1.5,21.7-9,44.4-25.2,59.6-8,7.5-18.7,13.2-29.6,15.1h0ZM230.7,141.8s0,0,.1,0c.5-.4.9-.9,1.4-1.4.4.1.8.2,1.3.4-.6.6-1.2,1.2-1.8,1.8-.2.1-.4.4-.6.7,0-.4-.2-.9-.3-1.3h0ZM238.6,134.2c-.9,1.3-1.8,2.6-2.8,3.8-.6,0-1.1-.2-1.7-.3,1.9-2.8,3.5-5.8,5.1-8.6,2.5-4,4.8-8.1,7.1-12.2-.5,1.7-1,3.3-1.6,4.9-1.6,4.3-3.6,8.6-6.1,12.4h0ZM239.2,142.6c5.7,2.1,11.1,5,15.3,9.3,3.4,3.6,5.7,7.6,7.2,12.1-1-1.1-2.1-2.1-3.2-3.1-6.8-6.1-15-10.1-22.4-15.4,0,0-.2,0-.3-.1.5-.4,1-.7,1.4-1.1.7-.5,1.3-1.1,2-1.8h0Z"/>
</svg>