<?xml version="1.0" encoding="UTF-8"?>
<svg id="Camada_1" xmlns="http://www.w3.org/2000/svg" version="1.1" viewBox="0 0 366.1 387.6">
  <!-- Generator: Adobe Illustrator 29.8.5, SVG Export Plug-In . SVG Version: 2.1.1 Build 2)  -->
  <defs>
    <style>
      .st0 {
        fill: #f18322;
      }
    </style>
  </defs>
  <path class="st0" d="M356.8,16.4c-3.5-1.9-12.5-2.7-14.3,2.2-1.2,3.3.5,7.2,0,11.1-.7,5.2-3,9.9-4.3,15-.7,2.5-.6,4.9-.9,7.5-.1,1-.3,1.9-.6,2.9-3.3,5.6-6.9,11.1-10.7,16.5-6,4.1-14.4,5.6-21.3,6.3-12.9,1.3-25.8,1.1-38.7,1.2-17.5.2-35.3,1.5-51.8,7.6-13.5,5-26.7,12.8-39,20.2-6.7,4.1-13.3,8.6-19.1,14-2.5,2.3-5.9,5.3-7.4,8.4-1.5,3.1.4,6.2,2.6,8.5,1.2,1.2,3.5,1.2,5,.7,1.3-.4,2.7-.9,4.2-1.4,0,0,.2.1.3.2,3.4,1.6,7.4,2.2,11.1,2.6,8.2.9,16.7.4,24.8-1.2,7.5-1.5,15.5-3.6,22.1-7.7,5.4-3.3,9.9-7.8,14.3-12.3,4.9-5.1,9.9-9.5,16.6-12.2,4.4-1.8,9-2.7,13.6-3.7,10.5-2.3,21-4.3,31.3-7.2,2.7-.8,5.3-1.6,7.9-2.6-4,5.5-7.2,11.6-10.6,17.4-4.8,8.1-10.5,14.2-18,19.2-.4.2-.8.3-1.2.5-9.2,3.4-18.4,6.6-27.6,10-17.5,6.5-35,11.8-53.7,13.4-19.2,1.6-38.5-.4-57.6-2.5-17.3-1.9-35.1-3-51.8-7.9-4.5-1.3-9-2.9-13.2-4.9-4.2-2-8.1-4.7-12.5-6.4-7.6-2.9-15.3-6.7-23.5-7.4-1,0-1.9-.1-3,0-2.4,0-3.7,2.5-.7,3,.4,0,.8.2,1.3.3,1.2,4,1.4,8.1,1.4,12.2,0,3.8-.9,7.1.2,10.9,2.5,8.8,10.7,15,18.7,18.7,11.4,5.4,23.3,6.6,35.7,7.4,5.5.4,11.1.8,16.6,1.8,6.8,1.2,13.2,4,20,5.5,25.5,5.3,51.5-1.8,75.3-10.7,12.1-4.6,23-11.1,34.6-16.8,11.7-5.8,23.6-11,35.5-16.3,1.4-.6,2.8-1.3,4.1-1.9-10.8,12.6-21.8,24.9-33.5,36.7-22.8,22.9-55.7,27-85.4,35.8-28.4,8.5-56.8,22.1-81,39.2-13.5,9.5-25.4,20.2-35.1,33.5-10.5,14.4-19.8,29.8-29.9,44.6-1.9,2.7,2.3,5.3,4.2,6,3.6,1.3,7.8.9,11.2-.8,6.3-3.2,10-10.1,15.2-14.7,5.9-5.3,12.2-10.8,18.9-15,15.4-9.8,34-11.8,49.9-20.6,29.7-16.5,53.2-41.9,81.6-60.2,7.2-4.6,15-8,22.5-12.1,7-3.9,13.7-7.7,15.7-15.9,0-.3.1-.7.1-1,5.1-3.1,9.9-6.4,14.6-10.1,11.4-9,23-18.1,33.5-28.1-3.7,7.7-5.8,16-8.1,24.3-3.3,11.8-9.2,21.8-16.7,30.9-.5.1-.9.2-1.1.4-4.1,3.5-7.3,7.4-10,11.7-.8.8-1.7,1.7-2.5,2.5-6.8,6.6-14.1,12.6-21.2,18.9-6.9,6.1-13.7,12.3-21.2,17.7-7.6,5.5-15.7,10.5-24,15-3.8,2.1-7.8,3.6-11.8,5.5-3.4,1.6-6.2,3.9-9.3,6.1-7.4,5.3-11.1,12-15.1,20-2,4.1-3.7,8.3-5.5,12.6-1.8,4.4-3,9.4-5.4,13.5-1,1.7,3,1.8,3.8,1.3,7.1-4.7,15.4-5.8,23.6-7.2,8.4-1.4,16.6-3.8,24.4-7.1,17.2-7.2,34.5-17.9,48.1-30.7,5.3-4.9,10.4-11.1,13.2-17.8,2.7-6.2,3.7-13.3,4.8-19.9,1-6.4,1.4-13.1,2.9-19.5.3-.3.5-.6.8-1,5.5-6.7,10.3-13.9,15.4-21,4.9-7,9.8-14.2,12.7-22.3,3.6-9.9,4.5-20.5,7.9-30.4,2.3-6.7,5.4-13,8.8-19.2,3.1-3.8,6.2-7.6,9.1-11.5-.9,4.4-1.4,9-1.7,13.2-1.2,21.7,5.5,43,4.8,64.6-7.9,2.7-14.9,10.1-19.8,16.4-6.9,9-15.3,16.9-21.6,26.3-6.6,9.8-11.9,20.6-17.2,31.1-5.4,10.6-9.7,21.9-12,33.6-.8,4.2,7.9,3.2,9.7,2.3,14-6.8,22.5-20.5,33.1-31.3,2.3-2.3,4.5-4.7,6.7-7-7.7,17.3-15.7,34.5-20.9,52.5-1.8,6.3-3.3,12.6-4.6,19-.7,3.3-1.4,6.6-2,9.9-.6,3.4.7,6.8.7,10.3,0,5.4-.7,17.1,7.8,13.9,8.8-3.2,15.8-14,21.1-21,8.2-10.7,15.9-22,22.9-33.6,2.3-3.8,4.9-7.7,6.3-11.9,3.8-10.9,3.6-23.7,3.4-35.1-.3-12.3-.5-25-1.9-37.3,1.5-4.5,2.8-9.1,3.9-13.8.3-1.3.6-2.6.8-3.9,4.4-3.6,9.1-6.8,12.6-11.3,3.4-4.3,6.5-9,9.1-13.8,5-9.4,6.6-20.2,8.5-30.6,1.9-10.3,3.3-20.6.9-30.9-.4-1.8-.9-3.6-1.3-5.3.1-.5.2-1,.3-1.6,1.7-10.7-.2-22-1.8-32.7-1.6-10.5-2.9-20.9-6-31.1,4.2-7.5,7.7-15.2,10.3-23.1.7-1.1,1.4-2.1,2-3.2,2.6-4.6,4.9-9.6,6.7-14.5,1.8-4.8,2.7-9.3-2.5-12.3h0ZM135,180c-12,.3-22.2-4.3-33.6-7.1-10.6-2.6-21.4-4.1-31.9-6.8-9.7-2.5-22.1-6.8-26.4-16.7-2.7-6.1-4.5-12.4-6.6-18.7,1.3.9,2.5,1.9,3.6,3,2.8,2.7,4.2,5.8,7.5,8.2,7.4,5.3,16.5,8.6,25.3,11.1,18.1,5.2,36.9,6.7,55.6,8.8,20.1,2.2,40.5,3.8,60.7,2.4.4,0,.7,0,1.1,0-17.9,7.3-35.4,15.6-55.1,16h0ZM181.6,215.9c-13.9,9.9-27.6,20.3-42,29.6-7.2,4.7-14.6,8.9-21.7,13.7-6.7,4.6-13,9.7-19.7,14.1-13.8,9.1-29.8,14.1-43.4,23.7-5.3,3.8-10.4,8-15.4,12.2,3.6-5.6,7.2-11.1,11-16.5,8.7-11.9,18.7-22.5,30.5-31.4,24.2-18.3,51.9-30.9,80.2-41.5,9.3-3.5,18.9-6.3,28.4-9.5-2.7,1.8-5.3,3.7-8,5.5h0ZM206.6,285.4c-13.5,12.3-28.8,22.3-45.2,30.2-9.6,4.6-22.4,6.7-31.7,12.8.9-1.7,1.8-3.4,2.6-4.9,2.2-4.3,4.7-8.3,7.4-12.3,4.8-7,11.2-14.5,19.6-17.3,3.9-1.3,8-1.8,11.9-3.3,4.2-1.6,8.2-3.6,12.1-5.7,8.5-4.6,16.6-9.9,24.3-15.7,6.5-4.9,12.7-10.3,18.5-16.1-4.4,12-9.9,23.5-19.5,32.3h0ZM301.8,87.4c-5.2,2.8-10.9,5-16.6,6.7-11.3,3.5-23,5.3-34.5,8.2-14.9,3.8-28.2,13-41.8,19.9-7.9,4-15.9,7.2-24.8,8.5-4.5.7-8.9.7-13.4.6-.8,0-1.6,0-2.4,0,1.2-1.5,2.4-3,3.8-4.3,5.2-4.9,11.1-8.9,17.2-12.6,12.1-7.3,25.2-15.4,38.7-19.8,24-7.8,50-2.8,74.4-7.6-.2.1-.4.2-.6.3h0ZM277.9,264.6c-4.7,6.1-10.2,11.4-15.5,17-5.5,5.8-10.5,12.5-16.1,18.4,6.6-17.1,18-32.2,29.8-46.2,6.4-7.6,12.5-16,17.1-24.9,1.9-3.6,3.4-7.2,4.9-10.9.9-2.3,1.8-4.7,3.2-6.9,0,1.2-.2,2.4-.4,3.5-1.2,9.4-3.5,18.5-6.3,27.4-1.1.1-2.1.5-2.4,1.1-2.1,4-5,7.5-7.4,11.3-2.1,3.5-4.3,6.9-6.8,10.1h0ZM310.3,300.3c-.5,6.5-1.1,13.3-4,19.2-4.9,9.8-11.1,19-17.2,27.9-6.9,10.1-14.2,20.5-23.1,29.1-1.5,1.4-3,2.9-4.8,3.9-.2,0-.5.3-.8.5,1.2-3.9,2.7-7.5,4.2-11.3,1.2-3,3.6-5.3,4.8-8.2,1.3-3.1,2.1-6.6,3.1-9.8,1.9-5.9,3.8-11.7,5.5-17.7,7.7-26.7,21.1-51.3,30.9-77.1.3,3.6.5,7.1.8,10.7.8,10.9,1.4,21.9.7,32.8h0ZM317,174.1c-1.2-6-2.5-12.1-3.5-18.2-1.4-8.8-2.2-17.8-3.3-26.7-.5-3.9-.9-7.9-1.3-11.8,0-.7,0-1.7,0-2.8.3-.4.5-.7.8-1.1,6.3-8.3,13-17,19.2-26.1.3,3.3.7,6.3.9,8.2.9,10.9,1.7,21.9.7,32.8-1,10.4-2.1,20.8-5.2,30.8-1.6,5.1-3.7,9.6-7.2,13.6-.3.4-.7.8-1,1.2h0ZM342.8,148.9c.3-.7.6-1.5.9-2.2.2,2.6.1,5.2-.3,7.8-1,5.3-2.7,10.6-4.4,15.7-3.5,10.1-9,19.2-13,29.1-1.8,4.5-3.7,8.9-5.7,13.3.6-6.1.6-12.2,0-18.3-.2-2.1-.4-4.2-.7-6.3.5-.4.9-.8,1.1-1.4,0,0,0,0,0-.1.8-.7.7-1.5.2-2.1,1-2.1,7.1-7.4,8.1-8.6,3.2-3.6,5.9-7.5,8.1-11.8,2.4-4.9,3.9-10,5.9-15h0Z"/>
</svg>