<?xml version="1.0" encoding="UTF-8"?>
<svg id="Camada_1" xmlns="http://www.w3.org/2000/svg" version="1.1" viewBox="0 0 718.7 730.1">
  <!-- Generator: Adobe Illustrator 29.8.5, SVG Export Plug-In . SVG Version: 2.1.1 Build 2)  -->
  <defs>
    <style>
      .st0 {
        fill: #f18322;
      }
    </style>
  </defs>
  <g>
    <g>
      <path class="st0" d="M598.9,523.4c-4.8,7-7.6,15.2-12.6,22-2.8,3.9-5.9,7.6-8.3,11.7,1.1-16.9,1.9-33.7-.5-50.6-1.6-11.8-3-23.5-3-35.5,0-2.1,0-4.2-.2-6.2,4.3-4.2,9.4-7.2,14.2-10.9,2.6-2.1,5.1-4.5,6.8-7.4,2-3.5,1.6-6.5,1.8-10.4.1-2.4-4.3-2.2-5.5-1.3-2.3,1.6-4.6,3.3-6.7,5,.5-.7.9-1.5,1.4-2.2,2.8-4.8,6.9-11.5,4.5-17.1-.5-1.2-2.6-1.5-3.7-1.2-4.3,1.3-7.1,4.5-9.1,8.2,1-4.6,1.9-9.2,2.8-13.9,1.7-2.9,3.7-5.4,5.9-7.7,6.7-3.3,13.5-6.3,19.2-11.3,2.9-2.6,13.4-10.5,11.4-15.6-2.9-7.4-13.1,4-15.4,6-3.6,3.2-7.5,5.9-11.2,9,2-1.9,3.9-3.9,5.5-5.6,3.7-3.8,11.9-11.7,9.3-17.7-.5-1.2-2.3-1.5-3.5-1.4-6.6.3-10.6,5.9-13.8,11-.1.2-.2.4-.4.6,1.4-6.4,2.6-12.9,3.5-19.4.2-1.5.4-3.1.5-4.6.4-.9.9-1.8,1.3-2.6,3.6-1,7.3-2.7,10.4-3.9,6.3-2.6,11.5-5.9,16.2-10.9.5-.6.8-1.3.1-1.9-4.9-5.5-13.2-1.8-18.4,1.3-2.5,1.5-4.6,3.2-6.5,5.3,1.1-2.9,2.2-5.8,3.4-8.7.8-1.1,1.6-2.2,2.5-3.2,3.3-4,7.3-7.3,10.4-11.5,2.6-3.4,8.1-13.4,1.1-15.5-7.2-2.1-11.1,4.7-13,10.4,1.9-10.6,4.4-30.3-8.6-28.1-6.7,1.1-8.1,7.8-7.8,13.6.4,8.2,1.7,16.8,2.8,25,.9,7.5,1.1,14.9.8,22.2-1-4.7-2.8-9.5-3.5-13.6-1.2-7.9-1.8-15.8-6.1-22.8-.5-.8-1.5-1-2.3-.8-10.6,2.6-5.5,17.3-2.8,24.2,4,10.2,9.8,18.9,13.1,28.9-.4,2.8-.9,5.6-1.4,8.4,0,0,0,.2-.1.3,0,.1,0,.3,0,.4-.8,4.4-1.8,8.9-2.8,13.4-.9,4.1-1.8,8.2-2.7,12.2,0,0-.1,0-.2.1.2-4.3,1.1-9,1.3-12.1.3-4.9.7-9.8.8-14.8.1-5.9,1.5-18-5-21.3-9.1-4.7-10.7,6.2-10,12.5,1.2,10.6,6.8,20,9.6,30.2-1.6-3.3-3.5-6.6-5.6-9.5-5.8-8.1-8.8-18.1-16.5-24.7-.3-.3-.7-.4-1.1-.5-3.6-10.3-7.6-20.3-12.6-29.9-1.1-8.6-4.1-17.3-6.6-25.4-1-3.3-2-6.6-3-9.9-2.4,1.3-4.9,2.5-7.4,3.6,1.6,3.9,3.1,7.8,4.6,11.8-.8-1.1-1.6-2.1-2.4-3.2-1.9-2.4-3.9-4.8-5.9-7.2-2.6,1-5.3,1.8-8.1,2.6,9.4,13.2,18.9,26.5,25,41.5,3.3,8.1,6.2,16.4,8.8,24.8-.2,3.4,1.1,6.9,3,10.2,3.2,11.5,6,23.2,8.3,34.7,4.9,24.5,10.1,48.8,13.4,73.6,1.6,11.9,4.4,23.6,5.1,35.7.7,12.2-.4,24.1-1.4,36.2-1.1,13.8-1.2,27.6-3,41.3-.8,5.9-1.7,11.7-2.7,17.6,0-.1,0-.3,0-.4-.8-4.6-2.5-9-5.9-12.1,6-10.8-16.4-14-23.1-14.9-6.7-.9-13.6-2.6-20.2-.2-3.4,1.2-6.8,3.3-9.2,6-2.6,2.8-4.4,7.9-8,9.6-1.4.2-2.8.5-4.1.9-7,2.1-11.8,6.8-12.8,14.1-.9,7.2-.2,17.6,3,24.2.5,1.1,3.4,1.4,3.8.1,4.2-11.2-3.7-30.3,11.5-35.6,5.3-1.8,11.3-2.1,16.8-3.4,5.7-1.4,11.7-2.7,17.6-3,7-.3,10.2,1.7,12.6,8.4,1.2,3.4,2,6.7,3.9,9.8,2.2,3.7,6.1,7.1,6.4,11.7.3,4-1.1,9.1-1.8,13.1-.7,4.3-1.3,8.4-1.5,12.8-.3,6.2-1.4,12.3-2.4,18.4-8.5-5.9-17.9,6.3-22.4,11.9-3.1,3.9-5.8,7.3-9.7,10.4-2.6,2.1-5.5,4.4-6.7,7.3-.3,0-.6,0-.9.2-10.2-16.1-19.8-32.5-29.2-49-10-17.6-20.6-34.9-30.4-52.6-18.7-33.8-27.2-72.4-35-109.9-4.2-20.2-7.9-40.6-12.1-60.8-4.1-19.7-9.2-39.1-13.8-58.7-4.6-19.8-8.6-39.9-9.3-60.3-.6-18.7,2.6-37.1,1.7-55.9-1-19.7-4.6-39.5-11.1-58.1-4-11.4-9.1-23.1-16.8-32.5-1.5-2.6-3.1-5-4.9-7.4-1.7-3.6-5-7-6.7-10-3.5-6.5-6.7-10.9-12.1-15.9-5.6-5.1-9-11.4-12.7-17.9-2.1-3.7-4.6-6.9-7.3-10.1-.4-1-.8-2-1.3-3-.7-1.3-2.2-2.8-3.2-4.2,2.7,2.5,5.5,4.9,8,7.4,4.6,4.6,7.9,9.6,11.5,14.9,6.8,9.8,16.1,19.2,25.5,26.4.6.5,4.1.3,3.2-1-6.7-10.3-17.6-17.5-24.9-27.5-3.6-4.8-6.9-9.7-11-14.1-3.8-4.1-6.6-9-10.7-12.7,1-.8,2-1.7,2.7-2.4,1.1-1.1,2.1-2.1,3.2-3.2.6.5,1.2,1,1.8,1.5,1.8,1.6,3.3,3.3,4.8,5.2,2.9,3.7,5.2,7.7,7.9,11.6,3.5,5.2,7.5,9.9,11.4,14.8,4.6,5.9,8.6,12.2,13,18.2.6.8,4.4,1.1,4.1-.5-1.6-8-7.9-14.9-13.1-20.7-5.4-6-10.6-11.8-15.1-18.5-2.9-4.2-5.9-8.4-9-12.4-.6-.8-1.3-1.6-2.2-2.4.1,0,.2-.2.4-.3,0,0,.2.1.2.2,1.7,1.5,3.2,3.2,5,4.6,5.8,4.9,13,7.9,18,13.8,4.9,5.9,8.2,12.5,13.9,17.8.2.2.6.4,1,.6,1.1,1.9,2.7,3.7,3.4,5.2,1.7,3.3,3.2,6.7,5.5,9.6.5.7,2.9.8,2.9-.4.2-3.7-1.3-7.3-2.8-10.6-.8-1.8-1.7-4-3-5.8.2-13.6.5-27.2,1.4-40.8.3,4.3,1,8.5,1.9,12.9,3.1,14.4,6.6,29.8,11.9,43.6.2.6,2,.7,2,0-.2-14-5-28.5-8-42.1-1.6-7.5-2.7-14.3-2.2-22,.2-3.7.5-7.3.4-11,1.2-.7,2.6-1.2,4-1.7.3,2,.7,3.8.9,5.2.7,8.8.9,17.5,1.6,26.3.7,8.2,1,16.6,3.7,24.5,2.6,7.7,7.4,14.4,9.9,22.2.1.5,1.4.5,1.5,0,2.1-6.9-2.2-13.1-4.4-19.5-3.1-9-3.1-18.8-4.1-28.2-.9-8.7-1.3-17.5-1.9-26.2-.1-1.8,0-4.5-.2-7,.6-.3,1.2-.6,1.8-1,1.4,3.8,1.7,8.5,2.4,12,1.5,7.1,2.9,14.2,4.7,21.3,1.6,5.8,3.7,11.4,5.2,17.2.9,3.4,1.5,6.7,2.1,10.2,0,.4.3,1.1.6,2,.5,4.5.7,9.2,1,13.8.7,9.5,2,18.6,4.3,27.3,2-3.7,4.2-7.3,6.8-10.7.1-.2.3-.4.4-.5-.4-2-.7-4-1-6.1-.8-6.2-1.3-12.6-2.1-18.8,1.1-3.7.6-8.5.1-11.3-1.2-7-3.4-13.5-5.5-20.3-2.6-8.3-4.3-17-6.8-25.3-1-3.2-2-6.3-3.4-9.3-1.4-3.1-3.8-5.3-6-8-.9-1.2-3.3-1.3-4.6-.8-1.6.5-3.3,1.2-4.9,1.9-5.9-.7-12.8.9-15.9,5.8-2.5,4-2.9,8.6-2.7,13.4,0,.5-.1.9-.2,1.3-1.5,13.3-2.1,26.3-2.3,39.6-2.4-4-4.7-8-8-11.3-5.7-5.8-13.2-9.5-19.1-15.1-3.6-3.5-7.3-6.6-12.6-4.9-5.6,1.8-10.1,7.5-14.3,11.3-1.8,1.7-4.6,3.5-5.3,6-.8,3,1.9,5.2,3.5,7.3.2.3.4.5.6.8,2.2,5.1,5.2,10.2,7.9,15,3.5,6.2,6.8,12.6,11.9,17.7,5.2,5.1,9.6,9.4,13.6,15.6,1.7,2.6,3.8,4.9,6.1,7.1-.6.6-.7,1.4.5,2.3,12.9,9.7,20,25.9,25.2,40.7,6,17,9.5,34.9,10.8,52.8.7,9.4.9,18.9.1,28.3-.8,9.5-2.1,18.8-2.1,28.4,0,19,3.3,37.8,7.6,56.2,1.9,8,3.9,16,6,23.9-1.1,3.9-2.9,7.6-3,11.8-.1,4.5,1.4,9.1.6,13.5-.8,4.6-4.6,6.6-6.9,10.3-2.2,3.5-1.2,6.4.5,9.8,4.1,8.1-3.2,9.7-8,14.3-2.6,2.4-3.8,3.7-2.6,7.4.4,1.3.9,2.3,1.2,3.4,0,0,0,.1,0,.2.1.7.1,1.4-.1,2.3-.7,2.7-4.4,6-7.4,5.7-.7,0-4.5.2-3.4,1.8,3.6,5.6,8.4,10.1,14.2,13.1,6.9,3.6,14.7,5.9,21.2,10.3,6.2,4.2,12.1,10.2,16.5,16.3,1.3,1.8,2.5,4.2,4.3,5.4.2.1.4.2.5.3,1.9,8.8,3.9,17.5,6.1,26.2,4.4,17.9,8.7,36.2,15.8,53.2,8.4,19.9,20.7,38.4,31.9,56.8,11.9,19.5,24.6,38.4,38,56.8.8,1.1,3.4,1.2,5.1.6,0,.3.2.6.3,1,.6,1.6,3.5,2,5.5,1.6.2,0,.3,0,.5,0,4.5,0,8.1-3.4,10.6-6.8,1.7-2.3,3.8-4.4,5.9-6.5-.9,5.3-.7,10.6,3,14.3,1.9,1.9,5.3,1.7,7.4.2,1.6-1.1,3.5-2.8,3.8-4.8.2-1,0-1.7-.4-2.2,10.6-17.2,14.8-38.7,17.9-58.2,1.6-9.8,3.1-19.6,4.4-29.4.4-.2.6-.4.8-.7,1.7-4.1,2.8-8.4,3.5-12.6,1.1-2.7,2.1-5.4,3.1-8.2,3-8.6,7.2-16.5,11-24.7,3.4-7.3,6.4-14.6,7.9-22.5,1.6-9,1.6-18.2,4.1-27,.5-1.8-3.1-1.9-3.9-.7h0ZM602.6,392.3c3.2-2.6,5.9-5.6,8.3-8.9.4-.6,2.6-4.2,3.4-3.5.6.5-1.3,3.2-1.5,3.6-3.1,4.9-8.3,9.2-12.9,12.5-2.1,1.5-4.4,2.7-6.7,3.8,3.1-2.5,6.4-5,9.5-7.6h0ZM600.4,345.6c2.2-1.7,8.4-6,12.5-6.3-2.7,4.6-8.7,7.1-13.3,9-.9.3-1.9.6-3,.9,1.1-1.3,2.4-2.5,3.8-3.6h0ZM606,317.1c.4-1.3,3-9.9,5.3-7.5,1.6,1.6-2.3,8.2-3.1,9.4-1.5,2.3-3.5,4.3-5.4,6.2,1.2-2.7,2.3-5.4,3.2-8.2h0ZM586,398.4c-1.3,1.4-2.4,2.9-3.3,4.5.3-1.2.5-2.5.8-3.7,1.9-1,3.7-2.3,5.4-3.7-1,.9-2,1.9-2.9,2.9h0ZM589.8,385.4c2.4-3.7,6-9.7,10.5-12,0,5-6.6,11.3-9.2,14.1-1.5,1.6-3.2,3.4-5,5.1,1.1-2.5,2.3-4.9,3.8-7.2h0ZM590.1,301.5c-.1-3.6,1.1-14.5,5.9-6.8,2.3,3.7.8,11.9.2,16-1.2,8.5-2.6,17.1-4.3,25.5-.1-2.6-.3-5.2-.5-7.8-.7-8.9-1-18-1.3-26.9h0ZM575,313.6c4.2,6.1,4.2,14.8,5.1,21.8.1,1.3.3,2.6.4,3.9-2.8-5.8-11.4-21-5.5-25.7ZM579.7,434.5c1.6-3.7,3.5-8.3,6.8-10.9.7,5.3-3,11.3-5.5,15.5-2.5,4.2-5.3,8.1-7.9,12.2,0-.2,0-.4,0-.6,0-.8,0-1.5.1-2.2.2,0,.4-.1.5-.3.2-.2.4-.4.5-.6.2-.3.1-.5,0-.6.6-1.7,2-3.8,2.6-5.3,1-2.4,1.9-4.8,2.9-7.1h0ZM571.2,368.2c-.5-3-.7-6.1-.4-9.2,0-.9.2-5,1.3-5.3,1.6-.6,2.1,2.1,2.4,3.2,2.2,7.8,1.5,16.6,1.2,24.6,0,1.5-.1,3.1-.2,4.6-1.4-5.9-3.4-11.8-4.3-17.9ZM558.9,383.3c-.7-2.4-1.4-4.8-2.1-7.2,1.5,2.6,3.1,5.2,5.3,7.4,3.2,3.4,6.5,7.3,9,11.5-2.4-3.6-5.9-6.4-9.2-9.2-.8-.7-1.9-1.6-3-2.6h0ZM570.3,434c-2.6-13.5-5.3-26.8-8.6-40,.9,1,1.8,2.1,2.5,3.3,2.9,4.6,3.3,8.7,9,10.4.4.1,1.1,0,1.9,0,0,.5,0,1,0,1.6,0,.4.2.7.5.9-.8,4.1-1.7,8.2-2.4,12.3-.8,4.4-1.8,8.8-2.6,13.2-.1-.5-.2-1-.3-1.5h0ZM573.9,458.6c4.9-7,12.4-11.3,18.5-17.1-.5,7.5-10.7,12.6-18.4,18,0-.3,0-.6,0-.9h0ZM536.7,596.9c-6.9.5-13.5,2.7-20,4.8-4.1,1.3-8.4,1.7-12.6,2.2,2.2-1.6,4.2-3.7,6.2-5.4,6.2-5.3,13.9-6.3,21.8-5.6,8.3.7,17.6.9,21.6,8.3-4.1-4.3-11.3-4.8-16.9-4.3h0ZM557.1,611.7c-.3-2-.5-4-1-5.9.2,0,.5,0,.7.1.2,1.3.1,2.6.2,3.9.1,1.3.3,2.5.5,3.8-.2-.6-.3-1.2-.4-1.9h0ZM392.6,421.3c1.9-3.5,1.9-7.5,1.2-11.3,1.2,4.8,2.4,9.7,3.5,14.6.3,1.2.5,2.4.8,3.7-2.7-1.5-5.9-2.8-7.5-4.3.7-.8,1.4-1.7,1.9-2.6h0ZM386.7,428.7c4.2,2.1,11,2.9,12.4,5.8.1.3.4.5.7.6,1.4,6.3,2.8,12.7,4.1,19-4.3-4.9-9.8-9.6-15.7-10.4,1.7-3.7-.6-6.5-1.8-10-.7-2-.4-3.6.4-5h0ZM380.3,449.2c1.3-.8,2.8-1.3,4.2-2,7.9,1.8,13.5,9.1,20.6,13,1.3,6.6,2.6,13.1,3.9,19.7-3.8-3.6-9.1-7.5-9.8-8-5.9-4.2-12.9-5.4-19.2-8.5.2-1,.2-2.1,0-3.2-.3-2.1-1.2-4.1-1.6-6.1-.6-2.8-.7-3.1,2-4.8h0ZM412.9,503.9c-3.9-4.8-8.9-9.2-14.2-12.5-5.9-3.6-12.5-5.8-18.7-8.9-5.1-2.6-8.5-6.8-12.7-10.1,3.9-.7,8-2.2,10.4-4.9,1.7.8,3.5,1.5,5.3,2.2,6.4,2.4,11.6,5.7,17.2,9.6,1.4,1,6.5,5.7,9.8,6.6,1.3,6.5,2.6,12.9,3.9,19.4-.4-.5-.7-.9-1.1-1.3h0ZM543.5,683c-.7.8-1.4,1.6-2.2,2.3-.2,0-.4.2-.6.3.7-.8,1.4-1.6,2.1-2.4.2-.2.6-.6,1.1-.9-.2.4-.4.7-.4.7h0ZM545.1,703c.7-4.5,2.6-9.2,2.3-13.6,1.6-1.8,3-3.6,4.1-5.6.1.2.3.4.6.5-2.1,6.4-4.5,12.6-7.1,18.8h0ZM583.6,571.2c-1.7,4.4-3.4,8.9-4.9,13.4.1-1.3.2-2.6.3-3.9,1.3-3.2,2.5-6.5,3.8-9.8,1.1-2.9,2.4-5.7,3.8-8.4-.9,2.9-1.8,5.8-3,8.7h0ZM589.1,553.4c-.4-.2-.8-.3-1.2-.3.7-1.2,1.5-2.4,2.2-3.6-.3,1.3-.7,2.6-1,3.9h0Z"/>
      <path class="st0" d="M494.9,267.7c.2-.2.4-.4.6-.6,1.2,2.8,2.7,5.5,4,8.2.1.2.2.5.3.7-1.9-2.6-3.7-5.2-5.6-7.9.2-.1.4-.2.5-.4h0Z"/>
      <path class="st0" d="M499.7,665.3c3,8.4,12.8,12.5,20.5,7.5,2.8-1.8,5.2-4.8,4.6-8.1,0,0,0,0,0-.1,1-2.7,1.4-6,0-8.6-2.1-4-7.4-5.8-11.6-5.9-8.9-.4-16.9,5.9-13.5,15.3h0ZM514.8,666.4c-.2.7-.5,1.2-.8,1.8-1,0-2.6.3-1.8,1.3.2.2.3.3.5.5h0c-1.8-.1-3.4-3.7-3.7-5.1-.1-.7-.1-1.5,0-2.3.6.4,1.2.7,1.8.8,1.1.3,2.2.4,3.3.2.3,0,.6,0,.9-.2,0,1,0,1.9-.2,2.8h0Z"/>
      <path class="st0" d="M501.6,583.6c4-.8,7.1-3.3,10.9-4.7,5-1.9,10.8-1.8,16.1-2.3,4.1-.4,8,1,12.2.9,4.3,0,8.8,0,13.1-.4h0c1.9-.3,3.4-1.4,2.2-2.9-2.5-3.3-6.3-4.8-10.5-5.2,4.4-5.6,6.2-13.3,8-20.3,3.2-12.4,4.8-25.3,5.2-38.2.2-8.7,1-18.5-4.1-26-2.4-3.4-5.2-6.3-8.2-9.2-1.9-1.9-8.3-6.5-6.9-9.7.7-1.6-3-1.9-3.8-.7-2.9,4.6-6.8,7.3-9,12.6-1.6,3.8-2.5,7.8-3.2,11.8-1.7,9.6-.8,19.3,1,28.8,1.7,9,3.7,18.1,5.8,27,1.6,6.8,5.9,15.7,3.2,22.6-.2.6.2.9.8,1,0,.2-.1.3,0,.5,0,0,.1.2.2.2-.1.1-.2.2-.3.4-1.9.4-3.7.8-5.3,1.3-4.8,1.3-9.5,2-14.2,3.9-5,2-9.6,4.9-14.4,7.4-1.2.6.5,1.4,1.2,1.3h0ZM534.5,525.8c-2.7-10.6-3-21.4-3.5-32.3-.2-5,.2-10.1,1.7-14.9.8-2.7,2.1-5,3.5-7.3,1.2,3,3.5,5.8,5.4,8.1,2.5,2.9,5.7,5.3,8.2,8.3,3.6,4.2,4.5,10.6,4.7,15.9.5,12.1-3.3,25.6-6.7,37.1-1.6,5.2-3.3,11.2-5.6,16.9,1.1-10.3-5.6-23.2-7.7-31.7h0Z"/>
      <path class="st0" d="M457.5,532.5c.6,11.1,3.1,21.7,5.1,32.6,1,5.1,2,10.1,3.6,15.1,1.6,5.1,3.7,9.9,3.1,15.2,0,.5-.1,1-.2,1.5-.2,1.1,2.8,1.3,3,0,.9-5,3.7-10,5.6-14.7,1.7-4.2,3.7-8.2,5.5-12.4,1.8-4.2,3.9-8.4,6-12.5.4-.6.7-1.3,1-2,1.8-3.6,3.6-7.3,5.3-11,1.8-4.1,3.4-8.3,4.8-12.5.6-1.3,1.2-2.6,1.8-3.9,2.9-7,5.6-12.9,7-20.3,1.5-7.8,4.4-15.2,6-23,1.6-7.9,3.7-15.7,5.2-23.6,1.7-8.8,4.4-17.5,5.1-26.5,0-1.2.1-2.3.2-3.4,2.4-5.4,4.4-11.1,5.7-16.9.4-1.6.7-3.3.9-5,2.4-5.1,0-15.3.9-19.3,0-.4,0-.7-.4-.9,0-.9.1-1.8,0-2.7-.1-2.5-6-2.7-6.3-.2-1.5,10.5-8.6,17.5-15.2,25.2-5.4,6.4-10.4,13.1-16.3,19.1-11.1,11.5-23.4,24.4-28.8,39.8-3.4,9.7-4.2,20-5.9,30-1.8,10.9-3.7,21.1-3.1,32.2h0ZM470.2,582.6c-1.9-5.7-3.4-11.4-4.5-17.3-.4-2.3-.8-4.5-1.1-6.8,1.2,3.2,2.9,6.1,5.5,8.5.4,3.5.8,6.9,1.2,10.4-.4,1.8-.7,3.5-1,5.3h0ZM475.6,548.8c-.2.8-.3,1.5-.5,2.3-.2,1.1-.4,2.2-.5,3.3-.5-3.7-1.1-7.5-1.1-11.3,0-4.3,0-8.6-.1-12.8.2-5.7.8-11.4,1.3-17.1.8-8.1,3.6-14.9,7.1-22.1.5-1,1-2,1.5-3.1-2.6,8.7-5.8,17.2-6.8,26.3-1.2,11.9-3.9,22.9-.9,34.6h0ZM475.3,483.6v-.3c2-6.2,5.4-12.5,9.3-18.5-3.1,6.2-6.2,12.5-9.3,18.8h0ZM505.5,497.2c0,.2-.1.4-.2.7,0-1.1,0-2.2,0-3.4.6-1.8,1.2-4,1.3-4.3.6-3.2.9-6.5,1.5-9.7,1.6-7.8,4.3-15.3,6.2-23,0-.2.1-.5.2-.8-1.3,6.4-2.1,12.9-4,19.2-2.1,7-2.7,14.3-5.1,21.3h0ZM514.9,437.7c-.5,2.8-1.1,5.5-1.7,8.2-2.9,6.3-5.1,12.8-6.9,19.4,1.1-9.9,2-19.6,8.6-27.7h0ZM497.8,455.5c.5-1,1.1-2,1.6-3,1.9-3.3,3.7-6.6,5.6-10,.8-.6,1.5-1.2,2.2-1.8-1.1,2.9-2,5.8-3,8.8-1.1-.3-2.6,0-2.7.8-1.9,3.5-3.7,6.9-5.3,10.3.5-1.7,1-3.5,1.6-5.2h0ZM495.8,503.1c1.1-3.1,2.3-6.3,3.5-9.4-.1.5-.3,1.1-.4,1.6-1.8,6.5-2.7,13.1-4,19.7,0-2.4-.3-4.9-.5-7.3.5-1.5.9-3.1,1.5-4.6h0ZM489.2,531.4c.7-4.4,1.5-8.8,2.4-13.1,0,4.9-.6,10.4-2.6,13.9,0-.3.1-.6.1-.8h0ZM488.6,534.8c.1,0,.3,0,.5.1-.3.9-.6,1.8-1,2.7.2-.9.3-1.8.5-2.8h0ZM463.7,532.7c1.1-10.8,2-21.3,2.2-32.2.2-10.9,1.3-22.5,5.6-32.7,3.8-8.9,10-16,16.8-22.5-1.1,1.2-2.1,2.3-2.9,3.6-3.8,5.4-6.6,11.7-9.6,17.7-2.7,5.4-5.9,10.6-7.5,16.5-2.1,7.7-2.4,15.8-2,23.9,0,.2,0,.5,0,.7-.7,7.5-.4,15.4-.1,22.9,0,.8,0,1.6.1,2.4-1.1,0-2.1.5-2.2,1.3-.2,1.1-.4,2.2-.6,3.4,0-1.7.2-3.4.4-5.1h0Z"/>
      <path class="st0" d="M427.1,430.8c1.3,9,4.6,17.6,5.5,26.6,0,.8,1.8.8,1.9,0,.8-7.4,6.7-11.1,11.9-15.7,4.2-3.7,6.5-8.9,8.6-14,2.1-5.2,3.8-10.6,6.6-15.4,3.6-6.1,8.2-11.5,11.7-17.7,7-12.3,11.1-26,15.1-39.4,3.8-12.6,7.2-25.1,6.3-38.1,1.7-2.7,2.2-5.3-.9-6.7-2.4-1.1-6.9,1.3-3.2,3-.6-.3-1.7,2.2-2.4,3.2-1.5,1.9-3.2,3.7-4.9,5.3-2.9,2.8-5.9,5.5-9,8.1-4.5,4-9.3,7.8-13.6,12-5.2,5.2-8.1,11.4-11.1,18-6.9,15.3-20.1,26.1-22.3,43.5-1.1,8.9-1.4,18.2-.1,27.1h0ZM464.1,389.6c-.1.3-.3.6-.4.9-.1.3-.3.6-.4.8-1.6,2.9-3.4,5.7-5.3,8.5.1-.5.2-1,.3-1.5.9-4,3.6-6.7,6.1-9.6-.1.3-.2.6-.3.9h0ZM477.9,359.2c.4-5.9,1.4-11,3.5-16.6,1.8-4.9,3.7-9.8,5.1-14.9.1-.6-.2-.9-.8-1,0,0,.1-.1.2-.2.4-.4,1.1-1,2-1.8-3.1,10.6-6.7,21-9,31.8-.4,1.8-.8,3.7-1.2,5.6.1-1,.3-1.9.3-2.8h0ZM474.8,373.3c0-.2-.2-.5-.4-.6.7-1.7,1.3-3.3,1.8-5-.5,1.9-.9,3.8-1.5,5.7h0ZM476.5,334.1c-.3.4-.6.9-.8,1.3-.2,0-.5-.1-.7-.1.5-.4,1-.8,1.5-1.2h0ZM462,356.6c2.3-5.7,5.3-13.2,10.8-16.5-1.4,2.3-2.7,4.7-4.1,6.8-2.4,3.6-4.8,7.1-7.1,10.7.1-.3.3-.6.4-.9h0ZM460.2,382.6c-.4,1.4-.8,2.8-1.5,4.1-.6,1.2-1.4,2.4-2.3,3.4,1.2-2.5,2.5-5,3.7-7.5ZM447.3,374.5c4.3-6.8,7.1-14.1,10.8-21.1-2.2,5.7-4,11.6-6.1,17.3-.4.1-.8.3-1,.7-2.8,3.6-6,7.9-8.8,12.6,1.4-3.2,3-6.3,5-9.5h0ZM441,437.4c1.6-3.8,3.8-7.3,6.1-10.8-.1.6-.3,1.3-.5,1.9-1.2,5-3,9.2-6,13,0,0,0,0,0,0,0-.2-.6-.2-.5,0,0,.2,0,.4.1.6,0,0,0,0-.1.1-.2-1.2-.4-2.5-.4-3.8.7-.2,1.2-.6,1.4-1.1h0ZM433.2,425.3c.3,2.7.7,5.4,1.2,8.1,0,.3.1.7.2,1,0,.8-.1,1.6-.1,2.3,0,.6.4,1.1.9,1.5.5,2.3,1.3,4.5,2.6,6.3,0,0,0,0,0,0-1.3,1.3-2.3,2.5-3.2,3.8-.4-6.4-1.7-12.8-1.7-19.4,0-1.2,0-2.4.1-3.6h0Z"/>
      <path class="st0" d="M440.6,295.4c-7.4-3.9-14.3-8.8-20.4-14.6-2.1,5.9-4,11.9-6,17.5-3.8,10.5-6.3,20.9-5.7,32.1.7,11.2,3.2,23.3,7.8,33.5.7,1.5,4.6,1.7,4.8-.2.9-6.7,6.3-10.7,9-16.7,2.3-5,3.2-10.8,3.7-16.3.6-6.5.6-13.2,1.8-19.7.9-5.4,2.8-10.6,5-15.7h0ZM417.6,347.5c-.2-1.1-.5-2.1-.7-3.2.3-.7.6-1.3.9-2v.2c0,1.5,0,3.3-.2,5h0ZM419.6,356c-.3-1.2-.6-2.5-.8-3.7,1,0,1.9,0,2.3-.2.1,0,.2-.1.3-.2-.6,1.4-1.2,2.7-1.8,4.1h0ZM427.9,326.3c-.2-4.4-.7-8.9-1.3-13.2-.1-.7-.2-1.5-.2-2.2.3-1.1.6-2.2,1-3.3,1.2-3.3,3-6.2,4.8-9.2-2.3,9.3-3.2,18.5-4.3,27.9h0Z"/>
    </g>
    <g>
      <g>
        <path class="st0" d="M448.3,638.8c-.2-.2-.4-.5-.6-.8-2.4-5.1-5.6-10-8.5-14.6-3.7-6-7.3-12.3-12.6-17.2-5.4-4.9-9.9-9-14.2-15-1.8-2.5-4-4.8-6.3-6.8.6-.6.6-1.4-.6-2.2-13.2-9.2-21-25.1-26.8-39.6-6.7-16.8-10.9-34.5-12.9-52.4-1.1-9.4-1.6-18.9-1.2-28.3.4-9.5,1.4-18.9,1-28.4-.8-19-4.8-37.6-9.8-55.9-2.2-7.9-4.6-15.8-6.9-23.7.9-4,2.6-7.7,2.6-11.9,0-4.5-1.7-9-1.1-13.5.6-4.7,4.3-6.8,6.5-10.5,2.1-3.6,1-6.4-.9-9.8-4.4-7.9,2.8-9.8,7.4-14.6,2.5-2.5,3.7-3.8,2.3-7.5-.5-1.2-1-2.2-1.3-3.3,0,0,0-.1,0-.2-.1-.7-.2-1.4,0-2.3.6-2.8,4.1-6.2,7.2-6,.7,0,4.5-.3,3.4-2-3.8-5.4-8.8-9.7-14.8-12.5-1.8-.8-3.6-1.6-5.5-2.3-3.9-3.2-7.7-6.3-12.4-8.7-7.3-3.8-13.6-7.2-18.8-13.8-1.9-2.4-3.6-4.8-5.7-7-.8-.8-1.6-1.6-2.4-2.4-2-7.5-4-14.9-6.1-22.3-5.1-17.7-10.1-35.8-17.9-52.5-9.1-19.5-22.2-37.6-34.1-55.5-12.6-19-26.1-37.4-40.2-55.3-.8-1-3.4-1-5.1-.4-.1-.3-.2-.6-.4-1-.7-1.5-3.5-1.9-5.6-1.3-.2,0-.3,0-.5,0-4.5,0-7.9,3.7-10.3,7.2-1.6,2.4-3.6,4.6-5.6,6.7.7-5.4.2-10.6-3.6-14.1-2-1.8-5.4-1.5-7.4,0-1.5,1.2-3.4,2.9-3.6,5-.1,1,.1,1.7.5,2.2-9.9,17.6-13.3,39.2-15.6,58.9-1.2,9.8-2.3,19.7-3.3,29.5-.3.2-.6.4-.7.7-1.5,4.2-2.4,8.5-3,12.8-1,2.7-1.9,5.5-2.8,8.3-2.7,8.7-6.6,16.8-10,25.2-3.1,7.4-5.8,14.8-7,22.8-1.3,9-.9,18.2-3.1,27.2-.4,1.8,3.1,1.8,3.9.6,4.5-7.2,7-15.5,11.7-22.5,2.7-4,5.6-7.8,7.8-12-.2,8.5-.4,17,0,25.5,0,2.3,0,4.7-.1,7,0,1.3-.1,2.6-.2,3.9-.8-.1-1.8,0-1.5.8,1,2.1.1,4.6-1.2,6.9-8.8-.3-34.3-15.6-40.3-11.4-6.5,4.6-2.1,9,3.5,10.9,10,3.5,22.1,5.7,32.8,5.7-2.5,2.2-5.6,3.3-9,3.6-7.2.6-14.1-.3-21.1,2.1-4.4,1.5-22.5,13.3-13.9,19.4,5.2,3.7,15.2-4.2,19.3-6.6,4.2-2.5,8.4-5.2,12.9-7.4,2.4-1.2,4.8-1.7,7.4-2.3,2.8-.6,5.4-1.7,8.1-2.7-.6,2.6-1.3,5.1-2,7.7-1.9,6.5-4.1,12.9-6.6,19.1-8.9,8.3-21.4,10.9-33,14.4-5,1.5-23.6,8.5-14.1,16.5,6.1,5.1,16.8-3.1,21.8-6.2,3.1-1.9,6.1-3.9,9-6.2,2.6-2.1,5-4.4,7.6-6.5.8-.7,1.9-1.6,3-2.6.7-.5,1.3-.9,1.9-1.4,0,0,.2-.1.3-.2-3.7,7.7-8.2,15-13.5,21.8-5.2,6.5-11.3,12.3-18.6,16.5-5.1,3-10.9,5.6-11.9,12.1-.8,5.1,1.6,9,6.7,10,5.3,1.1,10.2-1.5,14.1-5,5.7-5.1,9.9-11.9,13.9-18.4.6-1,1.2-2.1,1.8-3.1-.4,7.5-.3,17.4,5.2,21.7,4.9,3.8,10.4,1.7,11.5-4,1.7-8.5-.1-18.2-1-26.7-.7-6.5-1.1-13.3-2.2-19.8,3.6-8,6.4-16.5,8.7-25.2,0-.2,0-.4.1-.5.3,3.7.4,7.4.4,11.1-.1,6.2-.8,14.3,4.9,18.4.7.5,2.5.9,3.6.4,1.1,7.9,2.7,15.6,4.5,23.5,5.4,23.4,11.2,46.1,19.7,68.6,1.1,2.9,2.2,5.7,3.4,8.6-6.8.3-13.9,6.9-18.8,10.5-10.1,7.6-19.6,16.1-25.4,27.5-11,21.4-15.9,46.8-13.2,70.7,1.3,11.2,4.2,22.3,10.3,31.9,6.9,10.8,16.8,19,27.1,26.3,11.4,8.1,23,13.9,37,15.4,12.8,1.4,25.9.3,38.4-2.6,13.3-3.1,25.9-8.2,38.3-13.9,8.3-3.8,19-8.6,24.7-16.4,14.8,17.3,25.6,36.9,29.6,59.7,1.1,6.2,1.8,12.5,2.9,18.8-.9,3.7-.2,8.5.3,11.3,1.4,7,3.9,13.4,6.3,20.1,3,8.2,4.9,16.8,7.8,25,1.1,3.1,2.2,6.2,3.7,9.2,1.6,3.1,4,5.2,6.3,7.8,1,1.1,3.3,1.2,4.6.7,1.6-.6,3.2-1.3,4.8-2.1,6,.4,12.8-1.4,15.7-6.4,2.3-4.1,2.5-8.8,2.1-13.5,0-.4,0-.9.1-1.4,1-13.3,1.1-26.4.7-39.7,2.6,3.9,5,7.8,8.4,11,6,5.5,13.6,8.9,19.7,14.4,3.8,3.3,7.6,6.3,12.8,4.4,5.5-2,9.8-7.9,13.8-11.9,1.7-1.8,4.5-3.7,5.1-6.2.7-3-2.1-5.1-3.8-7.2h0ZM141.5,203.7c.3-1.3.6-2.7.9-4,.4.1.8.2,1.3.3-.7,1.2-1.4,2.5-2.1,3.7ZM147.9,181.9c-1,2.9-2.2,5.8-3.4,8.6.8-3,1.6-5.9,2.6-8.8,1.6-4.5,3.1-9,4.4-13.6,0,1.3-.1,2.6-.2,3.9-1.2,3.3-2.3,6.6-3.4,9.9h0ZM124.4,258c-4,3-8.1,5.9-12.6,8.2-1.3.7-3.7,2.3-5.2,2.2-4-.2.6-5.1,1.9-6.4,4.7-4.4,10.4-7.6,16.9-8.5,1.9-.3,3.9-.3,5.9-.4-2.4,1.5-4.6,3.3-6.9,5h0ZM119.7,297c-3,2.3-19.4,14.4-21.8,9.8-3.7-7,20.7-12.1,24.4-13.3.7-.2,1.3-.4,2-.7-1.5,1.5-3,3-4.5,4.2h0ZM122.9,321.9c-3.9,6.8-8,14.6-14.4,19.3-2.6,2-7.1,4.1-9.6.7-1.9-2.8-.7-5.9,1.7-8,3.3-3,8.3-3.8,12.2-5.9,4.3-2.3,8.2-5.5,11.7-9-.5,1-1.1,1.9-1.6,2.9h0ZM141.8,335.3c-.3,1.3-.7,2.4-1.4,3.5,0-.1-.1-.3-.2-.5-.3-.8-1.1-1.8-1.5-2.6-2.2-4.8-2.4-10.6-2.5-15.8-.1-4.3,0-8.6.4-12.8,0-.8.1-1.6.2-2.3.3-.8.5-1.6.8-2.4.9-1.5,1.8-3,2.6-4.6.4,3.2.8,6.3,1.1,9.5,1,9,2.5,19.2.5,28.2h0ZM343.9,293.7c-.2.3-.4.6-.5.9-4.5-2.8-8.7-6.6-13.4-9-1.6-6.5-3.1-13-4.7-19.5,3.9,3.4,9.4,7.1,10.1,7.6,4.4,2.8,9.2,4.1,14,5.7,1.3,2.3,3.7,4.5,5.3,6.5-3.9,2.3-8.1,3.9-10.8,7.9h0ZM337,311c-.1-.2-.4-.5-.7-.6-1.6-6.3-3.2-12.6-4.8-18.9,3.1,3.3,6.8,6.4,10.8,8.3,0,.3.2.6.3.9-.2.2-.5.4-.7.6-1.8,1.8-2.3,5-1.4,7.4.9,2.5,4,3.8,4.9,6.1-3.6-1-7.2-1.9-8.3-3.8h0ZM343.9,320c-1.1,1.6-2.6,3.2-3.8,4.7-.4-1.3-.7-2.5-1.1-3.8-.3-1.2-.6-2.4-1-3.6,2,1,4.1,1.8,5.8,2.8ZM366.1,271.1c.3.3.7.5,1,.8-2.1.5-4.1,1.2-6,2.1,1.2-1.4,3.2-2.3,5-2.9h0ZM320.3,242.2c1.3,1.5,2.8,2.9,4.3,4.3,1.5,1.7,3.1,3.3,5,4.9,5.3,4.6,10.3,8.3,16.9,10.9,4.4,1.7,10.5,2.5,14.2,5.7-3.8.3-7.8,1.7-10.3,4.2-.7.7-1.1,1.4-1.5,2-5.4-2.1-10-4.8-15-8-1.5-.9-6.7-5.4-10.1-6.2-1.5-6.4-3.1-12.8-4.7-19.2.4.4.8.9,1.1,1.3h0ZM182.8,68.4c.7-.8,1.4-1.7,2.1-2.4.2,0,.4-.2.6-.3-.6.8-1.3,1.7-2,2.5-.2.2-.6.6-1.1,1,.2-.4.4-.7.4-.7h0ZM180.4,48.5c-.6,4.5-2.3,9.3-1.8,13.7-1.5,1.8-2.8,3.7-3.9,5.8-.1-.2-.4-.3-.6-.4,1.8-6.4,4-12.7,6.3-19h0ZM110.9,232.2c1.7-2.8,4.4-1.2,6.7-.2,5.2,2.3,10.4,4.7,15.6,7,.9.4,1.8.8,2.7,1.2-6.7-.7-13.5-.9-19.9-2.8-2.8-.8-7-2.1-5.1-5.2h0ZM150.3,248.8c-.7.2-1.4.4-2.2.5.9-.6,1.8-1.3,2.6-2.1-.1.5-.2,1.1-.4,1.6h0ZM155.8,249.4c0-.5.2-1.1.3-1.6.2,1.3.4,2.6.7,3.9-.3-.8-.6-1.5-.9-2.3h0ZM159.5,288.8c-1.7-4.8-1-10.6-1.1-15.4,0-2.2-.2-4.3-.5-6.5.6,1.7,1.1,3.3,1.6,5,.3,3.2.5,6.4.7,9.6,0,1.5.1,2.9.3,4.3-.2,1-.5,2-.9,3h0ZM147.7,526.9c-2-4.3-3.6-9-4.7-14.1-4.1-20.2-1.3-42.7,6.2-61.8,4.1-10.7,10.3-20.9,18.4-29,4.6-4.5,9.6-8.5,14.3-12.8,1.2-1.1,6.1-7.3,8.9-9.2,1.2,2.9,2.5,5.8,3.9,8.7-.2,0-.3.2-.4.2-.5.4-1,.8-1.6,1.2-4.2-.4-7.7,2-10.8,5.1-4.9,2.4-9.2,5.3-9.2,10.3-2.9,3.2-6,6.3-9,9.4-2.2,1.2-4.2,2.8-5.8,4.9-2.3,2.8-4.4,6.5-6.1,10.6-5.4,9.5-7.9,20.6-8.7,31.8-.1.3-.2.5-.3.8-1.2,3.4-.8,7.2.2,11.1.2,6,.9,11.9,1.8,17.5.8,4.7,2.1,9.1,4,13.3-.4.7-.7,1.5-1.1,2.2h0ZM262,506.5c7.9,5.8,16.3,11,24,17.1,2.6,2.1,9.4,7.8,8.6,11.7-.8,3.8-6.6,5.4-9.7,6.8-1.4.6-1.4,1.4-.8,2-3.1,2.1-6.1,4.2-9.4,6-3.7,2-7.5,3.8-11.4,5.5,3.6-6.9,1-15.2-2.2-22.4-4.5-10.2-11.9-18.8-16.6-29-2.6-5.5-5.5-10.9-8.2-16.3.5.3,1,.7,1.4.9,8.1,5.9,16.3,11.6,24.3,17.6h0ZM248.5,488.4c1.3-.5,2.6-1.2,3.7-2.1,2.1,2.8,4.3,5.5,6.5,8.2-1.2-.7-2.3-1.4-3.5-2.1-2.2-1.3-4.5-2.6-6.8-3.9h0ZM234.6,500.8c2.2,6.7,4.1,13.4,7.2,19.8,2.2,4.6,4.8,8.8,6.5,13.6,1.6,4.3,2.6,8.8,4.3,13.1,1.7,4.5,5.2,8.4.1,12.2,0,0,0,0,0,0-3.3,1.1-6.7,2-10.1,2.8-5.6,1.3-11.3,2-17,2-1.4-3.6-1.1-7.7-.4-11.4.5-2.5.9-5,1.4-7.5.4-1,.9-1.9,1.2-2.9,3.3-8.7,5-18,6-27.2.5-4.8.6-9.6.7-14.5h0ZM247.7,481.5c-.2.2-.4.5-.6.7-1.3-2.8-2.9-5.3-4.4-8.1-.1-.2-.2-.4-.3-.7,2,2.5,3.9,5.1,5.9,7.6-.2.1-.4.3-.5.4ZM242.7,483.9c-1.8-.3-3.5-1.6-5.2-3.3-.4-.4-.8-.8-1.2-1.2h0c-1.8-6.7-4.3-13.1-5.9-19.8,0-.2-.1-.5-.2-.8,1.6,1.8,3.1,3.5,4.7,5.3,1,6.9,4.2,13.8,7.9,19.8h0ZM226.4,511.8c-1.1,9.8-2.9,19.6-6.6,28.8-1.7,4.1-3.6,8.1-5.9,11.8-2.2,3.5-4.6,8.6-9.1,9.2-.4,0-.8,0-1.1,0-1.3-.3-2.6-.7-4-1.2-2.3-1.3-4.2-3.4-6.3-4.9-3.2-2.3-7-3.9-10.4-5.9-3.4-2-7.2-4.1-7-8.5.2-3.1,1.1-5.8,2.8-8.4,3.5-5.5,8-10.8,12.5-15.5,1.8-1.9,3.7-3.7,5.6-5.4,11-6.1,20.9-14.2,30.1-22.8-.4,7.6.4,15.2-.5,22.8h0ZM216.9,564c-2.5-.2-4.9-.6-7.3-1,1.5-.5,3-1.2,4.4-2.1.9.7,2,1.2,2.8,2,0,.4,0,.8.1,1.1ZM163.2,524.7c-.3-1.1-.6-2.1-1.1-3.1,0,0,0,0,0-.1,0-.6-.4-1.2-1-1.5,0-.1-.1-.2-.2-.3,4.7,1.6,9.9,1.5,15.3.4-2,1.5-4.1,3.1-5.9,4.7-2.3,0-4.7-.1-7.1-.1h0ZM164,532.1c-.9,1.6-1.5,3.2-1.6,4.8-.6-.7-1.2-1.4-1.7-2.2,1.2-.5,2.3-1.2,3.1-2.3,0-.1.2-.2.3-.3ZM168.1,516.9c-8.6.5-13-7.6-14.8-14.9-1.3-5.4-1.8-18.1,4.2-21.3,2.2-1.2,5.4-.2,7.8.2,3.7.7,7.3,1.3,11,1.6,5.3.5,10.7.4,16,0,4.7.7,9.5,1.3,14.2,1.3,6,0,12.6-.2,18.9-.9-1.5,2-3.2,3.8-4.9,5.5-4.3,3.6-8.7,6.8-13.3,10-6.5,3.9-13.4,7.3-19.9,11-5.8,3.3-12.4,6.9-19.1,7.3h0ZM154,463.4c.6-5.7,3.4-10.1,7.4-13.9,2.6-2.4,5.1-4.9,7.6-7.4,2.6-2.7,3.3-3.9,6.1-3.4,3.7,5.4,9.4,10,13.7,13.4,4.4,3.5,9.3,6.3,14.1,9.2,6.1,3.7,10.6,8.8,16.3,13.1.4.3,1.2.5,2.1.6.6.7,1.1,1.4,1.8,2.1-8.1,0-16.4,2.9-24.5,1.7-11.9-1.7-23.7-4-35.6-5.2-2.8-.3-4.7,0-6.9-2-2.5-2.2-2.5-4.9-2.2-8.1h0ZM222.2,457.8c-2.5-5.2-4.8-10.7-7.2-16.2.8,1,1.7,2.1,2.6,3.1,2.2,2.5,4.4,4.9,6.6,7.4,1.1,4.1,2.1,8.2,3,12.4.3,1.6.7,3.1,1,4.7-2.2-3.7-4.1-7.5-6-11.4h0ZM215.4,463.7c-5.4-4.2-11.5-7.8-16.7-11.6-4.5-3.2-8.9-6.5-12.8-10.5-1.8-1.9-3.5-3.9-5.1-6.1-.3-.4-3.3-4.9-4-6.8,2.1-2,4.1-4.1,5.9-6.4.6-.8,1.4-2,2.4-3.2,1.5-.5,3-.9,4.3-1.3,2.2-.7,5.6-1.6,8.3-3,1.3,2.5,2.6,5.1,4,7.5,1.4,8.5,4.8,17.1,7.6,25.2,1.9,5.4,3.7,10.9,6,16.2h0ZM152.2,475.1c-1,.2-2,.4-2.9.8.2-1.3.4-2.6.7-3.9.6,1.3,1.4,2.3,2.3,3.2h0ZM152.4,519.6c-.1-.4-.3-.9-.5-1.3-.8-2.5-1.5-5.2-2-7.9,2.1,3.7,4.7,6.3,7.7,7.9-1.9-.2-3.9.2-4.9.9-.1.1-.3.2-.4.3h0ZM280.4,554.6c-8.6,4.5-17.6,8.8-26.8,12.2-11.3,4.1-23.2,6.4-35.2,6.6-6.2.1-12.7-.2-18.7-1.6-6.7-1.6-12.6-5.4-18.2-9.2-11.7-7.9-22-16.5-29.2-27.5.1,0,.2,0,.4,0,.8.2,1.7.3,2.6.4,14.4,19.4,40.5,30.9,64.8,32.4,1.2.5,3.3.6,4.8.2,3.4,0,6.8-.2,10.1-.6,2.8-.3,5.6-.8,8.5-1.4,4.4-.1,8.9-1.2,12.7-3.3,6.4-2,12.6-4.5,18.6-7.4,6.5-3.2,12.5-7.1,18.4-11.2,1.4-.5,2.9-1.1,4.2-1.7-4.2,5.4-11.1,8.9-16.9,12h0ZM432.4,634.9c-4.7-4.4-8.2-9.3-12.1-14.4-7.1-9.5-16.8-18.5-26.5-25.3-.7-.5-4.1-.2-3.2,1.1,7.1,10,18.3,16.8,26,26.5,3.7,4.7,7.2,9.4,11.5,13.6,3.9,3.9,6.9,8.7,11.2,12.2-.9.9-1.9,1.7-2.6,2.5-1,1.1-2,2.2-3,3.3-.6-.5-1.3-.9-1.9-1.4-1.8-1.5-3.4-3.2-4.9-5-3-3.6-5.6-7.4-8.3-11.2-3.7-5-7.9-9.6-11.9-14.4-4.9-5.7-9.1-11.8-13.7-17.7-.7-.8-4.5-.9-4.1.7,1.9,7.9,8.4,14.5,13.9,20.2,5.6,5.7,11,11.4,15.8,17.8,3.1,4.1,6.2,8.2,9.5,12,.6.7,1.4,1.6,2.2,2.3-.1,0-.2.2-.4.3,0,0-.2-.1-.3-.2-1.8-1.4-3.4-3-5.2-4.4-6-4.7-13.3-7.3-18.5-13-5.2-5.7-8.7-12.1-14.5-17.3-.2-.2-.6-.4-1-.6-1.2-1.8-2.8-3.6-3.6-5-1.9-3.2-3.5-6.6-5.9-9.4-.6-.7-2.9-.7-2.9.5,0,3.7,1.6,7.2,3.2,10.4.9,1.8,1.9,3.9,3.2,5.7.3,13.6.6,27.2.2,40.8-.4-4.3-1.3-8.4-2.4-12.8-3.7-14.3-7.7-29.6-13.6-43.1-.3-.6-2-.6-2,.2.7,13.9,6.1,28.3,9.6,41.7,1.9,7.4,3.3,14.2,3.1,21.9-.1,3.7-.2,7.3,0,11-1.2.7-2.5,1.2-3.9,1.8-.4-1.9-.9-3.8-1.1-5.1-1.1-8.7-1.6-17.5-2.6-26.2-1-8.2-1.7-16.6-4.7-24.3-2.9-7.6-8-14.1-10.7-21.8-.2-.4-1.4-.5-1.5,0-1.8,7,2.7,13,5.2,19.3,3.5,8.8,3.9,18.7,5.2,28,1.2,8.7,1.9,17.4,3,26.1.2,1.8.2,4.5.5,7-.6.3-1.2.7-1.8,1.1-1.5-3.8-2-8.4-2.9-11.8-1.8-7-3.4-14.1-5.6-21.1-1.8-5.7-4.1-11.2-5.9-17-1-3.3-1.8-6.7-2.5-10.1,0-.4-.3-1.1-.6-2-.6-4.5-1.1-9.1-1.6-13.8-2.4-21.1-7.6-39.9-20.3-57.3-7.2-9.8-15.6-18.2-24.4-26.3-1.8-8.3-11.7-13.8-18.1-18.2-2.4-1.7-4.8-3.3-7.2-5-14-14.3-24.9-30.7-36.9-46.7-12.7-16.8-27.1-33.2-35.8-52.5-9.9-21.9-17.3-45.6-22.9-68.9-5.9-24.3-12.1-48.4-16.3-73-2-11.9-5.3-23.5-6.5-35.5-1.2-12.1-.5-24.1,0-36.2.6-13.8.1-27.6,1.4-41.4.5-5.9,1.2-11.8,2-17.7,0,.1,0,.3,0,.4,1,4.6,2.9,8.9,6.4,11.8-5.6,11,17,13.4,23.7,14,6.7.6,13.7,2.1,20.2-.6,3.3-1.3,6.6-3.6,9-6.3,2.5-2.9,4.1-8,7.6-9.9,1.4-.3,2.7-.6,4.1-1.1,6.9-2.3,11.6-7.2,12.2-14.6.7-7.3-.5-17.6-4-24.1-.5-1.1-3.4-1.2-3.8,0-3.8,11.3,4.9,30.1-10,36-5.3,2.1-11.2,2.6-16.6,4.1-5.7,1.6-11.5,3.2-17.4,3.7-7,.6-10.3-1.3-13-7.9-1.4-3.3-2.3-6.6-4.3-9.7-2.4-3.6-6.4-6.8-6.8-11.4-.4-4,.8-9.2,1.3-13.2.6-4.3.9-8.5,1-12.8,0-6.2.9-12.3,1.7-18.4,8.7,5.6,17.6-7,21.9-12.7,3-4,5.5-7.5,9.3-10.8,2.5-2.2,5.3-4.6,6.4-7.5.3,0,.6-.1.9-.2,10.8,15.6,21.1,31.7,31.1,47.8,10.6,17.2,21.9,34,32.4,51.4,20,33.1,30.1,71.2,39.3,108.4,5,20,9.5,40.2,14.5,60.2,4.9,19.5,10.8,38.8,16.1,58.1,5.4,19.6,10.2,39.6,11.7,59.9,1.4,18.7-1.2,37.2.5,55.9,1.8,19.6,6.1,39.2,13.4,57.6,4.4,11.2,10,22.7,18.1,31.8,1.6,2.5,3.3,4.9,5.2,7.2,1.8,3.6,5.3,6.8,7.1,9.8,3.7,6.3,7.1,10.6,12.7,15.4,5.8,4.9,9.5,11,13.4,17.4,2.2,3.6,4.9,6.7,7.7,9.8.4,1,.9,2,1.4,2.9.8,1.3,2.3,2.7,3.4,4.1-2.8-2.4-5.7-4.7-8.3-7.1h0ZM171.6,138.4c.2.6.4,1.2.5,1.9.4,2,.6,4,1.3,5.8-.2,0-.5,0-.7,0-.2-1.3-.2-2.6-.4-3.9-.2-1.2-.4-2.5-.6-3.7h0ZM176,150.5c4.3,4.2,11.5,4.3,17,3.7,6.9-.8,13.4-3.2,19.8-5.6,4.1-1.5,8.3-2,12.5-2.7-2.2,1.6-4,3.8-6,5.6-6,5.5-13.6,6.8-21.5,6.5-8.3-.4-17.6-.2-21.9-7.5h0Z"/>
        <path class="st0" d="M227.2,84.3c-3.4-8.2-13.3-12-20.8-6.7-2.7,1.9-5.1,5-4.2,8.2,0,0,0,0,0,.1-.9,2.8-1.2,6,.3,8.6,2.2,3.9,7.6,5.5,11.9,5.5,8.9,0,16.7-6.6,12.9-15.8h0ZM212.1,83.9c.1-.7.4-1.2.7-1.8,1,0,2.6-.5,1.7-1.4-.2-.2-.4-.3-.5-.5h0c1.8,0,3.5,3.5,3.9,5,.2.7.2,1.5.1,2.3-.6-.4-1.3-.6-1.8-.8-1.1-.2-2.2-.3-3.3-.1-.3,0-.6.1-.9.2,0-1,0-1.9.1-2.8h0Z"/>
        <path class="st0" d="M228.5,166.1c-4,.9-6.9,3.6-10.7,5.1-4.9,2-10.7,2.2-15.9,2.9-4.1.6-8.1-.6-12.2-.4-4.3.2-8.7.4-13,.9h0c-1.9.4-3.4,1.5-2.1,3,2.6,3.2,6.5,4.5,10.7,4.8-4.2,5.8-5.7,13.5-7.2,20.6-2.7,12.5-3.8,25.5-3.7,38.3.1,8.7-.3,18.5,5.1,25.8,2.5,3.3,5.5,6.1,8.6,8.9,2,1.8,8.5,6.2,7.2,9.5-.7,1.7,3.1,1.8,3.8.6,2.8-4.7,6.5-7.5,8.5-12.9,1.4-3.8,2.2-7.9,2.7-11.9,1.3-9.7,0-19.3-2.2-28.8-2.1-8.9-4.4-17.9-6.9-26.7-1.9-6.7-6.5-15.5-4.1-22.4.2-.6-.2-.9-.9-1,0-.2.1-.3,0-.5,0,0-.1-.2-.2-.2.1-.1.2-.3.3-.4,1.9-.5,3.7-1,5.3-1.5,4.7-1.5,9.4-2.4,14-4.5,4.9-2.2,9.4-5.3,14-8,1.2-.7-.6-1.4-1.3-1.2h0ZM178.9,248.2c-.8-10.2,1.4-21.5,3.9-31.8.3,2.1.7,4.1,1.2,6.2,0,2.5,0,5,0,7.6.2,6.8,1,13.6,1.4,20.3.3,4.9-.2,10.1.4,15-.5-.5-1.1-1-1.6-1.6-3.8-4.1-4.9-10.4-5.3-15.7h0ZM192.7,271.9c-.7-.7-1.4-1.4-2.1-2,.5-.2.7-.6.6-1-1-5.2-.5-10.8-.5-16.1,1.4,7,2.6,14,3.6,21.1-.6-.7-1.1-1.3-1.7-1.9h0ZM196.8,276.9c-.2-.2-.4-.5-.5-.7,1.6-15.7-.6-30.8-4.5-46-.8-3.4-1.6-6.7-2.2-10,1.7,4.6,3.3,9.1,4.3,13.6,1.6,7.1,3.2,14.4,4,21.6.8,7.2,0,14.5-1.1,21.6h0ZM198,225.2c3.1,10.5,3.8,21.3,4.8,32.2.4,5,.2,10.1-1.1,15,0,.2-.1.4-.2.6,1.4-13.3-.2-26-3.3-39.3-2.4-10.2-6.3-19.7-9.1-29.6,0-1.7.1-3.3.2-5,1.3,9.1,6.6,19.1,8.7,26.1h0Z"/>
        <path class="st0" d="M253.1,285.5c.9.8,1.8,1.7,2.6,2.5-1.1-2.7-2.1-5.4-3.1-8.1-.7,1.2-1.3,2.4-2,3.6.9.6,1.7,1.3,2.5,2h0Z"/>
        <path class="st0" d="M272,237c-1.6,6.1-2.5,12.5-3.5,18.7-1.9,10.7-2.7,21.5-4.4,32.2,1.6-3.2,3-6.5,4.1-10,3-9.8,3.4-20.1,4.7-30.2.8-6,1.5-11.7,1.9-17.5-1.1,2.2-2.1,4.4-2.8,6.9h0Z"/>
        <path class="st0" d="M260.9,285.6c-.8,1.5-1.6,3-2.5,4.4,0,.3-.2.6-.3.8.7.9,1.3,1.9,1.9,2.8.3-2.7.6-5.3.9-8h0Z"/>
        <path class="st0" d="M274.7,215.4c-1-11.1-3.9-21.6-6.4-32.4-1.2-5-2.4-10-4.2-14.9-1.9-5-4.1-9.7-3.8-15.1,0-.5,0-1,.1-1.5.2-1.1-2.9-1.2-3,0-.7,5-3.3,10.2-5.1,14.9-1.5,4.2-3.4,8.4-5,12.6-1.7,4.3-3.6,8.5-5.5,12.7-.3.7-.6,1.3-.9,2-1.7,3.7-3.4,7.4-4.8,11.2-1.6,4.2-3.1,8.4-4.3,12.7-.6,1.3-1.1,2.6-1.6,3.9-2.6,7.1-5.1,13.1-6.2,20.6-1.2,7.8-3.8,15.3-5.1,23.2-1.3,8-3.1,15.8-4.3,23.8-1.4,8.9-3.7,17.6-4.1,26.7,0,1.2,0,2.3,0,3.5-2.2,5.5-4,11.2-5,17.1-.3,1.6-.6,3.3-.8,5.1-2.2,5.2.6,15.3-.2,19.4,0,.4,0,.7.4.9,0,.9,0,1.8,0,2.7.2,2.5,6.1,2.5,6.3,0,.2-1.6.5-3.1.9-4.5-1.8-1.7-3.3-3.9-3.1-6,.3-3,4.3-5,6.7-5.7.9-.2,1.7-.3,2.4-.2,2.3-3.2,4.9-6.2,7.3-9.4.5-.7,1-1.3,1.5-2-3.3-1.2-6.5-2.7-9.8-4.2-.6.4-1.2.6-1.6.2-.4-.3-.6-.8-.7-1.2-.3-.1-.6-.3-.9-.4-1.4-.6,1.5-2.5,1.8-2.7,0,0,0,0,0,0,2.4-3.8,8.9-7.4,11-2.9.6,0,1.1.2,1.7.3,1.5.5,2.7,1.5,3.9,2.5.2.2.3.3.5.5,2-2.6,4-5.2,6.2-7.8-1.1-1.4-2.3-2.6-3.7-3.7-.7.5-1.4.5-1.7,0-.4-.7-.8-1.4-1.3-2.1-3.1-2-6.5-3.6-9.7-5.5-.5.9-1.1,1.8-1.8,2.7.2-1.2.4-2.3.6-3.5-2.7-1.8-5.2-3.8-6.9-6.5-.9-1.4,2.7-5.6,4.2-5.3,1.9.4,3.7,1,5.4,1.8,1.7-4.8,3-9.7,4.2-14.6-.4,5.4-.7,10.7-1.9,15.7,1.4.8,2.7,1.7,3.9,2.7.3-.9.5-1.8.8-2.8,1.1.2,2.6,0,2.7-.9,1.7-3.6,3.4-7,4.9-10.5-.4,1.8-.8,3.5-1.4,5.2-.5,1-1,2-1.5,3-1.3,2.4-2.5,4.9-3.8,7.4,1.5,1.4,2.9,3,4.1,4.7,2.5,2.2,4.9,5,6.5,7.9,4.8-5.4,9.8-11.2,14.2-17.3-.9-1.3-1.8-2.5-2.9-3.6-2.1,2.7-4.4,5.2-6.8,7.6,1-1.2,2-2.4,2.8-3.7,1-1.6,2-3.3,2.9-5-1.9-1.9-4.1-3.6-6.5-4.9-4.1-2.3-8.1-4.3-11.8-7.3-3.1-2.6-6-5.3-9.7-6.9-1.3,5.6-2.9,11.2-4,16.8,0,.2-.1.5-.1.8,1-6,1.5-12.1,2.9-18-.2,0-.5-.2-.8-.3-1.6-.5.6-6.1,2.2-6.4,1-5.4,1.5-10.9,3.1-16.2,0-.2.1-.5.2-.7,0,1.1,0,2.2,0,3.4-.5,1.8-1.1,4-1.1,4.4-.5,3-.6,6.1-1.1,9.1,8.4.5,14.7,5.4,20.5,11.3.2.2.2.5.2.8,1.2.8,2.5,1.6,3.6,2.5.6-1.4,1.2-2.8,1.9-4.2-2.2-6.3-4.6-12.5-9-17.6-2.2-2.6-6-6.4-7.4-10.4-.5,1.5-1,3.1-1.6,4.6.1-.5.2-1.1.4-1.6.3-1.4.6-2.8.9-4.2-.5-2.1-.4-4.2,1-6.2.5-3.2.9-6.4,1.4-9.5.2,2.4.5,4.9.8,7.3,0,.3-.2.6-.2.9,4.4-.4,11.3,10.9,12.6,13.1.2.3.4.6.5.9,2-7.3,4.1-14.5,4.6-22.1.8-11.9,3-23.1-.5-34.6.1-.8.3-1.5.4-2.3.1-1.1.3-2.2.4-3.3.6,3.7,1.4,7.4,1.6,11.2.2,4.3.4,8.5.6,12.8,0,5.7-.3,11.5-.6,17.2-.4,7.9-2.8,14.8-6,21.9,2.1,4,3.4,8.3,4.3,12.7.8-1.7,1.5-3.4,2.3-5.1,0,.1,0,.2,0,.3-.5,1.9-1.2,3.9-1.9,5.8.7,3.5,1.4,7.1,2.2,10.6,1.1-2.5,2.4-5,3.5-7.6,1.4-9.4,3-18.8,4.6-28.2,0-.1,0-.2,0-.4,0-1.5-.2-3-.3-4.5,0-.2,0-.5,0-.7.4-7.5-.2-15.4-.8-22.9,0-.8-.1-1.6-.2-2.4,1.1-.1,2.1-.6,2.2-1.4.2-1.1.4-2.3.5-3.4,0,1.7,0,3.4-.1,5.1-.6,9.6-1.1,18.9-1,28.4,1.1-5.9,2.6-11.7,5.5-17,.7-1.2,1.4-2.6,2.1-3.9,0-2.5-.1-5-.3-7.5h0ZM243,217.7c-.6,4.4-1.2,8.8-1.9,13.2-.3-4.9.2-10.4,2-14,0,.3,0,.6-.1.8h0ZM243.5,214.3c-.1,0-.3,0-.5,0,.3-.9.6-1.8.9-2.7-.1.9-.3,1.9-.4,2.8h0ZM260.8,181.5c-.6-3.4-1.1-6.9-1.6-10.3.3-1.8.5-3.5.8-5.3,2.1,5.6,3.9,11.2,5.2,17.2.5,2.2,1,4.5,1.4,6.7-1.3-3.1-3.1-5.9-5.8-8.3h0Z"/>
        <path class="st0" d="M291.1,372.9c-1.8,3-3.2,6.2-4.6,9.3,1.9-.3,3.8-.6,5.7-.9,2.4-4.5,5.1-8.8,7.8-13.1-2.8,1.3-5.5,2.6-8.4,3.7-.2.3-.3.6-.5.8Z"/>
        <path class="st0" d="M304.3,297.8c-.1-.4-.2-.8-.3-1.2-1.3.3-2.5.5-3.1.5-.9,0-1.8-.2-2.6-.5-.3.5-.7,1-1.1,1.5,2.4,0,4.9,0,7.2-.2h0Z"/>
        <path class="st0" d="M252.6,432.2c1-1.5,2.3-2.9,3.5-4.2-.3-4.3-.5-8.6-.6-13-.6,2.1-1.2,4.1-1.6,6.2-.1.6.2.9.8,1,0,0-.1.1-.2.2-.4.4-1.1,1.1-1.9,1.8.9-3.6,1.9-7.3,2.9-10.9-.1-7.2,0-14.4.1-21.5,0-5.6.2-11.2.3-16.7-1.9,6.1-3.5,12.3-5.1,18.5-3.3,12.7-6.2,25.3-4.8,38.3-1.6,2.8-1.9,5.4,1.2,6.6,2.4,1,6.8-1.6,3.1-3.1.7.3,1.6-2.2,2.3-3.3h0Z"/>
        <path class="st0" d="M281.5,393.4c-.2.3-.3.7-.5,1,.1-.3.2-.7.3-1-1.9.3-3.8.7-5.6,1.4-1.9,5-4.5,10.5-8.8,13.3,1.3-2.4,2.5-4.8,3.8-6.9,1.2-1.9,2.3-3.8,3.5-5.7-.2,0-.4.2-.6.3-4.1,2.2-7.4,5.9-9.9,9.8-.9,1.3-2,2.9-3,4.6,0,2.7.2,5.3.3,7.9,0,1.5.2,2.9.3,4.4,1.5-1.5,3.1-2.9,4.6-4.4,4.4-4.1,9-8.1,13.1-12.6,3.5-3.8,5.9-8,7.9-12.6-1.8,0-3.6.1-5.4.3h0ZM263.5,414.4c.3-.4.5-.9.8-1.3.2,0,.5,0,.7,0-.5.4-1,.8-1.5,1.2Z"/>
        <path class="st0" d="M309,315.8c-.9-5-2.5-9.9-3.9-14.8-1.4.2-2.7.3-4.1.4.7,5.5,1.9,10.9,2.1,16.6,0,1.2,0,2.4,0,3.6-.4-2.7-.9-5.3-1.5-8,0-.3-.1-.6-.2-1,0-.8,0-1.5,0-2.3,0-.6-.4-1.1-.9-1.4-.6-2.2-1.5-4.4-2.9-6.2,0,0,0,0,0,0,.4-.4.7-.8,1-1.2-1.5,0-3,0-4.5-.2-1.6,1.5-3.2,2.9-4.8,4.4-.5.4-.9.9-1.3,1.4,0,1.4-.4,2.8-1.1,4.1-.8,1.7-2,3.1-3.4,4.4-.2.2-.5.4-.8.6-.5,1.3-1,2.5-1.4,3.8-.7,1.9-1.3,3.8-2,5.8.2,0,.3-.2.5-.2,1.6-.9,3.2-1.7,4.9-2.3,0,0,.1,0,.2-.1,1.4-.8,2.9-1.6,4.4-2.4.1-.6.2-1.1.3-1.7,1-5.1,2.7-9.3,5.5-13.3,0,0,0,0,0,0,0,.2.6.2.5,0,0-.2,0-.4-.1-.6,0,0,0,0,.1-.1.3,1.2.5,2.5.6,3.8-.7.2-1.2.6-1.4,1.2-1.4,3.7-3.4,7.2-5.4,10.7,3.1-1.5,6.5-2.8,9.8-2.8,1.8,0-1.2,3.7-1.5,4-.8.7-1.6,1.3-2.3,2,.2.3,0,.7-.9,1.2-.4.2-.8.3-1.2.5-3.2,2.5-6.5,4.8-9.9,6.8-2,1.2-4,2-6.2,2.8-.4.1-1.2.4-1.9.7-.8,1.5-1.7,3-2.6,4.5,1.7-.3,3.6-.2,5.4.1,2.7.6,4.8,1.6,6.3,4,.8,1.3,2.5,5.9,4.3,5.9,2.5,0-.6,7.8-2.9,7.8-3.6,0-4.5-5.4-6.4-7.6,0,0-.1-.2-.2-.2-.9,3.8-3.3,6.5-5.6,9.3,0-.3.2-.6.3-.9.1-.3.2-.6.4-.9.1-.3.2-.6.4-.8,1.2-2.5,2.6-4.9,4.1-7.2-2.2-1.8-6.7-3.8-9.8-3.4-1.6,2.4-3.1,4.9-4.4,7.5-1.8,3.4-3.3,6.9-4.7,10.4.2,2.6.6,5,.6,6.5,0,4.8,0,9.7,0,14.5,0,0,0,0,0,0,.7-1.9,1.4-3.8,2.2-5.7-.6-3.9.2-8.5.8-11.9.8-4.2,3.2-9.5,7.6-10.9.3-.1.7-.1,1,0,2.3,2.2,0,8.5-.8,11-1,3.4-2.3,6.7-3.8,10,0,.5.1,1,.2,1.6.2,1-1.6,3.5-2.9,4-.5.9-3.6,3.7-4.4,3.2,0,2,0,4,0,6h0c.3-1.9.7-3.8,1-5.7-.1,1-.2,1.9-.2,2.8,0,2.7-.3,5.2-.7,7.8,0,2.1,0,4.2.1,6.3,2-3.6,4.6-6.9,7.1-9.5.7-.7,1.4-1.3,2.2-1.9-1.3.6-2.6,1.3-3.8,2.3-2.2,1.7-.2-3.2.6-3.9,4.7-4.3,11.3-6.5,18-7.8.6-1.9,1.2-3.8,1.8-5.7.4-.1.8-.4.9-.8.8-1.1,1.6-2.2,2.4-3.4-.3.1-.6.2-1,.3-4.2,1.5-11,3.1-14.3,6.4-2,2-.9-2.8-.5-3.5,2.2-4.1,7.6-5.9,11.7-7.5,2.9-1.1,5.8-2,8.7-3.1.4-.7.8-1.4,1.2-2.1-.2.6-.5,1.3-.8,1.9.4-.1.7-.3,1.1-.4,2.8-1.2,5.5-2.7,8.3-4,2.9-5.5,5.1-11.2,5.6-17.9.8-8.9.7-18.2-.9-27h0ZM277.9,365.2c.3-1.4.7-2.8,1.3-4.2.6-1.3,1.3-2.4,2.1-3.5-1.1,2.5-2.3,5.1-3.4,7.7h0Z"/>
        <path class="st0" d="M331.6,415.3c-1.1-11.2-4.1-23.1-9.1-33.2-.7-1.5-4.6-1.5-4.8.4-.7,6.7-5.9,11-8.4,17.1-2.1,5.1-2.7,10.9-3.1,16.4-.4,6.6-.1,13.2-1,19.7-.9,6.9-3.4,13.6-6.1,20-4.7,11.3-14.3,34.8-3.3,45.8-.7,2.3-.9,4.5,0,6.7.8,2.1,6.8,1.5,5.8-1-.3-.9-.4-1.8-.3-2.7.5-.1.9-.4.4-.8,0,0-.1-.1-.2-.2.9-3.3,3.7-6.6,5.4-8.9,3-4.2,6-8.5,8.4-13.1,5.4-10.3,8.2-22.8,11.7-33.9,3.4-10.6,5.5-21.1,4.4-32.3h0ZM321.8,398.7c.3,1.1.6,2.1.8,3.2-.3.7-.5,1.4-.8,2v-.2c0-1.5-.2-3.3,0-5h0ZM310.9,475.4c.5-1.8.9-3.7,1.2-5.6,0,0,0,0,0,0,.5,0,.9-.2,1.1-.5.4-.6.8-1.1,1.2-1.7-1.4,4.2-3,8.3-5,12.2.6-1.5,1.1-2.9,1.5-4.5h0ZM319.6,390.3c.3,1.2.7,2.4,1,3.7-1,0-1.9,0-2.3.3-.1,0-.2.1-.3.2.5-1.4,1.1-2.8,1.6-4.2h0ZM312.4,420.3c.4,4.4,1.1,8.8,1.8,13.1.1.7.2,1.5.3,2.2-.3,1.1-.6,2.2-.9,3.3-1.1,3.3-2.8,6.3-4.4,9.4,1.9-9.3,2.5-18.6,3.2-28h0ZM305.8,464.2c-.1,2.7-.2,5.4-.7,8.1-.1.7-.3,1.3-.4,1.9-.7,1.4-1.4,2.8-2,4.2,1.1-4.8,2.1-9.5,3.1-14.3h0Z"/>
      </g>
      <path class="st0" d="M306.2,287.9c-4.9-1.1-10.1,0-15,.8-3,.5-5.9,1.1-8.8,2,2.4-1.3,4.8-2.7,7.2-4,7.9-4.7,16-10,21.2-17.9.7-1.1-1.3-1.8-2-2-9.6-1.9-22.4,4.2-29.9,9.7-2,1.5-3.8,3.1-5.4,4.9.4-2.7.7-5.4,1.2-8.2,1.2-6.4,3.5-12.8,5.2-19.1,2.4-8.9,6.4-17.6,7.1-26.9.3-4-.5-9.8-5.9-8.6-5.1,1.2-7.2,8.5-8.6,12.8-3.3,10.5-5.2,21.4-6.4,32.3-.9,8.1-2,16.2-3.3,24.2-.8-4-1.6-8-2.5-12-1.2-5.5-2.8-10.9-5-16.1-3.4-8-9.2-19-19.6-15.3-.6.2-1,.6-.9,1.2,1.2,4.4,5.1,7.7,7.1,11.8,2.6,5.2,5.5,10.3,8,15.5,1.9,3.9,3.3,7.9,4.7,12-1.6-1.4-3.1-2.8-4.5-4.2-5.7-5.8-12.6-14.2-21.7-13-2.6.3-7.6,2.3-8.1,5.3-.6,3.5,6,5.9,8.3,7.1,6.1,3.2,12.7,5.4,19,8.4,4.9,2.4,8.5,5.3,11.7,9.1.2.4.4.9.6,1.3.2,1.2.4,2.3.6,3.4-1.8,11.6-3.2,23.1-4.4,34.7-.8-1.9-1.5-3.8-2.4-5.6-2.1-4.1-4.7-7.9-7.3-11.7-3.9-5.7-8-11.4-13-16.2-4-3.9-8.9-7.6-14.7-7.9-2.1-.1-5.1,0-6,2.3-2.1,5.5,10.6,15.1,13.9,18,9.3,8,19,14.3,24.7,24.8-1.7-1.5-3.3-3.2-4.7-4.5-5.1-4.6-10.3-10.4-17-12.7-3.7-1.2-20.4-2.8-17.9,5,2,6.2,12.2,9.8,17.6,11.7,3.9,1.4,7.9,2.5,11.8,3.9,4.8,1.8,9.1,4.3,13.9,6.1-.6,7-1,14-1.4,21-.3,4.9-.4,9.8-.4,14.6-.4-.7-.8-1.3-1.2-2,0,0,0,0,0,0-.2-.3-.4-.6-.6-.8-2.1-7.6-3.7-15.4-5.9-23-1.1-4-3.9-9.7-9.1-7.3-2.6,1.2-3.3,3.9-3.3,6.7-.9-1.1-1.8-2.2-2.8-3.2-3.1-3.3-7.2-7.2-12-7.7-2.7-.3-6.4.6-6.5,3.9,0,3.8,4.5,7.4,6.9,9.6,3.9,3.5,8.3,6.6,12.6,9.6,2.4,1.6,5.4,3.8,8.5,6.4.3.4.6.8,1,1.1-4.6-3.3-9.5-6-15.4-7.2-4.7-1-17.2-3.6-19.1,3.2-1.9,6.4,10.6,7.1,14.1,7.4,3.6.3,7.4.2,10.9.9,3.3.6,6.3,2,9.6,2.4,1.1.1,2.1,0,3.1,0,2.2,1.8,4.3,3.7,6.5,5.4.2.1.5.2.9.3,1,2,1.6,4,1.7,6v1.3c0,1.1-.3,2.2-.8,3.3-.2.5.2.7.7.8,0,3,0,5.9-.2,8.9-.2,6.7-.9,13.5-1,20.2-.1,7.3.8,14.8,1.8,22-.3,2.2,5.6,2.4,6,0,1.7-10.3-.2-21.7-.2-32.2,0-5-.4-9.9-.8-14.9.6-.2,1.2-.4,1.4-.8,5.4-11.2,14.9-14.7,26.5-17,3.8-.8,20.7-1.4,21.4-7,.9-7.4-15.2-2.9-18-2.2-8.5,2.3-17.8,5.1-25,10.6.1-.3.3-.5.5-.8,1.3-1.6,2.4-3.2,3.8-4.7,2.4-2.6,5.7-4.3,8.9-5.8,4.8-2.3,9.7-4.1,14.7-6,7.8-3,16.2-6.6,19-15.2.5-1.7-2.3-1.6-3.2-1.4-12.5,3.3-26.8,7.9-37,16.7,2.2-5.7,4.6-13,1-18.5-.7-1-2.4-1.2-3.5-.8-5.2,2.2-6.6,6.5-6.9,11.8-.4,7.1-.7,14.2-1.3,21.4-1.2,2.3-2.2,4.7-3.1,7.2-.1-1.8-.2-3.6-.2-5.4-.1-10.5.7-21,1.5-31.5.2-2.5.3-5,.5-7.5.1-.1.2-.2.3-.4,4.4-2,10.4-3.3,14.6-.2,2.7,2,4.4,5.1,7.1,7.1,4.2,3.2,10,2.5,10.9-3.4,1.3-8.1-6.3-14-13.6-14.3-2.6-.1-5.7.3-8.8,1.1,1.4-.7,2.9-1.3,4.2-2,3.2-1.4,6.6-1.9,9.8-3.3,2.7-1.2,5.2-3,7.7-4.5,4.7-3,10-6.3,12-11.8.2-.6-.1-1-.6-1.3-6.4-4.3-17,1.6-22.7,4.5-3.4,1.7-6.9,3.7-10.1,5.9,6.4-6,16.8-11.9,16.3-21.4,0-1.4-2.1-1.7-3.1-1.8-8.4-.3-13.8,8.7-17.5,15.1-1.4,2.5-3.1,5.2-4.7,8.1,0-.7.2-1.4.3-2.1.8-5.8,2.2-11.5,3.6-17.2.4-.2.6-.4.8-.7.1-.2.2-.4.4-.5.1-.1.3-.2.4-.4.1-.2.2-.3.3-.5,4.7-5.7,14.7-6.8,21.8-7.1,5.4-.2,10.7,1.2,16,.6,3.1-.3,8.6-1.5,9.3-5.2.7-3.9-5-6.3-7.9-6.9h0ZM238.3,282c-2.4-1-19.1-7-11.6-10.6,7.7-3.7,15.2,8.5,19.9,13,.4.3.8.7,1.2,1-3.1-1.2-6.4-2.2-9.5-3.4h0ZM253.3,267.8c-2.7-5-5.2-10.2-8.7-14.7-.9-1.1-1.8-2.1-2.7-3.1-1.1-1.2-4.3-2.8-1.7-3.7,2.2-.8,4.3,1.6,5.6,3.2,5,5.8,7.7,14,9.4,21.3.1.6.3,1.3.4,1.9-.7-1.7-1.5-3.3-2.3-4.9h0ZM236.7,317.7c-5.5-4.1-11.1-8.6-15.8-13.7-2.5-2.7-6.5-7.7.5-5.6,6.6,1.9,11.7,8.3,15.6,13.5,3.4,4.5,6.5,9.3,9.4,14.1-2.9-3.1-6.2-5.7-9.7-8.3h0ZM236.6,339.5c-3.5-1.1-7.1-2.2-10.4-3.9-2.3-1.1-8.2-4.1-8.8-6.9-1-5.2,10.2-2,12.6-.5,6.5,3.8,12.1,9.3,18.1,13.8,1.6,1.2,3.4,2.9,5.4,4,0,.2.1.4.2.6-5.7-2.4-11.2-5.2-17.1-7.1h0ZM225.8,360.5c-1.8-1.4-8.5-5.6-8.4-8.2,0-3.5,6.6,1.9,7.3,2.5,2,1.8,3.8,3.9,5.5,6,1.4,1.7,2.6,3.5,3.9,5.3,0,.2,0,.3.1.5-2.8-2-5.6-4-8.3-6.1ZM234.1,382.4c-1.9-.4-3.8-.6-5.8-.8-3.8-.3-13.7.3-16.2-3.2-3.7-5.1,12.8-2.8,15.2-2.2,5.3,1.4,9.8,4.4,14.1,7.8-2.4-.3-4.8-1.1-7.2-1.6h0ZM242,371.4c-1.4-1.8-2.7-3.5-4-5.3-.7-3.9-1.5-10.6.6-10.6s3.4,11.2,3.8,13.1c.3,1.6.7,3.1,1.1,4.7-.5-.6-1-1.2-1.4-1.8h0ZM291.6,383.6c1.5-.3,11.1-2.7,9.7-.2-1.1,2-9.1,2.7-11.2,3.1-5.3,1-12.1,1.9-18.3,4,6.2-3.2,12.9-5.2,19.9-6.9h0ZM284.1,374c-2.8,1.1-5.6,2.3-8.4,3.6,8.7-7.7,20.3-12.6,31.2-16.7-3,8.1-15.8,10.4-22.8,13.1ZM269.1,358.6c1.9,5.6-1.2,12.6-3.2,17.8,0,.2-.1.3-.2.5.1-1.3.3-2.7.4-4,.3-4.2-.2-10.8,3-14.2h0ZM283.7,345.6c1.5,1.7,5.7,10.5,1.2,9.5-1.9-.4-4.2-4.2-5.6-5.6-2.4-2.4-7.1-4.2-11.9-4.8,5.7-2.5,11.9-3.8,16.2.9h0ZM280.1,309.4c-1.1,5.3-5.7,9.4-10,13.3,2.3-4.3,6-10.8,10-13.3ZM265.8,330.2c.4,0,.9,0,1.4,0-.9.7-1.8,1.5-2.7,2.3.4-.8.9-1.5,1.3-2.3h0ZM294.3,319.5c.8-.2,4.2-1.2,4.6-.4.4,1-2.6,3.8-3.2,4.3-2.9,2.7-6.4,4.7-9.8,6.8-3.5,2.2-6.8,3.7-10.7,5-4,1.3-7.1,3.9-11,5.5-.9.4-1.9.6-2.7,1,6.9-10.7,20.9-19,32.8-22.2h0ZM277.7,232.2c.7-2.5,1.4-5.1,2.6-7.5.2-.5,1.5-3.5,2.1-3.5,1.5,0,1.3,3.5,1.2,4.5-.2,10.3-5.3,20.1-8.2,29.7-.6,2.2-1.4,4.3-2.1,6.5.7-10,1.9-20.1,4.4-29.8h0ZM277.6,282c4-4.2,9.5-7.3,14.9-9.3,3.1-1.2,7.7-2.8,11.6-3.1-5.9,7.6-14.6,12.5-22.8,17.2-3.4,1.9-6.9,3.7-10.2,5.8,1.5-3.9,3.6-7.6,6.5-10.6h0ZM304,296.6c-1.5.8-5.2,0-6.7,0-7.6-.7-14.6-.1-22.1,1.5-1,.2-2.2.4-3.3.6,5.9-3,13.8-5.5,15-5.7,3.5-.7,7.1-1.2,10.6-1.6,1.4-.2,2.8-.2,4.2-.2,4.5-.2,5.2,1.6,2.3,5.5h0Z"/>
    </g>
    <path class="st0" d="M168.3,384.7c-.9-1.4-2-2.5-3.3-3.4,0,0,.1-.2,0-.3-.6-2.1-3.8-2.1-7.2-.8-.5.1-.9.3-1.3.6-5,2.4-9.6,7.5-5.9,12.4,3.5,4.6,13.5,6.6,17.9,2.4,3-2.8,1.6-7.9-.3-11h0ZM160.1,387.1c.1-.3.3-.5.4-.8.2.4.4.9.5,1.4.3,1.1.2,2.3-.2,3.1,0,.1-.1.3-.2.4-.4-.1-.8-.3-.9-.5-.6-1.1-.2-2.5.4-3.7Z"/>
    <path class="st0" d="M153.9,365c-1.8-3-6.1-3.9-9.3-2.9-1,.3-2.3,1-1.9,2.2.3.9,1.2,1.3,2.1,1.6-.1.2-.2.3-.3.5-.5,1.1-.7,2.4-.2,3.5.8,1.8,2.5,2.6,4.3,3.1,1.7.5,4,.2,5.1-1.2,1.6-2,1.5-4.6.1-6.7h0Z"/>
    <path class="st0" d="M306.2,588.8c-2.6-2.3-5.8-3.8-9.3-4.1-3.3-.3-7.9.4-9.1,4-.3,1,.2,1.7,1,2.1-.8.7-1.5,1.6-2,2.5-2.4,4.6-.4,10.3,3.8,13,5.6,3.7,16.8,2.9,20.2-3.8,2.5-4.9-.9-10.5-4.6-13.7h0ZM299,601.3c-.1,0-.2,0-.3,0h0c-.9-1-1.4-2.2-1.9-4.1-.4-1.3-.6-2.9-.4-4.5.1-1.3.8-1.5,1.3-2.2.3,0,.7-.2.9-.4,1.1.7,2.2,1.7,2.9,2.7,2.5,3.4,1.9,7.5-2.5,8.4h0Z"/>
    <path class="st0" d="M277.3,587.4c-2.2-1.4-4.7-2.2-7.3-1.5-.7.2-1.5.6-2,1.1-1.6-.2-3.2,0-4.3.6-2.6,1.2-4,4.2-1.9,6.6,4.3,4.8,15.6,2.3,17-4.3.2-.9-.8-2.1-1.5-2.5h0Z"/>
    <path class="st0" d="M572.4,168.6c-11.1-21.8-28.9-42.9-51.8-54.8-12.1-6.2-26.3-10.3-40.1-9.8-3.8.1-7.2.8-10.5,1.8-15.6.2-32,10.6-43,19-17,13-29,29.7-35.8,49.2-7.1,20.7-6,42.7-.4,63.7,5.9,22.1,18.9,40,38.8,53.3,18.4,12.4,39.6,18.8,62.2,16.4,21.4-2.3,41.8-11,58.1-23.8,16.8-13.1,28.7-30.6,32.9-50.8,4.5-21.6-.3-44.4-10.4-64.2h0ZM540.6,147.9h-.3c-.9-1.5-1.7-2.9-1.9-3.2-2.2-3.3-4.6-6.6-7.4-9.5-2.2-2.2-6.1-6.2-10-7.2-1.6-1.2-3.2-2.2-4.9-3,2.2.8,4.4,1.7,6.4,2.8,8.4,4.4,13.9,12.2,18.1,20.2h0ZM546.1,266c.5,0,1-.2,1.5-.3-.2.3-.4.5-.6.8-.2-.2-.4-.3-.6-.4,0,0,0,0-.3-.1h0ZM545,260.1c-2.5,1.7-4.8.7-7.4-.3-5.6-6.1-9.9-13.7-15.4-19.5-4.4-4.7-9.6-8.7-14.3-13.1-3.7-3.5-6.9-8.2-11.1-11.2,6-.2,12-.5,18-1,10.2-.8,20.6-1.1,30.7-2.4,2.9-.4,5.8-1,8.7-1.5,1,.7,2.9,1.1,3.4,1.1,3.4-.1,3.5,9.2,3.5,11.6-.2,7-3.5,13.4-6.6,19.6-1.8,3.7-3.4,7.5-5.4,11-1.1,1.8-2.3,4.4-4.1,5.7h0ZM501.8,275.3c0-1.2,0-2.4,0-3.7-.5-7.3-1.2-14.6-1.9-21.9-.8-8.4-2.2-16.7-3.2-25.1.6.9,1.3,1.7,1.8,2.4,4.3,5.7,10,10.1,14.8,15.4,7.9,8.8,14.7,19.4,25.1,25.9,3.9,8.8-10.8,13.3-17.6,15.4-3.4,1-6.9,1.8-10.3,2.8-3.8,1.2-3.8,1.5-6.6-1-1.1-.9-1.9-1.9-2.6-2.8.5-2.4.6-4.9.5-7.4h0ZM415.8,242c-2.4-4.3-4.2-8.4-3.2-13.3.6-2.7,1.2-6.9,2.8-9.5,2.7.2,5.3.3,7.6.2,9.6-.1,19.2-2.4,28.8-3.2,9.8-.8,19.4-.2,29.1,0-.6.6-1.3,1.2-1.9,1.8-10.6,10.1-24,18-33.3,29-3.9,4.6-7.4,9.5-11.3,14.2-.7.8-1.6,1.8-2.4,3-3-2.5-5.9-8.5-7.2-10.2-3-4-6.4-7.6-8.8-11.9h0ZM423.1,259.9c-1.1-1.5-2.2-3-3.3-4.5-1.7-2.6-3.8-5.1-5.4-7.7,2.9,4.1,5.9,8.1,8.7,12.3h0ZM411.2,207.5c-.5-2.1-.8-4.2-1-6.3-.6-5.1-2.4-13.3,1.8-17.4,4.4,2.7,10.3,5.1,11.6,5.5,9.6,3.4,19.4,6.5,29.1,9.5,5.3,1.6,10.8,2.8,16.1,4.7,3.9,1.4,8.9,3.2,12.8,5.4-6,.5-12.1.9-18.1,1.4-7.7.6-15.4,1-22.9,2.1-8.1,1.2-16.3,3.3-24.6,2.8-.7-.7-2.5-1.1-3.3-1,.8,0-1.2-5.5-1.5-6.7h0ZM408.6,218c-.5.3-.9.7-1.3,1.1-.1-.5-.3-1.1-.4-1.7.6.2,1.1.4,1.7.6h0ZM415.5,162.1c.9-1.4,1.9-2.8,3.1-4.2,4.1-3.9,9.4-6.6,13.6-4.2,1.3,1.5,2.5,3,3.3,3.8,2.4,2.5,4.9,4.9,7.3,7.4,5.2,5.2,10.4,10.4,15.8,15.5,5,4.8,10.2,9.5,15.4,14.2,2,1.8,4.1,3.5,6.2,5.3-3.6-1.4-7.2-2.5-10.4-3.5-9.4-2.7-18.7-5.6-28.1-8.4-6-1.8-12.1-2.9-18.1-4.7-2-.6-10.4-2.4-12.6-4.8.3-2.6.6-5.3,1.1-7.9.4-2.3,1.1-4.3,2.1-6.2.7-.6,1.4-1.1,2.2-1.6.5-.3-.5-.7-.9-.6h0ZM425.6,149.8c0,0,.1-.2.2-.2.1,0,.2,0,.3,0,.5,0,1.1.1,1.7.4-.7-.1-1.5-.1-2.2-.1ZM438.5,147.3c-3.5-7.2,7.2-13,12.6-14.8,4.3-1.4,8.5-2.9,12.8-4.4,2.4-.8,5.9-2.5,8.6-2.4,2,0,3.7.9,5.2,1.9,0,3.6.3,7.2.6,10.6.6,6.7,1.6,13.4,2.7,20,2.4,13.8,7.4,26.8,7.8,40.8-2.2-3.6-5.2-6.8-8.1-9.8-6.5-7-13.4-13.7-20.3-20.4-6.9-6.6-14.2-13-21.9-18.8-.5-.3-.9-.7-1.4-1,.9-.2,2.1-.8,1.6-1.8h0ZM505.3,126.3c2.2.9,4.3,1.8,6.2,2.6,11.1,4.7,20.1,13.7,21.7,24.9-7.5,9-12.3,19.8-19,29.4-5.1,7.4-11.8,13.8-18.8,20,.2-13.9-3.3-26.5-6.2-40.2-1.7-7.6-2.9-15.4-3.9-23.1-.5-4.3-.5-8.7-.8-13,.9-.2,1.8-.7,2.9-1.2.3.1.6.2.9.3,5.6.9,11.3-.1,16.9.4h0ZM500.3,121.1c3.1.5,6.2,1.1,9.2,1.8-1.7-.3-3.4-.5-5.1-.5-1.2-.4-2.5-.8-3.7-1.1-.1,0-.2-.1-.4-.2h0ZM445,260.4c4.8-5.2,8.9-10.8,14.2-15.7,5.3-4.8,11.3-8.8,16.7-13.5,4.5-4,8.7-8.3,12.8-12.6.1,2.4.3,4.8.6,7.2.8,7.4.4,14.5.5,21.9,0,7.3.7,14.5,1.1,21.8.3,5,1.1,9.9,1.8,14.8-1.2,2.9-3.1,5.3-6.2,6.8-8,3.6-18.6,1-26.4-2.2-7.2-2.9-14.1-8.3-16.7-15.4-.7-1.8-1.1-7.2-2.7-9.8,1.7-1.2,3.3-2.4,4.3-3.4h0ZM556.5,204.8c-5.1,1-10.4,1.8-15.5,2-8.6.3-17.2,0-25.7.1-5.1.1-10.1.4-15.2.7,8.3-7.7,16.9-15.1,23.4-24.2,4.4-6.2,8-12.8,12.3-19.1,1.2-1.7,2.9-3.7,4.5-5.7,5.1,2.5,7.8,16.2,8.8,19.8,2.6,8.8,10.9,17.5,7.4,26.5h0ZM556.5,265c-22.4,27.6-67.1,47.7-103.4,31.5-19.5-8.7-37.5-23.7-46.2-42.5-8.2-17.6-11.7-38-10.3-57.1,1.4-20,10.3-40.1,23.9-55.4,6.9-7.8,15.3-14.4,24.1-20.2,1.6-1.1,3.3-2.1,5.1-3.2,8.4-1.6,15.9-4.9,24.2-7.2,1.4-.4,2.9-.7,4.4-.9,2.1.2,4.2.6,6.4,1.3.7.2,3.1-.1,1.8-1-.4-.2-.7-.4-1.1-.6,8,.2,16,2.5,23.2,5.5,5.6,2.4,10.8,5.4,15.7,8.8-5.5-2.5-11.5-4-17.4-5.2-11.9-2.5-23.2-3.3-35.1-.6-10.9,2.4-21.3,6.3-30.8,11.9-9.2,5.5-16.4,12.8-23.5,20.5-2,2.2-4.1,4.4-6,6.7h0c-.3.4-.6.8-.9,1.2,0,0-.1.2-.2.2,0,0,0,0,0,0-1.6,2.2-2.9,4.4-3.7,6.9-.6,2-1,4-1.1,6-4.5,7.6-5.8,17.4-6,25.7-.2,8.3.9,16.1,3,24.2,2.4,9.6,2.2,19.9,8,28.4,5.8,8.5,11.4,17,19.5,23.8,1,.9,2.1,1.7,3.2,2.5.4.8.8,1.5,1.3,2.1,3.2,3.9,8.2,6.9,13.6,9.3,1.8,1.4,3.6,2.7,5.8,3.8,15.5,7.8,34.7,5.7,51.1,2.3,19.1-3.9,36.8-11.1,48.1-26.5,12.1-16.6,18.3-37.6,16.4-57.8-.1-1-.2-2-.4-3,.1-.3,0-.7-.1-1-1.3-9.1-4.1-18-8-26.4-4.5-9.6-8.6-19.3-13.1-28.9-1.5-3.2-3.1-6.3-5-9.4,4.6,5.1,8.7,10.6,12.3,16.1,21.7,32.9,27.4,76,1.6,107.9h0ZM562.6,209.7c.5,0,.9-.2,1.4-.3,0,.7,0,1.3.1,2-.4-.6-.9-1.2-1.5-1.7Z"/>
    <path class="st0" d="M562.9,300.4c-1.6-2.7-4.5-4.1-7.6-4.2-2-.1-4,.4-5.2,1.6-.2,0-.5,0-.7.1-1.4.4-2.7,1-3.9,1.9-1.8,1.3-3,3.1-3.8,5.1-1.6,4.6.1,9.5,4.3,11.9,4.3,2.5,10.6,3,13.9-1.3,1.6-2.2,2.7-5.2,3.5-7.7.7-2.5.8-5.1-.5-7.4h0ZM557.5,307.6c-.3,1.8-.9,2.9-1.9,3.8,0-.2-.1-.3-.1-.5-.5-1.7-.6-1.9-.6-3.6,0-1.4,0-2.7.4-4.1.1-.1.2-.2.3-.4.1-.2.4-.5.7-.8,1.6,1.4,1.6,3.5,1.3,5.5h0Z"/>
    <path class="st0" d="M567.9,332.6c-.5-1.6-3.1-2-4.5-1.9-.7,0-1.3.2-1.9.4-.7.2-1.5.4-2.2.8-.6.3-.9.8-.8,1.3-1.3,0-2.5.2-3.5.7-1.4.7-2.3,2-2.1,3.6.3,1.7,1.8,3.2,3.4,3.9,3.5,1.6,7.6.8,10-2.3,1.4-1.8,2.2-4.3,1.5-6.5h0Z"/>
    <path class="st0" d="M517.9,367.6c-2.5-1-6.2-1.4-8.6,0-.6.4-1.2.8-1.4,1.4-1.7,1.4-3,3.5-2,5.6,1.1,2.2,3.6,3.1,5.9,3.3,1.8.2,3.9,0,5.5-.9,1.9-1,3.9-2.7,4-5,.1-2.2-1.6-3.7-3.5-4.4h0Z"/>
    <path class="st0" d="M449.7,343c0-.4-.2-.8-.5-1.1,0,0,0,0,0,0-.5-.5-1-.9-1.7-1.2-.8-.3-1.6-.5-2.4-.6-1.4-.1-3.2,0-4.3,1.1,0,0,0,0-.1,0-.2.2-.4.4-.6.7-.2.4-.3.8-.2,1.1,0,.3,0,.5.3.8.2.4.5.8.9,1,.8.6,1.8.9,2.8,1,1.4.2,2.8.1,4.2-.5,0,0,0,0,0,0,.3-.2.6-.3.8-.5.4-.3.6-.6.7-1,.1-.2.2-.5,0-.8h0Z"/>
    <g>
      <path class="st0" d="M475.4,415.7h.2s0,0,.1,0c.2,0-.9,0-.3,0h0Z"/>
      <path class="st0" d="M484.4,420.1c-.6-.8-1.5-1.4-2.3-1.9-.8-.5-1.7-.8-2.6-1,0-.4-.4-.7-.8-.9-1.1-.4-2.1-.6-3.2-.6-.3,0-.8,0-.9,0-.4,0-.9,0-1.3.2-1.3.4-2.6,1.3-3.1,2.6-.2.5-.4,1.1-.5,1.7,0,.6,0,1.3.3,1.9.4,1.1,1.1,1.8,2.1,2.5,1,.7,2.2,1.2,3.4,1.4,2.8.7,6.1.5,8.5-1.3.4-.3.8-.7,1-1.2.6-1.3.2-2.4-.6-3.4h0Z"/>
    </g>
    <path class="st0" d="M470.9,449.9c-1.1-2.9-4.1-4.6-7-4.4-.9-.2-2-.2-2.4,0-2.5,1.9-3.9,5.5-3.8,8.6.2,4.5,4.6,6.1,8.6,4.8,3.9-1.3,6.2-5.1,4.6-9.1h0ZM464.2,454.3c-.1.1-.2.2-.4.3-.3-.8-.5-1.7-.5-2.6,0-1.3,0-2.6.5-3.8.3.2.5.3.6.6.6.7.8,1.8.8,2.7,0,1-.3,2-.9,2.8h0Z"/>
    <path class="st0" d="M517.8,558.6c-.3-3.7-3.6-6.5-7-7,.4-.2.9-.2,1.6,0,.2,0,1-.2.5-.4-6.8-3.8-9.4,8.7-2.9,11.1,3,1.1,8.1.5,7.8-3.7h0ZM511.6,560.5c-2.2-1-3.1-5.6-2-7.8,0,0,0,0,.1,0,2.2.8,4,2.4,4.6,4.7.5,1.9-.4,4-2.7,3h0Z"/>
    <path class="st0" d="M519.8,534.8c0,0,0-.1,0-.2-.2-.4-.4-.6-.8-.9,0,0-.2-.1-.2-.2-.2-.1-.4-.3-.7-.4-.4-.2-.9-.3-1.3-.4-.3,0-.5,0-.8,0h-.8c-.2,0-.4,0-.6,0-.2,0-.4,0-.6,0-.3,0-.6,0-.9.3-.2.1-.4.3-.4.6s0,0,0,.1c0,0-.1,0-.2.2-.4.7-.7,1.3-.9,2.1,0,.2,0,.4,0,.7,0,.2,0,.5.2.7.2.3.4.6.7.8.2.1.3.2.5.3.2,0,.4.2.6.2.5.1.9.1,1.4.1s.7,0,1-.1c.2,0,.4,0,.6-.2.3-.1.7-.2,1-.4.5-.2,1-.5,1.4-.9.2-.2.4-.4.6-.7,0-.1.2-.3.2-.4,0-.2.2-.5.2-.7s0-.3,0-.5h0ZM514.8,536.3c0-.4,0-.8.1-1.2,0,0,0-.1,0-.2.1,0,.2,0,.3,0h0c0,0,.1,0,.2,0s.1,0,.2,0c0,0,0,0,0,0h0c0,0,0,0,0,.1,0,.1-.1.2-.2.3-.1.1-.2.2-.3.3-.1.1-.3.2-.4.3h0Z"/>
    <g>
      <path class="st0" d="M457.5,490.1c0,.2-.1.3-.2.5,0-.2.1-.4.2-.5Z"/>
      <path class="st0" d="M457.5,489.9c0-.3,0-.5-.1-.8,0-.2,0-.3-.2-.5-.2-.6-.6-1.2-1-1.8-.2-.3-.4-.6-.6-.9-.2-.2-.4-.4-.7-.6-.3-.2-.6-.3-1-.4-.3,0-.5,0-.8-.1-.4,0-.8,0-1.2,0-.2,0-.5,0-.7.2-.2,0-.5.2-.7.3-.4,0-.7,0-1.1,0-.5,0-1,.1-1.4.3.1,0,.3,0,.4-.2-.5.1-1,.3-1.4.7-.4.3-.5.6-.6,1.1,0,0,0,.2,0,.3,0,.2,0,.4.1.7,0,.2.1.4.2.6.1.3.3.5.5.7,0,.1.1.3.2.4h0s0,0,0,0h0c.1.2.3.3.4.4.4.3.7.6,1.1.8.4.2.8.5,1.2.6.4.2.9.3,1.4.4.3,0,.7.1,1.1.2h0c.3,0,.7,0,1,0s.8,0,1.1-.2h-.9c.6.1,1.1,0,1.7-.3,0,0,0,0,0,0,.3-.1.5-.3.7-.5.2-.2.4-.4.5-.6,0,0,0,0,.1-.2,0,0,0,0,0,0,0-.2.1-.4.2-.6v-.2h0Z"/>
    </g>
    <path class="st0" d="M227.5,199.4c-.4-1.5-1.4-2.8-2.7-3.7-1.1-.7-4.4-1.6-5.6-.3-.6,0-1.3.2-1.8.8-.9,1-1.1,2.5-1.2,3.8-.1,3.5,1.8,6.1,5.5,6.1,3.8,0,6.9-2.9,5.9-6.8h0ZM221.7,201.4c0,.2-.2.5-.3.7-.2-.5-.4-1-.5-1.5-.2-.8-.2-1.7-.2-2.6.3.3.6.7.8,1.2.3.7.4,1.5.2,2.2Z"/>
    <path class="st0" d="M287.3,198.4c-1.1-1.2-3.4-1.5-4.8-.8-.7.4-1.2.8-1.4,1.6-.3.4-.6.9-.9,1.3-.7,1.2,1,2,1.8,2.2,1.6.5,3.9.3,5.1-1,.4-.4.5-.9.6-1.5.1-.7,0-1.3-.4-1.9h0Z"/>
    <path class="st0" d="M299.4,257c-2.5-2.7-6.7-2.5-9.6-.6-.8.5-.3,1.5.3,1.9,0,0,0,0,0,0-.1.1-.2.3-.3.4-1.7,2.6.2,4.8,2.9,5.5,2.5.7,6.3.5,7.6-2.2.8-1.7.4-3.7-.8-5h0Z"/>
    <path class="st0" d="M294,418.4c-.1-.7-.2-1.4-.4-2.1,0-.3-.2-.6-.3-.8,0-.1-.1-.3-.2-.4,0,0,0-.2-.1-.2-.2-.5-.5-.8-1-1.2-.4-.3-.9-.5-1.4-.6-.6-.2-.4-.2-1.1-.2-.2,0-.4,0-.6,0,0,0,0,0,0,0-.2,0-.3,0-.5,0h-.4c-.6,0-1.2.2-1.7.5-.6.1-1.1.4-1.4,1,0,.1-.1.3-.2.4-.7.3-1.3.8-1.7,1.5-.3.5-.6,1.1-.6,1.7,0,.4,0,.8.1,1.2,0,.2,0,.4.1.6,0,.2.3.5.4.7,0,0,0,0,0,0,0,0,0,0,.1.1,0,0,.1.1.2.2.3.3.7.7,1.1.9.8.5,1.2.7,2.2.9.5.1,1,.2,1.4.2.4,0,.9,0,1.4,0,0,0,0,0,.1,0,.8,0,1.6-.2,2.3-.6.4-.2.7-.4,1-.6.1,0,.5-.5.6-.7,0,0,0,0,0,0,0,0,0,0,0-.1.2-.4.3-.9.4-1.4,0-.3,0-.7,0-1h0Z"/>
    <path class="st0" d="M303.2,402.6c0-.2,0-.3,0-.4.1-.8-1.1-1.4-1.7-1.6-.5,0-1-.1-1.4,0-.4,0-.8,0-1.2,0-.4,0-.9.2-1.2.5,0,0,0,0,0,0,0,0-.2,0-.2.1-.4.2-.8.5-1.1.9-.2.3-.3.7-.3,1,.1,1,1.3,1.7,2.1,2,.9.3,1.8.3,2.6.2.5,0,.9-.1,1.3-.4.4-.2.9-.5,1.1-1s.2-.8,0-1.3h0Z"/>
    <path class="st0" d="M331.8,364c-2.4-3.2-8.2-4-10.7-.5-.3.4-.1.8.1,1.1-1.9,1.3-3.1,3.5-2.6,5.7,1.1,4.9,9.2,4.8,12.4,2.3,2.6-2.1,2.7-6,.8-8.7h0Z"/>
    <path class="st0" d="M332.3,487.8c-.1-.9-.6-1.6-1.3-2.2-.1-.1-.3-.2-.5-.3-.4-.3,0,0,.1,0,0-.2-.2-.3-.3-.4-.9-1.2-4.1-1.5-4.9,0,0,0-.1.2-.2.3,0,0,0,0,0,0,0,0-.1,0-.1,0-.2.2-.5.3-.7.5,0-.2,0-.3,0-.5.2-.7.6-1.3.9-2,.3-.7-1.1-.9-1.5-.6-1.4.8-2.1,1.9-2.9,3.3-.5,1-.6,2.1-.3,3.1.4,1.2,1.5,2.1,2.7,2.6,2.4.9,5.7.8,7.7-1,.9-.7,1.4-1.8,1.2-2.9h0Z"/>
    <path class="st0" d="M342.7,474.8c-.2-.9-1.1-1.4-2-1.8.1-.4.3-.8.5-1.2.4-.8-.5-1.5-1.2-1.7-.9-.3-2.2-.4-3,.3-.6.6-1.2,1.2-1.7,1.9-.2.2-.4.5-.6.7-.4.4,0,0-.4.4-.3.3-.4.7-.5,1.1-.2.5.4,1.2.7,1.5.4.4,1,.7,1.5.9.4.2.7.3,1.1.4.7.2,1.8.3,2.6.2,1.4-.2,3.5-.8,3-2.6h0Z"/>
    <path class="st0" d="M354,533.5c-2.6-2.5-6.8-2.9-9.8-.9-1.3.9.9,1.9,1.6,1.9,1.1,0,2.1.2,2.7.9.7,1,.3,2.2-.4,3.1,0,0-.6.6-1,1-1.1-1.2-1.6-2.8-1.9-4.4-.1-1-2.8-1.2-3.1-.2-1,2.6-.9,5.8,1.5,7.6,3.2,2.4,7.8,1.1,10.3-1.7,2-2.2,2.3-5.2,0-7.3h0Z"/>
    <path class="st0" d="M347.1,512.5c-.2-.4-.5-.7-.9-.9,0,0,0-.1,0-.2,0-.8-.8-1.2-1.5-1.3-.4,0-.8-.1-1.1,0-.4,0-1,.2-1.3.5-.1.1-.2.2-.4.3h0c0,0-.1,0-.2,0-.2,0-.4.2-.6.4,0,0,0,0-.1.2-.5.4-.8.9-.8,1.6,0,1.2,1.3,1.8,2.3,2.1,1.2.3,2.6.3,3.7-.3.9-.4,1.5-1.3.9-2.2h0Z"/>
    <path class="st0" d="M409.4,288.5c-2.4-2.8-6.9-3.3-9.7-.9-.4.3-.4.6-.3.9-1.7.9-2.9,2.8-3.4,4.7-1.1,4.2,2.9,6.3,6.5,6.7,3.4.4,7.7-.7,8.6-4.5.6-2.4,0-5.2-1.7-7h0ZM404.1,294.1c-.2.4-.4.6-.5.8-.3-.5-.5-1.1-.5-1.8,0-.9.1-1.7.4-2.5.1-.3.1-.5.2-.8.3.5.6,1,.7,1.8.1.8,0,1.8-.3,2.5h0Z"/>
    <path class="st0" d="M404.1,308.6c-1.1-1.3-2.8-1.9-4.5-2.1-1.1-.1-2.8.7-1.5,1.8-.2-.1.1.2.2.2,0,0,0,0,0,0,0,0,0,0,0,0,0,0,0,.2,0,.3v.2c0,.4,0,.5.2.7,0,0,0,.2,0,.2v.2s0,.2,0,.3c0,0,0,.2,0,.2,0,0,0,.1-.1.2-.4,0-.5,0-.3,0-.6,0-1.9-.2-2,.7-.1,1.5,2.3,2.1,3.4,2.1,1.6,0,3.2-.4,4.2-1.7.7-.9,1.1-2.4.4-3.3h0Z"/>
    <path class="st0" d="M385,173.8c-.3-1.3-1.2-2.3-2.3-3-.7-.7-1.3-1.3-2-1.9-.9-.8-3.4-1.4-4,0-.6,1.2-.5,2.2-.5,3.5,0,.3,0,.6,0,.9-.9,1.1-.6,2.6.4,3.7,1.6,1.7,5.1,2.1,7,.6,1.2-1,1.7-2.2,1.4-3.7h0Z"/>
    <path class="st0" d="M372.3,157.7c0-.2-.2-.4-.5-.6-.6-.3-1.4-.3-2.1,0-.5.2-1.2.3-1.7.5-.3.1-.5.3-.8.5,0,0,0,0-.2,0-.3.2-.5.3-.8.5-1.3,1.1.5,2.3,1.5,2.5,1.4.3,3.6.5,4.6-.9.2-.2.2-.6.3-.8,0-.2.1-.6.1-.7.1-.5,0-.8-.4-1h0Z"/>
    <path class="st0" d="M389.1,151.5c-.3-.3-.7-.6-1.1-.8-.6-.3-1.2-.6-2-.6-.6,0-1.2,0-1.8.2-.4.1-.9.4-1.1.8-.2.4-.1.7,0,1,0,0,0,0,0,0,.1.2.2.5.3.8,0,0,0,0,0-.1,0,.3.1.5.4.8h0c.1.2.3.3.4.4.6.4,1.5.7,2.2.7,1.2,0,3-.2,3.3-1.6.1-.6-.3-1.1-.7-1.5h0Z"/>
    <path class="st0" d="M223,217.2c-.7-.7-1.7-.9-2.6-.7-.6,0-1.8.6-1.4,1.4,0,0,0,.1,0,.2-1.6-.2-3.2.8-4,2.3-1.6,2.8-.3,5.5,2.6,6.7,2.8,1.2,6.1.4,6.9-2.7.6-2.3.3-5.4-1.5-7.1h0ZM219.6,219.6c.2.8.4,1.5.4,2.3,0,.7,0,1.4-.2,2,0,.1-.2.4-.3.6,0,0-.2-.1-.3-.2-.4-.5-.7-1.3-.7-2,0-1,.2-2.5,1.2-2.7Z"/>
    <path class="st0" d="M240.1,177s0,0,0-.2h0c0-.1-.1-.3-.2-.4l-.3-.5c-.2-.3-.5-.5-.9-.7-.6-.3-1.4-.6-2.1-.6-.6,0-1.2,0-1.8.1-.7.2-1.3.5-1.7,1.1-.1.2-.2.3-.3.5-.2.4-.2.8,0,1.2.2.5.6.9,1,1.1.9.6,1.9.9,3,1-.3,0-.5,0-.8-.1.7.1,1.3.2,2,.2.6,0,1.3-.2,1.7-.7.2-.2.3-.5.2-.7.1-.1.2-.3.2-.5.1-.3.1-.6,0-.9h0Z"/>
    <path class="st0" d="M203.4,294.3c-1.4-1.4-3.6-2-5.5-1.5-1.6.4-2.9,1.6-2.6,3.2-.8.2-1.5.4-2.2.8-2,1-3.6,3.5-3,5.8,1.2,4.5,8.2,6.7,12.2,5.5,5.6-1.7,4.3-10.5,1-13.8h0ZM197.3,302.2c-.4-.7-.5-1.4-.3-2.1.3-1.4,1.2-2.5,2.6-2.7.2.7.4,1.5.5,2.2.2,1.7,0,3-.7,4.3-.2,0-.4-.2-.6-.3,0,0-.7-.4-.8-.5-.3-.2-.5-.5-.7-.8Z"/>
    <path class="st0" d="M292.8,456.4c-1.6-.7-3.3-.8-5-.8-1,0-2,.5-1.9,1.6.1.9.9,1.3,1.6,1.7.6.3,2.9,0,2-1,0,0-.1-.1-.1-.2.9,0,1.7,0,2.6,0,.9,0,2.1-.8.8-1.4h0Z"/>
    <path class="st0" d="M371.9,583.2c-2.2-2.3-6.3-2.8-8.8-.6-.6.6-.2,1.3.4,1.6.1,0,.2,0,.3.1-.8,1.2-1.1,3.1-.8,4.2,1,3.5,6.4,2.9,8.6,1.1,2.1-1.7,2-4.6.2-6.5h0Z"/>
  </g>
  <g>
    <path class="st0" d="M690.6,375.9c.5-.6,1-1.2,1.4-1.8,1.7-2.4,3.4-4.9,5-7.4,2.9-4.4,5-9.1,6.7-14.1,3.7-11.3,5.5-23.3,3.6-35.1-1.6-9.5-5.1-18.8-9.2-27.4-4.3-8.9-9.4-18.1-19.4-21.2-.6-.2-1.4-.4-2.2-.5,2.7-6.1,2.6-13,2.2-19.8-.6-10.1-2.6-20.4-5.3-30.2-5.6-20.4-13.7-40.3-25-58.3-11.7-18.6-27.1-35.7-43.1-50.6-8-7.5-16.5-12.9-27.1-15.9-9.8-2.7-21.8-6.2-32-5.8-.8,0-1.7.1-2.5.3-2.6-5.8-5.7-11.5-9.8-16.1-5.8-6.6-13.6-11.8-21.3-16.1-8.2-4.5-17.5-7-26.5-9.4-12.4-3.3-25-6.4-37.8-7.7-5.5-.5-11.2-1.1-16.7-.3-1.4.2-2.7.4-4,.8-.7.2-2.4,1.1-2.4,1.1,0,0-.2,0-.3.1-.8-.2-1.6-.3-2.5-.5-5.8-1.3-11.4-3.8-16.9-5.9-11.1-4.3-21.7-7.7-33.6-8.9-24.3-2.5-48.5-1.9-72.6,2.2-11.5,2-22.5,5-33.7,8.1-11.1,3.1-20.2,7.9-29.9,14.3-2.7,1.8-5.3,3.6-7.8,5.4.6,1.1,1.1,2.3,1.6,3.4.8.2,1.5.6,2.1,1.3,2.4,3.1,4.1,6.5,5.7,9.9.6-.4,1.3-.8,1.9-1.2,8.6-5.6,17.3-10.9,26.3-15.8,9-4.9,16.4-11.3,26.1-15.2,24.1-9.8,52.8-13.3,77.8-5.1,10.8,3.5,20.3,8.6,30.4,13.5,9,4.4,24.2,11.9,33.6,5.2.4-.3,1-.7,1.5-1.2.2,0,.4,0,.4,0,4.6.7,9,1.6,13.5,2.7,9.4,2.2,19.4,4.8,29,7.8,3.9,1.2,7.8,2.4,11.6,3.8.6.2,2.5,1,3.1,1.2,1.8,1,3.6,2,5.3,3.1,6.5,4,13.3,9.1,16.9,16,4,7.8,4.2,14.6,13.5,17.9,2.9,1.1,10.1,1.2,14.6-.8,7,2.6,15.7,2.7,22.5,4.4,9.5,2.4,15.8,8,22.8,14.8,14.7,14.2,28.2,30.1,38.6,47.8,9.9,16.7,17.4,34.8,23.3,53.2,3,9.3,5.8,18.7,8.7,28,2,6.7,3.9,13.6,7.8,19.4-1.7.9-2.9,2.3-3.1,4.4-.6,7.1,7.3,16,10.3,22.2,4.3,8.9,8.4,18.1,9.4,28,1,10.7-.3,21.5-2.5,32-.9,4.5-2,8.9-2.1,13.5,0,3.3.9,5.6,2,7.9-2.4,1.3-3.6,3.3-2.4,5.7,19.5,37.1,2.1,82.1-17.9,114.8-10.9,17.7-22.4,36.2-36.7,51.4-6.8,7.2-14.4,13.6-21.6,20.3-4.3,3.9-16.2,13-14.9,19.7,0,.4.2.8.4,1.1-.5,1-1.1,2.1-1.6,3.4-1.6,4.3-3.6,8.1-6.5,11.7-.7,4.8-1.4,9.5-1.7,14-.2,4.5-.4,9-.7,13.5,6.1-6,11.4-13.2,15.6-20.4,2.3-3.9,4-8.1,5-12.5.7-2.8.7-5.7.8-8.5,8.9-3.1,17.5-11.4,24.7-17,8.3-6.5,16.5-13.3,23.9-20.8,15.1-15.4,28.4-35.1,38.1-54.4,18-36,29.3-80.9,13.2-119.6-1.1-2.6-4.2-3.9-7.7-4.2h0Z"/>
    <path class="st0" d="M493.5,683.8c-3-4.6-5.7-9.4-8.5-14.1-3.8,2.1-7.7,4-11.6,5.9-17,8.4-35.2,13.9-54.1,16.4-20.2,2.6-40.9.9-60.9-2.6-20.2-3.6-39.9-10.4-60.2-13.2-1-.1-2.1-.2-3.3-.2-.8-3-5.4-5.2-8.4-5.7-9.7-1.6-19.2,2.3-29,2.1-8.9-.2-17.2-3.4-25.3-7-8-3.5-16.3-7.5-23.1-13-6.5-5.3-12-12-20.2-14.4-1.9-.6-5.6-.8-8.7,0-.9-.4-2.1-.9-3.2-1.4-3-1.6-6-3.4-8.9-5.2-6.4-4.1-12.8-8.3-18.7-13.2-16.3-13.3-29.8-29.8-41.6-47.1-11.9-17.3-21.3-35.9-28.8-55.6-4.1-10.7-6.7-21.7-9.3-32.7-2.4-10.1-4.8-20.9-11.1-29.3.6-1.2.6-2.5-.9-3.6-9.7-7.3-15.8-21-20.3-32-6.5-16-2.8-33.2.3-49.6,3.2-16.8-.4-34,.2-51,.7-17,3.2-34,7.7-50.5,8.5-30.9,22.6-61.9,41.7-87.8,9.8-13.3,20.7-25.7,35.3-33.8,3.3-1.8,6.4-4.1,9.9-5.7,3.9-1.7,7.1-2.5,10.2-5.5,5.2-5,9.1-11.4,13.4-17.2,2.3-3.2,4.7-6,7.2-8.6.7-2.3,1.2-4.7,1.5-7.2.6-6.1.8-12.3,2.3-18.2-4.5,2.3-8.9,4.7-13,7.2-13.4,8.2-21.1,21-30.4,33.1-2.3,3-4.4,5.5-5.8,8.9-.3.7.4,1.4,0,2.2-.8,1.6-3.3,3.4-4.6,4.6-6.2,5.9-13.3,10.8-19.2,17-23.8,25-43.4,57-56.6,88.7-6.8,16.5-11.4,34.2-13.9,51.8-2.8,19.2-1.2,37.7-1.1,56.9,0,20-8.1,39.5-3.3,59.5,3.5,14.3,12.2,32.5,23.5,42.3,1.6,1.4,3.7,2.2,5.9,2.5-.5,10.5,2.2,22,3.6,32.1,1.7,12,3.8,24,7.8,35.5,7.4,21.3,18.7,40.7,31.9,59,12.8,17.7,27,34,44.6,47.1,11.9,8.9,27.8,20.8,43.2,20.9.6,0,1.3,0,2.1-.1.9.9,1.9,1.8,2.7,2.7,3.5,3.7,6.9,7.4,11,10.4,8.5,6.4,18.8,11.1,28.6,15.2,10.8,4.6,21.9,7.1,33.6,7.4,8.2.2,21.1.3,29.9-3.6.4.5.9.9,1.6,1.2,20.9,9.9,45.3,15.2,68,19.2,24.5,4.3,49.6,5.4,74.3,1.5,22.2-3.5,43.1-10.8,63.2-20.7,0,0,0,0,.1,0-.5-.4-.9-.8-1.3-1.3h0Z"/>
    <path class="st0" d="M540.3,609.9c-.9.9-1.8,1.9-2.7,2.9.5.6,1.3,1.2,1.7,1.8.8-.6,1.7-1.1,2.7-1.7.1-1.1.2-2.1.3-3.2-.7,0-1.4,0-2,.1h0Z"/>
    <path class="st0" d="M625.3,516.5c-2.3-3.3-4.1-7.1-6-10.7-.8-1.4-3.8-1.4-4.6,0-2,3.6-4.2,6.6-5.2,10.7-.5,2.2.3,3.4,2.1,4.6l.8.5c3.6,2.4,9.9,1.6,12.4-1.9.2-.2.3-.5.5-.7.4-.8.4-1.7,0-2.5Z"/>
    <g>
      <path class="st0" d="M644,502.5c-.8-.2-1.5-.3-2.3-.4-1.4-.7-2.9-1.4-4.4-2.1-1.3-.5-2.6-.8-3.9-1.1.8.2-2.1-.4-2.4-.4-1.7,0-3.3.4-4.6,1.5-3.6,3.1-1.9,7.1,1,10,2.4,2.4,5.3,4.1,8.7,4.7,4.3.7,14.4-.3,14.4-6.7,0-3.3-4-5-6.6-5.7h0Z"/>
      <path class="st0" d="M633.4,499c0,0-.2,0-.4,0,.1,0,.3,0,.4,0Z"/>
    </g>
    <g>
      <path class="st0" d="M649.3,480c-.2-.2-.4-.5-.7-.7-3.2-2.7-9.1-2.9-12.3,0,0,0,0,0,0,0-.6.4-1.2,1-1.6,1.7-.1.2-.2.6-.3.8,0,0,0,.1-.1.4h0c0,0,0,0-.2.1-.2,0-.3.2-.5.3h.1c0,0-.1,0-.2,0,0,0-.1,0-.2.1,0,0,.1,0,.2-.1-.4,0-.7.1-1.1.2-2.2.3-3.4,2.6-.8,3.5,2,.7,4.1,1.4,6.2,1.6,4.1.5,10.1-.3,12.3-4.4.7-1.3,0-2.6-.8-3.6h0Z"/>
      <path class="st0" d="M633.6,482.6c.2-.2-.2,0,0,0h0Z"/>
      <path class="st0" d="M633.6,482.6h0s0,0,0,0h0s0,0,0,0Z"/>
    </g>
    <path class="st0" d="M663.1,336.3c-1.2-.7-2.4-1.4-3.6-2.1-3.6-2-7.7-3.9-11.8-2.8h-.4c-1.5.5-2.7,1.6-3,3.1-.3,1.9.3,4.1,1.1,5.8.3.8.6,1.6,1.1,2.4,1.8,3,4.8,4.1,8.2,4.8,2.9.6,6.3.1,9-1.1,1.7-.8,4.4-2.4,4.1-4.7-.4-2.8-2.3-4.2-4.6-5.4Z"/>
    <path class="st0" d="M671.8,318.4c-.7-.2-1.5-.4-2.2-.5-.3-.2-1.5-.3-3.5-.4-1.9,0-3.8.3-5.7.9-.4.1-.8.3-1.2.5-.7,0-1.3-.2-2-.2-1.1,0-2.1,0-3.2.1-.9.1-1.7.4-2.5.8-.6.3-1.1.8-1.5,1.5-1.6,1.3,0,3.9.9,5.1,1.2,1.5,2.9,2.7,4.7,3.5,6.6,2.9,17,2.6,21.2-3.9,2.2-3.3-2.7-6.6-5.2-7.4h0Z"/>
    <path class="st0" d="M661.8,295.8c-.7-5.7-12.7-5.9-14.9-1.2-1.1,2.4-1.5,4.7-1.9,7.3-.2,2,.4,3.1-.3,5.2-.9,2.6,3.9,2.3,5.1,1.7,3-1.4,6.2-2.3,8.6-4.6,2.5-2.3,3.7-5,3.3-8.5h0Z"/>
    <path class="st0" d="M620.4,200.9c-1.2-2.7-4.9-3.8-7.9-4-.2,0-.4,0-.6,0-1.4-.2-2.7-.3-4.1-.2,0,0,0,0,0,0-.6,0-4.5-.8-2.7-.3,1.3.4-.7-.1-1-.2-.6,0-3.9-.4-1.7-.2-1,0-2-.2-3,0-1.5.2-2,.9-3,1.8-2,1.8,1.1,5.7,2.5,6.7,4.7,3.8,11.4,5.3,17.2,2.9,2.5-1,5.9-3.1,4.4-6.3h0Z"/>
    <path class="st0" d="M611.1,175.8c-3.4-1.2-6.9-.9-10.3,0-1.6.4-3.5,1.4-4.7,2.6-.4.4-.7.8-.9,1.3-.7.2-1.2.6-1.1,1.2.2.9-.1,1.7.3,2.6.8,1.7,2.8,2.7,4.4,3.3,5.3,1.9,16.4,1.3,17.3-5.8.3-2.6-3.1-4.4-5-5.1h0Z"/>
    <path class="st0" d="M598.2,157.3c-2.8-4.9-13.1-4.8-15.9,0-3.7,6.3,2.3,13,4.4,18.7.8,2.1,4.9,1.4,5.9,0,3.6-5.1,9.4-12.2,5.7-18.7Z"/>
    <path class="st0" d="M504.5,97.6c-1.2-1.3-3-1.9-4.6-2.3-3.5-.9-7.3-.5-10.6,1.2,0,0-.1,0-.2,0-.3.2-.8.3-1.3.6-.8.5-1.6,1.1-2.3,1.8,0,0,0,0,0,0-.3.1-.4.2,0,0,0,0,0,0-.1,0-1.5.8-3,1.9-3,3.8s2.5,3.8,4.4,4.5c4,1.3,8.3,1.1,12.3,0,1.8-.5,3.7-1.4,5.1-2.7,1.3-1.4,1.5-2.4,1.8-4.2.2-.9-.7-2.2-1.3-2.8h0Z"/>
    <path class="st0" d="M484.3,77.8c-3.2-3.9-10.7-2.7-14.2,0-3.6,2.8-4,6-4.6,10.2-.2,1.5-.3,2.8.1,4.3.5,1.7,1.6,3.1,2.1,4.8.6,2.2,5.6,2,6.8.5,1.3-1.6,3.2-2.5,4.8-3.7,1.6-1.3,2.9-2.8,4.1-4.5,1.2-1.7,2.7-3.3,3.1-5.3.4-2.6-.7-4.3-2.3-6.2h0Z"/>
    <path class="st0" d="M458.6,81.5c.9-3.1,1.3-5.2.4-8.3-.8-2.5-5.2-3.2-7.3-3.2s-6.1.7-7.3,3.2c-3,6.7,3.6,13.5,8.9,16.8,1.1.7,6.6.6,5.3-1.8-1.2-2.2-.8-4.4,0-6.7h0Z"/>
    <path class="st0" d="M345.9,48.4c-3.3-.2-9.5.3-10.9,4.1-.2.5-.9,1.7-.1.6-.6,1-1.2,1.8-1.7,2.8-.8,1.6-1.3,3.4-1.7,4.9-.6,2.3-.8,5.2-2.6,7.2-1.2,1.2,1.8,1.4,2.4,1.1,4.1-1.9,8.6-2.6,12.8-4.3,4.7-1.9,10.2-5.1,10.4-10.7.2-4-5.8-5.4-8.6-5.7h0Z"/>
    <path class="st0" d="M321.2,44.2c-3.3-2.7-8.8-3.7-12.7-1.9-3.5,1.5-6.4,3.4-6.5,7.5,0,2.4.6,5,1.2,7.3,1.2,5.3,4.6,8.3,9.1,11,.8.5,4.7.5,3.7-1.3-.8-1.5.7-2.8,1.4-4,1.1-1.9,1.8-4,2.6-6,1.6-4,5.7-9,1.2-12.6h0Z"/>
    <path class="st0" d="M303.2,71.6c-2.1-2-3.3-5-5.2-7.2-3.8-4.4-8.9-5.2-14.5-4.6-3.7.5-8.2,3.4-5.1,7.3,1.1,1.4,2.8,2.4,4.5,3,2,.7,4.8.8,6.2,1,3.2.6,6.8,1.1,9.8,2.5,1.1.5,2.5.7,3.7.1.8-.4,1.6-1.3.7-2.1h0Z"/>
    <path class="st0" d="M157.5,131c-.5.2-1,.4-1.5.6-1.9.9-3.1,2.8-2.7,4.8s2.2,3.1,3.9,3.9c0-3.1,0-6.2.3-9.3h0Z"/>
    <path class="st0" d="M96.5,233.6c-.5-3.6-2.8-5.9-6.4-6.8-5.3-1.4-11.8-1.3-15.3,3.6-.8,1.1-.7,2.8-.2,4,1.3,1.8,1.5,2,.6.8.2.3.4.6.6,1,.7,1.3,1.3,2.7,1.9,4,1.6,3.7,3.6,6.9,7.6,8.4,2.7,1,6.9.8,8.9-1.4,2.3-2.3,2.3-6.3,2.4-9.5,0-1.4,0-2.8-.1-4.2h0Z"/>
    <g>
      <path class="st0" d="M79.5,258.2c-.5-1-1.4-1.9-2.3-2.7-.2-.2-1.9-1.5-1.7-1.3-.3-.2-.6-.5-.9-.7-.4-.3-.7-.6-1-1-.1-.2-1.1-1.3-.5-.5.9,1.1-1.4-1.7-1.3-1.8-1.1-1-2.6-1.7-3.9-2.1-5.5-1.8-11.9-1.2-15.4,3.8-1,1.4,0,3.8,1.1,4.8,3,2.9,6.9,4.2,10.8,5.3,2,.5,4.1,1.1,6.2,1.4,1.6.3,3.8-.1,5.3.6.9.5,3.7.7,3.7-.9,0-1.8.9-3.2,0-4.9h0Z"/>
      <path class="st0" d="M71.8,250.3c0,0,.2.1.3.2-.2-.2-.2-.2-.3-.2Z"/>
    </g>
    <path class="st0" d="M81.9,271c-5.9-.2-11,.5-16.4,3.3-4.5,2.3-10.4,5.7-13,10.1-1.6,2.8,1.6,5.4,3.7,6.4,3.5,1.6,8,1.7,11.6.5,4.9-1.7,8.2-5.1,11.5-9,1.2-1.4,2.2-2.9,3.2-4.5.6-1,1.4-3.1,2.2-3.8,1.9-1.7-1.7-2.8-2.9-2.9h0Z"/>
    <path class="st0" d="M75.7,390.2c-.4-.6-.8-1.1-1.2-1.6-.3-.3-.6-.7-.9-1-.1-.2-.2-.2-.2-.3,0,0,0,0,0,0-1.1-1.7-2.2-3.6-3.1-5.4-1.4-2.7-3-4.7-5.7-6.2-4.4-2.5-11.1-2.8-14.9,1-8.5,8.4,17.5,23.2,25.6,16,.6-.5,1-1.7.6-2.5h0Z"/>
    <path class="st0" d="M72,406.4c-2.7-.5-5.3-1.4-8.1-1.7-1-.1-1.9-.2-2.9-.2-3.1-3.3-11.1-2.3-14.4-.8-1.8.9-3.3,1.9-4.8,3.2-3,2.5-.9,6.1,1.7,7.7,3.9,2.3,9.1,2.2,13.3,1,2.9-.9,5.8-1.7,8.6-3,2.3-1.1,4.1-3.5,6.6-4,1.8-.3,1.8-1.9,0-2.3h0Z"/>
    <path class="st0" d="M77.5,420.5c-1.2-.4-2.4-.2-3.5.3-2.6,1.2-4.9,3-7.4,4.5-1.3.8-2.6,1.6-3.9,2.3-1.7.9-3.5,1.5-4.4,3.4-1.4,3.2,2.5,5.3,5,5.9,3.5.9,8,.5,10.8-2.1,1.5-1.4,1.3-2.5,1.3-4.2,0-1.1.1-1.3.5-2.4.6-2,1.7-4,2.9-5.8.6-.9-.7-1.7-1.3-1.9h0Z"/>
    <path class="st0" d="M123.1,532.8c-.6-1.3-.9-2.7-1.6-3.9-1.8-3.2-5.2-4.8-8.7-5.5-4.1-.7-9.5,0-11.8,4-2.4,4.3,4.7,8.5,7.5,10.3,2.3,1.5,5,2.4,7.7,2.6,1.6.1,3.2,0,4.8-.5.6-.2,1.2-.5,1.7-.9.3-.2.6-.4.8-.8.3-.4.5-.8.5-1.3.7-1.1-.4-3-.9-4.1h0Z"/>
    <path class="st0" d="M123.8,549.3c-3.2.7-6.4.6-9.6,1.3-3.6.8-7.1,2.2-10.3,4.1-5.1,3-2.4,7.6,2,9.2,4.1,1.4,11,1.3,14-2.4h0c.3-.3.6-.7.8-1.1.8-1.6,1.9-3.1,2.8-4.7.9-1.6,1-2.9,2.6-4.1,2-1.4-.9-2.6-2.3-2.3Z"/>
    <path class="st0" d="M143.3,567.4c0,0-.2-.1-.2-.2-.4-1.4-.1-3.3,0-4.4.2-2.1.9-4,2-5.8,1.4-2.3-4.2-2.4-5.3-1.8-2.6,1.6-5.1,3.7-7.2,5.9-2,2.2-3.5,4.7-5.3,7-2.2,3-.8,5.6,2.4,7,3.6,1.6,8.9,1.8,12.3-.4l.4-.3c1.5-1,3.7-3.1,2.3-5.1-.5-.7-.9-1.4-1.5-2h0Z"/>
    <path class="st0" d="M236,625.9c-.2,0-.4-.2-.6-.2,0,0-.3-.2-1-.6-1.4-.8-2.8-1.1-4.4-1.5-1.6-.4-3.2-.6-4.9-.9,0,0-.1,0-.1,0,0,0,0,0,0,0-4.2-3.1-14.2-2.7-17.2,2-3.9,5.9,5.7,8.5,9.7,8.6,4.1,0,8-.8,11.9-1.8,1.6-.4,3.2-.9,4.6-1.7.5-.3.9-.8,1.3-1.3,0,0,0,.1.7-.1,1.4-.6,1.5-1.8,0-2.3h0Z"/>
    <path class="st0" d="M243.6,639.2c0,0,0-.2,0-.3.9-2.7-3.4-3.4-5.2-3-.4,0-2.1.5-1.6.5-1.2.2-2.4.3-3.6.7-2.3.8-4.2,2.2-6.1,3.6-1.4,1.1-2.7,2.2-4,3.4-2.1,2-3.3,3.8-2.2,6.8.9,2.5,4.6,3.7,6.9,4,3.1.5,7,.3,9.7-1.5,2.2-1.5,3.4-2.8,3.9-5.4.2-.8.3-1.8.8-2.9.4-1.1.9-2.1,1.2-3.2.2-.6.4-1.2.4-1.9,0-.3-.1-.6-.2-.8h0Z"/>
  </g>
</svg>