<?xml version="1.0" encoding="UTF-8"?>
<svg id="Camada_1" xmlns="http://www.w3.org/2000/svg" version="1.1" viewBox="0 0 517 441">
  <!-- Generator: Adobe Illustrator 29.8.5, SVG Export Plug-In . SVG Version: 2.1.1 Build 2)  -->
  <defs>
    <style>
      .st0 {
        fill: #f18322;
      }
    </style>
  </defs>
  <path class="st0" d="M44.1,189.5c-.6.3-.3.9.2,1,2,.5,4,.5,6.1.5,2.2,0,4.4-.2,6.6-.3,1.9-.1,3.8-.2,5.7,0,2,.2,4,.6,6.1.7,1,0,2.8-.7,1.9-1.9-1.5-2-4.4-2.2-6.7-2.4-2.2-.2-4.5,0-6.7.2-2.2.2-4.4.4-6.6.7-2.2.3-4.5.5-6.5,1.5h0Z"/>
  <path class="st0" d="M54.9,229.7c2.3-.1,4.7-.4,7-.7,2.2-.3,4.4-.7,6.6-1.1,1.1-.2,2.2-.5,3.3-.7.3,0,1.1-.2,1.6-.3,1,.8,3,.5,3.8-.2.3-.3.6-.7.8-1.1.3-.6,0-1-.3-1.4-1.8-2.4-5.6-1.2-8-.6-2.2.6-4.4,1-6.7,1.5-2.3.4-4.7.8-7.1,1.1-1.1.1-2.2.2-3.3.4-.6,0-1.2.1-1.9.2h0c-.9-.2-2.1,0-2.6.8,0,0,0,.1-.1.2-.2.3,0,.8.2,1,1.7,1.5,4.5,1,6.6.9h0Z"/>
  <path class="st0" d="M505.2,183.1c-1.5-20.2-5.3-40.3-15-58.3-18.6-34.5-52.3-57.2-87-73.3-35.8-16.7-74.2-29.8-113.6-34.4-.4-1.1-2.3-1.5-3.3-1.5-19.7-.9-39.5-.2-59,3.2-7.6.3-15.2.9-22.7,2-22,3-43.4,9.4-63.4,18.8-20,9.3-38.7,21.7-55.1,36.5-16.8,15.1-31.7,32.9-42.6,52.6-6.4,11.7-10.5,24-12.4,37.2-2,13.2-2.7,26.7-3.1,40-.5,13.4-.1,26.9,2.3,40.1,2.3,12.9,6.8,25.1,12.8,36.8,10.1,19.6,23.6,37.5,39.4,52.8,15.6,15.2,33.6,28,53.1,37.7,21.2,10.5,43.7,16.9,67.2,20.1,13.8,1.9,27.7,3.2,41.5,4.4,14,1.2,28,2.1,42,1.7,6.9-.2,13.8-.7,20.6-1.6,1.1-.1,2.9-1,2.4-2.4-.5-1.4-3-1.5-4.2-1.4-27.2,3.6-54.6.6-81.7-2.2-13.4-1.4-26.9-3-40.1-6-10.3-2.3-20.4-5.6-30.2-9.6-19.5-8-37.7-19.2-53.8-32.7-16.2-13.7-30.3-29.8-41.6-47.7-6.4-10.3-12.1-21.1-16.1-32.6-4.3-12.3-6.2-25.3-6.8-38.4-.6-13,.2-26,1.1-38.9.9-13.1,2.1-26.4,6.4-38.9,4-11.8,10.4-22.6,17.5-32.7,6.1-8.8,13-17,20.4-24.8,14.9-15.6,32.1-28.9,50.9-39.5,18.6-10.5,38.7-18.3,59.6-22.8,25.3-5.5,51.1-5.3,76.8-5.2,3,0,6,0,9,0,2.9.4,5.9.9,8.8,1.3,5.7.7,11.4,1.7,17.1,2.3,10.9,1.2,21.6,3,32.3,4.9,17.4,4.9,34.5,11.3,51.1,18.3,34.6,14.7,69.2,34.4,91,66,5.2,7.5,9.5,15.6,12.8,24,3.6,9.5,5.9,19.4,7.3,29.5,2.6,18.4,3,37.3,1.7,55.9-2.4,34.6-12.4,70-35.9,96.4-12,13.6-26.9,24.2-42.7,33-16,9-33,16.5-50,23.4-4.5,1.8-9.1,3.7-13.9,4.5-2,.3-1.3,2.1.5,2.1,10.4-.2,19.9-4.8,29.4-8.7,8.6-3.6,17.1-7.4,25.5-11.5,16.6-8.2,32.7-17.8,46.6-30.2,13.4-12.1,24.1-26.8,31.6-43.2,7.5-16.3,11.9-33.9,14.2-51.6,2.4-18.2,2.6-36.7,1.2-55h0ZM267.9,19.7c-.2,0-.4,0-.6,0-1.6-.1-3.1-.2-4.7-.3,1.1,0,2.2,0,3.2,0,.4,0,.8.1,1.1.1.5,0,1.1,0,1.6,0-.2,0-.4.2-.6.3h0Z"/>
  <path class="st0" d="M213.5,334.6c1,.2,2.7,0,3.3-.9.6-.9-.2-1.8-1.2-2.1-6.1-1.9-12.4-3.3-18.5-5.2-6.2-1.9-12.3-4.1-18.3-6.6-11.7-4.9-22.8-11-33.1-18.4-19.8-14.2-36.1-33.5-45.4-56.1-4.7-11.4-7.5-23.4-8.1-35.7-.4-7.4,0-14.9.7-22.3.7-7.3,1.6-14.6,3-21.8,2.5-12.3,7.3-23.9,14.2-34.3,6.5-9.8,14.9-18.4,24.2-25.6,10-7.8,21.3-13.8,33.1-18.4,6.2-2.4,12.6-4.4,19-6.1,6.3-1.7,12.8-3,19.1-4.6,3.2-.8,6.4-1.4,9.6-2,.3,0,.2-.3,0-.3-6.9.2-14.1.2-20.9,1.5-7,1.3-13.8,2.9-20.6,5-12.9,4-25.5,9.6-36.8,17.1-20.3,13.4-37.2,32.9-44.7,56.3-2.2,7-3.6,14.3-4.7,21.6-1,7.4-1.8,14.9-2,22.4-.5,13.4,1,26.7,5.1,39.5,7.6,23.8,23,44.8,42.3,60.4,20.6,16.8,45.2,27.9,70.8,34.6,3.3.8,6.5,1.5,9.8,2h0Z"/>
  <path class="st0" d="M261.4,41.4c.6-1.1,1.2-2.4,1.3-3.7,0-1.2-.2-2.4-.4-3.6-.1-.6-.2-1.2-.4-1.8-.2-.6-.3-1.2-.5-1.8-.3-.6-.6-1.2-.9-1.7-.3-.5-.5-.9-1-1.3-.1,0-.3,0-.4,0-.5.4-.6,1-.9,1.5-.1.2-.2.5-.3.7-.1.4-.3.7-.3,1.1-.2,1.1-.4,2.3-.5,3.4-.1,1.1-.3,2.3-.2,3.4.1,1.3.7,2.6,1.4,3.7.6.9,2.6,1,3.1,0Z"/>
  <path class="st0" d="M235.4,62.7c.7-1,1.1-2,1.5-3.1.4-1.1.8-2,.6-3.1-.4-2.6-1.1-5.1-1.5-7.6-.4-2.6-.7-5.2-.9-7.9-.1-1.3-.2-2.5-.3-3.8-.2-1.3-.2-2.9-.8-4.1-.6-1.1-2.9-1-3.6,0-1.2,2-1.2,5.1-1.2,7.4,0,2.5.2,5.1.5,7.6.3,2.5.7,5,1.2,7.5.2,1.1.5,2.2,1.1,3.2.6,1.1.8,2,.4,3.2-.5,1.4,2.5,1.6,3.1.8h0Z"/>
  <path class="st0" d="M200.2,65.8c.6,1.5.9,2.9,1,4.6.1,1.3,2.7,1.2,3.3.3,2.8-5.1.3-11-.5-16.3-.5-2.9-.7-5.8-1-8.7-.2-1.5-.4-2.9-.7-4.3-.2-.9-.8-1.9-.7-2.8,0-.8-1.4-.8-1.8-.6-2.3.9-2.2,3.7-2.3,5.8-.1,3.1,0,6.2.3,9.2.3,2.9.6,5.9,1.3,8.8.3,1.3.8,2.7,1.3,4h0Z"/>
  <path class="st0" d="M168.1,46.8c0,0-.1-.1-.2-.2-1-.7-3.9-.6-4.1,1-.3,2.4.3,5.1.6,7.4.4,2.4.8,4.8,1.3,7.1.5,2.4,1.1,4.7,2,7,1,2.4,2.2,4.7,3.4,7,.4.9,3.5,1,3.3-.3-.4-2.4-.6-4.8-.9-7.2-.4-2.4-1-4.7-1.5-7-.6-2.4-1.1-4.8-1.6-7.2-.5-2.2-.8-4.5-1.5-6.6.2-.5-.3-.9-.6-1.1h0Z"/>
  <path class="st0" d="M135.1,75.6c.8,1.7,1.6,3.5,2.4,5.3.4,1,.8,1.9,1.4,2.8.6.9,1.3,1.8,1.9,2.7.5.7,1.9.8,2.7.6.6,0,1.9-.5,1.7-1.3-.3-2.1-.8-3.9-1.7-5.8-.9-1.8-1.8-3.6-2.8-5.4-1-1.8-1.9-3.6-3-5.3-1-1.6-1.9-3.5-3.4-4.7-.6-1.2-4.2-1.2-4.3.5,0,1,.5,1.9.9,2.8.5.9.9,1.8,1.4,2.7.9,1.7,1.7,3.4,2.6,5.2h0Z"/>
  <path class="st0" d="M103.7,83.2c0,0-.2,0-.3,0-.3-.3-.6-.6-1.1-.7-.9-.2-3.1-.2-2.8,1.2.2.8.7,1.6,1.2,2.3.5.8,1,1.5,1.5,2.2,1,1.5,2.2,3,3.3,4.4,1.2,1.4,2.4,2.7,3.6,4,.6.7,1.3,1.3,2,1.9.9.7,1.8,1.2,2.9,1.7.9.4,2,.6,3,.2.6-.2,1.6-.9,1.1-1.6-.5-.8-.9-1.5-1.6-2.2-.6-.6-1.3-1.2-2-1.8-1.4-1.2-2.7-2.5-4-3.8s-2.5-2.6-3.7-3.9c-1-1.1-1.9-2.3-3-3.4.2-.2,0-.4-.3-.5h0Z"/>
  <path class="st0" d="M75.5,109.3c-1.3-.3-2.8-.2-4,.4-.6.3-.7.9-.3,1.4,1.4,1.8,3.3,3.3,5.1,4.9,1.8,1.7,3.7,3.3,5.6,4.9,1.8,1.6,3.7,3.2,5.5,4.8.6.5,1.2,1.1,1.7,1.7.6.8,1.4,1.6,1.9,2.5.7,1.3,3.4,1.2,4.1,0,.6-1,.8-1.9.4-3-.3-1-1.2-1.8-2-2.5-1.9-1.7-4-3.2-6-4.9-2-1.6-4.1-3.3-6.2-4.9-1.9-1.5-3.9-3.1-5.9-4.4.6,0,1-.8.2-1h0Z"/>
  <path class="st0" d="M63.5,145.8c-1.5-.5-3-1.1-4.6-1.5-.2-.3-1.1-.5-1.4-.5-.3.1-.5.1-.8,0-.8-.2-2.1,0-2.8.7-.5.6-.3,1.3.4,1.7,1.8,1,3.8,1.6,5.8,2.4,1.9.8,3.8,1.6,5.7,2.4,3.8,1.7,7.5,3.8,11.4,5.4,1,.4,2.5.3,3.4-.3.6-.4,1.2-1.4.4-2-3.5-2.7-7.6-4.4-11.7-6.2-1.9-.8-3.9-1.6-5.9-2.3h0Z"/>
  <path class="st0" d="M58,270.5c.8.7,2.1.6,3.1.4,2.5-.7,5-1.9,7.4-3,2.3-1,4.6-2,6.8-3.1,2.2-1,4.4-2,6.6-3.1.9-.4,1.9-.8,2.9-1.2.7-.2,1.4-.3,2-.7.4-.2.7-.6,1.1-.9.8-.7-.1-1.6-.8-1.9-2.9-.9-5.4,0-8,1.2-2.4,1.1-4.7,2.2-7.1,3.4-2.3,1.1-4.6,2.2-7,3.4-2.3,1.1-4.8,2.2-6.9,3.7-.7.5-1,1.2-.2,1.8h0Z"/>
  <path class="st0" d="M89.2,311.3c1.3-.7,1.9-2,2.7-3.2.7-1.1,1.5-2.2,2.3-3.4,1.5-2.1,3-4.2,4.6-6.3,1.5-2,3.2-4,4.7-6,.8-1,1.6-2,2.3-3.1.6-.9,1.3-1.9,1.3-2.9,0-.3-.6-.3-.8-.3-2.6.8-4.7,3-6.6,4.8-2.1,1.9-3.9,4-5.8,6.1-1.8,2-3.5,4.1-5.1,6.2-.8,1-1.6,2.1-2.3,3.1-.8,1-2.3,2.5-2.2,3.8.1,2.1,3.9,2,5.1,1.2h0Z"/>
  <path class="st0" d="M143.3,315.6c-2.3,2.6-5,4.9-7.4,7.4-2.2,2.5-4.2,5.2-6,8-1.8,2.7-3.5,5.4-5,8.3-.7,1.5-1.4,3-2.1,4.5-.6,1.5-1.7,3.3-1.2,4.9.7,1.9,4.3,1.5,5.5.4,1.2-1.1,1.4-3.1,2-4.5.5-1.4,1.1-2.9,1.8-4.3,1.3-2.9,2.7-5.7,4.3-8.4,1.5-2.7,3.3-5.2,4.8-7.9,1.5-2.7,2.7-5.6,4.3-8.2.2-.4-.8-.5-1-.2h0Z"/>
  <path class="st0" d="M182.9,336.3c-2.6.5-4,4.1-5,6.2-1.3,2.7-2.2,5.6-3.2,8.5-.8,2.6-1.5,5.2-2.4,7.8-.8,2.4-2.5,4.8-1.9,7.5.3,1.1,2.4.8,3,.5,3.1-1.4,4.1-4.2,5-7.2.8-2.9,1.5-5.8,2.3-8.7.8-2.9,1.8-5.8,2.6-8.8.2-.9,1.9-6.3-.5-5.8h0Z"/>
  <path class="st0" d="M235.9,358.2c.1-1.3.3-2.6.4-3.8.1-1.4.4-2.9-.3-4.1-.6-1.1-2.7-1.1-3.5-.3-1.1,1.1-1.3,2.4-1.6,3.8-.3,1.3-.5,2.6-.7,3.8-.4,2.7-.8,5.5-1.1,8.3s-.4,5.5-.5,8.3c-.1,2.7-.5,5.6.6,8.2.7,1.6,4.6,1.6,5.2,0,1-2.6.6-5.5.6-8.2,0-2.7.1-5.4.3-8,.2-2.7.4-5.3.6-8h0Z"/>
  <path class="st0" d="M278.8,373.9c-.1-.5-.2-.9-.2-1.4,0-.6-1.2-.6-1.5-.2-1,1-2,2.1-2.5,3.4-.2.7-.4,1.4-.4,2.1,0,.3,0,.6,0,.9,0,.5.1.8.4,1.2.3.4.5.6.9.8.5.2,1,.3,1.6.3.4,0,.9,0,1.3-.2.3-.1,1.1-.5,1.2-.9,0-.2.2-.6.2-.9,0-.3-.1-.5-.2-.8-.2-.9-.3-1.9-.5-2.8-.1-.5-.2-1-.3-1.5h0Z"/>
  <path class="st0" d="M348.1,345.3c-.8-1.1-1.7-2.1-2.6-3.1-.9-1.1-1.9-1.9-3-2.8-.6-1.2-4.1-.7-3.5.7.3.6.4,1.1.8,1.6.3.5.6.9,1,1.4.7,1,1.4,2,2.1,3.1,1.4,2.2,2.8,4.3,4.1,6.6,1.3,2.2,2.5,4.4,3.6,6.7,1.2,2.5,2.1,5.2,4.6,6.6.9.5,2.8.6,3.4-.5,1.2-2.3-.8-5.1-1.8-7.1-1.2-2.3-2.6-4.6-4-6.8-1.4-2.2-2.9-4.3-4.5-6.3h0Z"/>
  <path class="st0" d="M386.8,328.4c-1.4-1.8-3.3-4.1-5.7-4.4-.4,0-1.4,0-1.6.5-.2.8.2,1.5.7,2.1.6.8,1.2,1.6,1.8,2.5,1.1,1.7,2.1,3.4,3.1,5.2,1.9,3.7,3.5,7.4,5.7,11,1.3,2.1,2.9,4.1,5.6,4.1,1,0,2-.5,2.1-1.6s-.7-2.1-1.3-2.8c-2.4-3.4-4.4-7.1-6.5-10.6-1.2-2-2.5-4-4-5.9h0Z"/>
  <path class="st0" d="M431.4,320.9c-2.2-2.9-4.5-5.7-6.8-8.5-2.2-2.8-4.3-5.6-6.6-8.3-1.2-1.4-2.4-2.9-3.7-4.3-1.2-1.3-2.4-2.7-4.1-3.4-.5-.2-1.5-.1-1.6.5-.2,1.4,1.2,3.2,1.9,4.3.9,1.5,1.9,3,3,4.5,2,2.9,4.2,5.8,6.3,8.7,2.1,2.9,4.2,5.8,6.3,8.7,1,1.3,1.9,2.7,3.1,3.8,1.3,1.2,2.8,2,4.4,2.7.7.3,3.6,0,2.9-1.3-1.4-2.7-3.2-5-5-7.3h0Z"/>
  <path class="st0" d="M439.7,267.2c1.4.9,2.8,1.7,4.3,2.5,2.8,1.6,5.6,3.2,8.4,4.8,2.7,1.6,5.5,3.1,8.2,4.6,2.9,1.6,6.2,4.2,9.6,4,.8,0,2.2-.3,2.2-1.3,0-1.4-1.6-2.2-2.6-2.8-1.5-.8-2.9-1.6-4.4-2.4-2.9-1.6-5.8-3.1-8.6-4.7-2.8-1.5-5.7-3-8.5-4.5-1.5-.8-3-1.6-4.5-2.4-1.2-.6-2.6-1.1-3.8-1.7-.2-.2-.6-.3-.8-.3-1-.2-2.1,0-2.7,1-.1.2-.1.5,0,.7.8,1.1,2.1,1.7,3.2,2.4h0Z"/>
  <path class="st0" d="M480.2,230.5c1.4-.3,3.3-1.8,1.3-2.9-2.4-1.3-5.8-1.1-8.4-1.3-2.7-.2-5.3-.4-7.9-.7-2.6-.3-5.2-.7-7.9-1.2-1.3-.2-2.5-.6-3.8-.9-1.4-.4-2.8-.9-4.3-.9h0c-.3,0-.6,0-.8.1-.6.1-1.6.7-1.2,1.4.6,1.1,2,1.5,3,1.9,1.3.5,2.7.9,4,1.3,2.8.7,5.6,1.2,8.4,1.6,2.7.4,5.4.6,8.2.9,1.4.1,2.9.3,4.3.4,1.6.2,3.3.5,5,.2h0Z"/>
  <path class="st0" d="M483,183.3c-2.6-.5-5.2,0-7.8.4-2.3.3-4.5.5-6.8.7-2.3.2-4.5.4-6.8.6-2.1.2-5.1,0-6.9,1.2h0c-.6.4-.9,1.1,0,1.6,2.1,1.1,4.9.7,7.1.6,2.4,0,4.9-.2,7.4-.4,2.6-.2,5.1-.4,7.7-.7,2.5-.2,5-.3,7.3-1.5,1.8-1,0-2.3-1.2-2.5h0Z"/>
  <path class="st0" d="M472,132.5c-3.3-.5-6.1,1.8-8.8,3.3-2.6,1.4-5.1,2.8-7.7,4.2-2.5,1.3-5.1,2.6-7.6,3.8-2.6,1.3-5.3,2.5-7.6,4.2-1.2.9.6,1.6,1.4,1.4,6-1.4,11.8-4.3,17.3-6.9,2.7-1.3,5.4-2.6,8.1-4,1.4-.7,2.8-1.4,4.1-2.1,1.2-.6,3-1.4,2.4-3-.2-.6-1.1-.9-1.7-1h0Z"/>
  <path class="st0" d="M421.5,118.7c1.1-.9,1.9-2.2,2.7-3.4,1.7-2.6,3.2-5.3,4.8-7.9,3-5.2,6.2-10.4,9.8-15.2.5-.7,0-1.2-.7-1.5-.9-.3-1.9-.2-2.6.4-4.7,3.6-8.1,8.2-11.3,13.2-1.5,2.4-3,4.8-4.5,7.2-.7,1.2-1.5,2.3-2.2,3.4-.5.7-1.3,1.9-1.9,2.1-2.2.7-1.3,2.8.7,3,1.9.2,3.8,0,5.3-1.2h0Z"/>
  <path class="st0" d="M398.1,69.9c-1.1.5-1.9,1.7-2.6,2.7-.6.9-1.2,1.9-1.7,2.8-1.1,2-2.1,4.1-3.2,6.1s-2.1,4.1-3.1,6.1c-.5,1-1,2-1.5,2.9-.2.5-.7,1.2-.7,1.8,0,.5.3,1.1.4,1.6.4,1.2,2.9,1.1,3.7.6.6-.4,1.3-.8,1.8-1.2.4-.5.7-1.1.9-1.7.4-1,.9-2,1.3-3,.9-2.1,1.8-4.1,2.6-6.2.9-2.1,1.8-4.1,2.6-6.2.4-1,.8-1.9,1-2.9.2-.9.7-2.3.1-3.1-.3-.5-1.2-.5-1.7-.3h0Z"/>
  <path class="st0" d="M364.4,70.2c.8-.2,1.8-.8,2.2-1.6.4-1,.7-2.1,1-3.1.3-1,.6-2.1.9-3.1.3-1.2.8-2.4,1-3.7,0-.5.1-1.1.2-1.6,0-.4.2-.7,0-1.2-.2-.5-.9-.6-1.4-.6-2.6,0-3.7,2.6-4.5,4.6-.9,2-1.8,4.1-2.7,6.2-.2.5-.4.9-.6,1.4-.2.4-.3.8-.1,1.2.1.3.4.6.6.9.9.9,2.3.9,3.4.6Z"/>
  <path class="st0" d="M335,54.2c.1.7.8,1,1.5,1.1,1.8.2,4-.5,4.8-2.2.4-.8.6-1.9.8-2.8.2-.7.4-1.4.6-2.1.1-.4.3-.8.3-1.2,0,0,0,0,0-.1,0,0,0-.1,0-.1,0-.1,0-.1.2-.3.7-.7-.8-1.1-1.3-1-.5.1-1,.3-1.6.5-.6.2-1.1.5-1.7.9-.8.6-1.4,1.5-1.8,2.4-.3.7-.6,1.4-1,2.1-.2.3-.4.7-.6,1-.2.4-.3.8-.4,1.2,0-.1,0-.3,0-.4,0,.3-.2.6-.1.9h0Z"/>
  <path class="st0" d="M308.1,37.2c.1,0,.3.1.4,0,0,0,.3-.1.2-.2-.2-.3-.5-.5-.8-.6-.3-.3-.8-.4-1.3-.4-.4,0-.8,0-1.2.2-.6.2-1.2.6-1.6,1-.2.2-.4.5-.6.8-.1.2-.2.4-.4.6-.1.2-.3.4-.4.6-.3.6.1,1.2.6,1.5.2.2.5.4.8.5.3,0,.5.1.8.1.6,0,1.3,0,1.8-.3.1,0,.2-.1.3-.2.4-.3.9-.7.9-1.2,0-.2,0-.5-.1-.7,0-.3,0-.6,0-.9,0-.2.1-.5.3-.7,0,0-.1.2-.2.2.1-.2.2-.3.3-.4,0,0,.1,0,.1,0h0Z"/>
  <path class="st0" d="M282.9,37.6h0c.7.4,1.4.5,2.2.4.7,0,1.4-.2,1.9-.7,0,0,0,0,0,0,.2-.2.3-.5.4-.8,0-.3-.1-.6-.4-.8-.1-.1-.2-.3-.3-.4-.2-.3-.3-.7-.5-1,0-.3,0-.6-.1-.8,0-.3-.1-.6-.2-.9,0-.3-.6-.3-.8-.2-.3.2-.7.5-1,.7-.3.3-.6.7-.8,1-.2.3-.4.6-.6,1,0,.2-.2.3-.3.5-.1.2-.2.3-.3.5-.1.3-.1.5,0,.8.2.3.4.5.7.7h0Z"/>
  <path class="st0" d="M126.1,193.9c-1.2,1.3-2.4,2.6-3.7,3.7-1.2,1-2.4,2-3.4,3.3-1,1.2-1.6,2.6-1.2,4.2.3,1.3,1.3,2.4,2.4,3.1,3.1,2,7.7,1.4,10.5-.7,2.3-1.7,4-4.6,2.8-7.4-.7-1.5-2.1-2.7-3.7-3.2-1.1-.3-2.3-.4-3.4-.2-.3,0-.6.1-.8.2,0,0-.2,0-.3,0,.5-.9,1-1.8,1.5-2.7.1-.2-.5-.3-.6-.1h0ZM127.3,199.9h0c0,.1.2.2.2.3h0s0,0,0,0c.4.8.5,1.5.2,2.3-.1.3-.4.9-.5,1.1,0,0-.2.2-.2.2,0,0-.1.2-.2.2-.2.2-.4.4-.6.6,0,0-.2.2-.3.2t0,0c-.2.1-.4.3-.7.4,0,0-.2,0-.2.1h0c-.2,0-.3.2-.5.2h-.2s0,0,0,0h0c-.1,0-.2-.1-.3-.2,0,0,0,0,0,0,0,0-.2-.1-.2-.1-.2-.1-.3-.3-.5-.5.1.2-.1-.3-.2-.3-.1-.2-.2-.5-.3-.7,0-.2,0-.8,0-1.2,0-.5.3-1,.5-1.4.3-.6.6-1.3.8-1.9.8.7,2.1.7,3.2.6h0Z"/>
  <path class="st0" d="M153.4,135.5c.1,0,.4,0,.5-.2,0-.2-.2-.3-.3-.3-1.3-.3-2.6,0-3.8.5-.6.3-1.2.6-1.7,1.1-.5.4-1,1-1.3,1.6-.6,1.3-.6,2.9.4,4,.8.9,2.3,1.3,3.5,1.3,1.4,0,2.7-.4,3.8-1.3.7-.5,1.1-1.3,1.3-2.1.1-.5.2-1,.2-1.5,0-.2,0-.4,0-.6,0-.4-.1-.7-.3-1-.4-.6-1-.9-1.7-1.1-.5-.1-1-.2-1.5-.1,0,0,.1,0,.2-.1.3-.1.5-.1.8-.1h0Z"/>
  <path class="st0" d="M113,152c-.8.9-1.3,2.3-1.3,3.6,0,1.7,1.1,3,2.7,3.6,2.9,1.2,6.8.4,9-1.8,1.8-1.8,2.4-4.5,1.5-6.9-.5-1.4-1.5-2.3-2.6-3.1-.3-.2-.5-.4-.8-.5,0,0,0,0-.1,0,0,0,0,0,0,0-.2-.2-.4-.3-.6-.5,0,0-.1-.1-.2-.1,0,0-.2-.2-.2-.2-.1-.1-.2-.4-.3-.6-.1-.6-1.2-.7-1.6-.7s-1.3.2-1.6.7c-.4.8-.3,1.8.3,2.5.3.4.7.6,1.1.9.2.1.3.2.5.3,0,0,0,0,.1.1,0,0,.2.2.2.2.2.2.5.5.7.8-2.3-.7-5.1,0-6.8,1.8h0ZM119.6,150.6c.1,0,.2,0,.3,0,.5,1,.7,2.1.4,3.2-.1.4-.3.8-.6,1.2.1-.2-.2.2-.2.3-.2.2-.3.3-.5.5,0,0-.1,0-.2.1,0,0,0,0,0,0-.2.1-.4.2-.6.3,0,0-.1,0-.2,0h0c-.1,0-.2,0-.3.1,0,0-.2,0-.3,0h0c0,0-.1,0-.1,0,.3.2,0,0,0,0-.1-.1-.2-.2-.3-.3,0,0-.2-.3-.3-.4-.2-.4-.3-.8-.4-1.2,0-1,.2-1.9.7-2.8.6-1,1.6-1.2,2.7-.9h0Z"/>
  <path class="st0" d="M144.6,113.3c-.3-.7-1.1-1-1.7-1.1-.9-.2-1.8-.2-2.6,0-.4.1-.8.3-1.1.6-.2.2-.4.5-.4.9,0,.2,0,.3,0,.5,0,.3.1.6.2.8s.3.6.5.7c.6.5,1.2.7,1.9.8h0s0,0,0,0c0,0,0,0,.1,0,.2.1.4.2.6.3.2,0,.6,0,.8,0,.1-.1.3-.3.1-.5,0,0,0,0-.1-.1,0,0,0,0,0,0h0c.1,0,.3-.2.4-.3,0,0,0,0,0,0,0,0,0,0,0,0,0,0,.1,0,.2,0,.3-.2.6-.5.6-.9v-.3c.4-.3.6-.9.3-1.4h0Z"/>
  <path class="st0" d="M222,167.4c0,0-.1,0-.2,0-.8-.3-1.9.1-2.5.7-.8.8-1.1,2-1.3,3.1-.1.9-.2,1.8.1,2.7.3,1.2,1.5,1.9,2.7,2,2.9.4,6.3-1.6,6.7-4.6.2-1-.3-2.1-1.1-2.8-1.2-1-2.8-1.4-4.4-1.2h0ZM222.9,171.6c0,.1,0,.3-.1.4,0,0-.3.6-.3.6,0,0,0,0,0,0,0,0-.1.2-.2.2-.1.2-.3.3-.5.4,0,0,0,0,0,0,0,0-.1,0-.2.1,0,0,0,0,0-.1.2.2,0,0,0,0-.2-.3-.3-.7-.4-1.1h0c0,0,0,0,0-.1,0,0,0-.2,0-.3,0-.2,0-.4,0-.6,0-.4,0-.8,0-1.3h0s0,0,.1,0c.2,0,.4.1.7.1-.2,0-.3,0-.2,0,0,0,.1,0,.2,0h0c.5,0,.2,0,0,0,.1,0,.2,0,.3,0h.1s.2,0,.3,0c0,0,.2,0,.2,0,0,0,.1.1.2.2,0,.1.1.3.2.4,0,.3,0,.6,0,.9h0Z"/>
  <path class="st0" d="M267.1,202c4.5.1,9.6-2.4,11.1-6.9,1.3-3.9-.3-8.7-3.5-11.2-2-1.6-4.5-2.5-7.1-2.7-1.2,0-2.5,0-3.6.4-.8.3-2.2.8-2.3,1.7,0,.5.8.6,1.1.6h.1c-.6.5-1,1.1-1.5,1.7-1.3,1.9-1.6,4.6-1.9,6.9-.3,2-.3,4.2.7,5.9,1.4,2.5,4.3,3.4,7,3.5h0ZM264.4,187.1c0-1.1-.1-2.4.4-3.3.7,0,1.6,0,2.1,0,1,.1,2.1.5,3.1,1.3,2.2,1.8,3,4.9,2.4,7.6-.3,1.4-1,2.8-1.9,3.7-.3.3-.5.5-.8.8,0,0-.2.2-.3.2-.1,0-.2.1-.3.2,0,0-.6.3-.6.3-.1,0-.3.1-.4.2,0,0-.2,0-.3,0-.1,0-.3,0-.4,0q0,0,0,0c.1,0,0,0,0,0h-.3c0,0-.2,0-.2,0-.1,0-.2,0-.3,0h0c0,0,.1,0,.2,0,0,0-.1,0-.2,0,0,0,0,0,0,0-.3-.2-.5-.3-.8-.6-.9-1.1-1.2-2.7-1.3-4.1-.2-2.1,0-4.2,0-6.3h0Z"/>
  <path class="st0" d="M255.8,169.6c.1-.5.2-.9.2-1.4,0-.5,0-.9-.2-1.4,0-.3-.7-.4-1-.4-.3,0-.8,0-1,.4-.2.5-.4,1-.7,1.5-.2.2-.4.5-.6.7,0,0-.1,0-.2.1,0,0,.1,0,.2,0h0c-.2.1-.4.2-.6.4,0,0-.1,0-.2.1,0,0,0,0,0,0,0,0,0,0,0,0,0,0,0,0,0,0,0,0-.1-.1,0,0,0,0,0,0,0,0,0,0,0,0,0,0,0,0,0-.1-.1-.2,0,0,0,0,0-.1h0c0,0,0-.2,0-.2s0-.2,0-.2h0s0-.1,0-.1c0,0,0-.1,0-.2,0,0,0,0,0,0,0,0,0,0,0,0,.2-.2,0-.5-.2-.6-.3-.1-.8-.2-1.1,0-.6.4-.9,1-.9,1.7,0,.6.2,1.3.7,1.7.9.8,2.2.9,3.4.7.6-.1,1.2-.3,1.7-.6.3-.2.5-.4.7-.8,0-.2.1-.3.2-.5h0Z"/>
  <path class="st0" d="M301.6,112.2s0,0,0,0h.1s0,0,0,0h0Z"/>
  <path class="st0" d="M298.9,120.1c.1,0,.2,0,0,0h0Z"/>
  <path class="st0" d="M293.6,121.8c1.5,1,3.2,1.7,5,2.2,2.9.8,6,1,8.5-.9,3.3-2.4,4.5-7.7,2.1-11.2-1.3-1.9-3.4-3.1-5.6-3.5,0,0-.1-.1-.3-.1-3.6-.8-7.7.4-10.3,3.1-1.5,1.5-2.6,3.5-2.4,5.8.2,2,1.4,3.5,3,4.6h0ZM295.9,113c.1-.3.3-.6.5-.9,0,.1.1.2.2.3.9,1,3.5,1.1,4.4,0,0,0,0,0,0,0,0,0,0,0,0,0t0,0c.1,0,.2,0,.4-.1h0c-.3,0-.4-.1-.1,0,0,0,0,0,0,0h-.1.3,0,0s0,0,.1,0h0s.1,0,.2,0c-.1,0-.2,0-.2,0h0c0,0,.1,0,.2,0s0,0,0,0c.2.1.5.3.6.4-.5-.3.2.2.3.4,0,0,.2.2.2.3h0c0,0,0,.2.1.2.3.5.6,1.2.6,1.6.1.8,0,1.6,0,2.4,0,.4-.3,1-.5,1.6-.2.3-.3.7-.5,1,0,0-.2.3-.2.3-.1.1-.2.3-.3.4,0,0-.1.1-.2.2,0,0,0,0,0,0,0,0-.2,0-.2,0-.2,0-.4,0-.6-.1h-.2c-.3-.1-.2-.1.1,0-.6,0-1.4-.4-1.9-.6-.1,0-.2-.1-.4-.1,0,0,0,0,.1,0,0,0-.1,0-.1,0-.3-.2-.6-.3-.9-.5-.1,0-.3-.2-.4-.3,0,0-.1,0-.2-.1-.2-.2-.4-.4-.6-.6,0,0-.2-.2-.2-.3,0,0,0,0,0-.1,0,0,0,0,0-.1-.2-.3-.3-.5-.5-.8-.6-1.3-.4-2.9.1-4.2h0Z"/>
  <path class="st0" d="M337.8,117c.1.7.3,1.2.7,1.7.5.7,1.4,1.1,2.2,1.2,1.3.2,2.7,0,3.8-.8.6-.5.9-1.3.9-2,0-.9-.1-1.8-.5-2.6-.4-.8-.8-1.5-1.2-2.3-.3-.5-1-.7-1.5-.7-.3,0-.5,0-.8.1-.1,0-.3.1-.4.2-.1,0-.2,0-.3,0-.5.3-.9.6-1.3,1-.4.4-.8.8-1,1.3-.5.9-.7,2-.5,2.9h0Z"/>
  <path class="st0" d="M332.9,93.7c1.5.5,3.3.4,4.5-.6.4-.4.8-1,.7-1.6,0-.2,0-.4-.2-.6,0-.2-.3-.4-.5-.6-.4-.3-.8-.6-1.4-.7l.4.2c-.4-.2-.8-.3-1.3-.4-.3,0-.7,0-1-.1-.5,0-1,0-1.5.2,0,0-.1,0-.2,0,0,0,0-.1,0-.2,0,0,0,0,0-.1,0,0,0,0,0,0,0,0,0,0,.1-.1,0,0,0,0,0,0h0s0,0,0,0c0,0,.1,0,.1,0,.2,0,.4-.3.3-.5-.2-.2-.6-.3-.8-.2-.9,0-1.6.7-2,1.5,0,.2-.1.4-.2.6h0c0,.1,0,.2,0,.3,0,0,0,.2,0,.3,0,.4.1.9.3,1.2.5.9,1.3,1.5,2.2,1.8h0Z"/>
  <path class="st0" d="M269.6,300.1c-1.4-.1-3,.1-4,1.2-2-.8-4.2.4-5.4,2-2.4,3.2-5,9-1.5,12.4,2,1.9,4.9,2.6,7.5,2.6,2.8,0,5.9-.6,8.1-2.5,3.2-2.6,3.1-7.5,1.5-10.9-1.2-2.4-3.4-4.6-6.2-4.8h0ZM271,309.9c0,.2,0,.4,0,.5,0,0,0,.1,0,.1,0,.3-.2.7-.3,1-.1.3-.2.6-.4.8,0,.1-.2.3-.2.4,0,0,0,0,0,0,0,0,0,0,0,0-.2.2-.5.5-.7.7,0,0-.1,0-.2.1-.1,0-.3.2-.4.3-.1,0-.2.1-.3.2,0,0-.2,0-.3.1-.1,0-.2,0-.3,0,0,0-.4,0-.5,0,0,0-.1,0-.2,0-.2,0-.3,0-.5,0h-.6c-.2,0-.4,0-.5,0,0,0-.1,0-.2,0-.1,0-.3,0-.4-.1,0,0-.3-.1-.4-.1-.2,0-.3-.2-.5-.2,0,0,0,0-.1,0,0,0,0,0,0,0-.3-.2-.6-.5-.8-.8-.4-.5-.7-1.2-.8-1.9-.3-1.6,0-3.2.4-4.7.2-.8.5-1.6.8-2.3.3-.7.6-1.4,1.2-1.9.2-.2.4-.3.6-.3-.4.9,0,1.9.5,2.6.3.3,1.4.5,2,.2v.2c0,0,.2,0,.2,0,0-.1,0-.3,0-.4,0-.1.1-.2.1-.4,0-.7.2-.9.6-1.3.3.3.8.7,1.2,1.2.4.6.7,1.2.9,1.8.4,1.2.6,2.4.4,3.8h0Z"/>
  <path class="st0" d="M287,325.1c-.6-.7-1.4-1.2-2.2-1.6-.4-.2-.7-.4-1.1-.6,0,0-.3-.2,0,0,.3.2-.1,0-.1-.1-.2-.1-.3-.3-.5-.4-.4-.5-1.2-.5-1.8-.5-.3,0-.6,0-.9.2-.2,0-.6.3-.7.5-.1.4-.2.8-.1,1.2,0,.4.2.8.4,1.2-.2.1-.3.2-.4.4-.3.3-.6.7-.7,1.1,0,.4-.1.7,0,1.1.1.8.5,1.6,1.1,2.2,1.2,1.2,3.1,1.6,4.7,1.3,1.2-.2,2.4-.7,3.1-1.9.3-.5.4-1.3.3-1.9-.1-.9-.4-1.5-1-2.2h0Z"/>
  <path class="st0" d="M262.1,281.7s0,.1.1.2c0,0,0,0,0,0,0,0,0-.1-.1-.2h0Z"/>
  <path class="st0" d="M259.8,285.8c.5.2,1.2.2,1.7.1.4,0,.7-.2,1-.3.3-.2.5-.4.6-.7.1-.2.2-.6.2-.8,0-.3-.2-.6-.3-.9-.2-.5-.5-.9-.8-1.3,0-.1-.1-.2-.2-.3-.1-.2-.3-.4-.3-.6,0-.2-.3-.3-.5-.4-.2,0-.5-.1-.8,0-.4,0-1,.2-1,.7,0,.4,0,.8.2,1.2,0,.3.2.5.3.8,0,.2,0,.3,0,.5,0,0,0,0,0,0-.1,0-.2,0-.3.1-.1,0-.3.2-.4.3,0,0-.1.1-.2.2,0,0,0,0,0,0-.1.1-.2.2-.2.4,0,.2,0,.4.2.5.2.2.6.4.9.5h0Z"/>
  <path class="st0" d="M202.4,251.6c-.7-.6-1.4-1.1-2.2-1.5-.6-.4-1.5-.4-2.2,0-.6.2-.9.7-.4,1.3.2.2.4.5.5.7.1.1.2.3.3.4,0,0,0,.1.1.2,0,0,0,0,0,0,0,0,0,0,0,0,0,0,0,.1.1.2,0,.1.2.2.2.4.1.2.2.5.2.7-.8,0-1.7.5-2.2,1.1-.4.5-.6,1.2-.6,1.8,0,.8.6,1.4,1.3,1.8,1.8.9,4.3.4,5.7-1,.6-.6.9-1.2,1-2,.1-.7,0-1.5-.3-2.1-.2-.4-.6-.8-.9-1.1-.3-.3-.6-.5-.9-.8h0Z"/>
  <path class="st0" d="M198.5,221.1c.2,0,.4-.2.6-.3.3-.1.5-.3.7-.5.1,0,.2-.2.3-.3.2-.2.3-.4.4-.7.1-.4.2-.7.1-1.1,0-.2,0-.5-.2-.7-.3-.7-.9-.9-1.6-1.2-.2,0-.4-.1-.7-.2-.4,0-.7,0-1.1,0-.5,0-1.2.1-1.6.5-.1.1-.3.2-.4.3,0,.1-.2.3-.3.4-.1.2-.1.4,0,.6,0,.2.1.3.2.5,0,.1.1.2.2.3,0,0,0,0,.1.1s0,0,0,0c0,.1.1.2.1.3,0,0,0,.1,0,.2,0,0,0,.2,0,.3,0,0,0,0,0,0h0s0,0,0,0c0,.1,0,.2,0,.3,0,.1,0,.2,0,.3,0,.2.2.3.3.4.2.1.3.2.6.3.7.2,1.4.2,2.1,0h0Z"/>
  <path class="st0" d="M184.8,252.5c-1.8-1.9-3.5-3.8-5.1-5.8-1.7-2.1-3.6-4-5.2-6.2-1.4-2-2.7-4.1-3.6-6.3-.9-2.2-1.6-4.4-2.8-6.5-2.4-4.3-4.8-8.7-6.4-13.4-1.7-4.9-3.9-11.7-1.3-16.7.2-.4-.7-.4-.9-.1-2.6,4.2-1.7,9.6-.8,14.1.9,4.7,2.2,9.4,4.1,13.8,1,2.3,2,4.6,3.6,6.6,1.7,2.1,3.5,4.1,5,6.3,2.8,4.1,5.2,8.4,7.8,12.6,3,4.8,5.9,9.5,9,14.2.7,1,2,1.3,3.2,1.2.8,0,2.6-.5,2.5-1.6-.2-2.6-2.2-4.4-3.8-6.3-1.7-2-3.3-3.9-5.1-5.8h0Z"/>
  <path class="st0" d="M261,72.3c4.5-3.6,9-7.1,13.4-10.9.7-.6-1-.8-1.4-.6-10.1,4.8-19.4,10.9-28.1,17.8-8.4,6.6-16.6,13.6-24.4,21-2.2,2.1-4.3,4.2-6.3,6.4-1.9,2.1-4,4.2-5.5,6.6-.6,1,1.7,1.1,2.1.9.4-.1.9-.1,1.4-.1.6,0,2-.3,1.6-1.2,0-.2-.2-.4-.5-.5,3.5-2.8,6.8-6,10.2-9,4-3.6,8.1-7.2,12.2-10.7,4.1-3.5,8.3-6.9,12.6-10.1,4.2-3.3,8.6-6.3,12.8-9.7h0Z"/>
  <path class="st0" d="M285.9,56.9s0,0,0,0,0,0,0,0Z"/>
  <path class="st0" d="M298.3,55.6c.7,0,1.5,0,2.2-.1.8-.2,1.8-.5,2.2-1.3.4-.8-1-1-1.4-1.1.4,0,.3,0-.2,0-.2,0-.4,0-.6,0,.5,0,.2,0,0,0-.5,0-1,.1-1.5.3s-1,.3-1.5.5c0,0,0,0,0,0,0,0,0,0,0,0-.2,0-.3.1-.5.2,0,0-.1,0-.2.1,0,0,0,0,0,0,0,0,0,0,0,0-.4.2-.9.2-1.3.2,0,0,0,0,0,0,.5.2.9.3,1.4.5.5.2,1.1.4,1.7.4h0Z"/>
  <path class="st0" d="M386.8,408.4c-1.2-1-2.7-1.5-4.3-1.6-1.4,0-3.3.3-3.8,1.7-2-1.6-4.1-3-6.2-4.5-2.6-1.8-5.1-3.7-7.8-5.3-5.6-3.5-11-7.2-16.1-11.4-5-4.1-9.8-8.4-14-13.5-4.2-5.2-8.1-10.8-10.8-16.9-1.5-3.6-2.6-7.5-3.7-11.3-.5-1.9-.8-3.8-1.2-5.6-.5-1.9-1-3.8-1.4-5.8-.8-3.7-3-7.3-4.7-10.7-1.1-2.2-2.3-4.4-3.5-6.5.1-.3,0-.7-.3-1-.2-.2-.3-.3-.5-.5-.5-.8-1-1.7-1.4-2.6-8.4-14.4-17-28.7-25.6-43-2.3-3.9-4.7-7.8-7-11.8-2-3.5-4.1-7.3-4.9-11.3-.7-3.4-.5-6.9,1.1-10,.6-1.2,1.5-2.2,2.2-3.2,1.8-.8,3.5-1.6,5.2-2.4-.4,5.2,1.5,9.8,4.3,14.2,2.9,4.4,6.5,8.4,10.5,11.9,4.3,3.7,8.8,7.2,13.8,9.8,4.1,2.2,8.4,3.5,12.9,4.3.2.4.5.7.6,1,1.6,2.6,3.5,4.9,5.7,7,4.4,4.4,9.5,8.1,15,10.9,7.3,3.7,15.3,5.9,23.4,6.4-2.7,3.5-9.2,1-12.7,0-4.9-1.4-9.7-3.4-13.7-6.5-.3-.2-.7-.2-.9,0-1.6,1.3-3,2.9-4.7,4.1-1.6,1.1-3.3,2-5.2,2.6-3.5,1-6.9,0-10-1.6-3.8-2-7.5-4.4-11.7-5.6-2.2-.6-4.5-1-6.8-.6-.4,0-4.6,1.3-2.8,2.3.9.5,1.8.4,2.7.5.9,0,1.9.2,2.8.4,2,.5,3.9,1.4,5.6,2.4,3.8,2.1,7.4,4.6,11.6,5.7,1.1.3,2.2.5,3.4.5-.7.9-1.2,1.9-1.4,3.1-.4,2.5,1,5.1,3.3,6.3,3,1.5,7,.8,9.2-1.7.9-1,1.5-2.2,1.6-3.5,0-1.4-.5-2.6-1.3-3.6-.8-1-1.9-1.8-3.1-2.3.3-.2.6-.3.9-.6,1.4-1,2.7-2.2,3.8-3.5,1-1.3,2.2-2.5,2.8-4,4.8,3.3,10.3,5.4,15.8,7.4,2.8,1,5.8,2.4,8.9,1.9,1.9-.3,3.7-1.7,4.2-3.5,4.8,0,9.6-.4,14.3-1.6,3.5-.9,7-2.2,10.2-3.8,1.3-.6,2.5-1.3,3.7-2.1,0,0,.1,0,.1,0,3.7-2,7.1-5.1,10.1-8,3.2-3,6-6.3,8.6-9.8.8-1.1,1.9-2.5.4-3.5-1.7-1.2-4.1-1.7-6-2.4-4.5-1.6-9.1-3.3-13.6-5.1-2.6-1-5.2-2.1-7.8-3.1-2.4-.9-4.7-1.6-7.1-2.3,1.1-1,2.1-2,3.1-3,4.5-4.9,7.6-11.1,10-17.3,1.3-3.3,2.2-6.6,2.8-10.1.3-1.7.4-3.5.5-5.2,0-1.9-.4-3.7-.6-5.5,0-.5-1.2-.5-1.3-.1-.5,1.4-1.2,2.7-1.7,4-.6,1.5-1,3.1-1.6,4.6-1,2.9-1.9,5.8-2.9,8.6-1.9,5.3-3.8,10.6-6.8,15.4-5,8-12.3,14.4-21,18-9.1,3.8-19.5,4.4-29.3,4-3.5-.1-7-.3-10.3-1h0c0-.3-.4-.3-.6-.2-.1,0-.2,0-.3,0-1.8-.4-3.5-.9-5.3-1.5-4.9-2-9.3-5.1-13.5-8.3-4.4-3.5-8.7-7.3-12.2-11.8-3.4-4.3-5.7-9.5-7.4-14.6.5-.5,1.1-.7,1.8-.9.2,0,0-.2-.1-.2-.8.2-1.5.2-2.3.2.9-.4,1.7-.9,2.6-1.3,1,1.3,2.1,2.5,3,3.9,1.3,2,2.4,4.2,3.6,6.3,2.2,4,4.9,7.8,7.9,11.2,6,6.8,13.8,12,22.7,13.9,5.4,1.2,10.9.9,16.3.3,1.9-.2,3.8-.5,5.6-.7.3.2.8.2,1.1,0,.1,0,.2-.1.3-.2,3.1-.5,6.2-1,9.2-1.7,4.8-1.1,9.1-3.1,13-6.1,4.1-3.2,7.7-7,11.2-10.8,3.9-4.3,7-9.1,9.2-14.4,2.1-5.1,4.1-10.2,4.6-15.7,0-.6-1.1-.4-1.4-.1-2.9,4.1-5,8.6-7.2,13.1-2.1,4.2-4.2,8.4-6.2,12.6-.9,2-2,4-3,5.9-1.2,2.2-2.8,4-4.5,5.8-3.6,3.7-7.8,6.6-12.8,8.2-3.8,1.2-7.7,1.8-11.7,2.2.2-.9,0-2.1,0-2.8,0-4.5-.9-9-1.5-13.4-.7-4.5-1.4-9.1-2-13.6-.3-2.2-.6-4.4-.9-6.6-.1-.7-.2-1.3-.3-2,3.8,4.4,7.9,8.6,11.9,12.9,2.2,2.3,4.4,4.7,6.6,7,2.3,2.4,4.7,4.9,7.5,6.8.2.1,1.3.1,1-.3-1.4-2.7-3.8-5-5.8-7.1-2.3-2.4-4.7-4.7-7-7.1-4.3-4.3-8.6-8.8-13.1-12.9.2,0,.5.2.7.3,0,0,.3,0,.2-.1-.2-.1-.4-.2-.6-.3,1.7.8,4.2,1.2,4.8,1.3,3.7.8,7.4,1.3,11.2,2,3.6.8,7,2,10.5,2.9,3.5.9,7.1,1.8,10.5.3.8-.3.5-.9-.2-1.1-2.9-.6-5.8-1-8.7-1.8-3-.9-6-1.8-9.1-2.5-3-.6-6.1-1-9.2-1.4-1.6-.2-3.2-.5-4.8-.7-.5,0-4.4-.3-5.1-.8.1-.2-.3-.5-.6-.5h-.2c-.2,0-.5,0-.6.3-.2.4,0,.8.3,1.2-.1-.1-.3-.2-.4-.3h0c0-.6-.2-1.1-.7-1.5,7.3-.9,14.6-1.9,21.9-3,5.1-.8,10.3-1.6,15.4-2.5,0,0,0,0,0,.1.3.4.9.6,1.4.5-.2,0-.2,0,0,0,.2,0,.4,0,.6,0,.2,0,.4,0,.6,0,.5,0,.9,0,1.4,0,1.1,0,2.1,0,3.2,0,.9,0,1.8-.2,2.7-.4.6-.1,1.1-.2,1.7-.4.6-.2.9-.5,1.3-1,.6-.7-.3-1.4-1-1.4-.7,0-1.3-.2-2,0-.6,0-1.2.2-1.7.4,0,0-.5.1-.5.1-.1,0-.3,0-.4,0-.5.1-.9.2-1.4.3-.9.2-1.7.3-2.6.4,0,0-.2,0-.3,0,.2,0,.1,0-.1,0-.2,0-.5,0-.7,0-.6,0-1.2,0-1.7.4,0,0,0,0,0,0-21.7,1.3-43.3,3.7-65,6.1-3.3.3-6.5.7-9.8,1.1-1.6.2-3.2.3-4.8.5,2.5-1.3,4.9-2.5,7.4-3.8,10.3-5.2,20.5-10.4,30.6-15.8,9.7-5.1,19.5-10.2,28.7-16.2,4.2-2.7,8.2-5.8,11.5-9.6.7-.8,1.4-1.7,2-2.6,1.2-.1,2.2-.6,2.3-1.6,0-.8,0-1.5.1-2.3.9-1.8,1.6-3.8,2.2-5.7,1.6-4.5,2.6-9.1,3.6-13.7.5-2.4,1.1-4.9,1.9-7.3.4-1.1.8-2.3,1.3-3.4.3,0,.6,0,.8,0,.7-.1,1.6,1.1,1.9,1.7.5,1.1.6,2.4.7,3.6,0,2.1,0,4.3-.3,6.3-.5,2.4-2,3.7-3.5,5.4-1.3,1.6-2,3.5-1.8,5.5.3,4.4,3.5,7.7,4.9,11.7,1.4,3.7.2,7.2-2.8,9.7-3,2.5-6.8,3.3-10.6,3.5-4.7.3-9.4.2-13.9,1.5-3.8,1.1-7.6,3.2-10.4,6.1-1.3,1.4-2.8,3.1-3.2,5-.5,2.1.7,3.7,2.4,4.8,4,2.8,9.1,4.6,13.9,5.3,2.5.4,5,.5,7.5.3,1.1-.1,2.3-.3,3.4-.6,1.1-.2,2-.7,3.1-1.1.2,0,0-.2-.1-.2-2.1,0-4.3-.2-6.3-.5-2-.3-4-.5-6-1-2-.5-3.9-1.1-5.8-2-1.7-.7-3.6-1.6-5-2.9-1.4-1.3.3-3.3,1.2-4.5,1.2-1.5,2.5-2.9,4-4,3.3-2.5,7.2-3.2,11.2-3.5,7.4-.6,16.3-1,20.7-8.1,2-3.3,1.5-7.1,0-10.5-1.5-3.5-4.3-8.1-2.6-11.9.9-2.1,2.7-3.6,3.3-5.8.7-2.2.7-4.4.6-6.7-.1-2.3,0-4.8-1.3-6.8-1-1.7-2.9-2.7-4.8-2.8.1-.4.2-.8.3-1.3,2.3-10.5,2.4-21.8-3-31.3-4.8-8.4-12.3-15.4-19.2-22-7.1-6.8-14.5-13.1-22.5-18.9-7.9-5.7-16.3-10.6-25.3-14.3-6.9-2.9-14.1-4.8-21.4-5.7,0-.1,0-.2-.2-.3-16.4-5.7-33,4.1-46.1,13.2-14.6,10.2-28.4,21.6-41.4,33.8-7.9,7.4-15.7,15-23.1,22.8-8.1.7-16.3.6-24.3,2-8.1,1.5-16.3,4.3-22.6,9.9-3.2,2.8-5.8,6.4-7.3,10.4-1.6,4.4-1.7,8.7-.4,13.2.7,2.3,1.8,4.6,1.7,7.1-.1,2.5-1.6,4.4-3.4,6.1-3.5,3.4-8.1,5.3-12.1,8.1-3.7,2.6-7,5.6-9.3,9.5-1.1,1.8-1.8,3.8-2.2,5.9-.4,2.3,0,4.4.3,6.7.3,2.1.4,4.2-.1,6.3-.5,2-1.4,3.8-2.2,5.7-1.6,3.5-3.7,7.7-2.8,11.6,1,4.4,6.5,5.6,10.3,6.3,4,.7,8.2.5,12.1,1.6,7.9,2.1,10.1,10.2,11.9,17.3.9,3.7,1.9,7.3,3.7,10.7,1.7,3.3,3.8,6.4,6.3,9.2,5.2,5.8,12.3,9.7,19.9,11.3,2.2.4,4.1.5,6.3,0,1.4-.3,2.4-1.7.5-2.4-.8-.3-1.5-.6-2.3-.8-1-.2-2-.3-3-.5-1.7-.3-3.3-.8-4.9-1.4-3.4-1.3-6.6-3.1-9.5-5.3-3-2.2-5.6-4.9-7.7-7.9-2.1-3-3.4-6.6-4.4-10.2-1.7-6.5-2.4-14.7-8-19.3-3.1-2.6-6.9-3.7-10.8-4.2-3.8-.5-7.7-.5-11.4-1.7-1.9-.6-3.4-1.4-3.6-3.6-.1-1.9.4-3.9,1.1-5.6,1.4-3.7,3.6-7.2,4.6-11.1.5-2.1.6-4.1.3-6.3-.3-2.1-.6-4.3-.2-6.4.7-4,3-7.5,5.8-10.3,2.9-3,6-5.8,8.9-8.6,2.9-2.8,6.8-5.4,8.1-9.5.6-2,.7-4.3.7-6.4,0-2.2,0-4.4.3-6.6.6-4.3,1.7-8.4,4.1-12.1,4.2-6.4,11.4-10,18.6-12.1,4.2-1.2,8.5-1.8,12.8-2.4,4.1-.6,8.3-1.3,12.4-2.1-3.8,4.1-7.5,8.3-11.1,12.5-10.4,12.4-19.8,25.8-25.6,41-3,7.9-5,16.3-5.5,24.8-.3,4.5-.2,9,.4,13.4.6,4.4,2,8.7,3.3,13,5,15.3,13.6,29.2,22.7,42.4,17.8,25.6,38.9,48.9,62.7,69.2,9,7.7,18.4,15.1,28.1,22,0,0,0,0,.1.1.7.7,1.6,1.3,2.5,1.7,15,10.5,30.7,20,47.1,28.2,3.3,1.6,6.5,3.2,9.8,4.8.1,0,.2.2.3.2.1,0,.2,0,.4.1,1.4.6,3.6.8,4.9-.2,1.4,1.2,2.9,2.2,4.4,3.2,1.8,1.3,3.7,2.5,5.5,3.8,3.4,2.3,6.7,4.7,10.2,6.8,3.2,2,6.4,4,9.2,6.5,2.6,2.3,4.9,5.2,6.9,8.1,3.5,5,5.9,12.3,12.7,13.4,3.4.6,7.3-.6,9.2-3.6.8-1.3,1.3-2.7,2.1-4,1-1.6,2-3.3,2.7-5.1,1.3-3.3,1.2-7-1.7-9.4h0ZM328.8,305.4s0,0,0,.1c0,.1,0,.2-.1.3,0,.2-.2.4-.3.6,0,0,0,0,0,0,0,0,0,0,0,0,0,0,0,0,0,0,0,0,0,0,0,0,0,0,0,0,0,0-.1.2-.3.3-.4.5,0,0-.1.1-.2.2-.1,0-.5.2-.6.3,0,0,0,0-.1,0h0s0,0,0,0h0c-.1,0-.3-.2-.4-.3,0,0-.1,0-.1-.1,0,0-.2-.2-.3-.3,0,0-.1-.1-.2-.2,0,0-.1-.2-.2-.2-.5-.8-.8-1.6-.9-2.5-.1-1-.2-2.1.1-3.1,0-.1.1-.2.1-.4.4,0,.7-.1,1.1-.2,0,0,.1,0,.1,0,.2.1.3.2.5.3.2.1.3.2.5.3,0,0,.2.1.3.2,0,0,0,0,0,0,.1,0,.2.2.3.3,0,0,.2.2.2.2s0,0,.1.1c0,0,.1.2.2.2,0,0,0,.2.1.2.1.2.2.4.3.6s.1.4.2.6c0,.1,0,.3,0,.4,0,.4,0,.8,0,1.2h0ZM378.6,256.3c.3.3.8-.6.1-.5,0,0,0,0,.1,0,2,1.1,4,2.2,6.1,3.1,2.6,1.2,5.3,2.2,8,3.2,5.1,2,10.2,3.9,15.5,5.4h0c2.3,2.6-1.8,6-3.6,7.5-2,1.8-4.2,3.4-6.5,4.9-.8-1.7-1.9-3.2-2.8-4.7-1.6-2.4-3.4-4.7-5.2-6.9s-3.7-4.4-5.7-6.5c-.7-.7-1.5-1.9-2.5-2.1-.4,0-1.1,0-1.1.5,0,.3.7.3.8,0-.2.6,1.4,2.1,1.7,2.5.7.9,1.4,1.8,2.1,2.7,1.4,1.9,2.8,3.9,4.1,5.9,1.2,1.9,2.4,3.8,3.6,5.7.8,1.4,1.7,2.9,2.7,4.2-4.8,2.8-9.8,4.9-15.2,6.3-1,.3-2,.5-3,.7.8-2,1-4.3,1.3-6.4.4-2.9.6-5.7.8-8.6.1-2.9.1-5.8,0-8.6-.1-2.6,0-5.8-1.1-8.1,0,0-.2,0-.2,0,0,0,0,0,0-.1h0ZM376.6,257.4c0,0-.2.2-.2.2-.4.4-.8.8-1.2,1.1-.5.2-1,.4-1.5.6,1-.6,2-1.3,2.9-2ZM342.2,270.5c2.3-.4,4.6-1,6.8-1.6-.5.2-.9.4-1.4.6-1.6.6-3.1,1.3-4.7,1.9-.8.3-1.6.6-2.4,1-.6.3-1.1.8-1.6,1.3-.5.4.6.7.8.6,1.8-.3,3.3-.8,5-1.5,1.5-.7,3.1-1.3,4.6-2,3.2-1.4,6.5-2.8,9.7-4.3,5.1-2.3,10.2-4.6,15.3-6.9,0,0-.1.1-.2.2-1.6,1.6-3,3.3-4.4,5-2.6,3.2-5,6.6-7.2,10.1-1.1,1.8-2.1,3.9-3.4,5.6-1.1,1.4-2.5,2.4-3.4,4-.3.6,1,.6,1.3.6,2.7-.8,4.4-3,5.8-5.3,1.6-2.8,3.2-5.6,4.9-8.4,1.7-2.8,3.6-5.4,5.6-8,1-1.2,1.9-2.5,2.8-3.7.1-.1.5-.7,1-1.2.1,0,.2,0,.3-.1.1,0,0-.1,0-.2.4-.5.8-1.1,1-1.5-.3,1.2-.3,2.5-.2,3.7,0,1.4,0,2.9,0,4.3,0,2.8-.1,5.6-.3,8.4-.2,2.8-.5,5.6-.9,8.3-.3,2.3-1,4.9-.9,7.3-4.5.7-9,.7-13.6,0-6.5-1-13.2-2.9-19.3-5.3-2.8-1.1-5.5-2.4-7.8-4.3-1.1-.9-2.1-1.9-2.9-3-.4-.6-.8-1.3-1.2-1.9-.5-.7-1.1-1.2-1.5-2,4.2-.1,8.4-.7,12.5-1.5h0ZM325.3,271.9c1.1,0,2.1,0,3.2,0,0,0,0,0,0,0,0,.6,0,1.4,0,2,.1.6.6,1.2.9,1.6.8,1.2,1.8,2.3,2.9,3.3,2.2,1.9,4.8,3.4,7.4,4.6,6.4,2.8,13.5,4.6,20.3,5.9,12.7,2.4,26.5.7,37.4-6.5.5.2,1.7.3,1.6-.4,0-.2,0-.4-.1-.6h0c2.9-2.1,5.5-4.4,7.8-7.1,1.5-1.8,4.1-5.1,1.9-7.3.2,0,.4.1.6.2.6.2,1.3.4,1.9.5.4,0,.7.1,1.1.2.8.3.9.7.3,1-.2.4-.7.9-1,1.3-.4.6-.8,1.2-1.3,1.8-1.5,2.1-3.2,4-4.8,5.9-1.7,1.9-3.4,3.7-5.3,5.5-.5.4-.9.9-1.4,1.3,0,0,0,0,0,0,.3-.6-1.1-.6-1.4-.3-2.1,2.3-5,3.5-7.9,4.7-2.8,1.1-5.6,2-8.6,2.6-5.6,1.1-11.4,1.4-17.1.8-11.1-1.2-21.6-5.8-30.3-12.8-2.5-2-4.7-4.2-7-6.4-.6-.6-1.2-1.2-1.7-1.7.2,0,.3,0,.5,0h0ZM275.6,227.3c-2.5,1.2-4.9,2.4-7.3,3.7-.9.5-1.1,1.4-.6,2.1-1.6,1.5-2.8,3.3-3.6,5.3,0-.5,0-1,0-1.5.2-2.1,1.2-4.3,2-6.3,0-.1.1-.2.1-.3.1,0,.3,0,.4,0-.1.5-.2,1-.3,1.6,0,.2.4.2.4,0,.1-.6.3-1.2.5-1.8.3-.1.6-.3.9-.5,1-.9,1.9-2,2.9-3,.2-.2.4-.4.6-.5,0,.5.4.8,1,1.1,1,.5,2.4.4,3.4-.1,4.1-2.2,7.9-4.8,11.6-7.7,0,.6.7,1,1.5,1.3-4.5,2.2-9,4.5-13.5,6.7h0ZM272.3,220.2c.4-.8.8-1.5,1.1-2.3,1-.5,2-1,3-1.5.9-.4,1.8-.8,2.7-1.3-2.3,1.7-4.6,3.4-6.8,5.1ZM282.5,217.8c1-1.2,2-2.3,3-3.4.9-1,1.7-1.9,2.6-2.8.2.2.4.6.5,1.2-2,1.7-4,3.4-6.1,5.1h0ZM301.5,225.3c2.8-.3,5.6-.7,8.3-1,5.6-.7,11.3-1.4,16.9-2.1,3.9-.5,7.7-1,11.6-1.5-.9,1-.5,3-.5,4.3,0,1.8,0,3.6.2,5.5.3,3.6.7,7.3,1.2,10.9.4,3.5,1.1,7.1,1.7,10.6.3,1.8.7,3.6,1.1,5.3.2.9.4,1.8.5,2.7,0,.5.1.9.1,1.3,0,.2,0,.4,0,.5,0,.3,0,.5.1.7-.3,0-.6,0-.8.1-.5,0-1,.1-1.5.2-5.6.6-11.3,1.1-16.8.1-8.5-1.4-16-6.4-21.9-12.6.3.1.7.1.9,0,1.4-.9,2.6-2.1,3.9-3.1,1.4-1.1,2.7-2.3,4.1-3.4,2.8-2.3,5.5-4.7,8.3-7.1,5.3-4.6,10.4-9.4,15.2-14.6.2-.2-.3-.3-.5-.2-5.8,4.2-11.5,8.7-16.8,13.6-2.6,2.3-5.2,4.6-7.8,7-1.3,1.2-2.5,2.4-3.8,3.5-1.3,1.2-2.8,2.3-3.9,3.7h0s0,.1,0,.1c-3.3-3.5-6-7.5-8.4-11.7-1.3-2.2-2.4-4.5-3.9-6.6-.7-1-1.4-2-2.2-2.9-.4-.5-.8-.8-1.3-1.1,1.8-.9,3.5-1.7,5.3-2.6.2.4.7.7,1.4.8,3,.5,6,0,9-.4h0ZM289,212.4c0-.1,0-.3,0-.4,0-.4-.1-.7-.3-.9,2.5-2.6,5.1-5.1,7.8-7.5.3-.2-.5-.4-.6-.2-3,2.3-5.9,4.7-8.8,7.2-.1,0-.3,0-.4,0,1.6-1.5,3-3.3,3.7-5.5.6-1.8.9-3.9,2.4-5.1,1.3-1,2.9-1.7,4.3-2.7,1.5-1.1,2.2-2.5,2.4-4.3.2-2.4-.3-5,2.1-6.5.7-.4,1.7-.8,2.5-.8,1,0,2.3.7,3.3,1.1,2.7.9,5.5,1.5,8.4,1.7.5,0,1.1,0,1.6,0-10.2,7.1-18.9,15.9-28.3,24.1h0ZM301.8,210.6c6.7-7.5,13.8-14.5,21.5-21,.7-.6.4-1.3-.1-1.8,3-.6,5.9-1.4,8.8-2.2,2.4-.7,4.8-1.5,7.1-2.4-8.1,6.1-16.4,11.9-24.5,18-4.2,3.2-8.5,6.3-12.7,9.5h0ZM335.6,196.7c-7.6,4.1-15.3,8.1-23,12,2-1.5,4-2.9,6-4.4,4.4-3.3,8.8-6.6,13.1-9.9,0,.2.1.3.2.5.6.7,1.8.7,2.7.5.2,0,.3,0,.4,0,1.8,0,3.4-.4,4.8-1.1-1.4.8-2.8,1.6-4.3,2.3h0ZM374.2,169.9c-3.1,4.3-6.9,8-11.2,11.2-4,2.9-8.3,5.3-12.6,7.7-3.4,1.9-6.7,3.7-10.1,5.5,1.1-.6,2.1-1.4,3-2.2,5.8-3,10.9-7,15.9-11.2.7.2,1.8.1,2.2-.1.5-.3,1.1-.6,1.5-1.1.3-.4.6-.8,1-1.2.7-.8,1.4-1.5,2.2-2.1.8-.6,1.6-1.2,2.5-1.7.7-.5,1.6-1,1.9-1.9.2-.6.2-1.1,0-1.5.2-.3.5-.7.7-1.1.6-.9,1-1.9,1.4-2.9.6-.3,1.2-.7,1.6-1.2.2-.2.3-.4.4-.7-.2,1.5-.3,3-.5,4.6h0ZM353.6,169.9c-.8,1.5-1.7,3-2.4,4.6-.2,0-.4.2-.6.3-.2-.4-.2-.8,0-1.4.4-1.3,1.5-2.7,2.3-3.7.8-1,1.7-2.1,2.6-3-.7,1.1-1.3,2.2-1.9,3.3h0ZM356,181c-2,1.3-4,2.6-6,3.8,1.1-1.3,2.2-2.5,3.2-3.8.5.1.9.1,1.4.2.5,0,1,0,1.4-.1ZM350.5,179.5c-1.3,1.3-2.7,2.5-4.1,3.8.3-.9-.5-1.7-1.4-2-.3-.1-.6-.2-.9-.2.7-.3,1.4-.6,2.2-1,1.3-.6,2.6-1.3,3.8-2,0,.5.2,1,.5,1.4ZM367.3,167.9c-.3.2-.7.3-1.1.5,0-.2.1-.4.2-.6.7,0,1.4,0,2.1,0-.1.1-.2.2-.3.3.2-.4-.7-.4-.9-.3h0ZM379.1,127.9c-.1-1-.2-2.1-.3-3.1.4.9.5,2,.3,3.1ZM383.4,144.9c-.2,4.8-1.5,9.5-3.2,14-.1.2-.2.5-.3.7.1-4.1.2-8.1.1-12.2,0-.5,0-.9,0-1.4.4-1.6.9-3.1,1.3-4.7.6-1.1,1.2-2.2,1.9-3.3.1,2.3.3,4.5.2,6.8h0ZM221.3,308.4c0,.3.2.6.2.9-3.7-3.5-7.3-7.1-10.8-10.8.4.2.7.5,1.1.8,3.6,2.4,7.1,4.7,10.7,7.1-.9.4-1.5,1-1.2,2h0ZM236.9,323c-.7-.4-1.4-.8-2-1.2-.3-.4-.5-.9-.8-1.3-.7-1.2-1.4-2.5-2.1-3.7.2,0,.4-.1.5-.2.6-.3,1.2-.7,1.7-1.2,1.4,1.2,2.8,2.4,4.1,3.7-.9.2-2,.7-1.9,1.6.1.8.3,1.6.4,2.3h0ZM238.9,295.6s0,0,.1.1c-.7,2.8-.8,5.7-.7,8.6-.8,1.9-1.8,3.8-3,5.5-.6.8-1.2,1.7-2,2.6-.2-.2-.4-.4-.6-.6,0-.2,0-.4,0-.6.3-1.8.5-3.6.8-5.4.6-3.3,1.3-6.6,2.2-9.9.3-1,.7-2.1,1-3.1.5.3.9.7,1.4,1,.2.6.4,1.1.7,1.7h0ZM238.8,261.5c3.4,5.1,6.6,10.3,9.1,15.9.9,2,2,4.6,1.5,6.9,0,.4-.3.7-.5,1.1,0,.1,0,.1-.1.2-.1-.1-.2-.2-.3-.3-.9-.9-1.6-2-2.3-3-2.7-4-4.9-8.3-6.7-12.7,0-.1,0-.3-.1-.4-.2-2.5-.4-5.1-.6-7.6h0ZM237.2,315.8c-.6-.5-1.2-1.1-1.8-1.6.7-.9,1.4-1.8,2-2.7.5-.7.9-1.4,1.2-2.1.2,2,.5,3.9,1,5.8.3,1.2.7,2.4,1.2,3.6-1.2-1-2.4-2-3.6-3h0ZM241.2,304.2c0-.3,0-.6,0-.9.2-.6.3-1.2.4-1.9,2.4,5,5.3,9.8,6.3,15.4.2,1.6.5,3.3.4,4.9,0,.2,0,.4-.1.6-.3-.2-.6-.4-.7-.5-2-2.1-3.4-4.8-4.3-7.5-1.1-3.3-1.6-6.7-1.9-10.1h0ZM245.2,325.9c1.5,1.5,3,3,4.6,4.5-1.1-.6-2.2-1.2-3.4-1.9-.4-.9-.9-1.7-1.3-2.6ZM256.8,340.8c-.2.7-.6,1-1,1.5-.4-.3-.8-.7-.9-.8-.5-.5-1-1.1-1.4-1.6-.9-1.2-1.8-2.4-2.7-3.6-.9-1.4-1.7-2.8-2.6-4.3.2.1.4.2.6.4,2.8,1.7,5.6,3.4,8.3,5.2,0,1.1,0,2.3-.4,3.3h0ZM258.1,345.9c.2,0,.5-.2.7-.3,1.2-.6,1.9-1.5,2.3-2.4.3.5.6,1,.9,1.5.8,1.3,1.6,2.6,2.4,3.9.6,1,1.3,2.2,2.2,3,2,1.7,5.4,1.8,7.5.3.3-.2.6-.5.8-.8.9.8,1.8,1.5,2.6,2.3.5,1.5,1.1,3,2,4.3-.1,0-.3,0-.4.1-.5-.2-1-.5-1.6-.7-2.5-1.1-5.2-1.9-7.8-2.8-4-2.8-7.9-5.6-11.8-8.5h0ZM268.1,345.3c1.4,1.1,2.7,2.2,4,3.3-.2.3-.5.6-.8.8,0,0,0,0-.1,0-.7-.7-1.3-1.6-1.9-2.4-.4-.5-.8-1.1-1.2-1.6h0ZM277.4,359.5c1.6.5,3.2,1.1,4.7,1.8.9.6,1.8,1.2,2.6,1.9,1.6,1.3,3.3,2.7,5,4,.2.2.4.3.6.5-4.4-2.6-8.7-5.3-12.9-8.1ZM299.9,373.1c-2.9-2.2-5.9-4.4-8.8-6.6-1.3-.9-2.5-1.9-3.7-2.8,2.7,1.4,5.4,2.8,8,4.3.2,0,.5,0,.6-.1.7.3,1.3.5,2.1.6,1.3.8,2.5,1.6,3.8,2.4,3.2,2.3,6.3,4.6,9.5,6.9,2.2,1.6,4.4,3.1,6.6,4.7.2.1.4.3.6.4-6.3-3.1-12.5-6.3-18.6-9.7h0ZM383.9,421c-1.4,2.4-3.4,4.8-6.1,5.8-.5.2-.6.1-.9.2.5,0-.5-.1,0,0-.2,0-.4-.1-.6-.2-.7-.3-1.6-1.2-2.3-1.9-1.7-1.9-2.8-4.1-4.1-6.3-1.6-2.6-3.5-5.2-5.7-7.3-2.3-2.2-4.8-4-7.2-6.1s-4.8-4.1-7.3-5.9c-3.1-2.2-6.3-4.2-9.5-6.3-3.5-2.3-7.1-5-10.9-6.8.1-.3.1-.6-.2-1-.4-.4-.7-.8-1.1-1.2.1-.3.2-.7.4-1,.6-1.6-1.8-2.1-3.5-1.8-.1,0-.2-.2-.3-.2-1.8-1.3-3.6-2.6-5.4-3.9-3.7-2.7-7.4-5.3-11.2-8-1.8-1.3-3.6-2.9-5.6-3.9-.9-.4-2.3-.3-2.7-.4-.3,0-.8-.3-1.2-.6-2.6-1.8-4.1-4.8-5.5-7.5-.4-.9-1.9-1.3-3.1-1.2-3.1-4.4-7.7-7.7-12.3-10.6-1.1-.7-2.2-1.4-3.3-2.1-1.3-1.4-2.6-2.7-3.8-4.1-.2-.2-1.1-.1-.9.2.3.5.7,1.1,1,1.6-4.4-2.8-8.7-5.6-12.8-8.8-2.8-2.1-5.5-4.3-8.3-6.4.1,0,.2,0,.3,0,1.5-.5,1.9-1.8,1.8-3.3-.1-6.2-3.1-11.6-6-17,1.6,1.7,3.5,3.1,5.7,4,.6.3,2.2.2,2.5-.6,1.5-3.8-3-7.7-5.4-10-1.9-1.7-3.9-3.3-6-4.7-.2-.7-.3-1.4-.5-2.1,0-.4-.1-.9-.2-1.3-.2-4.2-.7-8.4-1.2-12.6,1.2,2.3,2.5,4.5,3.9,6.7,1.3,2,3.1,3.6,5.7,3,2-.5,2.9-2.3,2.8-4.2-.2-2.8-1.8-5.6-3.2-7.9-1.6-2.6-3.3-5.2-4.9-7.7-1.9-3-3.9-6-5.9-9-.1-1.9-.2-3.8-.2-5.7-.1-4.8.1-9.6.5-14.4.6,1.6,1.5,3.1,2.4,4.5,2.4,3.7,5.7,7.3,9.8,9.1,2.1.9,4.8,1.3,6.8,0,1.6-1,2-2.8,1.3-4.5-.8-1.9-2.2-3.1-4.1-4-2.5-1.1-5.2-2-7.8-3-1.4-.5-2.8-1.1-4.2-1.7-.1,0-.3-.1-.4-.1-.5-.9-1-1.7-1.5-2.6-.5-.8-.9-1.6-1.4-2.4,1.4.8,2.9,1.2,4.5,1.3,2.6,0,5.6-1,6.5-3.6.2-.6-.5-.9-1-1-2.4-.5-4.8-1-7.3-1.1-.9,0-1.9,0-2.8,0,.1-.4.3-.7.5-1.1.9-1.6,1.7-3.2,2.5-4.8,1.5-3.5,2.3-7.2,3.2-10.8.9-3.6,1.7-7.3,2.4-10.9.2-1,.4-2,.7-3,.2-.2.4-.5.6-.8.3-.5.5-1,.7-1.6,0-.2,0-.3.1-.5,0-.1.1-.3.1-.4,1.6-.9,3.9-.6,4.4,1.5,0,.1.3.1.3,0-.3-1.9-2.4-2.7-4.2-2.4.4-.5,0-1.2-.5-1.5-.8-.5-1.9-.4-2.8-.2-1.7.4-3.2,1.1-4.2,2.7-.8,1.3-1.1,2.7-1.4,4.2-.8,3.8-1.4,7.7-1.8,11.6,0,.4,0,.8-.1,1.2-.9,2.9-1.7,5.9-2.4,8.9,0,.1,0,.2,0,.3,0-.2,0-.5,0-.7-.4-2.3-1-4.8-2.4-6.7-1.6-2.3-4.2-4.3-7.1-3.1-1,.4-2.1,1.4-1.9,2.6.2,1.2,1.3,2.3,2.1,3.2,1.8,2.1,3.9,4.1,6.1,5.7.5.4,1.1.9,1.7,1.3.2.8.5,1.5.7,2.3-.2.9-.3,1.7-.5,2.6-.4-.1-.9,0-1,.2-.2.5-.4.9-.5,1.4,0,.3.2.4.5.5-.7,0-1.5.2-2.1.5h-.2c-1.1-1-2.3-1.8-3.3-2.6-2.4-1.7-5-3.1-7.6-4.3-5.3-2.4-11.5-4.3-17.2-1.9-.6.3-1.7,1.1-.8,1.8,4.4,3.5,10.3,5.6,15.8,6.8,2.7.6,5.5,1,8.2,1.1.9,0,1.8,0,2.7,0,0,0,.1.1.2.2-1.6.6-3.2,1-5,1.1-4.9.3-9.7-.7-14.6-.1-2.2.2-5,.7-6.4,2.5-1.6,2,0,4.4,1.6,5.7,4.5,3.8,10.8,3.5,16.1,1.6,2.6-.9,5.2-2.2,7.6-3.6,1.8-1.1,3.6-2.3,5.2-3.8-.4,3-.7,6-1,9.1,0,.7-.1,1.5-.2,2.2,0,.3-.2.7-.3,1-.6.6-1.1,1.3-1.6,2-.2-.2-1,0-.8.2.1.2.2.4.4.6-.2.4-.4.8-.6,1.3-1.3,1.1-2.9,1.7-4.5,2.3-2.6.9-5.2,1.9-7.7,3.1-2.2,1-4.4,2-6.2,3.5-1.6,1.3-2.9,3.4-2,5.5,1,2.4,3.9,2.4,6.1,2.7,2.5.3,5.4.8,7.9,0,.3-.1.6-.2.8-.3-2,4.6-4.2,9.1-5.7,13.9-.9,3-1.8,6.5-1.2,9.7.6,2.9,2.7,5.1,5.8,4.7,3-.3,4.1-3.2,4.8-5.8.9-3.6,1.3-7.3,1.6-10.9.4-4.6.9-9.2,1.4-13.8.3-2.2.5-4.4.8-6.6.1-1.1.3-2.2.4-3.3,0-.3,0-.5,0-.8,0,0,0-.1,0-.2-.2,4.4-.2,8.8,0,13.1.3,6.3.9,12.8,2.6,18.9-.8.7-1.3,1.7-1.8,2.5-2.3,4-3.5,8.5-4.4,13-.3,1.7-.7,3.4-.9,5-.4-.3-.7-.6-1.1-1-2.9-2.6-5.9-5.2-8.9-7.6-3.5-2.8-7.1-5.5-10.6-8.3,0,0-.1-.1-.2-.2.5.2,1,.5,1.5.7.2,0,.8-.1.4-.3-5-2.5-8.1-6.5-11.3-10.9-1.6-2.2-3-4.4-4.8-6.5-2.1-2.5-4.2-5.1-6.3-7.6-4-5-7.8-10.2-11.7-15.3-1.8-2.4-3.6-4.8-5.6-7-1.8-2.1-2.8-4.9-5-6.7-2.5-2-4.7-4-6.5-6.7-1.7-2.6-3-5.4-3.8-8.4,0-.3-.8-.2-.7.1,1.4,5.3,4.4,9.9,8.4,13.6,1.1,1,1.9,2.1,2.2,3.5.3,1.3.1,2.7.4,4,.5,2.9,2.4,5,4.2,7.2,4.1,5.3,8.7,10.2,12.9,15.5,4,4.9,7.5,10.2,12,14.7.3.3.7.7,1,1-.3.2-.6.6-.3.9,1.2,2.8,3.6,5.2,5.8,7.4,3.3,4.8,6.9,9.5,10.6,14-9.8-10.2-19.1-20.9-27.7-32-9.5-12.2-17.8-25.1-26.6-37.8-5-7.3-9.9-15.2-11-24.2-1.1-9,.3-18,2.9-26.7,9.6-31.2,31.2-56.3,53.8-79,12.2-12.3,25-24.1,38.5-34.9,6.8-5.5,13.8-10.6,20.9-15.6,6.7-4.7,13.9-8.7,22-10.6,3.4-.8,6.9-.7,10.3,0-1.1-.1-2.2-.2-3.3-.2-2.3-.1-4.6,0-7,.3-1.3.1-1.3,1.4,0,1.6,4.5.5,9,.9,13.4,1.8,4.3.9,8.6,2.2,12.7,3.7,8.6,3.1,16.7,7.5,24.3,12.5,7.8,5.2,15.1,11.2,22.1,17.6,6.9,6.3,13.9,12.9,19.5,20.3,2.9,3.8,5.2,8,6.4,12.6.9,3.5,1.1,7.2,1,10.8-.2,0-.4.2-.4.3-.3,1.6-.7,3.1-1.1,4.7-1.1,1.2-2.1,2.5-3.1,3.9,0,0,0-.2,0-.3.3-.8.7-1.6,1-2.4,1.1-3.1.8-7.5-2.4-9.3-.4-.2-1.7-.3-1.8.4,0,3.7,0,7.4,0,11.1-2.3,2.6-5.2,4.9-6,8.3-.6,2.7,0,5.3.4,8-1-.7-3.2-.5-3.6.5-.4,1.2-.8,2.4-1.2,3.6-3.9.4-7.8.6-11.7,1.1-2.6.3-5.2.6-7.8,1-1-.6-2-1.2-3-1.8-1.8-1.1-3.7-2.2-5.4-3.4-1.8-1.2-3.5-2.5-5.1-4-1.7-1.5-3.1-3.3-4.8-4.8-1.3-1.2-4.4-1.3-5.4.4-2.6,4.6,2.6,10.2,6.2,12.6,1.5,1,3.2,1.8,5,2.3-3,.3-6,.6-9,.7-.2-.1-.4-.3-.6-.5,0,0-.1,0-.1,0,.1.1.3.3.5.4-1.9.1-3.9.2-5.8.3,0,0-.1,0-.2,0-1.2-.3-2.3-.5-3.5-.7-.2-.3-.4-.6-.6-.8-.3-.8-.6-1.5-1-2.3-.9-2-1.7-4-2.5-6-.8-1.9-1.7-3.6-3-5.2-1-1.3-2.4-3-4.3-2.9-2.1.1-1.8,1.9-1,3.3,1.2,2,2.4,4,3.8,5.9.9,1.2,1.8,2.3,2.8,3.4.2.8.4,1.6.6,2.4,0,.1,0,.2.1.3-.1,0-.3,0-.4,0-1.6-1.1-3.9-1.3-5.9-1.2-.3,0-.9.3-.4.6,1.6.9,3.4,1.3,5.2,1.2.3.3.6.6.8.9h-.5c-2.2,0-4.9,0-7.2.6-1.8-.2-3.6-.4-5.4-.7-.8-4.1-2.1-8.1-3.3-12.1-1.1-3.6-2.9-7.2-7-7.7-.6,0-1.8,0-1.9.8-.6,5.5,2.3,10.8,5.1,15.3.5.8,1,1.5,1.5,2.3-.9-.5-1.7-1.1-2.4-1.7-.3-.5-.6-.9-.9-1.4-1.4-2.2-2.7-4.5-4.1-6.8-.3-.5-2.1-.6-1.9.1,0,0,0,.1,0,.1h0c.8,3.6,2.8,6.7,5.6,8.9-2.1-.6-4.1-1.3-6-2.1-.3-.6-.9-.9-1.4-1.3-.8-.7-1.5-1.4-2.2-2.1-1.3-1.4-2.3-2.8-3.2-4.5-2-3.5-3.6-7.2-5.3-10.8-1.9-4-4.1-7.9-6.7-11.4-2.3-3.2-5.8-6-10-4.4-.5.2-1,.5-1.4.8,0-.1,0-.3-.1-.4-.4-1.4-4.2-1.3-4.2.3,0,3.9.6,8,2.2,11.6,1,2.3,2.4,4.5,3.9,6.6-.2-.1-.4-.3-.6-.4-1.3-.7-2.8-1.7-4.3-2-1.5-.3-3.4.2-3.9,1.8-.5,1.4.3,2.7,1.1,3.7,1.9,2.3,5.2,3.2,8,3.9,2.3.5,4.8.9,7.2,1.2.2.2.5.5.7.7-4.8-1.3-9.8-1.5-14.6-.2-2.1.5-4.7,1.4-6.4,2.8-2.1,1.8-.2,3.9,1.7,4.9,2.2,1,4.8,1,7.2,1.2,2.7.1,5.3.2,7.9.2,3,0,5.9-.3,8.9-.6,2-.2,4.1-.5,6.1-.9,1.2.6,2.4,1.2,3.7,1.8-1.4.1-3.2.4-3.8,1.5-1.4,2.6,7.8,3.4,9.2,3.5,2.1.1,4.1,0,6.2-.4.3,0,.9-.1,1.5-.2.5.1,1,.2,1.5.3-.4,0-.8,0-1.2,0-4.3.5-8.5,2.1-12,4.7-1.5,1.2-3.6,2.8-4.2,4.7-.7,2.5,2,4.1,4.1,4.4,2.3.3,4.6-.3,6.8-.9,2-.6,3.9-1.4,5.7-2.4,1.9-1,3.7-2.3,5.3-3.8,1.3-1.2,2.5-2.5,3.7-3.7.2.6.5,1.1,1,1.6,2.2,2.2,6.2,2,8.7.4,1-.7,2.2-1.8,3-3,.9,0,1.8,0,2.7,0,0,0,.2.2.2.2.3.2.6.4.9.6,0,.2-.1.4-.2.7-2.1,1-4.1,2.1-6,3.3-2.5,1.6-5.2,3.2-7.1,5.6-.8.9-1.9,2.2-1.2,3.5.7,1.3,2.5,1.8,3.8,1.9,6.3.8,10.7-5.6,12.1-11,.2-1,.5-2,.6-3.1,0,0,.1,0,.2-.1,1.6.3,3.2,0,4.2-1.2.2-.2.3-.4.3-.6.5,0,1,0,1.5-.1.1,0,.2.2.3.2,1,.3,2,.4,3.1.5-1.3,1-2.5,2.3-3.3,4-.5,1-.8,2-1,3-.2,1-.7,2.1-.6,3.1,0,2.2,2.7,3,4.5,2.9,3.9,0,7.5-3.1,10.2-5.7,2.9-2.8,5.8-6.2,7.4-10,.5,0,1.1-.2,1.5-.1.9,0,1.1.8.3,1.2-.8.4-1.6.5-2.4,1.1-.7.5.9.8,1.3.6,1-.6,4.8-1,3.3-3.2,0-.1-.2-.2-.3-.3,2-.3,4-.6,5.9-1,4.3-.7,8.5-1.9,12.7-2.9-1.5,4-3.2,7.9-5.1,11.8-.7.3-1.3.6-1.9.9.5-1.5.9-3,1.2-4.5.1-.7-1.5-.6-1.7-.3-2.4,2.5-5,4.7-6.9,7.6-.8,1.2-2,2.9-1.3,4.3,0,0,0,0,0,0-.8.4-1.7.7-2.5,1.1-4.8,2.1-9.6,4-14.6,5.5-4.9,1.5-10.3,2.9-15.4,3-2.7,0-5.1-.9-7.8-1.4-2.5-.5-5.1-.4-7.5.4-1.7.5-3.4,1.5-4.2,3.1-1.1,2.3.4,4.5.3,6.8-.2,4.2-6.2,5.2-9.1,7-2.4,1.4-3.4,3.8-5,5.9-1.4,1.8-3.2,3.1-5.2,4.1-.2.1-.4.2-.6.3-.7-.1-1.4,0-2,0-.3,0-.8.2-1.1.1h0c0-.5,0-1,0-1.5,0-.1-.2-.2-.3-.2-1.3-.2-2.8,1.4-2,2.6.2.4.7.7,1.2.9-.5.2-1.1.5-1.6.7-1,.5-2.1.9-3,1.5-.2.1-.5.3-.7.5-.4.4-.4.7-.7,1.1,0,.1,0,.3,0,.4,0,.1-.5.4-.6.5-.5.6-.1,1.1.5,1.4.8.4,1.7.3,2.5,0,.6-.3,1.3-.4,1.9-.6-.5,1-1,2-1.5,2.9-.2.3-.3.6-.5.9-.3.3-.6.5-.9.8-1-1.2-3.8-.9-4.5.3-1.1,1.7-2.1,3.5-3,5.3-.8.4-1.6.8-2.4,1.3-1.6,1-3.5,2-4.7,3.4-1,1.2-1.9,3-1.7,4.7.1,1.8,1.2,3.4,2.4,4.7,2.7,2.9,6,5.2,9,7.7,1.2,3.8,3.3,7.4,5.2,10.7.2.3.4.7.6,1,0,.1,0,.3-.1.4-.1.4.3.5.7.5,3.4,5.8,6.9,11.6,10.3,17.5-.2,0-.4-.2-.7-.2-.5-.2-.9-.4-1.3-.7-.3-.5-.7-1-1-1.5-.8-1.2-1.6-2.5-2.4-3.7-.6-.9-1.2-1.9-1.7-2.9-.7-2.1-1.3-4.4-2.6-6.2-.6-.8-1.3-1.5-2.2-2-.8-1.4-1.6-2.9-2.5-4.3,0,0-.1-.2-.2-.3,0,0,0,0,0,0l-.8-1.3c-1-2-2-4.1-3.4-5.9h0c-.2-.2-.9-.2-.9.1.3,2.7,1.7,5.3,2.7,7.8,1,2.7,2.2,5.4,3.4,8.1.9,1.9,1.8,3.9,2.7,5.8,0,1,.2,2.1.5,3.1.5,1.8,1.5,3.6,3.1,4.6.4.8.9,1.5,1.5,2.1.8.9,2.4.9,3.4.7.5-.1,1.4-.6,1.7-1.2.5,0,.9.2,1.4.4.6.3,1.1.7,1.5,1.3.4.7.8,1.4,1.3,2.1.5,1,.9,2,1.5,2.8.3.4.6.9,1,1.3,3.2,5.4,6.4,10.8,9.6,16.1,4.1,6.9,8.2,13.8,11.7,21,.9,1.9,1.8,3.8,2.6,5.7.9,2,2,3.8,2.9,5.8,1.7,3.8,3.2,7.5,4.4,11.5,2.2,6.9,4.4,14.2,8.3,20.3,3.6,5.6,8,10.6,12.8,15.2,5.5,5.2,11.7,9.7,18.1,13.9,1.6,1,3.2,2.1,4.8,3.1,1.7,1,3.5,1.9,5.3,2.7,3.7,1.8,7.3,3.7,11.2,5.1.3.1,1.4,0,1.8-.4.4,0,.9,0,1.1-.1.6-.2,1.5-.6,2.1-.5,1.1.1,2.2,1.2,2.7,2.2,1.4,3-.7,6.8-2.1,9.4h0ZM243.6,298c.4.3.8.6,1.1,1,1.3,1.2,2.5,2.5,3.7,3.9.8.9,1.7,2.1,2,3.3-3-1.9-5.3-4.9-6.8-8.2h0ZM243.6,240.1c3.3,1.2,6.6,2.4,9.8,3.7,1.8.8,4.2,2.1,4,4.4,0,.8-.6,1.9-1.4,2.1-.5,0-1.3-.2-1.7-.4-1.8-.7-3.5-2.2-5-3.4-1.6-1.4-3.1-2.9-4.4-4.6-.4-.6-.8-1.1-1.2-1.7h0ZM239.6,231.7c0,0,0-.1,0-.2,0-.3,0-.5,0-.8,1-.1,2-.1,3,0,1.7,0,3.5.3,5.1.9-.5.4-1.1.8-1.7,1.1s-.7.3-1.1.4c-.1,0-.7.1-.8.1-1.7,0-3.2-.6-4.7-1.4h0ZM235.2,220.9c-1.2-1-2.4-2.2-3.4-3.4-.4-.5-.8-1-1.3-1.5-.4-.5-1-1.1-1.2-1.8-.1-.5.1-.8.5-1.1.2.2.5.3.6.4,2.2,1.6,3.6,4.4,4.5,6.9,0,.2.1.3.2.5h0ZM234.3,233.1c.3-.2.5-.4.8-.6.3-.2.7-.3.9-.2-.1.7-.2,1.5-.3,2.2-.1,0-.3.2-.4.3-.2-.6-.6-1.2-1-1.7h0ZM234.3,235.4c-3.1,2.1-6.1,4.1-9.6,5.4-3.6,1.4-8.4,3.1-12,1.1-.7-.4-1.4-.9-1.9-1.5-.4-.5-1.3-1.7-1.1-2.4.2-1.3,3.2-1.3,4.1-1.4,3.8-.3,7.6.2,11.4,0,1.9-.1,3.8-.5,5.5-1.2.7-.3,1.4-.7,2.1-1.1.5.4,1,.8,1.5,1.2h0ZM229.6,231.4c-.3,0-.6,0-.8-.1-2.5-.3-5-.8-7.4-1.6-2.4-.8-4.7-1.7-7-2.8-1.8-.8-3.4-1.9-5.1-2.9,1.8-.7,4-.3,5.8.2,2.5.6,5,1.6,7.3,2.6,2.2,1,4.4,2.3,6.4,3.8.3.2.6.5.9.7h0ZM225.8,283.5c1.4-4.8,3.4-9.5,4.9-14.3,0,1.1-.2,2.2-.3,3.3-.3,3.6-.6,7.2-1.1,10.8-.4,3.3-.9,7.1-2.5,10.1-.3.6-.7,1.1-1.2,1.6-.4.4-.7.6-1,.4-.7-.6-.7-2.4-.7-3.2,0-2.9,1-5.9,1.8-8.7h0ZM225.7,267.4c-2.1,1.7-4.8,1-7.2.5-.5,0-1.1-.2-1.6-.3-.4,0-1.3-.1-1.7-.4-.7-.6-.3-2,0-2.7.8-1.7,2.7-2.7,4.2-3.6,2.1-1.2,4.2-2.3,6.4-3.2,1.5-.6,3-1.2,4.4-2-.8,2.6-1.4,5.1-2.3,7.7-.3,1-.7,1.9-1.1,2.8-.3.4-.7.8-1.1,1.1h0ZM341.1,156.5c-3.2-.3-6.4-1.4-8.9-3.3-1.5-1.1-2.8-2.5-3.7-4,0-.2-.2-.3-.3-.5,1.9,1.5,3.8,2.8,5.9,4,2.8,1.6,5.6,2.8,8.6,3.6-.6,0-1.1.1-1.7.2h0ZM341.4,160c-2.5,2.8-5.1,5.5-8.2,7.7-1.6,1.1-3.4,2.1-5.1,3.1-.3.2-.8.3-1.3.5v-.3c.2-2,.6-4,1.7-5.7.9-1.4,2.3-2.4,3.6-3.3,1.3-.2,2.6-.5,3.9-.8,1.8-.4,3.5-.8,5.3-1.2h0ZM308.9,150.2c-1.6-2.1-3.1-4.3-4.3-6.7-.2-.4-1.1-1.9,0-1.7.4,0,1.3,1.4,1.5,1.7.8,1.1,1.4,2.3,1.9,3.6.4,1,.7,2.1,1,3.1h0ZM307.8,155.8c-.8,0-1.6-.3-2.4-.6.8,0,1.7.2,2.4.6ZM307.5,162c-1.1,1.1-2.4,2-3.7,2.1-1.4.1-2.6-1.2-2.8-2.5,2.1.2,4.3.3,6.5.4h0ZM278.5,170.9c-.9-.6,0-1.7.4-2.3,2.3-3.3,5.8-5.1,9.5-6.5,1.9-.7,3.8-1.2,5.7-1.5.8.1,1.6.2,2.4.4.4.2.9.3,1.4.5,0,.3,0,.7,0,1-1.4,1.5-3.2,2.6-4.8,3.6-2,1.2-4.1,2.2-6.3,2.9-2,.7-4.1,1.3-6.1,1.6-.5,0-.9.1-1.3.2-.2,0-1.1,0-.9,0h0ZM291.1,151.9c-2.2-3.9-3.8-7.9-4.1-12.3,2.3,1.5,3,5.2,3.8,7.6.9,3.1,1.8,6.2,2.9,9.2-1-1.5-1.8-3.1-2.6-4.5h0ZM284.7,158.6c-.1,0-.2,0-.3,0-2,0-4,0-5.9-.4-1-.1-1.9-.3-2.9-.6-.3,0-1.2-.2-1.5-.4-.3,0-.3-.2,0-.5.3,0,.5-.2.8-.2.8-.2,1.6-.3,2.4-.4,2.4,1,4.9,1.8,7.4,2.5h0ZM263.1,141.1c-3-3.1-5.5-6.5-7.5-10.3-1.6-3-3.1-6.1-4.2-9.3.2-.3.4-.6.5-.6.3-.2.6-.5,1-.5.5,0,.8.3,1.2.6,1.4,1.2,2.4,3,3.3,4.6,2.2,3.8,4,7.8,6.2,11.6,2.1,3.4,4.5,6.8,7.3,9.6.8.8,1.7,1.7,2.6,2.5-3.8-2.2-7.3-4.9-10.4-8.1h0ZM269.5,152.4c-1.3.1-2.6.3-4,.4-2.7.2-5.5.2-8.2.1-2.7,0-5.5-.3-8.2-.7-1-.1-2.1-.2-3.1-.6-.3-.1-.5-.3-.7-.5-.1-.1-.2-.3-.2-.4,0,0,0,0,.1,0,2-1,3.8-1.7,6-2.1,2.1-.3,4.3-.2,6.4,0,2.8.3,5.7.9,8.5,1.6,1.1.8,2.3,1.5,3.5,2.2h0ZM256.8,142.4c-.6-.1-1.2-.3-1.8-.4-2.5-.6-6-1.2-7.2-3.8-.1-.2-.2-.5-.2-.7,0,0,0-.2,0-.3.4.1.8.2,1.2.4,1.7.6,3.3,1.3,4.8,2.1.3.2.6.4,1,.5.2.2.4.5.6.7.5.6,1,1.1,1.5,1.6h0ZM313.7,165.4c-1.3,3.2-3.7,6.3-6.3,8.1-.4.3-2,1.5-2.5,1.2-.4-.2.5-1.7.8-2.1,1.4-2.2,3.7-4.1,5.8-5.6.8-.6,1.5-1.1,2.3-1.6h0ZM261.1,229.2c-.2.5-.5,1-.7,1.5-.9,2-2.1,4.2-2.3,6.5-.2-.6-.2-1.1-.2-1.8,0-1.7.3-3.6,1.5-4.8.5-.5,1.1-.9,1.8-1.3h0Z"/>
  <path class="st0" d="M331.1,232.5c-1,2.9-2.1,5.8-3.2,8.6-1.1,2.8-2.3,5.5-3.5,8.3-1.3,2.8-2.9,5.6-3.6,8.6-.1.6,1,.6,1.2.3,1.9-2.4,3-5.3,4.2-8.1,1.2-2.9,2.4-5.8,3.5-8.8,1.1-2.9,2.1-5.8,3-8.7.9-2.9,1.9-5.9,2.3-8.9,0-.3-.6-.2-.7,0-1.3,2.8-2.2,5.8-3.2,8.7h0Z"/>
  <path class="st0" d="M393.9,250.4c.6,1,1.6,2,2.7,2.4,2.6.9,5.8-.4,6.6-3.2.2-.9.3-1.8,0-2.7-.3-1-1-1.7-1.8-2.3-1.1-.8-2.4-1.1-3.7-1.2-1.3,0-3,.3-3.7,1.6-.1.2,0,.5,0,.7-.4.6-.7,1.3-.8,2-.1.9.1,1.9.6,2.6h0ZM397.3,246.4h0s0,0,.1,0c0,0,0,0,0,0,0,0,0,0,0,0,0,0,0,0,.1,0h0s0,0,0,0c0,0,.1,0,.2.1,0,0,0,0,0,0,0,0,.1.2.2.2.1.2.2.5.3.7,0,.4,0,.8,0,1.2,0,.1,0,.2-.1.3,0,0,0,0,0-.1,0-.1-.1-.2-.2-.3-.2-.4-.4-.8-.5-1.2,0,0,0-.1,0-.2,0-.1,0-.2,0-.3,0-.2,0-.3,0-.5h.1Z"/>
  <path class="st0" d="M401.9,118.9c-1.9-1.3-3.8-2.5-5.9-3.4-1.4-.6-3.1-.8-4.5,0-1.2.7-1.2,1.9,0,2.6,7.8,4.5,14.1,10.6,20.2,17.1,6.2,6.6,12,13.6,16.4,21.7,9,16.6,10,36.5,9.1,54.9,0,.9-.1,1.8-.2,2.7-.2-.5-.5-1-.9-1.4-.7-.6-2.2-.7-2.8.2-2.5,4.3-4.8,8.8-7.1,13.2-1.4,2.8-2.8,5.6-4.2,8.5.7-4.9.9-9.8.9-14.5,2.8-7.7,4.8-15.7,6-23.8,1-6.9.9-13.9,2.5-20.6.8,2.4,1,5,1,7.4,0,4.4-.8,8.9-1.9,13.1-1.1,4.2-2.5,8.3-3.8,12.4-.7,2.1-1.4,4.2-2.1,6.3-.4,1-.7,2.1-1,3.1-.3,1-.3,2-.6,3.1-.1.6,1.3.5,1.5.1.6-1.1,1.2-2.1,1.7-3.3.4-1.1.8-2.3,1.2-3.4.7-2.1,1.4-4.2,2.1-6.3,1.4-4.4,2.9-8.7,4-13.2,1.9-7.5,3.4-16.9-1-23.8-.6-1-2.8-1.1-3.4,0-1.9,3.4-2.4,7.4-2.6,11.3-.2,4.2-.3,8.4-.7,12.7-.6,7.2-1.7,14.3-3.2,21.4-.2-5.5-.9-10.9-1.7-16.3-.6-3.8-1.3-7.7-2.5-11.3-.1-6.3-.8-12.5-2-18.7,0-.3-.1-.6-.2-.9,0-.3,0-.6-.1-.8-.2-1.4-.3-3.1-1-4.4-.5-2.2-1-4.4-1.6-6.6-1-3.9-2-7.9-1.7-11.9,2.7,1.6,5.4,3.4,7,6.2,2.2,3.7,2.6,8.3,2.9,12.5.3,4.6.2,9.2,0,13.9,0,2-.1,3.9-.3,5.9,0,.9-.2,1.8-.5,2.6-.2.7-.6,1.3-.9,1.9-.3-.2-.4-.6-.4-1,0,0,0,0,0,0,0,.6,0,1.2.2,1.7,0,.4.8.5,1.1.3,3.2-2,3.8-6.8,4.1-10.2.4-5.2.8-10.3.5-15.5-.3-4.5-1-9.3-3.7-13-2.5-3.5-6.4-5.4-10.1-7.2-.6-.3-2.1-.4-2.2.5-.5,4.3.3,8.5,1.3,12.7.5,1.9.9,3.8,1.4,5.7-1.5,0-2.9.7-3.3,2.3-.3,1.1,0,2.2,0,3.3.2,1.6.4,3.3.7,4.9.2,1.1.4,2.2.6,3.3-.6-.6-1.3-1.2-1.9-1.8-1.4-1.2-2.8-2.4-4.3-3.6-1.4-1.1-3.1-2.1-4.3-3.4-.2-.2-.9-.3-1.1,0-.6,1.8-.5,3.9-.5,5.8,0,2,.2,4.1.5,6.1.5,4,1.4,7.9,2.7,11.7,2.5,7.9,6.5,15.3,11,22.2,1.3,2,2.6,3.9,4,5.8.6.8,1.1,1.6,1.7,2.3.1,4.7,0,9.3-.7,13.9,0,.4-.1.8-.2,1.2-.6-1.5-1.4-2.9-2.1-4.3-1.7-3.5-3.4-6.9-5.3-10.3-1.9-3.4-3.7-6.8-5.7-10.1-2-3.3-4.1-6.9-6.9-9.7-.4-.4-1.8-.5-1.8.3,0,4.3,1.4,8.4,3.1,12.3,1.5,3.6,3.2,7.1,4.9,10.5,1.6,3.2,3.4,6.3,5.6,9.1,1.9,2.4,4.5,5.4,7.5,6.5-.3,1.4-.6,2.9-1,4.3-.9,3.2-2.1,6.4-3.2,9.6-.2.7,1.2.7,1.5.4,3.7-4.5,6-9.9,7.3-15.6.6,0,1.1-.4,1.6-.8,1.1-1.1,2.1-2.4,3.1-3.6,2-2.3,3.9-4.8,5.7-7.3,1.7-2.5,3.3-5.2,4.5-8,.2-.6.5-1.2.7-1.9-1.6,16.2-6.2,31.9-15.2,45.7-9.1,14.1-21.9,25.7-35.8,34.9-8,5.3-16.4,10-25,14.3-4.3,2.2-8.7,4.2-13,6.3-2.2,1-4.3,2.1-6.5,3.1-2.1,1-4.2,1.8-6.1,3-1.9,1.2-3.7,2.4-5.7,3.4-.9.5.6,1,1.1.9,2.4-.9,4.9-1.5,7.4-2.2,2.5-.7,4.8-1.8,7.2-2.8,4.7-1.9,9.3-3.9,13.9-6,8.9-4.1,17.6-8.7,26-13.8,15-9.2,28.9-20.6,39.3-34.8,5.3-7.2,9.7-14.9,12.8-23.2,3.4-9.1,5.4-18.7,6.3-28.3.9-9.6,1-19.3.2-28.9-.8-9.6-2.6-19.2-6.3-28.1-3.6-8.6-9.2-16.2-15.3-23.3-6.1-7-12.5-13.9-20.1-19.2h0ZM412.1,164.9c0-.2,0-.4.2-.6,0,0,.1.1.2.2,0,.2.2.3.2.4.4,1.9.8,3.7,1.1,5.6.4,2,.7,4,1,6,0,.4.1.8.2,1.2,0,.4.1.8.2,1.1.1,1,.3,2.1.4,3.1,0,.4.1.8.1,1.3-.2-.4-.4-.7-.6-1.1-.5-.7-1-1.4-1.5-2h0c-.4-2.7-.8-5.3-1.1-7.9-.1-1.3-.3-2.6-.4-3.8,0-1.1-.3-2.3,0-3.4h0ZM416.1,214.4c-2.2-3.4-4.3-6.9-6.2-10.4-3.8-7.1-7-14.8-8.6-22.8-.4-2.2-.7-4.4-.9-6.6-.2-1.9-.1-4-.4-5.9,2.1,1.5,3.9,3.6,5.7,5.4,2.1,2.1,4,4.4,5.5,7,0,0,0,.2.1.2.7,3.3,1.4,6.5,2.2,9.8,1.1,4.8,2.3,9.6,3.3,14.5.4,3.7.8,7.5,1,11.3-.6-.8-1.1-1.6-1.6-2.4h0ZM414.1,237.5c-1.3-1.1-2.5-2.3-3.6-3.6-2.3-2.8-4.3-5.9-6-9.2-1.7-3.2-3.2-6.5-4.6-9.9-1-2.3-1.8-4.6-2.3-7.1,1,1.7,2,3.4,3,5,2,3.4,4,6.7,6,10.1,2,3.3,3.9,6.6,5.8,9.9,1.3,2.2,2.6,4.3,4,6.4-.8-.6-1.6-1.1-2.3-1.7h0ZM433.2,220c-1,2.3-2.2,4.6-3.5,6.7-1.4,2.2-2.9,4.2-4.4,6.2s-1.6,2-2.4,3c-.4.5-.9,1-1.3,1.6,0,0,0,0,0,0,0-.1,0-.3,0-.5,2.2-3.5,4.5-6.9,6.7-10.3,2-3.2,4.1-6.5,6-9.7-.2,1.1-.7,2.2-1,3h0Z"/>
  <path class="st0" d="M423.2,210.4l-.4.4s0,0,0,0c0,0,0,0,0,0,0,0,.1,0,.2,0l.4-.4s0,0,0,0c0,0,0,0,0,0,0,0-.1,0-.2,0Z"/>
  <path class="st0" d="M399.5,162.9c.5.1.9,0,1.4,0,.4,0,.9-.2,1.3-.4.3-.1.5-.3.7-.5.2-.2.4-.4.5-.7.2-.5.3-1.2,0-1.7,0,0-.1-.2-.2-.3,0-.1-.2-.3-.3-.4-.1-.1-.3-.2-.4-.3-.4-.3-.8-.4-1.3-.5-.4,0-.9,0-1.3.2-.2,0-.3.2-.4.3-.2,0-.3,0-.5,0-.5,0-1.1.3-1.4.7-.3.3-.5.8-.5,1.3,0,.5.2.9.6,1.3.4.5,1.1.7,1.7.9h0Z"/>
  <path class="st0" d="M380.1,191.6c-1.3-.3-3-.2-4.1.6-.6.4-1.1.9-1.2,1.5-1.2.2-2.1,1.1-2.7,2.2-.5.9-.8,2.1-.6,3.2.2,1.3,1.1,2.4,2.2,3.2,1.3.9,3,1.3,4.5,1.2,1.8,0,3.5-.6,5-1.8,1.9-1.6,2.6-4.6,1.5-6.9-.8-1.8-2.5-2.9-4.4-3.3h0ZM379.3,198.4c-.1.5-.3.9-.6,1.3-.1.1-.2.2-.3.3,0,0-.1.1-.2.2,0,0,0,0,0,0-.1,0-.2.1-.3.2,0,0-.2,0-.3.1,0,0,0,0,0,0,0,0,0,0-.1,0h0s0,0,0,0c0,0-.2,0-.2,0h0c-.1,0-.2-.1-.4-.2,0,0,0,0-.1,0,.1,0-.1-.1-.2-.2,0,0-.2-.2-.2-.2,0,0,0,0-.1-.1h0c0,0-.1-.2-.2-.3,0-.1-.1-.2-.2-.3-.1-.2-.3-.5-.4-.7,0-.2-.2-.4-.2-.6,0,0,0,0,0,0,0,0,0-.1,0-.1,0-.1,0-.3,0-.4,0-.5,0-.9.2-1.3,0-.2.2-.4.3-.6.1,0,.3.1.4.1.3,0,.7.1,1,0,.3.2.9.1.9-.2,0,0,.2,0,.2-.1-.4.2-.1,0,0,0,0,0,.2,0,.3,0,0,0,.1,0,.1.1.1,0,.2.2.3.3.2.4.4.8.5,1.2.1.6.1,1.2,0,1.8h0Z"/>
  <path class="st0" d="M391,187.2c-.2.1-.4.3-.6.4,0,0,0,0,0,0,0,0,0,0,0,0,0,0,0,0-.1,0,0,0,0,0,0,0-.5,0-1,.3-1.4.7,0,0-.1.1-.2.2-.1.1-.3.2-.4.3,0,0-.1.2-.2.2,0,0,0,.2,0,.3,0,0,0,.2,0,.3,0,.1.2.3.3.3.2.2.4.2.7.3.4,0,.8.1,1.1,0,.2,0,.4,0,.6-.1.2,0,.4,0,.6-.1h.5c.2-.2.4-.3.6-.5.1,0,.2-.2.3-.3.1-.1.2-.3.2-.5v-.3c-.2-.1-.2-.2-.3-.3-.2-.2-.3-.3-.6-.4-.2-.1-.4-.2-.7-.2h0s0,0,0,0t0,0c0-.1,0-.3,0-.5,0-.1-.2-.1-.3,0h0Z"/>
  <path class="st0" d="M328.3,306.7s0,0,0,0c0,0,0,0,0,0h0Z"/>
  <path class="st0" d="M312.5,282.8c-.2,0-.5,0-.7,0h0c-.1,0-.2,0-.3,0-.3,0-.6,0-.9,0-.2,0-.5.1-.6.3-.1.1-.2.2-.2.4,0,.2.2.4.4.5.5.3,1,.5,1.6.7,0,0,0,0,0,.1,0,0,0,.2-.1.2-.2.7-.1,1.5.4,2,.5.5,1.3.7,2,.7s.8,0,1.2-.2c.2,0,.5-.2.7-.3.4-.3.8-.6.9-1.1,0-.2.2-.5.2-.7s0-.5-.2-.7c0-.2-.2-.3-.3-.5,0,0-.1-.1-.2-.2-.3-.3-.7-.6-1.2-.7-.7-.2-1.4-.3-2.1-.3.2,0,.3,0,.5,0-.4,0-.7,0-1.1-.1h0Z"/>
  <path class="st0" d="M399,261.5c2.8.5,5.7,0,8.3-1.4,1.2-.6,2.2-1.4,3.2-2.3.5-.5,1-1,1.3-1.6.3-.6,0-1.3,0-1.8-.2-1-1.9-1.1-2.7-.6-.5.3-1,.5-1.6.9-.6.4-1,.9-1.4,1.4-.3.4-.7.8-1.1,1.1-.2.2-.4.3-.6.5,0,0,0,0,0,0-.1,0-.2.1-.3.2-.8.6-1.7,1-2.6,1.5,0,0,0,0,0,0-.1,0-.2,0-.3.1-.2,0-.5.2-.7.3,0,0,0,0,0,0,0,0,0,0,0-.1.4-.5-.6-.5-.9-.4-.5.2-1.2.9-1.2,1.5,0,.4.6.6.9.7h0Z"/>
</svg>