<?xml version="1.0" encoding="UTF-8"?>
<svg id="Camada_1" xmlns="http://www.w3.org/2000/svg" version="1.1" viewBox="0 0 610 800.6">
  <!-- Generator: Adobe Illustrator 29.8.5, SVG Export Plug-In . SVG Version: 2.1.1 Build 2)  -->
  <defs>
    <style>
      .st0 {
        fill: #f18322;
      }
    </style>
  </defs>
  <path class="st0" d="M436.9,86.8c.8-11.7,2.2-23.3,3-35,.9-11.6,2.7-23.4,7.9-34,2.3-4.8,13.6-3.6,14.4,1.8,3.8,25.6-.8,52.1,0,77.9.6,19,2.6,40.7,10.6,58.3,1.7,3.7,3.8,7.4,7,10,1.4,1.1,3.3,2.7,5.3,2.8,3.8.2,3-2,1.9-4.8-3.9-9.9-5.8-19.3-6.8-30-1.8-19.7-4.2-39.6-5.2-59.3-1.1-21-.8-44.3,10.2-62.9,2.5-4.3,14.1-4,14.5,1.8,2.5,33.3,0,66.6.3,100,.1,13.1.6,26.4,3.2,39.3,1.3,6.3,2.9,13.9,7.1,19,4.5,5.4,9.8.1,12.5-5.3,4.5-9,4.1-20.6,3.7-30.4-.4-9.9-1.8-19.8-2.8-29.6-1.7-16-2.9-32-4.9-47.9-1.4-11.2-7.8-28.8-.7-39,2.2-3.2,7.7-3.1,10.7-1.1,9.6,6.3,10.9,17.3,11.6,27.9,1.1,16.1,6.1,31.7,6.1,47.9,0,26.9-7.1,55.2,2.4,80.9,6.8-5.6,10.8-13.2,12.4-22.8,2.7-15.3,2.6-31.7,2.2-47.2-.3-15.7-2.2-30.9-6.2-46-2.9-11.1-7.1-24-1.8-35,1.6-3.2,10.4-3.3,11.4.5,6.4,24.6,13.9,48.9,19.8,73.6,5.8,24.6,5.9,50.1.1,74.8-2.4,10.3-4.5,20.7-8,30.7-3.4,9.5-9.9,17.8-17.7,24.2-7.9,6.5-16.7,13.5-25.8,18.1-5.9,2.9-11.4,6.8-17.1,10.1,1.7,7.2,2.1,15,2.3,22,.5,15.2-1.2,30.5-.5,45.7,0,1.9-1.4,3-3.5,3.6.8,3.6,1.7,7.2,2.6,10.8,2.4,9.5,5.2,18.8,7.3,28.3,3.6,16.5,5.3,33.9,6.6,50.8,3.2,41.3,1.7,82.9,3.3,124.3,1.7,42.3,6.1,84.5,9.3,126.8,1.6,21.5,2.7,42.9,3.6,64.4.5,12.7,3.2,27.1-2.4,39.1-5.7,12.3-22.1,16.2-34.5,15.3-12.6-1-17.4-9.1-21.1-20-6-17.5-4-36.3-3.4-54.4.7-20.8-.8-41.6-1.5-62.4-1.3-41.9,2.9-83.7,4.6-125.6,1.9-47.7,2.7-95.6.2-143.3-1.2-23.6-3.3-47.3-2.8-70.9.3-14.7.9-29.5,1.8-44.2-3.6-5.8-8.3-12-9.2-13.2-3.2-4.3-6.2-8.7-8.9-13.3-1.1-1.8-2.7-3.9-3.1-6-.2-1.3,0-2.1.3-2.9-3-4.5-5.4-9.5-7.5-14.4-3.7-8.7-6.7-17.8-9.7-26.9-3.2-9.6-7-19-9.6-28.7-6.3-24.1-7.2-49.4-5.5-74.1h0ZM501.7,360.1c-1.1,40.4,1.8,81,1.4,121.4-.4,40.5-1.4,81-2.6,121.5-1.2,39.7,6.4,79.2.5,118.7-1.3,8.9-2.9,17.9-3.5,27-.5,8.5-1.3,20.1,5.1,26.8,4.2,4.4,10.9,2.6,15.9.2,5.3-2.5,7.5-8,8.1-13.5,1.5-14.8-2.9-30.6-4-45.3-1.5-19.7-1.9-39.4-2-59.2,0-40.6,2.3-81.1.5-121.7-1.7-40.1-7.3-80-10.3-119.9-1.3-17.1-1.2-34.7-3.9-51.6-1.4-8.9-3.1-17.8-4.5-26.7-.3,7.4-.6,14.9-.8,22.3h0ZM454.8,152.9c4,17,10.9,34,17.2,50.3,3.3,8.3,7,16.9,12.4,24.2.4.6.9,1.2,1.3,1.8,2.3,1.4,4.2,3.5,5.8,5.8,0,0,0,0,0,0,.3.2.5.3.8.4,7.4-3.7,18.1-5,24.1-5.7,2.5-.3,5.2-.6,7.9-.5.4-.3.8-.5,1.1-.8,3.8-2.9,7.6-5.9,11.2-9,7.7-6.7,15.7-13.2,23.2-20.2,9.6-9,13.4-19.9,15.3-32.7,2.5-16.6,1.5-33.5-.4-50.2v1.1c.2,25.5,2.1,55.7-24.9,68.1-3,1.4-9,1.5-10.7-2.1-2.5-5.4-4.3-11-5.5-16.6-1.1,2.6-2.5,4.9-4.3,6.9-9.6,10.3-23.2,7.9-30.6-2-.8,1.1-2,2.1-3.8,3-7.1,3.2-16.8.7-22.9-3.6-14.8-10.4-18.3-34-21.2-50.5-.4-2.3-.8-4.5-1.1-6.7.5,13.2,2,26.4,5,39.2h0Z"/>
  <path class="st0" d="M177.4,144.3c.8-20.4,3.6-41.6,11.8-60.5,3.9-8.9,9.3-17.1,15.2-24.8,2.6-3.5,5.4-6.8,8.4-10,3.6-3.9,5.9-8.5,9.8-12.2,17.3-16.2,42.8-18.9,63.7-7.9,39.8,20.8,41.8,71.4,40.4,110.6-1,26.5-1.7,52.8-10.8,78-4.3,11.8-7.5,24.3-14.1,34.9-3.3,5.4-7.6,9.6-12.8,13.2-3.5,2.4-7.2,4-11,5.5,7.2,33.3,12.1,67.2,12.9,101.2,1,39.9,4.7,79.1,10.2,118.6,5.5,39.4,8.6,79.3,10.3,119,1.7,40,6.3,79.8,9.3,119.8,1.8,24.3.4,54-30.2,56.9-12.6,1.2-29.4-2.7-38.1-12.4-9.7-10.9-12.9-23.3-14.4-37.7-1.6-16.3-.5-32.7-.6-49.1-.2-19.3.1-38.5,1.7-57.8,3.3-40.5,8.2-80.8,11.2-121.4.9-11.5,1.5-23,1.3-34.5-.3-11.1-2-21.9-3-33-1.8-22.1-1-44.1,0-66.2.9-20.8,1.6-41.9-.9-62.6-1.1-9.1-2.9-19.6-1.7-29.3-11.1-5.3-21.1-14.8-28.9-23.1-13.8-14.7-25.1-31.2-31.4-50.6-.8-2.3-1.5-4.7-2.1-7.1-.6-1-1.2-1.9-1.7-2.9-1.1-1.7-.9-3,0-4-3.8-16.6-5.1-33.9-4.4-50.7h0ZM252.9,737.1c.9,7.4,2.5,14.5,5.9,21.2,3.7,7.4,9.5,9.5,16.1,13.7,5.1,3.2,9.3,6.5,15.8,5.3,5.9-1.1,9.8-5.6,12.2-10.9,5.3-11.9,3.1-26.2,1.9-38.6-3.7-37.6-12.4-74.6-16.5-112.2-4.1-37.4-4.7-75.2-7.4-112.7-2.6-35-6.7-69.9-9.8-104.9-1.3,23.4-2.8,46.8-3.7,70.2-1.6,38.2-3.8,76.3-6.4,114.4-2.4,36.5-8.3,72.4-8.6,109.1-.1,15.2-1.3,30.5.6,45.6h0ZM200.2,185.6c1.1,4.9,2.5,9.8,4.1,14.6,2,2.1,4,4.3,5.8,6.7,3,4,6,8.1,9.5,11.7,4.9,5.1,10.8,9.4,16.8,13.5,4.2-1.3,8.6-2,12.9-3.2,7.1-1.8,12.5-6.4,17-12.1,5.1-6.4,8.6-14.1,12-21.5,3.9-8.4,7.8-16.6,10.4-25.5,5.3-18.5,6.6-38.3,6.8-57.5.1-14.5-2.9-28.7-3.3-43.1-1.3-3-2.7-5.9-4.3-8.7-4.2-7.4-10.3-14.7-17.6-19.1-7.9-4.7-14.2-3.1-22.5-.4-18.7,6.1-34.5,17.2-43.2,35.2-8.1,16.6-9.7,34.8-9.7,53.1,0,18.8,1.2,37.9,5.5,56.3h0Z"/>
  <path class="st0" d="M17.8,139.5c.4-20.5.7-41,3.7-61.3,2.9-19.2,8.3-38.1,18.9-54.6,3.8-5.9,7.4-13.4,14-16.4,5.9-2.7,14.4-1.8,18.2,3.9,3.9,5.7,2.8,13.9,2.3,20.4-.8,10.4-.3,20.9,0,31.3.7,26.2,2.4,52.4,4.8,78.5,2.7,29.9,3.7,58.7,1,88.6-1.5,16.9-3.1,33.8-4.5,50.7,4.1,9.6,6.3,20.1,7.1,30.9.4,1.7.7,3.5.9,5.3.6.8,1.2,1.7,1.8,2.5,1.3,1.9.2,3.5-1.5,4.7.7,20.2,1.4,40.4,4.3,60.5,6.2,43.4,5.8,87.6,2.3,131.3,1.9,8.8,3.7,17.5,5.2,26.3,4.3,26.1,5.5,52.8,7,79.2,2.5,45.5,2.6,91.1,5,136.6.9,16.1.6,34.7-16.3,42.1-15.8,6.8-37.9,2.8-51-8.2-7.7-6.5-8.8-17.8-9.2-27.2-.5-12.3.7-24.4,1.8-36.6,2.1-24.7,2.4-49.5,4.3-74.2,3.9-52.7,1.9-105.8,1.9-158.6,0-42-.7-84.5,3-126.3,1.2-13,2.6-26,4.9-38.9,1.3-7.1,2.6-17.4,7.5-23.9-8.9-11.4-17.8-22.7-24.5-35.5-10.4-19.8-12.9-43.4-13.8-65.5-1-21.9.5-43.7.9-65.5h0ZM81.7,437c-.2-6-.6-12-1.1-17.9.3,13.4.3,26.9,1.2,40.3.1-7.4,0-14.9-.1-22.4h0ZM55.1,546.5c.4,23.9,1.9,47.8,1.8,71.7,0,23.6-.2,47.1-.2,70.7,0,10.6.9,21.3.6,31.9-.3,11.3-1.4,22.6-1.8,33.9-.3,9.3-.7,20,1.3,29.2.9,3.9,1.9,7.2,5.9,8.4,3.2.9,7.6.7,10.5-.9,10.1-5.7,7.1-28.2,6.5-37.6-2.6-41.5-1.5-83.2-2.6-124.7-.4-15.1-.6-30.3-.9-45.4-1.6-.4-2.7-1.3-2.6-2.8.7-9.6,1.4-19.2,2.2-28.8-.4-27.7-.8-55.3-1.9-82.9-1-27.1,1.1-54.2-1.3-81.2-1.7-19.3-4.6-38.5-5.8-57.8,0,.1,0,.3-.1.4-2.8,11.7-4.7,23.6-6.2,35.6-4.7,35.9-4.8,72.5-5.4,108.6-.4,23.9-.6,47.9-.2,71.8h0ZM33.6,196.5c1,23.1,3,48.1,13.8,68.9,3.8,7.4,8.4,14.2,13.4,20.9-.5-1.6-1-3.2-1.5-4.8-3.2-11.4-3.3-23-3.2-34.8.2-23.7,1.3-47.3,2-71,.7-24.1,1.3-48.1.9-72.2-.4-22.4-2.2-45.2-1-67.6.3-5.2,1-10.5.9-15.7-1.9,2.9-3.7,5.8-5.4,8.7-9.6,16-14.1,34.5-16.4,52.9-2.3,18.7-2.5,37.6-2.8,56.5-.3,19.4-1.5,38.8-.7,58.2h0Z"/>
</svg>