<?xml version="1.0" encoding="UTF-8"?>
<svg id="Camada_1" xmlns="http://www.w3.org/2000/svg" version="1.1" viewBox="0 0 511 521.2">
  <!-- Generator: Adobe Illustrator 29.8.5, SVG Export Plug-In . SVG Version: 2.1.1 Build 2)  -->
  <defs>
    <style>
      .st0 {
        fill: #f18322;
      }
    </style>
  </defs>
  <path class="st0" d="M365.4,190.4c-.7.1.3,0,0,0h0Z"/>
  <path class="st0" d="M76,121.9c3.5,6.2,6,12.8,7.1,19.8.5,3.3.8,6.7.9,10,.1,3.8-.2,7.5-.2,11.2,0,7.6.7,15.1,0,22.7-.3,3.2-.8,6.2-1,9.4,0,2.6.3,5.1,1.1,7.6,1.6,5.1,5.3,9.4,10.1,11.7.6.3,1.2.5,1.8.8-4,3.1-7.4,7-10.4,11-3.8,5.1-6.9,10.8-8.3,17-1.3,5.9-.8,12,2.3,17.2,2.7,4.6,7.3,7.6,12,9.7,8.9,3.8,20.4,4.1,27.4,11.5,1.9,2.1,3,4.5,3.6,7.2.6,2.9.8,5.8,2,8.5,2.7,6.3,9.8,7.1,15.8,7.7,2.9.3,5.9.7,8.3,2.6,2.5,2,3.4,4.9,3.3,7.9-.2,6.8-3.8,13-6.1,19.2-2.3,6-3.6,12.5-1.2,18.7,2.2,5.6,7.2,9.8,13.4,9.8s12.6-4.5,18.4-7.3c4.8-2.3,10.1-3.1,15.3-3.5,2.6-.2,5.4-.3,7.9.4,2.2.6,3.2,1.8,3.9,3.9.8,2.6,1.1,5.3,2.1,7.8,1.4,3.7,2.1,7.9,4,11.4.8,1.5,2,2.8,2.8,4.4.7,1.6.8,3.3.3,4.9-.8,3.1-2.8,5.9-3.6,9-1,3.9-2.4,8.8-.7,12.7.9,2.1,2.8,3.3,5,3.6,3.1.5,6.2-.4,8.7-2.3,2.4-1.8,4.3-4.3,6.1-6.7,1.6-2.2,3-4.7,4.9-6.7.5-.5,1-1,1.6-1.3.2-.1.4-.2.6-.3,0,0,.1,0,.1,0,.6.4,2,.5,2.5.7.5.1,1.1.2,1.6.3,0,1.9.3,3.8.8,5.5.6,2.2,2,3.8,3.7,4.9-.6.2-1.1.6-.5,1.1.1.1.2.2.1,0h0c0,.2.1.4.3.5.3.4.9.6,1.3.9.8.6,1.7,1.2,2.5,1.8,1.8,1.3,3.5,2.7,5.2,4.2,3.3,2.9,6.5,5.9,9.8,8.8,1.3,1.1,3.8,1.2,5.1,0,5-4.6,10.3-8.8,15.7-13,.2,0,.4,0,.6,0,.2,0,.4,0,.5-.1h0c.4-.1.7-.2,1-.1.5,0,1.3.2,1.8.4,1.7.5,3.3,1.2,5,1.8,1.6.6,3.3,1.2,5,1.6,2.2.5,4.4.7,6.6.8,5,.2,9.9-.8,14.7-2.1,2-.5,4-1.2,6-1.8,1.6-.5,3.3-.9,4.8-1.7,3.2-1.6,5.5-4.2,7.9-6.8.6.2,1.4.3,1.8.2,1.8-.3,3.5-1,5.3-1.5,2.2-.5,4.4-1,6.6-1.1,2-.1,3.9,0,5.9,0,2-.1,4-.5,5.9-1.2,6.8-2.3,11.9-7.8,13.6-14.8.8-3.3,1.1-6.7,3-9.7,1-1.5,2.5-2.5,4.3-2.9,2-.5,4,.1,5.9.8,4.1,1.5,7.9,2.8,12.3,2.4,3-.3,5.5-1.6,7.4-4,2-2.6,3.2-6,5.9-7.9,2.4-1.7,5.8-2.1,8.7-3.3,2.4-1,4.9-2.6,6-5,.9-2,.7-4.2.1-6.3-1.4-4.9-4.7-9.1-7-13.6-1-2-2.2-4.4-2.5-6.3-.5-2.8.3-4.5,1.9-6.9,2.2-3.3,5.2-6.2,6.7-9.9,1.9-4.7,1.1-9.6-.3-14.3-1.4-4.7-3.2-9.3-4.2-14-1-4.8-1.7-9.6-2.8-14.3,0-.2-.1-.5-.2-.7,0-.4,0-.9,0-1.3,0-3.5-.1-6.9-.8-10.4-.7-3.3-1.9-6.4-3.8-9.1-1.1-1.5-2.2-2.8-3.6-4-1.6-1.4-3.7-3.3-5.8-3.5-.2,0-.5,0-.7,0,.6-2.6,1.2-5.3,1.9-7.9.8-3.3,1.4-6.6.4-9.9-.5-1.6-1.4-3.1-2.4-4.5-1.1-1.6-2.2-3.1-3.4-4.7-2.4-3-5.1-5.9-9.1-6.8-.3,0-.7-.1-1-.2-.1-.3-.2-.5-.4-.7-.5-.9-1.2-1.6-1.9-2.4-.8-.8-1.5-1.7-2.2-2.5-1.6-1.7-3.5-3.2-5.4-4.5-1.1-.8-2.2-1.5-3.3-2.2,0-.1,0-.4,0-.4,0-.2-.3-.5-.4-.7-.3-.6-.6-1.2-.8-1.8-.5-1.4-.7-2.9-1-4.3-.4-2.7-.4-5.5-1.4-8-1.2-2.9-3-5.9-5.5-7.9-2.5-2-5.6-3.1-8.6-3.9-3.5-1-7.3-1.9-11-2-.7-5.6-1.6-11.1-2.2-16.7-.4-3.2-.6-6.4-1.1-9.6-.1-.9-1.3-1.3-2.1-1.2-1.6,0-3.2,0-4.8-.1-1.8-.2-3.4-.4-5.2-.3-3.4.2-6.8.5-10.2.8-3.2.3-6.3.5-9.5.6-.6,0-1.3,0-1.9,0-3.8-6.7-11.3-13.1-19.3-12.8-3.9.1-7.5,1.7-10.5,4.1-1.3-3.2-2.7-6.8-5.8-8.5-4.5-2.4-10.4-.8-15.1,0-2.4.4-5.1.8-7.4.3-2.4-.6-4.4-2.4-5.3-4.8-.5-1.3-.7-2.7-1-4.1-.3-1.4-.9-2.9-1.4-4.2-1.2-3.3-2.2-6.6-3.4-9.9-1.8-5.1-3.6-11.1-8.4-14-4.9-3-11.2-2.8-16.7-1.9-14,2.1-26.3,9.3-39.2,14.5-3.9,1.6-7.8,2.8-11.9,3.3-1.9.3-3.9.3-5.8.2-1.1,0-2.2-.2-3.3-.4-.5,0-1-.2-1.4-.3h0c-2-.5-3.9-1.3-5.9-2.1-.3-.1-3.2-1.3-4-1.9,0-.1-.1-.2-.2-.3.1-.2,0-.3-.2-.3-.7-1.2-1.5-2.3-2.3-3.4-3.2-4.5-7.3-8.8-12.8-10.4-5.6-1.6-11.4-.9-16.9.5-5.6,1.4-10.9,3.7-16,6.3-4.4,2.2-8.6,4.8-12.7,7.6-4.7,3.2-9.6,6.6-12.9,11.3-1.8,2.5-2.8,5.6-2.3,8.6.5,3.1,2.1,5.8,3.6,8.5h0ZM240,388.9c0,.6-.2,1.3-.2,1.9-.2,0-.4,0-.6-.1-1-.2-1.9-.3-2.9-.2-1.6.1-3,.7-4.3,1.7-2.2,1.7-3,4.5-4.6,6.6-1.8,2.3-3.8,4.6-6,6.6-1.7,1.5-4.4,3.4-6.7,2.9-.4,0-1.1-.5-1.4-1.1-.5-.7-.7-1.6-.8-2.5-.3-2.2,0-4.4.5-6.5.5-2.4,1.2-4.8,2.2-7,1.3-2.9,3-6,2.5-9.3-.3-1.6-1-3-1.9-4.4-1-1.6-1.7-3.2-2.2-5-.6-1.9-1-3.8-1.7-5.7-.6-1.6-1.4-3-2-4.6-.9-2.5-1.5-5.2-3-7.5-1.2-1.9-3.4-2.6-5.5-3-5-.8-10.4,0-15.3.8-2.2.4-4.5.7-6.7,1.4-3.3,1-6.3,2.7-9.4,4.1-3,1.3-6.1,2.8-9.4,3.1-2.4.2-4.7-.6-6.5-2.2-4.4-3.8-5.7-9.8-4.9-15.4,1-6.9,4.8-12.9,6.8-19.5,1.8-5.8,2.9-12.9-2.3-17.3-5.1-4.4-11.8-3.7-18-4.9-2.9-.6-5.4-2.1-7-4.6-1.6-2.5-2.4-5.5-3.4-8.3-1.8-4.7-4.8-8.6-9.1-11.3-4.1-2.5-8.8-3.8-13.4-5.3-4.7-1.5-9.5-3-13.5-5.9-4.3-3.1-7.1-8.4-7.8-13.5-1.6-12.3,5.9-23.8,13.7-32.6.3-.4.7-.7,1-1.1-.3,1.1-.3,2.2-.3,3.3,0,2.5-.3,5.2.5,7.6.4,1.2.7,2.1.7,3.3,0,1.2-.4,2.3-.9,3.4-.4,1-1,1.9-1.8,2.7-.8.8-1.8,1.4-2.6,2.2-.7.8-1.4,1.9-1,3.1.4,1.1,1.5,1.8,2.4,2.5,1.7,1.5,3,3.2,4.4,4.9,1.5,1.8,3.7,3.1,5.8,4.3,2.3,1.3,4.8,2.4,7.3,3.3,2.2.8,4.4,1.3,6.7,2,.4.5,1.2.9,1.7,1.1,1.8.7,3.7.5,5.6.3.8,0,1.7-.2,2.5-.3.4,1.3.7,2.6,1,3.5.9,2.5,3.7,4.2,6.4,4.3-.2,2.8-.2,5.8,1.2,8.3,2,3.5,5.3,5.8,9.2,6.8,2.3.6,4.6.9,6.8,1.4,1.6.4,3.4,1.3,5,2.4,2,1.4,3.8,3.1,5.9,4.3,1.1.6,2.3,1.2,3.5,1.7,1.3.6,2.4,1.4,3.6,2.2,4.4,2.7,8.8,5.5,12.8,8.8,1.5,1.2,3,2.5,3.8,4.3.4,1,.5,2,.6,3.1,0,1.1.1,2.1.3,3.2.6,3.7,1.5,7.5,3.5,10.7,1.1,1.9,2.5,3.2,4.3,4.4.8.5,1.8,1,2.7,1.3.1,0,.4.1.6.2.1,0,.3.1.3.1.6.2,1.2.4,1.8.5,2.2.5,4.3,1.2,6.6,1.5,2.3.3,4.7.6,7,1.2,2.2.6,4,1.4,5.2,3.3-.4.3-.8.7-1.2,1.2-1.3,1.8-2.3,4-2.9,6.1-.7,2.2-1.3,4.4-1.7,6.7-.2,1.1-.5,2.3-.5,3.4,0,1.4.6,2.3,1.4,3.4.3.4.9.6,1.6.7.4.5,1,.9,1.6,1.1,0,0-.2.1-.2.2-.5,1-.6,2.2-.3,3.3.3,1.1,1.1,2.1,2,2.7.4.2,1,.2,1.4,0,0,0,.1.1.2.2,1.1,1,2.1,2,3.2,3-1.8-1.1-4-1.7-5.4-3.3-.2-.2-.6-.2-.8,0-.9.4-1.6,1.2-1.3,2.2.3,1.1,1,1.8,1.9,2.4,1.9,1.4,3.3,3.2,4.7,5.1,1.5,1.9,2.9,3.8,4.8,5.3,2.1,1.6,4.5,2.9,6.6,4.2,1,.7,5.1.7,5.2-1.1.3,0,.6-.1.9-.2-.2.7-.3,1.5-.4,2.2h0ZM99.2,246.2c.4.9,1.1,1.6,2,2.1,0,0,0,0,0,0-.3-.2-.6-.4-.8-.6-.7-.5-1.4-1.2-2-1.8-.2-.2-.7-.6-.8-.9,0-.2,0-.9,0-1.1.1-1,.7-1.9,1.2-2.8,0,0,0,0,.1,0-.3,1.7-.4,3.5.3,5.1h0ZM104.8,216.4c.2,0,.4,0,.6-.1.4-.1.7-.2,1.1-.3.9,0,1.9,0,2.6-.4-1,1.8-2,3.5-2.9,5.3-.3.5-.5,1-.8,1.5,0-.2-.2-.3-.4-.4,0-1.9,0-3.7,0-5.6h0ZM106.3,235.1c.9-3.1,2-6.1,3.3-9,3-6.5,6.8-12.4,9.3-19.1,1.3-3.5,2.7-7,3.6-10.6.2-1,.5-1.9.7-2.8,0,0,0-.1,0-.2,1-2.2,1.7-4.3,2.1-6.6.1-.3.2-.7.4-1,2.4-6.3,5.8-12.1,8.3-18.3,2.5-6,5.2-11.9,7.7-17.9,1.3-3,2.2-6.1,3.3-9.1,1.1-3,2.3-6,3.6-8.9,2.4-5.7,5.1-11.3,8.6-16.4.4-.5.7-1.1,1.1-1.6.1,0,.3-.1.4-.2,4.1-2.8,9-2.9,13.8-2.2,4.7.7,9.9,2.5,13.4,6.1,2.2,2.2,3.3,5.1,3.5,8.2.2,3.1-.8,6-1.7,9-.8,2.6-1.8,5.3-2.9,7.9-.1.2-.3.4-.4.6-.9,1.5-2,3.1-2.4,4.8,0,.3,0,.5.2.6-.8,1.9-1.7,3.7-2.5,5.6-1.7,3.8-3.5,7.5-5.5,11.1-2,3.7-4,7.4-6.1,11-3.9,7.2-6.7,15-9.7,22.6-2.5,6.2-5.1,12.4-7.7,18.6-3.1,5.8-5.9,11.7-7.9,17.9-1.3,4-2.2,8.2-3.1,12.3-.3.9-.5,1.8-.8,2.7-.7,2-1.6,4-2.8,5.8-.4.6-.7,1-1.2,1.5,0,0-.2.1-.2.2,0,0,0,0-.1,0-.5.2-1,.5-1.5.7,0,0-.3,0-.4,0h-.5s-1-.2-1-.2c-.9-.2-2.1-.8-3.1-1.4-2.3-1.3-4.4-3.1-6.6-4.6-1-.7-2.1-1.3-3.2-1.9-.8-.4-1.5-.9-2.3-1.3-.5-.5-1.2-.8-2-.9-1.7-.7-3.4-1.1-5.1-1.5-.6-.1-1.5-.5-2.2-.5,0,0,0,0,0,0-.2,0-.3-.1-.5-.2,0,0,0,0-.1,0-.1,0-.2-.1-.4-.2h0c0,0-.2-.2-.3-.3h0c.2.2.2.2,0-.2,0,0,0-.1-.1-.2-.3-.8-.4-1-.4-2,0-2.8.8-5.7,1.6-8.4h0ZM118.5,166.8c.4,0,.9-.2,1.2-.5,2.5-2.3,4.5-5.1,6.3-7.9.6-.8-.9-1.2-2-1.1.5-.7,1-1.3,1.5-2,2.5-3.1,5.1-6,7.8-9-1.6,3.3-3.2,6.5-4.6,9.8-2.3,5.2-4.3,10.4-6.1,15.7-.4,0-.8,0-1,.2-.6.3-1.1.7-1.5,1.1.3-.7.7-1.4,1.2-2,.7-.7,1.3-1.5,1.9-2.1.8-1-1.6-1.4-2.2-.7-1.2,1.3-2.6,2.5-4.1,3.6-.5.3-1,.7-1.6,1.1,0-.6.2-1.1.2-1.7.8-1.5,1.9-3,3-4.3h0ZM118.5,159.9c.4-1,.8-2.1,1.3-3.1.3,0,.6,0,.9,0-.8,1-1.5,2-2.2,3ZM140.5,123.3c-.2.1-.3.2-.5.3.9-.7,1.7-1.5,2.4-2.4,1-1.2,1.6-2.6,2-4,.5-.6,1.1-1.1,1.7-1.6.2-.1.3-.3.5-.4-.8,1.6-1.6,3.3-2.3,4.9-1.6,3.8-3.1,7.6-4.7,11.5-.3,0-.5.2-.6.3-2.2,2-4.1,4.2-6.2,6.4,2.7-5,5.9-9.8,9.3-14.2.7-.8-1.2-1-1.6-.7h0ZM137.1,137.8s0,.1,0,.2c-1,2.4-2.2,4.8-3.3,7.2-.3-.7-2.3-.8-2.8-.4-.6.3-1.1.7-1.6,1,2.5-2.8,5.2-5.4,7.8-8h0ZM127.1,143.4c-.1.2-.1.4,0,.5-.6.6-1.2,1.3-1.8,1.9.7-1.4,1.4-2.7,2.1-4,2-3.7,4.1-7.4,6.4-10.9.9-.5,1.7-1.1,2.5-1.7-3.3,4.6-6.4,9.3-9.2,14.3h0ZM131.5,164c-.6,1.7-1.2,3.4-1.9,5,.6-1.7,1.2-3.4,1.9-5ZM120.3,179.6c-.7,3.1-1.3,6.4-1.9,9.6-.4.5-.8.9-1.3,1.3-.3-2.7.9-5.8,1.9-8.1.4-1,.8-1.9,1.3-2.8ZM116.8,174.6c-.4,1-.6,2.1-.8,3.1-.1.8,1.1.8,1.9.6-.8,1.4-1.5,2.8-2.2,4.2-.6,1.3-1.2,2.7-1.6,4.1.2-3.8.4-7.5.8-11.2.6-.2,1.3-.5,1.9-.8h0ZM116.8,193.6c.3,0,.5-.2.7-.3-.4,1.8-.8,3.6-1.3,5.4-.1.5-.3,1.1-.5,1.6-.2.4-.4.9-.5,1.3,0,.1,0,.3,0,.4-.9,2.5-2.1,4.9-3.7,6.9,1.3-5.4,1.9-11,2.3-16.5,0,.2,0,.4.1.6.3,1,2.2.9,2.8.7h0ZM152.6,114.5c.3-.6.6-1.3,1-1.9,0,0,.1-.2.1-.3,0,.2.1.3.3.5-.4.5-.8,1-1.2,1.5,0,0-.1.2-.2.2h0ZM154.6,110.8c.3-.6.7-1.2,1-1.7.2.2.3.4.4.6,0,0,.1.1.2.2-.6.3-1.1.6-1.6,1h0ZM193.4,179.3c1.4-3,2.6-6,3.6-9.2.9-3,1.4-6.2,1.8-9.3.8-6.3,1-12.7,1.3-19.1.2-3.1.2-6.3.5-9.4.1-1.6.3-3.1.8-4.7.4-1.2,1-2.5,1.4-3.7.2-.7.4-1.4.7-2.1,0-.1.4-.6.3-.6,0,0,.1-.2.2-.3,0,0,0,0,0,0h.7c.3,0,.6,0,.8.1.7.1,1.3.2,2,.4,4,1,8.4,2.5,12.1,4.7,1.5.9,3.1,2,4,3.6.8,1.5,1,3.5,1.1,5.2.1,2.4-.4,4.7-.6,7-.2,3-.3,6-.7,8.9-.4,3.3-.9,6.5-1.6,9.7-.7,3.3-1.7,6.7-2.2,10.1-1.1,6.5-2.1,13-3.5,19.4-1.4,6.1-2.6,12.2-5.1,17.9-2.5,5.8-5.8,11.1-9.2,16.4-1.6,2.6-3.3,5.1-5,7.6-1.6,2.5-2.9,5.2-4.1,7.8-5.8,12.2-12.3,24-19.2,35.5-1.1,1.8-2.1,3.6-3.1,5.4-2.5-1.7-5-3.3-7.9-4.3-3.5-1.1-7.6-.5-10.9-2.3-1.2-.6-1.9-1.5-2.5-2.7-.8-1.3-1.6-2.4-2.8-3.2-.6-.4-1.2-.8-1.8-1.2,2.5-3,4.8-6.2,7.2-9.3,1.8-2.2,3.9-4.2,5.8-6.3,2.1-2.3,4-4.7,5.9-7.2,3.6-4.9,6.6-10.1,9.6-15.3,1.5-2.6,2.9-5.2,4.2-7.9.3-.5.5-.9.7-1.4.4-.7.7-1.4,1-2.1.2-.4.3-.8.5-1.1.3-.5.8-.9,1.1-1.4.5-.9.6-2,.9-2.9.3-1.1.7-2.1,1-3.2.7-2.1,1.3-4.1,2-6.2.5-1.6.9-3.3,1.3-4.9.2-.7.5-1.3.7-2,1-2.8,2-5.7,3-8.5.5-1.4,1-2.7,1.7-4.1.7-1.4,1.5-2.7,2.2-4.1h0ZM192.2,158.7c.5,0,1-.1,1.4-.3-.2,1.3-.3,2.5-.5,3.7-.2,0-.5,0-.7.1h0c0-1.2,0-2.4,0-3.5h0ZM227.2,160.3c-.2-.4-.3-.8-.3-1.2,0-.4.1-.8.2-1.3.2-1.3.3-2.6.4-3.9.7-2.1,1.8-4.1,2.9-5.7,1-1.5,2.2-3.2,3.8-4.2.4-.3,1-.6,1.4-.6.8-.2.9-.1,1.8-.2,2.1-.1,4.3-.7,6.2-1.5,2.1-.9,4-2.2,5.9-3.4,1.6-1,3.3-2.2,5.2-2.7,0,0,.3,0,.3,0,0,0,0,0,.1,0h.2s0,0,.1,0c0,0,0,0-.1,0h0c0,0,.1,0,.2,0,.6.2,1.1.4,1.8.9,3.1,2.3,5,5.7,8,8.1-.8.8-1.5,1.9-1.5,2.8s.3,1.2.3,1.8c0,.7-.5,1.4-.9,2.1-.8,1.4-1.2,3.2-1.5,4.8-.4,1.6-.7,3.3-1.1,5-.5,2.4-1,4.9-1.7,7.3-.2.2-.4.4-.5.6-.6,1.9-1.4,3.7-2.1,5.6-1.1,2.2-2.3,4.3-3.5,6.4-.1.2-.2.3-.3.5-.7.3-1.3.7-1.9,1.3-1.7,1.9-1.9,4.6-1.6,7-.2.8-.4,1.5-.5,2.3-.4,2.3-.6,4.6-1.2,6.9-.6,2.2-1.4,4.3-2.3,6.3-1.9,4.7-4.2,9.2-6.6,13.7-1.7-1.6-3.3-3.3-5-4.9-1.5-1.5-3-2.9-4.8-4-.9-.6-3.1-2-4.2-1.6-.8.2-1.5,1.7-1.8,2.4-.5,1.2-.5,2.6-.4,3.9.8,6.3,4.8,12.4,8.9,17-3.2,5.5-6.4,11.1-8.7,16.9-2.2,5.4-3.8,10.9-5.7,16.4-1.9,5.8-4,11.6-6.8,17.1-2.5,4.8-5.6,9.5-9.9,12.8-2.3,1.7-5.1,3.4-7.8,3.5-3.1.2-6.4-1.9-9.2-3.4-1.4-.7-2.8-1.3-4.3-1.8-.5-.7-1-1.4-1.5-2.1-.9-1.3-2.1-2.2-3.2-3.2-.2-.2-.4-.3-.6-.5,0,0,.1-.2.2-.2.7-1,1.8-2.2,1.7-3.5,0,0,0-.1,0-.2,7.2-11.1,13.7-22.7,19.7-34.5,1.5-3,2.9-6,4.4-8.9,1.3-2.7,2.8-5.4,4-8.1,2.5-5.6,5.4-11.1,7.7-16.8,1.1-2.8,2.4-5.5,3.4-8.4.9-2.7,1.6-5.4,2.2-8.2,1.5-7,3.8-13.8,6-20.6,1.1-3.3,2.2-6.5,2.9-9.9.5-2.2.9-4.4,1.3-6.6.5-.1.8-.4.6-.9h0ZM279.4,246.2c1.4,1.9,2.9,3.8,4.5,5.6,1.5,1.7,3.2,3.5,5,4.9.9,3.1,1.9,6.2,2.8,9.3.9,2.9,1.7,5.9,2.5,8.8-.4-.6-.7-1.3-1.1-1.8-2.6-4.4-5.9-8.4-9.1-12.3-2.3-2.8-4.6-5.7-7.3-8.1-.4-.4-.9-.8-1.3-1.2.9-1.6,1.7-3.1,2.6-4.7.4-.2.9-.4,1.3-.6h0ZM278.2,246.6c.2-.4.4-.8.7-1.2.2.2.3.5.5.7-.4.2-.8.4-1.2.5h0ZM284.4,194.9c.2,4.8.7,9.5,1.3,14.2.6,4.6,1.5,9.2,1.8,13.8.4,4.8.3,9.5-.3,14.3-.2,1.5-.5,3-.7,4.5-.4-.9-.8-1.9-1.2-2.8-1-2.1-2.3-4.1-3.1-6.4-1.7-4.7-2.4-9.6-3.2-14.5-1.7-10-4.2-19.9-4.7-30-.2-4.6.4-9.1,2.8-13.1.7-1.2,1.3-2.3,1.9-3.5.5-1,1.1-2.7,2-3.6,0,0,.3-.1.5,0,.4.1.6.1,1,.4.8.5,1.2,1.5,1.5,2.4.8,2.4.9,5.2,1,7.8,0,5.6-.6,11.1-.4,16.7h0ZM281.9,240.2c1.3,1.8,3,3.2,4.5,4.9,0,1.3.3,2.5.6,3.8-1.4-1.8-2.9-3.5-4.2-5.4.1-.1.2-.2.3-.3,0,0,0,0,0,0-.1.1-.2.2-.3.3-.5-.7-1-1.4-1.5-2.1.2-.4.4-.8.7-1.2h0ZM291.4,227.5c.7-.8,1.4-1.5,2.1-2.3.3-.3.6-.7.9-1,0,.8,0,1.7.2,2.5.6,8,1.3,16,1.4,24,0,3.6-.2,7.2-.2,10.8s0,2.7,0,4c-1.2-5.5-2.4-11.1-4-16.5-.7-2.3-1.6-4.6-1.9-7-.4-2.9.4-5.6.9-8.4.4-2,.5-4,.6-6.1ZM291.4,222.1c.2-.3.3-.6.5-.9.7-1.4,1.5-2.9,2.2-4.4,0,1.4,0,2.7.2,4.1-.7.7-1.3,1.5-2,2.2-.3.3-.5.6-.8.9,0-.6,0-1.3,0-1.9h0ZM297.6,299.3c.8.3,1.6.5,2.3.5,1,1.2,1.9,2.4,2.7,3.8,0,0,.1.1.2.2.5,1.6,1.1,3.3,1.7,4.9-1.3-.8-2.6-1.6-3.8-2.5-1.6-1.3-3.2-2.5-4.8-3.7.6-1.1,1.2-2.2,1.8-3.3h0ZM296.8,292.6v-.4c.3-.8.5-1.6.8-2.4,0,0,.1,0,.2-.1-.4,1-.7,1.9-1,2.9ZM299.5,295.7c.1-.2.3-.5.4-.7.2.6.3,1.1.5,1.7-.3-.3-.6-.6-.9-1h0ZM307.5,283.8c.5-1.3,1-2.6,1.5-3.9.6-.9,1.3-1.7,2-2.5.8-.9,1.6-1.9,2.5-2.8,0,2.6.2,5.3.3,7.9,0,4.3-.1,8.5-.6,12.7-.6,6.1-1.4,12.2-1.6,18.3-.1.7-.2,1.3-.2,2-.7-1.3-1.3-2.6-1.9-4-2.4-5.8-4.6-11.7-6.6-17.7,2.1-3,3.2-6.7,4.6-10h0ZM306,275.6c.3-1.1.5-2.2.7-3.3.2-1,.4-1.8.7-2.6-.4,1.8-.7,3.7-1.1,5.5-.1.1-.2.3-.4.4h0ZM324.5,235.3c2.1-5,4.3-10.4,7.5-14.8.5-.8,1.5-2.3,2.5-1.6,1.5,1.1,1.1,5.2,1,6.8,0,1.3-.2,2.7-.5,4-.5,1.5-1,2.9-1.7,4.3.4-.7.8-1.4,1.2-2-2,7.6-6.4,14.6-10.8,20.9-2.8,4.1-5.7,8-8.3,12.2-.3.5-.7,1.1-1,1.6-.6.6-1.3,1.2-2,1.9,0-.3.2-.6.2-.8,3.2-11.1,7.2-21.8,11.7-32.3h0ZM314.6,226c.2-1.4.3-2.6.6-3.7.2,0,.3,0,.4.1,1,.5,1.6,1.7,2,2.7.6,1.4,1,2.8,1.3,4.3.3,1.7.5,3.3.7,5,0,.5,0,1,0,1.5-1.5,2.8-3,5.6-4.3,8.5,0-.2,0-.3,0-.4-.2-2.5-.5-5.1-.8-7.6-.4-3.4-.3-6.9,0-10.3h0ZM332.3,242.6c1.1-2.2,2.1-4.4,2.9-6.7.3.6,1,.8,1.7.8-1.4,2.1-3,4-4.6,5.9h0ZM333.1,249.2c-.9.9-1.8,1.8-2.8,2.7.7-.9,1.3-1.8,2-2.7.3,0,.5,0,.8,0ZM328.6,253.5c-.9.8-1.7,1.6-2.6,2.4-.1-.4-.3-.9-.5-1.2,0,0,0,0,0,0,.3-.4.5-.9.8-1.4.3.2.7.3.9.3.5,0,.9,0,1.4,0h0ZM323.9,264.3c-.1,2.8-.2,5.5-.7,8.2-.5,3.1-1.7,6-2.7,9-1.1,3.3-2.2,6.7-3.4,10-.3.9-.6,1.8-1,2.7.7-8,.9-16,.1-23.9,0,0,0,0,0-.1.3-.4.5-.8.8-1.3,2.4-3.9,4.5-7.9,6.8-11.8.3-.5.6-1,.9-1.4-.8,2.5-.8,5.4-.9,8v.2c0,.2,0,.3-.1.5,0,0,0,0,.1-.1h0ZM300.7,374.5c-.5,1.8-1,3.9-1.9,5.9,0,0,0,0,0,0-1.5,1.4-2.6,3.2-3.6,4.9-1.5,1-2.8,1.1-4.4,1.1-1.7,0-3.5-.4-5.4-1.2-3.3-1.3-6.2-3.9-7.1-7.5-.5-1.9-.8-4.1-.8-6,0-1.9,0-3.7-.5-5.6-.4-1.4-1.5-2.4-2.7-3.1.1-1.1,0-2.2-.2-3.3-.2-1.1-.4-2.3-.3-3.5,0-.3,0-.5,0-.8,1.2-4.7,2.7-9.4,4.3-14,2.1-5.7,4.7-11.2,6.6-16.9,1-2.9,2.6-5.7,4-8.5.4-.7.8-1.5,1.2-2.3.4-.3.6-.6.7-1.1v-.3c.8-1.6,1.6-3.2,2.5-4.8.1-.2.3-.5.4-.7,1.1.5,2.2,1,3.3,1.5,1.3.6,2.6,1.3,4,1.8,2.4,2.2,4.7,4.4,7.1,6.7,1.6,3.6,3.5,7,5.5,10.4.5.8.9,1.6,1.3,2.4-2,3.9-3.7,7.9-5.1,12.1-2,5.9-3.5,11.9-5.1,17.9-1.3,4.8-2.3,9.6-3.6,14.4h0ZM301.1,388.4c-.3.3-.7.6-1,1-.8.8-1.7,1.5-2.5,2.3.2-.4.5-.7.7-1.1.7-1,1.4-2.1,2.1-3.1,0,.4.3.7.7.9h0ZM256.1,362.1h0s0,0,0,0c1.7-2.2,3.4-4.3,5.1-6.5-.6,1.2-1.3,2.5-2,3.7-.4.1-.8.3-1,.6,0,.1-.2.3-.3.4h0s0,0,0,0c-1.4,1.9-2.7,3.9-3.9,6,0-.7,0-1.3,0-2,0,0,0-.1.1-.2.2,0,.5,0,.6-.1.5-.6.9-1.2,1.4-1.7h0ZM256,360.7c.6-1,1.3-2.1,1.9-3.1.5-.9,1.1-1.8,1.6-2.6.5,0,.9-.2,1.3-.3-1.6,2-3.2,4-4.8,6.1h0ZM261.9,383.2c.3,0,.6,0,.8,0s.6,0,1,0c-.3,1.2-.6,2.5-1,3.7-.1-.6-.8-.9-1.6-1,.3-.9.6-1.7.8-2.6h0ZM260.8,348.4c-1-.1-2,.2-2.9.7-.4.3-.6.6-.6.8-.3.3-.6.5-1,.8-3.2-2.2-5.1-6.2-6.3-9.8-1.3-3.8-1.9-8.1-1.3-12.1.8-5.7,2.9-11.3,4.9-16.6,2-5.6,4.1-11.2,5.5-16.9.3-1.3.7-2.6,1-4,.6.4,1.2.7,1.8,1.1,5.8,3.4,11.8,6.7,17.9,9.5-.8,1.9-1.5,3.8-2.3,5.7-2.3,5.8-4.5,11.6-6.9,17.4-2,4.8-4.2,9.5-6,14.4-1.1,3.1-2.2,6.2-3.8,9.1h0ZM224.6,328.8c-1.7-.9-3.5-1.6-5.4-2.2-2.4-.7-4.9-1.3-7.3-2.1-1.1-.4-1.8-.7-2.8-1.4-1.1-.7-2-1.5-2.8-2.4-2.2-2.4-4.5-5.7-4.7-9-.3-3.9,1.2-7.6,1.7-11.4,0-.6-.3-1.1-1-1.4,0,0,0,0,0-.1,0-.2.2-.3.3-.4,1.7-1.1,3.2-2.3,4.7-3.7.9-.6,1.7-1.1,2.6-1.7,1.9-1.2,3.6-2.5,5.4-3.9,1.7-1.4,3.4-2.9,5-4.5,1.7-1.7,3.1-3.7,4.6-5.7,2.3-3,4.4-6.2,6.4-9.4,1.6,3.3,4.7,5.8,7.5,7.9,3.7,2.9,7.5,5.5,11.5,8-1.2,2.2-2.5,4.4-3.7,6.6-2.1,3.8-4.1,7.6-6.4,11.3-2.1,3.3-4.4,6.5-6.7,9.7-2.1,3.1-4.2,6.1-5.7,9.6-.9,2.1-1.7,4.5-3.1,6.3h0ZM225.4,347.9c-.2.5-.4,1-.6,1.5-.6-.2-1.1-.3-1.6-.4-.6,0-1.4,0-2.1.2h0c.3-1.2.5-2.4.8-3.6.1.2.2.4.3.7.5,1.1,1.9,1.5,3.2,1.6h0ZM197,314.6c0-.1,0-.2,0-.3.6,2.4,1.6,4.8,3,6.7,1.1,1.5,2.4,2.7,3.8,3.7-.4-.1-1.1,0-1.8,0-1.4-1.2-2.6-2.5-3.5-4.1-1.1-1.9-1.6-3.9-1.5-6.1h0ZM194.4,301.5c.2,0,.4,0,.7-.1.8-.2,1.5-.4,2.2-.6,0,.6,0,1.2-.1,1.8-.9-.4-1.8-.7-2.7-1.1h0ZM204,332.8c1.5.8,3.7,1,5.3.2.5-.3,1-.7,1.3-1.1,1.8.7,3.5,1.6,5.2,2.7,1.2.9,2.3,1.9,3.2,3-.2,0-.4-.2-.5-.2-3.6-1.6-7.4-2.1-11.2-2.9-1.7-.4-3.7-.7-5-2-.4-.4-.8-.9-1.2-1.4,1,.6,2,1.1,3,1.6h0ZM215.3,283.6c1-1.9,1.9-3.9,2.8-5.8.1.6.2,1.2.3,1.8-1,1.4-2,2.7-3.1,4h0ZM220.5,276.4c.3-2,.7-3.9,1.2-5.8.4.6,1.3.9,2,1-.6,1-1.3,2-1.9,3-.4.6-.8,1.2-1.2,1.9h0ZM253.7,222.9c.9,3.4,2.1,6.7,2.9,10.1.2.9.4,2,.6,3-1.1-.9-2.2-1.8-3.3-2.7-3.1-2.6-6.1-5.2-9.1-8,2.6-7.2,5.7-14.3,8.5-21.5.7,1.4,1.5,2.8,2.2,4.2,0,0,0,0,0,0-4.1,3.2-2.9,10.5-1.8,14.8h0ZM256.2,212.3c0-.5.3-1.3.4-1.7.2,0,.5,0,.6,0,.8.3,1.5,1,2.1,1.6,1.8,1.9,3,4.3,3.9,6.7,2,5.3,2.6,10.9,3.4,16.5.3,2.4.4,4.9.5,7.3,0,.5,0,1,.1,1.6-2.2-1.9-4.4-3.7-6.7-5.6-1.1-4.7-1.6-9.4-2.8-14.1-.7-2.8-1.3-5.6-1.6-8.4-.1-1.3-.2-2.6,0-3.9h0ZM246.3,230.7c6.4,6.4,13.1,12.4,19.8,18.3,3.8,3.4,7.9,6.4,11.5,10.1,3.3,3.3,6.4,6.8,9.3,10.4-1.3-.9-2.5-1.8-3.8-2.7-2.9-2.1-5.8-4.2-8.5-6.5-3.3-2.8-6.2-6-9.4-9-6.3-5.9-14-9.8-21.2-14.4-3.6-2.3-7.5-4.8-11-7.6,0-.1-.1-.2-.2-.4,0-.2-.2-.3-.3-.5,0,.1-.1.2-.2.3-2-1.7-3.8-3.6-5.3-5.7-1.6-2.3-3.2-5.1-3.9-7.9-.4-1.5-.6-3.1,0-4.6.9-2.3,3.9.3,5.1,1.3,3.1,2.5,5.6,5.7,8.2,8.6,3.1,3.4,6.3,6.8,9.6,10.1h0ZM270.9,246.9c-1.1-2.2-1.3-4.6-1.5-7-.2-2.5-.5-5-.9-7.6,0-.1,0-.2,0-.3.8,1.4,1.9,2.6,2.7,3.7,1.6,2,3.3,4,4.9,6-1.4,2.2-2.8,4.4-4.1,6.7-.3-.3-.7-.6-1-.9,0-.2,0-.4,0-.6h0ZM291.5,277.4c.3.6.7,1.2,1.2,1.7-1.4,1.7-2.8,3.5-4,5.3-2.7-3.2-4.9-6.7-7.1-10.2-1-1.7-2-3.4-3-5.1,0-.2-.2-.3-.3-.5,4.6,2.5,9.2,4.9,13.4,8-.1.2-.2.5-.1.7h0ZM271.1,271.4c-2-2.7-3.7-5.6-5.5-8.4-.8-1.3-1.7-2.7-2.4-4.1-.2-.4-.3-.7-.5-1.1.4.3.7.7,1.1,1,3.4,3,6.8,5.6,10.7,7.9.4,1.4,1.1,2.8,1.7,4.1.9,1.8,1.8,3.5,2.8,5.3,1.7,3.1,3.7,6.1,5.8,8.8-4.9-4.2-10-8.2-13.9-13.5h0ZM285,290.4h0c-.5,1-1,1.9-1.4,2.9-6.2-4.8-12.6-9.4-19.2-13.7-.1,0-.3-.2-.4-.3.2-.5.3-1,.5-1.5.6-1.9,1.3-3.7,1.9-5.6.8,1.3,1.7,2.6,2.7,3.8,4.5,5.7,10.4,9.9,16,14.4h0ZM234,244c.9.4,2.1.2,2.6-.6h0c-.4,1.9-.8,3.8-1.3,5.6-.3,1-.6,2-.9,2.9,0-.8,0-1.7,0-2.4,0-1.8-.3-3.7-.4-5.6h0ZM238.9,253.7c1.1-4.1,1.6-8.3,2.1-12.6,3.2,2.6,6.6,5.2,10,7.6,2.3,1.6,4.6,3.1,6.8,4.8.8.7,1.7,1.4,2.5,2.1-.4.4-.7,1-.6,1.3.6,2.7,1.4,5.3,2.5,7.8-1.9,3.3-3.8,6.6-5.7,9.8-1-.7-1.9-1.3-2.9-2-2-1.5-4-3.1-6.1-4.6-3.1-2.3-7.7-5.9-12-5.6,1.4-2.7,2.7-5.5,3.4-8.6h0ZM232.4,256.6c-.9,1.9-1.9,3.8-3,5.6-.1.2-.2.4-.4.6,0-.9.1-1.7.1-2.5,0-.9,0-1.8,0-2.7.6,0,1.3,0,1.8-.2.5-.2,1-.4,1.4-.8h0ZM229.7,248.1c-.2-.2-.5-.3-.8-.4.4-.8.7-1.6,1.1-2.4,0,.9-.2,1.9-.3,2.8h0ZM246.1,278.5c-3.7-2.4-7.1-5-10.4-8-1.1-1-4.4-3.9-3.1-5.6,1.2-1.6,4.4-.7,5.8-.1,2.6,1,5,2.5,7.2,4.1,2.1,1.5,4,3.1,6,4.7,2.4,1.9,5,3.6,7.5,5.3.8.8,1.6,1.5,2.5,2.2.5.2.9.5,1.4.7,0,0,0-.2,0-.2,7.8,5.4,15.3,11,22.6,17.1,0,.1-.1.3-.2.4-6.6-2.8-13.1-5.7-19.5-8.9-6.9-3.5-13.6-7.3-20-11.6h0ZM287.9,305.2s0,0,0,.1c-.2-.2-.6-.3-.9-.4-.8,0-1.5,0-2.2.2,0-.2.1-.3.2-.5,0-.2.2-.4.2-.5.9.4,1.9.7,2.8,1.1h0ZM283.1,311.4s0,0,0,0c-.6.9-1.3,1.8-1.9,2.6.4-1,.8-2,1.2-3,.3.1.5.2.8.2h0ZM254.7,288.6c-.4,1.3-.7,2.5-1,3.8-.3,0-.7.2-.8.4-.6,1.3-1.5,2.4-2.4,3.4,1.4-2.5,2.8-5.1,4.2-7.6h0ZM302.2,291.7c0-.2-.1-.5-.2-.7.3-.6.6-1.1.9-1.7-.2.8-.4,1.6-.7,2.4h0ZM274,233.8c-1.1-1.2-2.2-2.3-3.3-3.6-1-1.2-1.7-2.6-2.6-3.9-.2-.3-.4-.3-.6-.1-.7-4.1-1.6-8.2-3.5-11.9-1-2.1-3.7-6.9-6.6-6.9-1.2-5-3.4-9.8-4.7-14.8-.6-2.2-1.8-5.9-.8-8.1,0,0,.1-.1.2-.2,1.1-.4,2.3-.5,3.3,0,0,0,.1,0,.1,0,.2,0,.3,0,.4,0,.2.1.4.2.6.3,2.4,1.7,3.7,4.7,4.8,7.3,1.5,3.4,2.5,7,3.4,10.6.8,3.1,1.4,6.2,2.2,9.3.8,3.4,2,6.6,3.3,9.9,1.9,4.8,3.7,9.9,6.1,14.6-.7-.8-1.4-1.7-2.2-2.5h0ZM193.1,306.4s0,.1-.1.2c-.1.2,0,.1-.3.4-.4.5-.9.9-1.3,1.4-.5.6-.9,1.3-1.3,1.9-.6-.7-1.3-1.3-2-1.9-1.7-1.4-3.5-2.5-5.2-3.9-1-.7-1.9-1.5-2.9-2.3,1.1.5,2.2.9,3.3,1.3,2.5.7,5.1,1.3,7.6,2.1.5.2,1,.4,1.5.6,0,0,.5.3.6.3h0ZM164.5,284.8c.1,0,.3-.1.4-.2.8.7,1.4,1.5,2,2.4-.4.6-.7,1.3-.7,2-1.1-.9-2.2-1.7-3.4-2.5.7-.3,1.7-1,1.8-1.7h0ZM158.2,278.8c-.1,0-.2-.1-.3-.2,0,0,0,0,0,0h0c-.3-.1-.5-.3-.8-.4,0,0-.1,0-.2,0,.9,0,1.8.1,2.6.3,1.6.3,3,1.2,4.2,2.2-1.8-.7-3.6-1.3-5.5-1.9h0ZM140.3,274.7c-.2,0-.4,0-.6.1-.4-.7-.7-1.5-.9-2.4.6-.1,1.2-.4,1.6-.8.4-.4.7-.7,1.1-1.1,0,0,0,0,.1,0,0,0,.2.1.3.2.2.2.4.4.6.6.5.5.8,1.1,1.1,1.7.9,1.5,2.2,2.5,3.6,3.3-.4-.1-.7-.3-1.1-.4-1.9-.6-3.9-.8-5.8-1.3h0ZM141.7,276.9c-.1,0-.2.2-.3.3-.3-.5-.7-.9-1.1-1.4.5.3.9.7,1.3,1.1h0ZM141.4,260.9s0-.2,0-.2c.5.1,1.1.1,1.6,0-.6.8-1.3,1.7-1.9,2.5h0c-.2-.7,0-1.5.3-2.4h0ZM148.4,281.2c.7.4,1.4.8,2.1,1.1-1-.1-1.9-.3-2.8-.5-.8-.2-1.5-.5-2.1-.8-.6-.3-1.1-.7-1.6-1.1,1.5.4,2.9.8,4.4,1.3h0ZM148.3,250.8c-.1.1-.3.3-.4.4-.6.5-1.2,1.1-1.7,1.6h-.2c-.3.1-.5.2-.6.2,0,0-.1,0-.2,0,.9-2.2,1.6-4.5,2.3-6.9,0,.1,0,.3,0,.4-.5.9-.7,1.8-.7,2.9s.7,1.1,1.5,1.3h0ZM161.9,215.3c0-.6.1-1.3.2-1.9,0-.1.2-.2.2-.3v1.9c-.1.1-.3.2-.4.3h0ZM161.9,221.4c0,.4-.1.7-.2,1.1-.2.3-.4.5-.6.8,0-.3,0-.6,0-1,.3-.3.6-.6.9-.9h0ZM159.9,210c.2-.4.4-.9.6-1.3.4-.8.8-1.6,1.2-2.5.2,0,.4,0,.6-.1v1.2c-.8.9-1.6,1.8-2.3,2.7h0ZM162.1,235.1c2.5-2.8,4.9-5.7,7.4-8.5-1.6,2.6-3.4,5.2-5.1,7.8-1,1.5-2,2.9-3,4.4-1.7,1.6-3.5,3.2-5.3,4.8-.7.7-1.5,1.4-2.2,2.1.4-.6.7-1.2,1.1-1.9,1.5-1.7,2.9-3.5,4.3-5.3.9-1.1,1.8-2.3,2.8-3.4h0ZM169.9,203.9c.3-.3.6-.6.8-.9v2.4c0,.9,0,1.8,0,2.7-1.1.9-2.2,1.9-3.3,2.8,0,0-.1,0-.2.1,0-1.4,0-2.9,0-4.3.8-1,1.7-1.9,2.6-2.8h0ZM167.6,197.1c1-1.3,2.1-2.6,3.2-3.9v2.6c-.4.3-.8.7-1.3,1-.6.5-1.3,1-1.9,1.6v-1.3h0ZM170.5,213.8c0,.4,0,.7-.1,1.1-.5,0-1,0-1.4.3.5-.4,1-.9,1.6-1.4h0ZM156.9,228.6s-.1.1-.2.2c0,0,0,0-.1.1-.6.5-1.2,1-1.8,1.4,0,0,0,0,0,0,.7-1.4,1.6-2.6,2.5-3.8-.2.7-.3,1.4-.5,2.1ZM152.8,225.9c.5-1,1-2.1,1.4-3.1.5,0,1.1,0,1.6-.2-1,1-2,2.1-3,3.2h0ZM185.2,188.2c-1.1,3.7-2.2,7.3-3.4,10.9,0,0,0,.1,0,.2-.2,0-.3.2-.5.3-2.2,1.6-4.3,3.4-6.4,5.1,0-.9,0-1.8-.1-2.7.9,0,1.9-.4,2.2-.9,1.3-2.1,2.1-4.5,2.5-7,1.9-2,3.9-3.9,5.8-5.9h0ZM184.7,152.1c.7-1,1.4-2,2.1-3,0,.4,0,.8,0,1.3-.7.6-1.4,1.1-2,1.7ZM179.5,205.4c-.7,1.9-1.5,3.8-2.3,5.7-.4,1-.8,1.9-1.1,2.9-.1.4-.1.7-.1,1-.6,1.1-1.1,2.2-1.7,3.4.6-2.9.8-5.9.8-8.8,1.5-1.4,3-2.8,4.5-4.2h0ZM175.2,183.9c-.1,0-.2.2-.3.3,0,0,0-.2,0-.3.4-.4.9-.9,1.3-1.3v.4c-.3.3-.6.6-1,.9h0ZM176,188c0,1.3-.2,2.6-.4,3.9-.1,0-.2.2-.3.2,0-1.2-.1-2.4-.2-3.6.3-.2.6-.4.8-.6h0ZM180.1,179.5v-.7c1.4-1.4,2.8-2.8,4.1-4.2,0,.5,0,.9-.1,1.4-1.3,1.2-2.7,2.3-4,3.5h0ZM182.8,182.5c-.4,1.2-.8,2.3-1.4,3.4-.1-.2-.2-.4-.3-.6-.1-.3-.2-.6-.3-1,.7-.6,1.4-1.2,2-1.8ZM181,171.5c.8-1.6,1.9-3.1,2.9-4.4.1.4.3.7.4,1.1v.4c-1.1,1-2.2,2-3.3,2.9h0ZM183,159.9c-1.1,1.5-2.1,3.1-3.1,4.7-.4.7.2,1.1,1,1.3-1,1.3-2,2.6-2.9,4-.7.1-1.4.5-1.5,1.1-.1.7-.2,1.4-.2,2.1-.4.9-.7,1.9-.9,2.9,0,.4.3.7.7.9,0,.5,0,1.1,0,1.6-.3.3-.6.5-.8.8-.5.5-1.1,1-1.7,1.5-.5-.2-1.2-.3-1.7-.2,1-2.6,2-5.3,2.9-8,.8-2.1,1.8-4.1,2.8-6.1,1.6-3.1,2.9-6.3,4.3-9.4.5-.3,1-.5,1.4-.8-.2,1.2-.3,2.4-.3,3.6h0ZM188.2,147.2c.7-.9,1.3-1.8,2-2.6,0,.9,0,1.9.1,2.8-.7-.2-1.5-.3-2.1-.2ZM189.7,171c-.4,1.5-.8,3-1.1,4.5,0-.7.1-1.5.2-2.3,0-.7,0-1.4,0-2.1.3,0,.6,0,.9,0ZM190.2,140.9c-.5.4-.9.9-1.4,1.3.5-1,1-2,1.5-3,0,.6-.1,1.2-.2,1.7h0ZM132.9,262.4c-.3-.2-.6-.3-.8-.4,1.2,0,2.4-.1,3.6-.4-.5,2.1.2,4.3,1.7,5.9-.8,0-1.7,0-2.1.2-.2-.1-.4-.2-.5-.4-.7-.5-1.1-1.2-1.8-1.7-1-.8-1.6-1.9-2.2-3,.5,0,1,.1,1.5.3.3.1,1.3-.2.7-.5h0ZM108.6,251.1c-.8-.6-1.7-1.1-2.6-1.5.9.1,1.9.2,2.8.3h0c-.3.3-.4.7-.3,1.2h0ZM107.1,252.3c1.9,1.4,3.7,2.9,5.8,3.9,0,.4.2.8.5,1.1-1.3-.8-2.5-1.7-3.7-2.6-1.5-1.1-2.9-2.3-4.4-3.4-1.1-.8-2.2-1.6-3.3-2.3,1.9.8,3.5,2.1,5.1,3.3h0ZM227,374.6c.2.1.4.3.6.4.6.4,1.3.7,1.9,1-.2.1-.4.3-.6.5-.6-.6-1.3-1.3-1.9-1.9ZM241.9,380.7c-1-.6-2.2-.7-3.2-.6-.4,0-.9.1-1.4.3-.4-.6-.8-1.2-1.3-1.7,2,.6,4.3,1,6.4.7-.2.5-.3.9-.5,1.4h0ZM247.1,377.3c-.4,1.5-.9,3-1.3,4.4-.2.7.1,1.2.7,1.5-.1,1-.2,2-.4,3-.1,1-.2,1.9-.3,2.8,0,.2,0,.3-.1.5-.2.7-.4,1.4-.5,2.2-.2-2.5-.2-5-.2-7.4,0-2,0-4,.1-5.9.8-.5,1.5-1.3,2.2-2.1,0,.4,0,.7-.1,1.1h0ZM243.3,372.3c-.5.8-1,1.6-1.5,2.2-.2.3-.5.6-.7.8-.1.1-.3.3-.4.4,0,0,0,0,0,0h0c-.2,0-.3,0-.5,0-1-.2-2.1-.5-3.2-.9-2.1-.8-4.1-1.7-6-3-1-.7-1.9-1.4-2.8-2.2-1-.8-1.8-1.9-2.8-2.7-.3-.2-.5-.4-.8-.6,0-.3,0-.5,0-.7.1-1,.1-2.1.4-3.1.4-1.4,1-2.8,1.6-4.1,1.2-2.6,2.7-5,3.7-7.7,1.3-3.2,2.3-6.5,3.2-9.9,1.9-6.9,3.1-14,4.6-21,1.1-1.8,2.2-3.6,3.3-5.4,2.2-3.8,4.3-7.7,6.5-11.4,1.2-2,2.9-3.8,4.3-5.7-.6,2.2-1.2,4.4-2,6.6-2,5.8-4.3,11.4-5.9,17.3-1.4,4.8-2.3,9.5-1.5,14.5.7,4.5,2.1,9,4.7,12.7,1.6,2.2,3.6,4.3,6.1,5.5-1.6,2.3-3,4.8-4.4,7.2-2,3.6-3.7,7.4-5.9,11h0ZM251.9,401.3c-.7.4-1.4.7-2.1,1,0,0-.2,0-.2,0,0,0-.1,0-.2,0,.1-.1.3-.2.4-.3.8-1.1,1.5-2.1,2.1-3.2-.1.7-.2,1.4-.1,2.1,0,.2,0,.3.2.4h0ZM282.8,401.8c-.5.7-.4,1.3.2,1.7-5.1,4-10.2,7.9-15.1,12.1-.9.7-1.7,1.5-2.6,2.3-2.7-2.2-5.4-4.5-8.1-6.6-1.9-1.4-3.7-2.9-5.7-4.2-.7-.5-1.5-.9-2.2-1.3,3.6,0,7.1-1.8,9.8-4.2,3.1-2.6,5.1-6.1,6.4-9.9,1.8-5.2,2.9-10.5,3.8-15.9.5-3,1.2-6.1,1.8-9.1.4.6.7,1.2.9,1.9.6,2,.7,3.8.8,5.9,0,2,0,4,.6,5.9.5,2,2.1,3.5,3.6,4.7,4.1,3.2,10.1,5.1,15.6,4.6-1.1,1.5-2.2,3.1-3.3,4.6-2.1,2.5-4.4,4.8-6.4,7.3h0ZM328.2,404.2c-1,.9-2,1.7-3,2.6-1.2.9-2.7,1.3-4.1,1.7-4.4,1.2-9,1.5-13.6,1.4-1.8,0-3.7,0-5.5-.2,1-.1,2-.3,3.1-.5,1.5-.3,2.9-.3,4.4,0,1.3.2,2.6.4,3.9.3,1.8-.2,3.5-.8,5.2-1.5,3.5-1.4,6.9-3,10.2-4.9.5-.3,1.1-.6,1.6-1-.7.7-1.4,1.5-2.1,2.1h0ZM312.4,407.1c1.4-.3,2.7-.7,4-1.1-1.2.5-2.4,1-3.5,1.1-.2,0-.3,0-.5,0h0ZM335.7,393.2c-.4.7-.7,1.4-1.1,2-2.7,2.4-5.7,4.5-8.8,6.3,1.6-1.1,3-2.4,4.2-3.8,1.9-2.4,3.3-5.1,4.6-7.8.1,0,.2,0,.3,0,.3,0,.7.1,1,.1-.1,1.1-.2,2.1-.2,3.2h0ZM339.2,379.7s0,0,0,0c1.2-2.8,3-5.4,4.8-7.8,2.1-2.7,4.1-5.4,6.3-8,.4-.5.8-1,1.3-1.4-.2.8-.2,1.6,0,2.4-.3.6-.7,1.1-1.1,1.6-1.9,2.7-4,5.3-6.1,7.7-.6,0-1.1.2-1.4.5-1.4,1.3-2.5,3-3.4,4.7,0,0-.2.2-.2.2h0ZM420.1,282c.2,2,.6,3.9,1,5.9,1.1,4.8,3.1,9.5,3.3,14.5.1,2.3-.1,4.6-1.1,6.7-.8,1.7-1.9,3.3-3,4.8-2.1,2.8-4.9,5.6-5.6,9.1-.5,2.2,0,4.4.8,6.4,1.9,4.8,5.1,8.9,7.4,13.4,1,2,1.9,4,2.1,6.1.2,2-.4,3.4-1.8,4.7-.6.6-1.9,1.3-2.8,1.6-1.6.6-3.4,1.1-5,1.6-3.1,1.1-5.8,2.8-7.6,5.7-.9,1.5-1.5,3.1-2.3,4.7-.5,1-1,2.2-1.9,2.9-1.1.7-2.5.8-3.8.8-2,0-3.8-.7-5.6-1.4-3.9-1.6-8.1-2.9-12.3-1.2-3.1,1.2-5.1,3.8-6.2,6.9-.6,1.6-1.1,3.2-1.9,4.8-.9,1.8-2,3.4-3.1,5.1-1.7,2.7-3.9,5.3-6.6,7.1-2.6,1.7-5.6,2.5-8.4,3.2-1.9.4-3.8.5-5.7.9-2.2.4-4.4,1-6.6,1.5-1.2.3-2.4.5-3.7.7,2.4-2.5,4.8-5,7.2-7.5,6.5-6.6,12.6-13.5,17.6-21.3,5.3-8.2,10.8-16.3,16.6-24.1,5.7-7.6,11.7-15,17.5-22.5,9.5-12.3,17.9-25.7,21.3-40.9h0ZM371.3,342.3c-.2.5-.3,1.1-.4,1.6-.1.6.5,1,1,1.3-.6.9-1.2,1.8-1.8,2.7-1-.5-3-.5-3.6.2-.1.1-.2.3-.3.4-1.4,2-3.4,3.7-5,5.6-.2.2-.3.4-.5.6,0-.8,0-1.6,0-2.4,0,0,0,0,0,0,1.4-1.6,2.9-3.2,4.3-4.8.8-.7,1.5-1.4,2.3-2.1,1.3-1.1,2.6-2.1,3.9-3.1h0ZM369.3,342.7c1-1,2-2.1,3.1-2.9-.2.4-.4.7-.5,1.1-.8.6-1.7,1.2-2.5,1.9h0ZM362.2,362.2c.4-.2.9-.5,1.3-.8-1,1.4-1.9,2.9-2.9,4.3-1,1.5-1.9,2.9-2.9,4.4.5-2.3,1-4.5,1.4-6.8.3-.2.5-.5.7-.7.9,0,1.7-.2,2.2-.4h0ZM392.8,319.9c.6-.6,1.2-1.3,1.8-1.9,1.6-1.6,3.2-3.2,4.8-4.8-1.7,2.5-3.6,5-5.5,7.5-.1-.2-.3-.3-.5-.5-.2-.1-.4-.2-.7-.3h0ZM405.9,243.4c0-.1,0-.2,0-.3.4-.1.7-.3.9-.5,0,0,.2-.2.2-.3,4.5,3.5,7.3,8.4,8.2,14.1.5,3.4.6,6.8.5,10.2,0,.9,0,1.9,0,2.8-2.2,5.5-3.4,11.3-5,17-1.9,6.6-4.7,12.9-9,18.2-4.4,5.4-9.9,9.8-14.3,15.1-2.1,2.6-3.9,5.5-5.9,8.1-2,2.6-4.3,4.7-7,6.6-2.7,1.9-5.3,3.9-7.8,6.1-2.8,2.5-5.3,5.1-8,7.7-5.3,5.1-10.4,10.4-15.2,16.1-2,2.4-3.9,4.8-5.3,7.6-1.3,2.7-2.3,5.5-3.2,8.3-1,3.1-2,6.3-3.8,9-1.9,2.9-4.1,5.4-6.5,7.8-4.7,4.6-11,6.5-17.3,7.7-5.5,1.1-12,1.3-17.4-.7,7.6-5.9,15-12,21.5-19.2,6.1-6.8,8.7-15.6,13.2-23.4,2.5-4.3,5.5-8.4,8.2-12.6,2.9-4.4,5.7-8.8,8.5-13.3,2.6-4.2,5.3-8.3,8.4-12.2,3-3.6,6.2-7.1,9.5-10.5,3.4-3.5,6.8-7,10-10.7,3.3-3.9,6.4-8,9.4-12.1,2.9-3.9,5.7-7.9,8.9-11.6,2.8-3.2,5.9-6.1,8.7-9.3,1.4-1.7,2.7-3.4,3.8-5.3,1.1-2,1.8-4.1,2.5-6.2,1.4-4.7,2.4-9.5,3.4-14.3h0ZM314.7,368.6c.2-1.2.4-2.5.6-3.7,0-.5.2-.9.2-1.4.1.5.3,1,.4,1.5,0,.2.2.3.3.4-.4.7-.7,1.5-1.1,2.3-.1.3-.3.6-.4.8h0ZM320.2,331c.1-.3.3-.5.4-.8.4.1.7.2,1,.2h.4c-.2.9-.3,1.8-.4,2.7-.3-.5-.6-1-.9-1.5-.1-.2-.3-.5-.4-.7h0ZM323.1,353.7c.3-1.9.7-3.9,1.2-5.8,1,.2,2.1,0,2.9-.5-1.3,2.1-2.7,4.2-4,6.2h0ZM329.6,341.5c.8,0,1.5-.5,2.1-1.1-1.2,2-2.5,3.9-3.7,5.9.3-2.1.4-4.2.3-6.3.5,0,.9-.2,1.3-.3.3-.1.6-.2.9-.3.1.2.3.3.6.5-.5.7-1,1.3-1.7,1.4-.4,0-.1.4.2.4h0ZM331.3,311.3c1-1.8,2.1-3.6,3.1-5.4-.3,1.2-.6,2.3-.8,3.5-.8.6-1.6,1.2-2.3,2h0ZM332.7,314.1c0,.4-.1.8-.2,1.1-.3.2-.6.3-.9.5.4-.6.7-1.1,1.1-1.7ZM342.6,322.7c.8-1.1,1.6-2.2,2.4-3.3.4.2.8.3,1.2.3-2.2,2.6-4.3,5.2-6.3,8,.5-1.1.9-2.2,1.4-3.3.5-.6.9-1.2,1.4-1.7h0ZM342.4,321.2c0-.2.1-.3.2-.5.1-.3.2-.6.3-.9.4-.2.7-.5,1.1-.7-.5.7-1,1.4-1.5,2.1h0ZM339.6,298.1c-.1.2-.2.5-.4.7-.2.3-.1.6,0,.8-.3,1.2-.5,2.3-.8,3.4-.8-.2-1.8,0-2.5.2,1.3-2.3,2.7-4.5,4.1-6.8-.1.5-.3,1.1-.4,1.6h0ZM351.1,307.2c.2,0,.4,0,.5,0h.7c-.4.5-.7,1.1-1.1,1.6-.6.4-1.2.8-1.8,1.3-.6.4-1.1.8-1.6,1.2,0-.4,0-.8,0-1.2,1.1-.9,2.2-1.9,3.2-2.9h0ZM349.4,299c.4-1.2.7-2.4,1-3.7.5-.4,1-.8,1.5-1.2-.3,1.1-.7,2.3-1,3.4-.5.5-1,1-1.5,1.5h0ZM352.6,287.9c.2-.7.5-1.4.8-2.2.2-.3.4-.5.6-.8,0,.7-.1,1.3-.2,2-.4.3-.7.6-1.1,1h0ZM378.3,252c-3.3,2.8-6.5,5.6-9.6,8.4-.8.7-1.6,1.5-2.4,2.2-.3,0-.5.1-.7.2-.2.1-.4.3-.6.4,1.9-2,3.8-4,5.8-5.8,4.3-4.1,9.5-7,14.3-10.4.5-.3,1-.7,1.5-1.1,0,.1,0,.2-.1.3-1,.8-2.1,1.5-3.2,2.2-1.7,1.1-3.4,2.2-4.9,3.5h0ZM380.2,256.7c-.7,1.1-1.3,2.2-2,3.4-.1.2-.3.5-.4.7-.7,0-1.5,0-1.9.3-.8.6-1.4,1.3-1.9,2.1,0,0,0,0-.1,0,0-.1,0-.2,0-.3,0-.2-.1-.3-.2-.4,2.2-1.9,4.3-3.9,6.5-5.8h0ZM371.1,266.7v.8c-.2.5-.4.9-.7,1.4v-.8c.2-.5.4-.9.7-1.4h0ZM397.6,211.4c1.3,1.4,2.5,2.7,3.8,4,.4.4.7.8,1,1.3-.7-.3-1.6-.4-2.4-.2-.2-.6-.4-1.2-.7-1.7-.2-.4-.8-.6-1.4-.5-.8-.7-3.3-.6-3.1.5,0,.5.2.9.2,1.4-.1-.4-.3-.7-.4-1.1.2-2.1.2-4.3,0-6.3,1.1.8,2.1,1.8,3,2.8h0ZM394.1,221.1c0-.2,0-.3,0-.5.2.5.4,1.1.6,1.6-.2,1.4-.4,2.7-.5,4.1-.2-1.7-.2-3.4-.1-5.2h0ZM394.4,262.3c-.8,1.6-1.7,3.1-2.9,4.5-2.6,3.3-5.7,6.1-8.5,9.2-3.1,3.4-5.9,7.2-8.6,11-2,2.8-4.1,5.5-6.2,8.2,0-.3-.2-.5-.5-.7.4-.2.7-.4.9-.8,1.8-2.8,3-6.1,3.9-9.4.2-.3.4-.6.6-.8,1.4-1.1,2.8-2.2,4.2-3.3,4.5-3.5,9.2-7.1,12.2-12,1.9-1.8,3.5-3.7,4.9-5.8h0ZM393,254c-.5,1.1-1,2.2-1.6,3.2-1.6,2.9-3.6,5.6-5.8,7.9.2-1.3.3-2.6.3-4,1.5-2.6,3-5.1,4.7-7.6.2-.4-.8-.5-1-.2-.8,1.1-1.5,2.1-2.3,3.1,0-.4.2-.7.3-1.1,1.1-1.8,2.2-3.5,3.4-5.3,0,1,0,1.9,0,2.8s1.2,1.2,2.2,1.1h0ZM390.5,242.9c.3-.3.6-.5.8-.8,0,.6-.1,1.2-.2,1.8,0,.3,0,.5,0,.8-.3,0-.7-.1-1.1-.1.2-.6.3-1.1.5-1.6h0ZM385.7,200c1.4,1.4,2.3,3.1,2.8,5-.1,0-.3.1-.4.2-.7.4-.9,1.1-.4,1.7.3.3.7.5,1.2.6.2,1.9.2,3.9,0,5.7-.3,3.2-.8,6.4-.8,9.6,0,2.4.3,4.8.6,7.2.3,1.9.6,3.9.2,5.7-.6,2.3-2.3,4.1-4,5.6-4.2,3.8-9.3,6.4-13.9,9.7-5,3.6-9.3,8.1-13.4,12.7-4.2,4.6-8.1,9.4-11.9,14.4-7.4,10-13.7,20.6-19.9,31.3-3,5.3-6.2,10.5-9,15.8-.2-.3-.4-.6-.5-.9-.3-.5-.6-1-.9-1.5,0-1.4-.6-2.6-1.1-4.1-1-3-.2-6.4.3-9.4.5-3.3,1-6.7,1.9-9.9.9-3.3,2.3-6.5,3.5-9.7,1.2-3.3,2.4-6.7,3.6-10,1.1-3,2.2-5.9,2.6-9,.4-2.8.5-5.6.3-8.4v-.4c3.8-3.4,7.6-6.9,11.3-10.5,4.3-4.2,7.5-9.6,10.3-14.9,2.6-5,6.2-9.5,8.5-14.7,1.5-3.5,1.6-7.7,1.1-11.4-.5-4.2-1.5-8.6-3.7-12.2-.6-1-1.3-1.9-2-2.6.9-.3,1.8-.6,2.6-.9,1.8-.6,3.6-1.7,5.4-2.4.8-.4,1.6-.7,2.5-1,.4-.2.8-.3,1.2-.4.2,0,.5-.1.7-.2,0,0,.1,0,.1,0h0c.3,0,.6-.1.9-.2h-.1.2,0c.9,0,1.7.2,2.6.4.5.1,1.7.5,2.5.7,1.2.4,2.3.8,3.5,1.3,4.2,1.6,8.4,4,11.7,7.2h0ZM339.8,229.3c.1-.5.3-1.1.5-1.6.2,0,.4-.1.5-.2-.3.6-.6,1.2-1,1.7h0ZM350,208.6c.4,0,.8,0,1.1-.2.1,0,.2-.2.3-.3.6,3,.9,6.1.7,9.1-.1,1.7-.6,3.3-1.3,4.9.8-4.6,0-9-.8-13.5h0ZM352.1,184c.7-6.2.3-12.4-.3-18.6,2.2.8,4.5,1.2,6.7,1.8,2.8.8,5.3,1.7,7.7,3.3,2.8,1.8,5.1,3.9,6.6,6.9,1.2,2.4,1.4,5.3,1.7,7.9.2,1.4.4,2.8.7,4.1-1.6-.6-3.2-1.2-4.8-1.5-2-.5-4.2-.8-6.2-.6-1.7.2-3.4.8-5,1.5-3,1.2-6.2,2.7-8.8,4.7.8-3.1,1.4-6.2,1.8-9.5h0ZM350.1,205.5c.2-.3.3-.5.5-.8,0,.2.2.5.2.7.2.6.3,1.2.5,1.8,0,0,0,0,0,0-.6-.4-1-.9-1.2-1.5,0,0,.1,0,.2-.2ZM350.6,222.5c-1.1,2.4-2.6,4.6-3.9,6.8.7-1.4,1.3-2.8,1.8-4.3.2-.7-.6-.9-1.3-.8,0-.2.1-.4.2-.5.2-.3.3-.5.5-.8.7.5,2.2.3,2.8-.4h0ZM348.2,200.5c.1-.3.2-.6.3-.9,0,0,0,.1.1.2.1.2.2.4.3.6-.1,0-.3.1-.3.2-.4.5-.8,1.2-1.1,1.9h0c.2-.7.5-1.4.7-2h0ZM347.2,203.3c-.3,1.2-.3,2.4.2,3.4-.3.9-.6,1.8-.8,2.8-.1,0-.2.1-.3.2-1.1.9-1.9,2.1-2.5,3.3,1.2-3.2,2.4-6.4,3.5-9.6h0ZM315.9,139c4.6.2,9.2-.2,13.8-.5,2.7-.2,5.3-.3,8-.4,1.3,0,2.6-.5,4-.7-.2,0,.6,0,.7,0h1.5c-.5,5.8.3,11.7,1,17.5.7,6.2,1.5,12.4,1.7,18.7.3,11.5-2.5,22.4-5.5,33.4-1,3.7-2.3,7.2-3.8,10.7-.3-.8-.7-1.6-1.4-1.9-3.3-1.6-6.9,4.6-8.1,6.6-1.8,2.8-3.5,5.7-5.2,8.6-.1-1.1-.2-2.2-.4-3.2-.5-2.9-1.1-7-3.6-8.9-3.4-2.6-6.6,1.4-7.6,4.7-1,3.6-.9,7.4-.8,11,.1,3.1.9,6.1,1.7,9,.4,1.4.8,2.8,1.1,4.2.1.5.2,1,.3,1.4-1.2,2.8-2.2,5.7-3,8.6,0,0,0,.2,0,.2-1.6,2-3.2,4-4.8,6-2.5,3.2-5.2,6.2-7.8,9.3-.2-.9-.4-1.9-.6-2.8,1.3-2.7,2.1-5.6,2.6-8.5,2.6-5.7,4.9-11.6,6.1-17.7,1.4-7.1,1.9-14.3,2-21.5,0-4.6.1-9.4-.2-14,1.1-1.5,2.1-3,3.1-4.6,4.6-7.5,7.5-15.9,9.2-24.6.5-2.4.7-4.9,1.1-7.3.3-2.2.6-4.4,1.5-6.4,1.7-3.5,5-6.5,5-10.6s-2.3-7.4-4.8-10.1c-1.3-1.5-2.8-2.8-4.4-3.9-.9-.6-1.9-1.1-2.9-1.4.4-.2.7-.5.8-.9h0ZM300.8,235.2c-.7-12.3-2.7-24.4-3.3-36.7,0-1.3-.5-4.4.6-5.3.8-.7,2-.4,2.7.2.4.4.8.8,1.1,1.3,0,1.2.1,2.4.4,3.5.1.5.7.9,1.3,1,.2.7.3,1.5.4,2.1,1.1,6.1,1.2,12.4,1.1,18.6,0,7.7-.5,15.3-1.9,22.9-.6,3.1-1.4,6-2.3,9,.5-5.5.3-11.1,0-16.6h0ZM308.9,178.6c-.5,2-.9,4-1.2,6,0-.1-.2-.2-.3-.3-.1-2.8-.4-5.6-.6-8.4.6,0,1.1,0,1.5-.2.8-.3,1.5-.7,2.2-1.1,0,.5,0,1.1.1,1.6,0,.6.1,1.2.2,1.9-.8-.2-1.7,0-1.9.5h0ZM310.8,185.4c.1.4.2.7.4,1.1s.5.6,1,.7c-.4,1.7-.9,3.3-1.4,5,0-1.6,0-3.3,0-5,0-.6,0-1.2,0-1.8ZM309.5,196.2c-.7,2.1-1.5,4.1-2.3,6.1-.1.3-.2.5-.3.8-.1-.8-.2-1.6-.3-2.4-.1-.9-.3-1.8-.5-2.7.3-.8.5-1.6.7-2.4.5.7,1.9.9,2.9.6h0ZM316.9,147c.1,0,.3.1.4.1,1.9,2.2,3.7,4.9,3.8,7.8,0,1.2-.3,2.3-.8,3.4-.2-1-.5-1.9-.7-2.7-.5-1.8-1.1-3.5-1.8-5.3-.1-.7-.3-1.4-.5-2-.1-.5-.3-.9-.4-1.4h0ZM313.7,171c.3.7.5,1.4.7,2.1-.2,1.7-.3,3.4-.5,5,0,.2,0,.5-.1.7-.2-.7-.3-1.4-.4-2.2-.2-1.5-.4-3.1-.4-4.6.2-.3.5-.7.7-1h0ZM311.4,142.5c.2.1.4.3.5.3.3.2.5.3.8.5,0,.3,0,.5,0,.8-.2-.1-.3-.2-.5-.3-.1,0-.5-.1-.9,0,0-.4,0-.8.1-1.2h0ZM310,155.7c.5-3.2.8-6.4,1.1-9.6,0-.4,0-.7.1-1.1.2.4.4.9.6,1.3,0,.2.5.2.5,0h0c0,0,0,0,0,0-.3,3.2-.2,6.4.1,9.6-.1.4-.3.8-.4,1.2-1.2,1.7-2.3,3.6-3.3,5.4.4-2.3.8-4.6,1.2-6.9h0ZM285.3,133.2c2.4-2.3,5-5.1,8.3-6.1,1.2-.4,2.2-.4,3.3-.1,1.5.4,2.9,1.2,4.2,2,3.1,2.1,5.5,5.2,8,8.1-.4.9-.5,1.9-.7,2.9-.3,1.4-1.3,2.6-1.7,4-.7,2.8-1,5.7-1.4,8.5-1.1,7.4-2.9,14.7-4.3,22.1-.7,3.7-1.3,7.4-1.6,11.2-.1,1.5-.2,3-.3,4.4-.8.2-1.6.6-2.4,1.3-3.3,3-2.7,8.5-2.8,12.5,0,2.4,0,4.8,0,7.3-.6,1.5-1.3,3-2,4.4-.2.5-.5,1-.7,1.4-.2-4.5-.6-8.9-1.1-13.4-.5-4.9-1.2-9.8-1.3-14.7-.2-5.5.6-10.9.2-16.4-.3-3.9-2-11.9-7.7-9.3-3,1.3-4.3,5.5-5.3,8.4-1.1,3.3-2.7,6.5-3.2,10-.7,5.1.2,10.4.9,15.4.9,6.1,2.1,12.2,3,18.4.9,5.7,1.3,11.4,2.5,17.1.2,1.1.5,2.2.8,3.3-.4.5-.7,1.1-1.1,1.7-2.8-5.1-4.9-10.7-7-16-1.5-3.8-2.9-7.5-3.7-11.4-.8-3.5-1.6-7.1-2.5-10.6-1-3.6-2-7.3-3.5-10.7-.6-1.5-1.5-3.1-2.5-4.6,0-.1,0-.3,0-.4.4-2.5.8-4.9,1.7-7.3.4-1,.7-2,1.1-3,.8-1.9,1.5-3.9,2-6,.7-3.1.7-6.4,1.1-9.5.2-1.7.4-3.4.7-5.1.2-.7.2-1.5.3-2.2.1-.9.8-1.2,1.5-1.7.8-.6,1.3-1.2,1.9-1.9.4-.6.9-1.1,1.4-1.6.5-.5.5-1,.2-1.5,1.6-1.2,3.2-2.2,4.8-3.3,3.2-2.2,6.3-4.4,9.1-7.2h0ZM153.7,98c5,2.4,10.4,3.2,16,2.8,7.5-.5,14.6-3.5,21.4-6.4,6.5-2.8,12.9-5.9,19.7-8.1,3.3-1.1,6.6-2,10.1-2.5.9-.1,1.7-.3,2.6-.4.6,0,1-.1,1.3-.1.7,0,1.3,0,2,0s1.1,0,1.7.1c1.2.2,1.5.2,2.6.7.7.3,1.7.8,2.6,1.5,2.2,1.7,3.9,3.8,5.2,6.2,1.8,3.1,3.5,6.2,5,9.4.7,1.5,1.5,3,2.2,4.6.6,1.6.6,3,.5,4.7-.2,2.8-.2,6.1,1.6,8.4,1.8,2.3,4.6,3.4,7.4,3.7,3.3.4,6.6-.2,9.8-.9,2.8-.6,5.7-1.6,8.6-1.5,2,0,3.2,1,4.1,2.7,1.2,2.2,1.7,4.7,2.7,7,0,.2.2.3.4.5-.8.8-1.6,1.7-2.4,2.5-1.5,1.5-3.1,2.9-4.7,4.3-1.7,1.5-3.5,2.9-5.2,4.4,0,0-.1.1-.2.2-2.5-2.2-4.4-5.2-7.1-7.3-2-1.5-4.2-2.5-6.8-2.5-2.5,0-5,.9-7.2,2.1-2.1,1.2-4.1,2.7-6.2,3.9-.8.5-1.7,1-2.5,1.4-.8.3-2.2.7-2.7.8-1.6.4-3.2,1.1-4.7,1.9-1.7,1-3,2.6-4.1,4.2,0,0,0,.1-.1.2,0-2.3,0-4.5.3-6.7.4-2.5,1.2-4.8,1.8-7.2.5-1.9-.4-3.7-1.6-5.2-2.9-3.6-7.8-5.6-12-7.1-2.3-.8-4.6-1.5-6.9-2.1-2.3-.5-4.8-.9-7.1-.4-3.7.8-4.9,3.7-5.3,6.9-.3.3-.6.7-.8,1-.1,0-.2-.2-.4-.2-.2-.1-.4-.2-.6-.3,0-1.4-.1-2.8-.6-4.2-2-5.9-7.9-9.4-13.5-11.4-5.8-2.1-12.5-2.9-18.6-1.7-.2,0-.3,0-.5.1-.1-.4-1-.5-1.6-.5-.3-.4-.7-.7-1.2-.9-.2-.2-.4-.4-.7-.6.3-.2.6-.5.4-.9-.4-.8-.4-1.4-1.3-1.9-.4-.2-.9-.3-1.4-.4,0-.2-.2-.3-.4-.4-2.2-1.8-3.9-3.9-5.5-6.2,1.5.9,3,1.6,3.3,1.7h.1ZM150,108.1c0,.2.2.3.3.4-.3.5-.6,1.1-1,1.6-1.1.5-2.1,1-3.1,1.6,0,0,.1-.1.2-.2.4-.4,2-2.5,3.5-3.7,0,0,0,.1,0,.2h0ZM149.2,106.9s.1,0,.2,0c0,0,0,.2,0,.3-.9.4-1.8.9-2.6,1.3.2-.4.4-.9.7-1.3.5,0,1.1-.2,1.6-.2h0ZM148.3,103.7h0c-.3.2-.7.3-1,.5-.5.1-1,.2-1.4.4-.1,0-.3.1-.4.2,0,0,0,0,0,0,0,0,0,0,0,0,.3-.2.6-.4.9-.6,0,0,.1,0,.2,0,.5,0,.9,0,1.3-.2,0,0,.2,0,.2,0h0ZM79.7,107c1.1-2,2.9-3.6,4.6-5.1,4-3.5,8.5-6.5,13-9.3,4-2.5,8.1-4.7,12.4-6.5,4.8-2,9.6-3.7,14.8-4.1.1,0,.7,0,.6,0,.3,0,.6,0,1,0,.5,0,1,0,1.5,0,.1,0,.6,0,.6,0,.3,0,.5,0,.8.1.8.1.9.2,1.5.3,2.1.6,4,1.9,5.8,3.6,3.9,3.7,6.3,8.4,9.4,12.7.6.8,1.1,1.5,1.7,2.2-.8.2-1.5.4-2.2.8-.3.2-.6.5-.6.8,0,0-.2.2-.3.3,0,0,.1-.2.2-.3-.8.8-1.7,1.8-2,3-.2.6-.1,1.3,0,1.9.1.3.3.6.5.8h0c-1,1.3-1.9,2.6-2.4,4.1-.2.6-.4,1.1-.5,1.7-1,1-2,2-2.9,3-.8,1,0,1.5,1.1,1.7-.9,1.4-2.3,2.5-3.5,3.6-1.6,1.4-2.5,3.1-3.4,5-1,2.1-2.2,4.1-3.3,6.2-2.2,4.2-4.4,8.5-6.6,12.8-2.2,4.1-4.7,8-6.7,12.2-3.8,8-4.8,16.9-5.7,25.7-1.1,9.7-1.5,19.6-4.6,28.9-.3,0-.5,0-.8,0h-.8s-.7,0-.9-.1c-.2,0-.4,0-.5-.1,0,0-.7-.2-.7-.2-.7-.2-1.4-.4-2-.7-2.1-1-4-2.4-5.4-4.2-3-3.6-4.3-8.7-4.6-13.3-.2-3.1.3-6.1.5-9.2.2-3.5.3-7.1.3-10.6s0-7.4,0-11.1c.1-3.6.4-7.2.4-10.8,0-6.6-.8-13.1-2.6-19.4-1-3.2-2.2-6.4-3.7-9.4-1.4-2.8-3.2-5.5-4.3-8.4-1.1-2.9-.9-5.8.7-8.6h0Z"/>
  <path class="st0" d="M105.4,216.3s0,0,0,0c.4-.1.3,0,0,0Z"/>
  <path class="st0" d="M247,262.5c.9.4,1.9.7,2.9.7,1.1,0,2.3-.3,3.1-1.1-.1.1-.3.2-.4.3.4-.3.9-.5,1.1-1l-.2.3c.7-.9,1-2.1.9-3.2,0-.5-.2-1.1-.5-1.6-.4-.6-.9-1-1.6-1.2-.3,0-.5-.1-.8-.1h0c0-.1-.1-.2-.2-.3-.5-.5-1.3-.7-2-.7s-1.1.1-1.5.3c-.5.2-.8.4-1.2.8-.3.3-.6.7-.9,1.1-.4.6-.6,1.3-.8,2-.1.6,0,1.4.3,2,.3.7,1,1.4,1.7,1.7h0ZM250.8,258.1c.1-.4.3-.7.5-1.1,0,0,.2.1.2.2h0c0,0,0,0,0,.1,0,.1.1.2.2.3,0,0,0,.1,0,.2h0c0,.2,0,.3,0,.4,0,.1,0,.3,0,.4,0,0,0,.1,0,.2h0c0,.3-.2.5-.4.8,0,0,0,0,0,0,0,0,0,.1-.1.1,0,0,0,0,0,0,0,0-.2,0-.3,0,0-.1-.1-.2-.2-.4,0-.4,0-.9,0-1.3h0Z"/>
  <path class="st0" d="M214.5,235h0s0,0,0,0,0,0,0,0h0Z"/>
  <path class="st0" d="M218.5,234.5c-.6-.5-1.5-.7-2.3-.6-.2,0-.4-.1-.6-.2-.2,0-.4,0-.7,0h-.1s0,0-.1,0c-.2,0-.3,0-.4,0-.8.1-1.6.5-2.2,1.1-.5.5-1,1.3-1.1,2,0,.7,0,1.4.4,2,.5.8,1.3,1.4,2.2,1.7.7.2,1.3.3,2,.3s1.5,0,2.2-.3c.9-.3,1.8-.9,2.1-1.9.2-.7.2-1.5,0-2.3-.2-.7-.7-1.3-1.3-1.8ZM217.4,237.3c0,0,0,.2,0,.3s0,0,0,.1c0,.2-.2.4-.3.5,0,0,0,0,0,0,0,0-.2.2-.2.2,0,0,0,0,0,0,0,0,0,0-.1,0,0,0-.2,0-.2,0,0,0,0,0-.1,0-.1,0-.3,0-.4,0h-.4c0,0,0,0-.1,0h0c0,0-.1,0-.2,0,0,0,0,0,0,0,0,0-.2,0-.2-.1,0,0,0,0,0,0,0,0-.1-.1-.2-.2,0,0,0,0,0,0,0,0,0,0,0,0h0c0,0,0-.1,0-.1,0,0,0-.1-.1-.2,0-.2-.1-.3-.2-.5,0-.3,0-.7,0-1,0-.2,0-.4,0-.6,0,0,0-.1,0-.2,0,0,0,0,0-.1,0-.2.1-.3.2-.5h0s0,0,0,0h0c0,0,.1-.1.2-.2,0,0,0,0,0,0h0s0,0,0,0h0s0,0,0,0c0,.2,0,.4.3.5.4.2.8.2,1.2,0,0,0,0,0,0,0h0c0,0,0,0,.1,0,0,0,0,0,0,0,0,0,.1.1.2.2,0,0,0,0,0,.1s.1.2,0,0c0-.1,0,0,0,0,0,0,0,0,0,.1.1.2.2.3.3.5,0,0,0,.2,0,.3,0,0,0,.2,0,0s0,0,0,0c0,.2,0,.4,0,.6h0Z"/>
  <path class="st0" d="M214.5,238.2s0,0,0,0h0c0,0,0-.1,0-.1,0,0,0,0,0,0h0Z"/>
  <path class="st0" d="M232.7,195.2c1.6,1.1,3.7,1.1,5.6.6,1.4-.4,2.8-1.3,3.4-2.6.5-1,.6-2.2.5-3.3-.1-1.1-.5-2.3-1.1-3.3-.9-1.4-2.1-2.3-3.8-2.7-1-.2-2.1-.2-3,.2-.6.2-1.1.5-1.5,1.1-.2.3-.2.6-.3.9h0c-.4.3-.7.6-1,.9,0,0-.1.2-.2.3,0,0-.2.1-.2.2-.3.3-.4.5-.5.8-.2.5-.3,1-.3,1.6-.1,2.1.6,4.2,2.5,5.4h0ZM235.4,187.5c0-.1,0-.4,0-.4h0c0-.1,0-.1,0-.2h0s0,0,0,0h0s0,0,0,0c0,0,0,0,0-.1h0c.1.1.2.2.3.3,0,0,0,.1.1.1,0,.1.2.2.2.4.3.6.5,1.2.7,1.8.1.6.2,1.2,0,1.7-.1.3-.3.6-.4.9-.1.1-.2.3-.4.4-.4-.6-.6-1.2-.8-1.8,0-.4-.1-.9-.2-1.3,0-.5,0-1-.1-1.4,0-.1,0-.2,0-.3h0Z"/>
  <path class="st0" d="M198.7,205.4c1.2.2,2.7,0,3.8-.6.8-.5,1.2-1.2,1.3-2.1,0-.8-.2-1.6-.6-2.3-1.2-2.1-3.5-3.3-5.9-3.2-.4,0-1.2.2-1.2.7v.4c-.5.3-.8.7-1,1.2-.5,1.5-.2,3.3.8,4.5.7.8,1.7,1.3,2.8,1.4h0ZM197.6,199.9s0-.1,0-.2c0,0,0,0,0-.1h0c0,0,0,.1,0,.1h0c0-.1,0-.2,0-.2s0-.1,0-.2c0,.2,0,0,0,0,0,0,0-.2,0-.2.1-.1.2-.2.3-.3.2,0,.3.1.5.2,0,0,0,0,0,0,.1,0,.2.1.3.2,0,0,.1,0,.2.1,0,0,0,0,.1,0,.1.1.3.2.4.4s.2.3.4.4h0c0,.1.1.2.2.3.2.3.3.6.4,1,0,0,0,.1,0,.2h0c0,.2,0,.3,0,.5v.5c0,0,0,.1,0,.2h0c0,.2,0,.3-.1.4,0,0,0,.1-.1.2h0c0,0-.1.1-.2.1,0,0,0,0,0,0s0,0,0,0c0,0,0,0,0,0h0s0,0,0,0c0,0,0,0-.1,0,0,0,0,0,0,0h-.6c0,0-.1,0-.2,0,0,0-.1,0-.2-.1,0,0-.1,0-.2-.1,0,0,0,0,0,0,0,0-.1-.1-.2-.2,0,0-.1-.1-.2-.2,0,0,0,0,0,0,0-.1,0,0,0,0,0-.1-.2-.3-.2-.4,0-.1-.2-.3-.2-.4,0-.1-.1-.3-.2-.4,0,0,0-.1,0-.2,0,0,0,0,0-.1,0-.3-.1-.6-.1-.9s0-.3,0-.5h0Z"/>
  <path class="st0" d="M200.2,203.4s0,0,0,0c0,0,0,0,0,0h0Z"/>
  <path class="st0" d="M141.4,219.2c1.3-.4,1.9-1.5,1.9-2.8,0-.6-.2-1.3-.5-1.9-.3-.6-.7-1.3-1.4-1.5-.3-.1-.8-.1-1.1,0-.2.1-.5.3-.4.6.1.2.3.3.4.5,0,0,0,0,0,0,0,0,0,0,0,0,0,.1.1.2.1.3,0,0,0,0,0,0,0,0,0,0,0,0v.3c0,.2,0,.5,0,.7,0,.1,0,.2,0,.3,0,0,0,.1,0,.2h0c0,.2-.1.4-.2.6,0,0-.1.2-.2.3h0c0,0,0,0,0,0h0s0,0,0,0c0,0,0,0-.1,0,0,0-.1,0-.1,0,0,0,0,0,0,0,0,0,0,0,0,0h0s0,0,0,0c0,0,0,0-.1,0,0,0,0,0,0,0-.1,0-.2-.2-.3-.3,0,0,0-.1,0-.2,0-.1-.1-.2-.1-.3,0,0,0-.2,0-.3,0-.1,0-.2,0-.3,0-.2,0-.5,0-.7,0-.1,0-.2,0-.4,0,0,0-.1,0-.2,0,0,0-.1,0-.2.2-.9.6-1.9,1.6-2.1.1,0,.2-.1.2-.3,0-.1-.3-.2-.4-.2-2.4,0-4.9,3.1-3.9,5.4.7,1.7,3.1,2.3,4.8,1.8h0Z"/>
  <path class="st0" d="M140.2,217.3s0,0,0,0h0s0,0,0,0h0Z"/>
  <path class="st0" d="M156.9,154.7h0s0,0,0,0h0Z"/>
  <path class="st0" d="M156.9,154.7c-.2.1,0,0,0,0h0Z"/>
  <path class="st0" d="M163.1,156.5h0s0,0,0,0c0,0,0,0,0,0Z"/>
  <path class="st0" d="M156.6,164.5c2.2,1.2,4.8,1.1,7.1.4,1-.3,1.9-.7,2.6-1.4.5-.4.8-1,1-1.6,1.1-2.4-.4-5.2-1.9-7-.8-1-1.7-1.9-2.9-2.4-1.5-.6-3.7-.5-4.8.8-.3.3-.5.7-.4,1.1,0,0,0,0,0,0h0c-.2,0-.3.2-.5.3-.1.1-.3.2-.4.3s-.2.2-.4.3c-.5.5-1,1.1-1.3,1.7-.6,1.1-1,2.5-.7,3.8.3,1.6,1.1,2.9,2.6,3.7h0ZM159.1,157.6c0-.1.1-.4,0-.5,0,0,0-.1,0-.2h0s0,0,0,0c0-.1,0,0,0,0,0-.2.3-.8.3-.8,0,0,0-.1.1-.2h0c0,0,0-.1.1-.2h0c.3,0,.6-.1.8-.3.2-.1.4-.2.5-.4.3.2.6.4.7.4h0c0,0,.1.1.2.2.2.1.3.3.5.4.1.1.3.3.4.4,0,0,.1.1.2.2h0s0,0,0,0h0c0,0,0,.1,0,0,0,0,0,0,0,0,.2.3.4.7.6,1.1.2.3.3.7.4,1.1,0,.1,0,.3,0,0,0,0,0,.2,0,.3,0,.2,0,.4,0,.6v.5c0,0,0,.2,0,.3,0,0,0,0,0,.1-.1.3-.2.6-.4.9h0c0,0-.2.1-.2.2-.1,0-.2.1-.3.2s-.1,0-.2,0h0c-.3,0-.5.2-.7.3,0,0,0,0-.1,0,0,0,0,0-.1,0-.3,0-.6,0-.9.1.8-.1.2,0-.1,0h-.2s0,0-.1,0h0s0,0-.1,0h0s0,0,0,0c0,0-.1,0-.2,0-.1-.1-.3-.2-.4-.4,0,0-.1-.2-.2-.2h0c0-.1-.2-.3-.3-.4-.2-.4-.3-.8-.4-1.2,0-.2,0-.4-.1-.5,0,.1,0,.3.1.4-.2-.7-.2-1.5-.1-2.2h0Z"/>
  <path class="st0" d="M159.3,156.8h0c0,0,0,0,0,0h0s0,0,0,0Z"/>
  <path class="st0" d="M157.3,154.5s0,0,.1,0c0,0-.3.1-.1,0Z"/>
  <path class="st0" d="M160.8,162.3s0,0,.1,0c0,0,0,0,.1,0,0,0-.1,0-.2,0,0,0,0,0,0,0h0Z"/>
  <path class="st0" d="M137.8,189.8c.9.3,1.9.3,2.7,0,.6-.2,1.2-.6,1.5-1.2.3-.4.4-.8.4-1.2,0-.5,0-1-.2-1.4-.1-.3-.3-.5-.5-.7-.3-.2-.5-.4-.8-.5-.3,0-.5,0-.8-.1-.4,0-1.1.2-1.1.7v.2s0,0-.1,0c-.1,0-.2,0-.3.1-.5.2-.9.5-1.3.8-.6.6-1.2,1.4-.8,2.3.2.5.8.9,1.3,1h0Z"/>
  <path class="st0" d="M102.4,137.2c2.7.9,6.5.3,7.8-2.5.8-1.8.6-4.1-.3-5.8-.6-1.1-1.4-2-2.6-2.4-1-.4-2.2-.4-3.2,0-.4.1-.7.3-1,.5,0,0,0,0,0,0-.3.4-.3.4,0,0,0,.1-.2.2-.2.3-.1.1-.2.3-.2.5,0,.2,0,.4,0,.5-.2,0-.4.2-.7.3-.9.5-1.6,1.5-2,2.4-.4,1.1-.5,2.2-.2,3.3.4,1.3,1.5,2.2,2.8,2.6h0ZM102.8,130.9c0-.1,0-.2,0-.4,0,.2,0-.2,0-.2,0-.2.2-.4.3-.6,0,0,.1-.2.1-.2,0,0,.1-.1.2-.2,0,0,0,0,0,0,.5.1,1.1,0,1.4,0,.1.2.2.3.3.5.2.4.3.8.4,1.2.2.8.2,1.7,0,2.5-.1.4-.3.7-.5,1.1,0,0-.1.2-.2.2,0,0-.1.1-.2.2,0,0,0,0,0,0,0,0,0,0,0,0,0,0,0,0,0,0,0,0,0,0,0,0,0,0,0,0,0,0,0,0,0,0-.1,0h-.4s0,0,0,0c0,0,0,0-.1,0,0,0,0,0-.2-.1,0,0,0,0,0,0h0s0,0-.1,0c0,0,0,0,.1,0-.2-.2-.3-.4-.5-.5,0,0,0,0,0-.1,0-.1-.1-.2-.2-.3-.1-.3-.2-.5-.3-.8,0-.1,0-.2,0-.3.1.3,0-.1,0-.2,0-.3,0-.6,0-.8s0-.5,0-.7h0Z"/>
  <polygon class="st0" points="104.9 134.9 104.9 134.9 105 134.9 104.9 134.9 104.9 134.9"/>
  <path class="st0" d="M104.7,135h0s0,0,.1,0c0,0,0,0,0,0,0,0-.2,0-.2,0Z"/>
  <path class="st0" d="M105,134.8s0,0-.1,0h0s0,0,0,0h0Z"/>
  <path class="st0" d="M105,134.8c.1-.1.2-.2,0,0h0Z"/>
  <path class="st0" d="M251,159.5h0s0,0,0,0c0,0,0,0,0,0,0,0,0,0-.1,0h0,0Z"/>
  <path class="st0" d="M250.9,159.5c-.2,0,0,0,0,0h0Z"/>
  <path class="st0" d="M249.8,160.8c1.6.4,3.8-.2,4.2-2,.2-.7.1-1.4-.1-2,0-.3-.2-.6-.4-.8,0-.1-.2-.3-.3-.4s-.1-.1-.2-.2c.2.2,0,0,0,0,0,0,0-.1-.1-.2-.5-.6-1.3-1-2.1-1.1-1.1-.1-2.2.3-2.9,1.1-.1.2-.2.3-.1.5,0,0,0,0,0,.1-.2,0-.5.2-.6.3-.5.4-.6,1-.5,1.5.3,1.5,1.4,2.8,2.9,3.2h0ZM249,156.5s0,0,0,0h0s.1,0,0,0h0,0,0,0,0c.2,0,.3,0,.5-.1,0,0,0,0,0,0,.1,0,.2-.1.2-.3,0,0,0,0,0,0,.1,0,.2-.1.3-.2.1-.1.2-.2.3-.3,0,0,0,0,0,0,0,0,.1,0,.2-.1,0,0,0,0,0,0h0c0,0,.1,0,.2,0,0,0,0,0,0,0,0,0,0,0,0,0,0,0,0,0,0,0,0,0,0,0,0,0h0s0,0,0,0c0,0,.2.2.3.3,0,0,0,.1.1.1h0s0,0,0,0c.1.2.3.5.4.7,0,.1,0,.2.1.4,0,0,0,.1,0,.2h0s0,0,0,0h0c0,.3,0,.6,0,.8,0,.1,0,.2,0,.4h0c0,.1,0,.2,0,.2,0,.1,0,.2-.2.3,0,0,0,0,0,0,0,0,0,.1-.1.2,0,0,0,0-.1.1h0c0,0-.1,0-.2.1,0,0,0,0,0,0,0,0-.1,0-.2,0h0-.2,0s0,0-.1,0h0c-.1,0-.2-.1-.3-.2,0,0,0,0,0,0,0,0-.1,0-.1-.1-.2-.2-.5-.4-.6-.6,0,0,0-.1-.1-.2h0s0,0,0,0c0-.1-.2-.3-.2-.4,0-.1-.1-.3-.2-.4,0,0,0-.1,0-.2,0,0,0,0,0,0,0-.2,0-.4,0-.7h0s0,0,0,0Z"/>
  <path class="st0" d="M250.9,155.5h0s0,0,0,0c0,0,0,0,.1,0h0Z"/>
  <path class="st0" d="M199.3,275.6h0c0,0,.1,0,.2,0h0c-.2,0-.3,0-.2,0h0Z"/>
  <path class="st0" d="M205.1,267.5c-.5-.5-1.1-.9-1.7-1.3-1.5-.9-3.3-1.7-5.1-1.9-1-.1-2.2-.1-3.1.4s-.3.2-.5.3c-1.3.7-2.3,2.1-2.8,3.4-.5,1.3-1,2.8-.7,4.1.4,2.2,1.8,3.9,3.8,5,2.4,1.3,5.4,1.6,8,.8,1.8-.6,3.4-1.9,3.9-3.7.5-1.7.3-3.5-.5-5.1-.3-.7-.8-1.5-1.3-2h0ZM202.8,272.9s0,.2,0,.2h0c0,.1,0,.2,0,.2,0,0,0,.2,0,.2-.1.3-.2.6-.4.9,0,0-.1.2-.2.2,0,0-.2.2-.2.3-.1.1-.2.2-.3.3,0-.1,0,0-.1.1,0,0-.3.2-.4.2,0,0,0,0,0,0,0,0,0,0,0,0-.2,0-.4,0-.6.1h-.3c-.1,0-.3,0-.4,0,0,0,0,0,0,0,0,0,0,0-.1,0h0c0,0-.1,0-.1,0,0,0-.2,0-.3,0,0,0,0,0-.1,0,0,0-.2,0-.3-.1-.2,0-.3-.2-.5-.3,0,0,0,0,0,0,0,0-.2-.1-.2-.1-.3-.2-.5-.5-.8-.8,0,0,0,0,0,0,0,0,0,0,0,0-.1-.2-.3-.4-.4-.6-.2-.3-.3-.7-.5-1,0-.1,0-.2,0-.3,0,0,0,0,0-.1,0,0,0-.3,0-.3,0-.5,0-.9,0-1.4,0-.6.1-1.3.2-1.9,0,0,0,0,0,0,0-.1,0-.3,0-.4,0,0,0-.1,0-.2h0c0-.2,0-.3.1-.4.4,0,.7-.3.9-.6,0,0,0-.1.1-.2,0,0,0,0,0,0h.1c0,0,.1,0,.2,0h.1c0,0,.1,0,.2,0,.3,0,.6.2.9.3,0,0,.2,0,.2.1,0,0,.3.1.3.2.3.1.6.3.8.4.2.1.5.3.7.4,0,0,0,0,.1,0,.1,0,.2.2.3.2.2.1.3.3.4.4h0s0,0,0,.1c.1.2.2.3.3.5.6,1.1.8,2.3.6,3.7h0Z"/>
  <path class="st0" d="M212.1,258.5c-.4-.5-.7-.8-1.4-.9-.6,0-1.2,0-1.5.5-.2.3,0,.7.2,1,0,.2.2.4.2.6,0,.4,0,.8,0,1.2,0,.2-.1.4-.2.6,0,0-.1.1-.2.2,0,0,0,0,0,0,0,0-.1,0-.2-.1h0c-.2-.2-.4-.4-.5-.6,0-.1-.2-.2-.2-.3,0,0,.1.1.1.2-.2-.3-.3-.5-.4-.8,0,0,0-.2,0-.2h0v-.2h0c0,0,0-.2,0-.2,0,0,0,0,0,0h0c0,0,0,0,0-.1h0s0,0,0,0c.1,0,.3,0,.4,0,.2,0,.4-.2.4-.4,0-.2-.4-.3-.5-.3h-.5c0,0-.1,0-.2,0h-.2c-.3,0-.6.1-.9.3-.2.1-.5.2-.6.4-.2.2-.3.4-.4.6-.2.3-.2.8-.1,1.2.1.5.4,1,.7,1.4.9,1.1,2.6,1.4,4,1.2.7-.1,1.4-.4,1.9-1,.4-.5.5-.9.6-1.5,0-.5,0-1.1-.2-1.6,0-.2-.2-.5-.3-.7h0Z"/>
  <path class="st0" d="M270.5,312.9c.5-.6.7-1.2.8-1.9.2-1.1,0-2.2-.4-3.3-.4-1.3-1.3-2.4-2.4-3.3-1.6-1.2-3.9-2.1-5.8-1.1-.1,0-.2.1-.3.2h0c0,0-.1,0-.2,0-.2,0-.3,0-.5.2-.2.1-.4.3-.6.4-.9.6-1.5,1.5-2,2.5-.9,2-1.1,4.5.4,6.3,2.2,2.7,6.5,2.6,9.4,1.2.6-.3,1.2-.7,1.6-1.3h0ZM267,310.2h0c0,.2,0,.3-.1.4,0,0,0,.2-.1.3,0,0,0,.1,0,.2,0,0,0,.1,0,.1-.1.1-.3.3-.4.3,0,0-.1.1-.2.2,0,0-.1,0-.1,0,0,0-.2.1-.3.1-.1,0-.2,0-.3.1h0c-.1,0-.2,0-.3,0h0c0,0,0,0-.1,0h0s0,0,0,0c0,0,0,0,0,0,0,0-.2-.2-.2-.2-.1-.1-.3-.3-.4-.4,0,0-.1-.1-.2-.2-.2-.4-.4-.7-.6-1.1s-.3-.8-.4-1.2c0,0,0,0,0-.1,0,0,0-.2,0-.2,0-.2,0-.4,0-.7,0-.5,0-.9,0-1.4,0,0,0,0,0-.1h0c0-.1,0-.2,0-.3,0-.2.2-.4.2-.6,0-.1.1-.2.2-.3.2,0,.3.1.5.2,0,0-.5-.1-.2,0,.1,0,.3,0,.4,0,0,0,.1,0,.2,0,.1,0,.2,0,.3.1,0,0,0,0,0,0,.2.1.5.2.6.4,0,0,0,0,0,0,.1,0,.2.2.3.3.2.2.4.4.5.6h0c0,.2.1.3.2.4.1.2.3.5.4.7.1.2.2.4.3.6,0,0,0,.2,0,.2,0,.1,0,.2,0,.3,0,.5,0,.9,0,1.4h0Z"/>
  <path class="st0" d="M301.6,327.3c-1.2-.8-3.5-.9-4.4.3,0-.1,0-.2.1-.4,0,0,0-.1.1-.2,0,0,0,0,0,0,0,0,0,0,0,0,0,0,.1-.1.2-.2,0,0,0,0,0,0h0c0,0,.1,0,.2-.1-.1,0,.1,0,.2,0,.2,0,.4-.3.4-.5-.1-.3-.5-.3-.7-.3-2.1,0-3.8,1.6-4.3,3.6-.5,1.9-.4,4.2,1.2,5.6,1.3,1.1,3,1.4,4.7,1.2,1.2-.1,2.6-.6,3.5-1.5,1.3-1.4,1.2-3.4.6-5.1-.3-.9-.9-1.7-1.7-2.2h0ZM299.7,332.2s0,.2,0,.2h0c-.1.3-.2.6-.4.8,0,0-.1.1-.2.2,0,0,0,0,0,0,0,0,0,0-.1,0,0,0,0,0,0,0h0s0,0,0,0h0c-.1,0-.2,0-.2,0h0s0,0,0,0h-.1,0c0,0-.2-.1-.3-.2,0,0-.1,0-.2-.1,0,0-.1-.1-.2-.2h0c-.2-.4-.4-.6-.6-1-.2-.4-.3-.7-.4-1.1,0,0,0,0,0-.1,0,0,0-.2,0-.3,0-.2,0-.4,0-.6,0-.4,0-.9,0-1.3,0-.1,0-.2,0-.3,0,0,0,0,0-.1,0,.2,0,0,0-.1.1.3.5.6.7.7.4.2.8.2,1.2.2,0,0,0,0,0,0,0,0,0,0,0,0h0s0,0,0,0h0s0,0,0,0c.2.3.3.5.4.8,0,.1.1.3.1.4,0,0,0,.4,0,.1s0,0,0,.1c0,.3,0,.7,0,1,0,.2,0,.3,0,.5h0Z"/>
  <path class="st0" d="M299,329.2h0s0,0,0,0h0Z"/>
  <path class="st0" d="M333.2,286.9c0,0-.3-.2-.4-.3-.2-.1-.4-.2-.7-.2-.2,0-.4,0-.6,0-.4,0-.8.1-1.1.4,0,0,0,0-.1.1,0,0-.1.2-.2.3-.1,0-.2-.1-.3-.2,0,0,.2.1.3.2,0,0-.2-.1-.3-.2-.2-.1-.3-.3-.5-.5,0,0,0-.2-.1-.3,0,0,0-.2,0-.3,0,0,0-.2.1-.3,0,0,.2-.2.2-.3,0,0,0,0,0,0h0s0,0,0-.1c.3-.3-.3-.5-.5-.5s-.3,0-.5,0h0,.1c-.2,0-.4,0-.6,0-.2,0-.4.2-.6.3-.3.2-.6.5-.8.8-.3.5,0,1.2.2,1.7.1.2.2.4.4.5.2.2.4.3.6.5.3.2.7.4,1.1.6.4.2.8.3,1.2.3.7.1,1.4.1,2-.1.5-.2,1.1-.5,1.3-1.1,0-.2.1-.4.2-.6,0-.2,0-.3,0-.5,0-.1-.2-.2-.3-.3h0Z"/>
  <path class="st0" d="M330.3,287h0s0,0,0,0c0,0,0,0,0,0Z"/>
  <path class="st0" d="M357.1,244.3c-1.7-.7-4.8-.6-5.6,1.5-.2.5,0,.9.4,1.1-1.8.5-3.4,1.6-4.2,3.4-1.1,2.4-.3,5.6,1.8,7.2,1.7,1.3,3.9,1.8,6,1.5,1.9-.3,4-1.2,5.1-2.7,1.9-2.5,1.5-6,0-8.6-.8-1.5-2-2.8-3.6-3.4h0ZM357.1,253.1s0,.1,0,.2c0,.1,0,.3-.1.4-.1.3-.2.5-.4.8,0,0,0,.2-.2.3,0,0,0,0,0,0h0c0,0,0,.1,0,.1h0s0,0,0,0c0,0-.3.3-.5.5,0,0,0,0-.1,0,0,0-.2.1-.2.1-.1,0-.2.1-.4.2,0,0-.1,0-.2,0,0,0,0,0-.1,0,0,0,0,0-.1,0,0,0-.1,0-.2,0,0,0,0,0,0,0h0s0,0,0,0h0s0,0-.2,0h-.2c0,0,0,0-.1,0,0,0,0,0,0,0-.1,0-.2-.1-.3-.2-.2-.2-.4-.3-.5-.5-.2-.2-.3-.4-.5-.5,0,0,0,0,0,0,0-.1-.2-.2-.2-.4-.3-.5-.5-1-.6-1.5,0,0,0-.1,0-.2,0-.1,0-.2,0-.4,0-.1,0-.2,0-.3h0c0-.2,0-.3,0-.5,0-.6,0-1.2,0-1.7,0,0,0-.1,0-.2h0c0-.2,0-.3.1-.4,0-.2.2-.5.3-.7.1-.2.2-.2.4-.5.2-.2.3-.2.5-.3.6-.3,1.3-.3,2-.3.2,0,.4,0,.5-.2.1.1.2.3.3.4h0s0,0,0,0c0,.1.2.3.2.4.3.5.6,1.1.7,1.6.1.3.2.6.3.8,0,0,0,.1,0,.2,0,.2,0,.3,0,.5,0,.6,0,1.2,0,1.8h0Z"/>
  <path class="st0" d="M356.5,254.8s0,0,0,0c0,0,0,0,0,.1,0,0,0,0,0,0h0Z"/>
  <path class="st0" d="M354.6,256.1c.1,0,.2,0,.3-.1,0,0-.1,0-.3.1h0,0Z"/>
  <path class="st0" d="M341.8,261.6c-.6-.2-1.7-.2-2.1.5-.2.3,0,.6.1.9v.4c0,.1,0,.2-.2.3,0,.1-.2.2-.3.3,0,0,0,0,0,0h0s0,0,0,0c-.1-.1-.2-.2-.3-.3,0-.1-.1-.3-.2-.4,0-.3,0-.5,0-.7,0-.2.1-.4.2-.6,0,0,0,0,0-.1,0,0,0,0,0,0,0,0,.2-.2.3-.3h0c0,0,.1,0,.2-.1,0,0,0,0,0,0,0,0,.1,0,.1,0,0,0,0,0,.1,0h.2c0,0,.2,0,.2,0,.2,0,.4,0,.5-.2.1-.2,0-.3-.2-.3-.9-.4-1.9-.2-2.7.3-.7.4-1.3,1.1-1.5,1.9-.1.4-.1.8,0,1.3.2.5.6.8,1,1.1.7.4,1.5.6,2.3.5.5,0,.9,0,1.3-.3.4-.2.7-.3,1-.6.5-.4.8-.9.9-1.5,0-.3,0-.6,0-.8-.2-.5-.5-.9-1-1h0Z"/>
  <path class="st0" d="M322.7,201.7c-.5.2-1.2.5-1.4,1,0,0,0,.1,0,.2,0,0-.1.1,0,0-.2.1-.4.3-.5.5-.3.4-.6.8-.8,1.3-.9,2.1-.6,4.6,1.1,6.1,1.3,1.2,3.1,1.7,4.8,1.6s3.9-.4,5-1.9c1.6-2.1.5-4.8-1.1-6.5-.9-1.1-2.2-2-3.6-2.3-1.2-.3-2.4-.4-3.5,0h0ZM326.6,206.3c.2.4.4.7.5,1.1h0c0,0,0,0,0,0h0c0,0,0,.1,0,.2h0c0,.3,0,.5,0,.7s0,.2,0,.3h0v.2h0c0,0,0,0,0,0,0,.1,0,.2-.1.3,0,0,0,.1,0,.1h0c0,0-.1.1-.2.2-.1,0-.3.2-.4.2,0,0-.2,0-.3,0h0c-.1,0-.3,0-.4,0h-.2c0,0-.1,0-.2,0,0,0-.1,0-.2,0,0,0-.1,0-.2-.1,0,0-.1,0-.2-.1,0,0,0,0,0,0-.2-.1-.3-.3-.4-.4,0,0,0,0-.1-.1,0,0,0,0,0-.1-.2-.3-.4-.7-.5-1.1,0-.2-.2-.4-.2-.6,0,0,0,0,0-.1q0-.1,0,0c0-.2,0-.5,0-.5,0,.3,0,0,0,0,0-.1,0-.2,0-.3,0-.2,0-.4,0-.6,0-.4,0-.7,0-1.1h0,0,0c.2,0,.5,0,.7,0,0,0,.1,0,.2,0,.1,0,0,0,0,0,0,0,.2,0,.3,0,0,0,.1,0,.2,0,0,0,0,0,.1,0,.2,0,.3.2.5.3,0,0,.2.1.2.2h0c.3.3.7.6.9,1,0,0,.1.1.2.2h0c.1.2.2.4.4.6h0Z"/>
  <path class="st0" d="M327.1,207.5h0c0,.1,0,.2,0,.2,0,0,0-.1,0-.2h0Z"/>
  <path class="st0" d="M327.1,208.7h0c0-.1,0,0,0,0h0s0,0,0,0Z"/>
  <path class="st0" d="M191,367.6c-.2,0-.5-.1-.7-.2-.9-.2-1.8-.2-2.7,0-1.6.4-3.2,1.2-4.5,2.2-1.9,1.5-3.6,4.1-3.3,6.7.5,3.5,4.5,5,7.5,5.3,3.3.4,7.7,0,9.8-2.8.6-.8.9-1.7,1.1-2.7.2-1.1.2-2.3-.2-3.4-.3-.9-1-1.8-1.6-2.5-.3-.3-.5-.6-.8-.9,0,0-.8-.6-.2-.2-.4-.3-.6-.5-1.1-.7,0,0-.1,0-.2,0-.5-.3-1.1-.5-1.7-.5,0,0-.2-.1-.3-.2-.3-.1-.7-.2-1-.3,0,0,0,0-.1,0,0,0,0,0,0,0h0ZM191.6,372.1c.2.2.4.3.5.4.1.1.3.2.4.3,0,0,0,0,0,0,0,0,0,0,0,0h0c.1.2.1.2.1.2.2.2.4.4.6.6.2.3.4.5.6,1,.4.7.6,1.4.5,2.3-.1,1.2-1,2.1-1.9,2.6,0,0-.2,0-.2.1,0,0,0,0,0,0-.2,0-.3.1-.4.2,0,0-.1,0-.1,0h0c-.2,0-.4,0-.6.1-.1,0-.2,0-.3,0,0,0-.3,0-.4,0h-.8c-.3,0-.6-.1-.9-.2,0,0-.3,0-.4-.1-.2,0-.4-.1-.5-.2h0c0,0-.1,0-.2,0-.1,0-.3-.1-.4-.2-.1,0-.3-.2-.4-.3,0,0,0,0,0,0h0c-.2-.2-.4-.4-.5-.6,0,0,0-.1-.1-.2,0,0-.1-.2-.1-.2-.1-.2-.2-.4-.3-.6,0-.1,0-.2,0-.3,0,0,0,0,0-.1,0-.4-.2-.9-.2-1.3s0-.5,0-.7c0-.1,0-.3,0-.4,0,0,0-.1,0-.1,0-.2,0-.1,0,0,0-.4.4-1,.5-1.3.2-.4.5-.8.7-1.2h0s0,0,0-.1c0,0,0,.1,0,.1,0,0,0-.1.1-.2.1-.1.2-.2.3-.4.2-.2.4-.4.6-.6.1,0,.2-.2.3-.3h0s0,0,0,0c.3-.2.5-.3.8-.5,0,0,.1,0,.2-.1.1,0,.4-.2.4-.2,0,0,0,0,0,0h0c.2,0,.4-.2.6-.2,0,0,.2-.1.3-.1-.2.2-.3.4-.4.6-.1.6.2,1.2.6,1.6.2.2.5.4.7.7h0Z"/>
  <path class="st0" d="M111.1,291.8c-1.3-1.2-2.2-1.6-3.3-3.1-.4-.4-.9-.7-1.6-.8-.8-.9-1.7-1.7-2.8-2.3-2.9-1.7-6.8-2.7-9.9-1.1-.2.1-.5.4-.4.6,0,.7-.3,1.6-.4,2.3-.1.7-.2,1.5-.2,2.3,0,1.4.4,2.9,1.1,4.1.8,1.2,1.8,2.2,3.2,2.6,1.2.4,2.5.5,3.5,1.3,1.1,1,1.9,2.2,3.2,2.9,1.4.8,3.1.9,4.6.6,2.9-.6,5.1-2.9,4.9-5.9-.1-1.5-1-2.6-2-3.6h0ZM109.3,297.1c-.2.9-.9,1.7-1.7,2.1-.7.3-1.1.4-1.8-.1-1.1-.7-1.9-1.7-2.9-2.5-1.1-.8-2.3-1-3.5-1.3-1.3-.2-2.1-.5-3.1-1.5-1-1-1.6-2.4-1.7-3.9,0-.7,0-1.5.2-2.2.1-.5.3-1.1.6-1.6.1,0,.3,0,.4,0,.5,0,1.4.2,1.7.3.3,0,1.1.3,1.6.5.6.2,1.1.4,1.6.7.7.3,1.3.7,2,1.1-.3.3-.4.7-.2,1.2.5,1.2,1.7,2.2,2.8,2.8.5.3,1.1.6,1.7.9.3.1.5.3.7.4.3.2.4.2.5.3.5.4.6.6.8,1.2.2.5.3,1,.2,1.5h0Z"/>
  <path class="st0" d="M69.6,210.3h0s0,0,0,0Z"/>
  <path class="st0" d="M78.9,207.4c-.6-1.3-2-1.9-3.3-2.3-.2-.3-.5-.5-.7-.8-.6-.7-1.7-1.1-2.6-1.4-2.1-.5-4.3-.2-6.3.7-1.3.6-2.5,1.6-3.2,2.9-.6,1.1-.7,2.6,0,3.7.6.8,1.3,1.4,2.1,1.9,1.1.5,2.3.9,3.6,1.1,1.6.3,3.2.2,4.8-.2,1.6-.3,3.3-.9,4.6-2,1-.9,1.5-2.4.9-3.6h0ZM76.9,209.2s0,.1-.1.2c0,0,0,0,0,0h0c-.1.2-.3.3-.4.4,0,0,0,0,0,0h0c0,0-.1,0-.2.1-.2.1-.3.2-.5.3,0,0,0,0,0,0,0,0-.2,0-.3.1-.2,0-.4.1-.6.2,0,0,0,0,0,0,0,0-.1,0-.2,0-.2,0-.4,0-.6.1-.4,0-.7,0-1.1.1h-1.4c-.1,0-.2,0-.3,0-.2,0-.5-.2-.7-.3h0c-.1,0-.2-.1-.3-.2s-.5-.2-.6-.4c0,0,0,0,.1,0,0,0-.1-.1-.2-.2-.2-.2-.4-.4-.5-.6-.2-.2-.3-.5-.4-.7,0-.3,0-.5,0-.8.1-.4.3-.7.5-1,0,0,0,0,0,0,.5.2,1.1.1,1.6-.1,0,0,0,0,.1,0,0,0,0,0,0,0,0,0,.1,0,.2,0h0c.2,0,.3,0,.5-.1h0c.2,0,.4,0,.6-.1.2,0,.4,0,.6,0h0s0,0,.1,0c.1,0,.2.2.3.2,0,0,.2,0,.3.1,0,0,.4.2.2,0-.3-.1.3.1.3.1.2,0,.3,0,.5.1h.2c.2,0,.4.2.5.3.2.1.8.2.9-.1,0-.1,0-.2,0-.4,0,0,.1,0,.2.1.2.1.5.4.6.5.2.3.3.6.3.9,0,.4,0,.6-.1.8h0Z"/>
  <path class="st0" d="M69.6,210.3s-.1,0-.2-.1c0,0,0,0,0,0,0,0,0,0,.1,0Z"/>
  <path class="st0" d="M252.8,106.1c0,1.4.3,2.8,1.2,3.8,1.2,1.5,3.3,2.1,5.2,2.2,3.5.1,7.8-1.9,8.9-5.5.4-1.4.4-2.7,0-4-.3-1.2-1-2.3-2-3-3.2-2.8-8.9-2.1-11.5,1.2-.4.5-.3.9,0,1.2,0,0-.1.1-.2.2-.9,1.2-1.6,2.5-1.6,4h0ZM257.4,103.5s0-.2,0-.3c0-.3.2-.7.4-1,.7-.4,1.4-.8,2.2-1.2.2,0,.7-.3.1,0,.2,0,.3-.1.4-.2.1,0,.2,0,.4-.1h.2c-.1,0-.1,0,.2,0,.2,0,.3,0,.3,0,0,0,0,0,0,0,0,0-.1,0-.2,0h-.1,0s0,0-.1,0c0,0,0,0,.1,0h.1,0,.3c0,0,.1,0,.2,0,.1,0,.2.1.4.2h0s0,0,0,0c0,0,0,0,0,0,0,0,0,0,.1,0,0,0,0,0,0,0,0,0,0,0,0,0,.2.2.3.4.5.5h0c0,.2.1.3.2.4.1.2.2.4.3.7,0,.1,0,.2.1.3h0c0,.4,0,.6,0,.9,0,.2,0,.5,0,.7,0,.1,0,.2,0,.3,0,0,0,.1,0,.2-.2.5-.4,1-.7,1.5,0,0,0,0,0,0,0,.1-.2.2-.3.3-.2.2-.5.5-.7.7,0,0,0,0,0,0-.1,0-.3.2-.4.3s-.3.2-.4.2c0,0-.1,0-.2,0-.3.1-.7.2-1,.3h0c0,0-.3,0-.4,0h-.1s0,0,0,0c0,0,0,0,0,0,0,0-.1,0-.2-.1-.2-.2-.3-.3-.5-.4,0,0,0-.1-.1-.2,0,0,0,0,0,0,.3.4.2.3-.1-.1h0c-.3-.5-.5-.9-.7-1.4,0,0,0-.1,0-.2h0c0-.1,0-.3,0-.4,0-.3,0-.6-.1-.9,0-.3,0-.6,0-.9,0-.2,0-.3,0-.5h0Z"/>
  <path class="st0" d="M262.3,101s-.1,0-.2-.1c0,0,0,0,0,0,.1.1.2.2.2.2Z"/>
  <path class="st0" d="M259.2,108.7h0c0,0,0,0-.1,0,0,0,0,0,0,0h0Z"/>
  <path class="st0" d="M438.9,363.8c-.9-.6-2-1-3-1.3-.6-.2-1.2-.3-1.8-.4-.5,0-.9-.1-1.4,0-.3,0-.5.2-.8.3-.1,0,0,0,0,0,0,0-.1,0-.2,0-.2,0-.3.2-.4.3-.6,0-1.2.2-1.7.3-1.5.4-2.7,1.3-3.5,2.6-1.4,2-1.6,4.7-.5,6.9,1.5,3.3,5.3,4.3,8.7,3.9,2.3-.3,4.6-1.4,6.4-2.9.7-.6,1.5-1.5,1.8-2.4.3-.8.3-1.7.1-2.6-.4-2.1-1.9-3.8-3.7-4.9h0ZM437.5,369.1h0c0,0,0,0,0,0,0,0,0,0,0,0,0,.1,0,.2-.1.3-.1.3-.3.6-.5.9,0,.1-.2.3-.3.4,0,0-.1.2-.2.2-.3.3-.6.6-.9.8,0,0,0,0-.1,0,0,0,0,0,0,0,0,0-.1,0-.1,0-.2.2-.5.3-.7.4-.2.1-.4.2-.6.3h0c-.3.1-.6.2-.9.3,0,0-.2,0-.3,0h-.1c0,0,0,0-.1,0,0,0-.2,0-.2-.1,0,0,0,0-.1,0,0,0,0,0,0,0-.2-.2-.3-.3-.5-.5,0,0,0-.1-.1-.2,0,0,0,0,0,0-.3-.4-.5-.8-.6-1.3,0-.1,0-.2-.1-.4,0,0,0,0,0,0,0,0,0-.2,0-.2,0-.1,0-.3,0-.4,0-.5-.1-1-.1-1.5,0-.2,0-.4,0-.7,0-.1,0-.2,0-.4h0c.2-.5.3-1,.6-1.5,0,0,0,0,0-.1h0c0,0,.1-.2.2-.2.2-.2.3-.3.4-.5-.3.4,0,.1,0,0,0-.1.2-.2.3-.3,0,0,0,0,0,0,.2,0,.4-.2.5-.3,0,0,0,0,0,0,0,0,0,0,0,0h0c.1,0,.2-.1.3-.2-.2.1,0,0,0,0,.1,0,.3,0,.4,0,0,0,.1,0,.2,0,0,0,.2,0,.2,0,.2,0,.4.1.5.2,0,0,.2,0,.2.1,0,0,0,0,0,0,.1.1.3.2.4.3,0,0,.2.1.2.2,0,0,0,0,0,0h0c.3.2.5.4.7.7.1.1.2.3.4.4,0,0,0,.1.1.2-.2-.3,0,0,0,0,.2.3.3.6.5.9,0,.1.1.3.2.4,0,0,0,.1,0,.2h0c0,.4,0,.7,0,1,0,0,0,.2,0,.2,0,0,0,0,0,.1h0Z"/>
  <path class="st0" d="M432.9,364.2s0,0-.1,0c0,0,0,0,.1,0h0Z"/>
  <path class="st0" d="M429.3,325.2c0,.3-.1.5-.1.8,0,.5,0,.9.1,1.4.2,1.1.7,1.9,1.3,2.8.8,1,2.2,1.6,3.5,1.8,1.6.3,3.4,0,4.8-.9.9-.5,1.7-1.4,2.1-2.4.3-.9.4-1.7.3-2.6-.1-.9-.4-1.7-.9-2.5-.7-1.1-1.7-1.9-3-2.3-.8-.3-1.7-.4-2.5-.4-1.3,0-2.6.4-3.3,1.5-.1.2-.1.4,0,.5-.1,0-.2.1-.4.2,0,0-.4.2-.1,0,.3-.2-.4.2-.5.3-.4.3-.7.7-.9,1.2,0,0,0,0,0,.1,0,0,0,0,0,0,0,0,0,0,0,0,0,0,0,0,0,0,0,0-.1.1-.2.2-.1.2-.1.2-.2.4h0ZM433.4,324c.3,0,.6,0,.9,0h.4c.2.2.3.3.5.5.3.4.5.9.6,1.4,0,.5.1,1,0,1.5-.1.3-.2.6-.4.9,0,0-.1.1-.2.2,0,0-.1-.1-.2-.2-.2-.2-.3-.3-.4-.5-.5-.7-.8-1.6-1.1-2.4,0-.2,0-.3-.1-.5,0,0,0-.1,0-.1h0c0-.2,0-.4,0-.5,0-.1,0-.2,0-.4h0,0Z"/>
  <path class="st0" d="M409.2,338.6c.8,1.3,1.7,2.5,2.4,3.8,1.7,3.1.9,6.2-.5,9.2-.3.7.7,1.1,1.2,1.2.8.1,1.6,0,2.1-.7,2.1-3,3.8-6.7,1.8-10.2-1.9-3.3-5.2-5.6-7.8-8.2-.3-.3-1.3-.3-1.1.3.5,1.7,1.2,3.1,2.1,4.6h0Z"/>
  <path class="st0" d="M159.3,330.6c-4.3,2.5-7.2,7.1-8.4,11.9-.6,2.4-.8,4.9,0,7.3.8,2.8,3.1,4.3,5.9,4.8.7.1,3.4-.5,2.2-1.6-1.4-1.3-2.3-2.5-3-4.4-.7-2-.6-4.2-.4-6.2.2-2.2.7-4.4,1.5-6.5.7-1.8,1.3-3.7,2.7-5.1.2-.2-.4-.3-.5-.2h0Z"/>
  <path class="st0" d="M107.4,266.5c-3.4-1.7-6.4-3.9-9.5-6.1-1.5-1.1-2.8-2.3-4.2-3.4-1.7-1.4-3.5-2.9-5.5-3.9-.2-.1-1.1-.2-.9.3.3.9,1,1.7,1.5,2.5.5.8,1.1,1.5,1.7,2.2,1.1,1.4,2.3,2.8,3.7,4,3.1,3,7,4.8,11.2,5.8.7.2,1.5.2,2.1-.2.5-.4.4-1-.1-1.2h0Z"/>
  <path class="st0" d="M196.8,100c2.9-.9,5.6-2.1,8.4-3.1.5-.2.9-.3,1.4-.5.2,0,.4-.1.6-.2,0,0,.2,0,.2,0,0,0,0,0,.1,0,2.7-.6,5.3-1.2,8-1.7,2.2-.4,4.7-.8,6.7-.3,0,0,.3.1.4.1.2,0,.4.1.6.2.4.1.7.3,1.1.5,1.2.5,2.3,1.1,3.5,1.6,1.2.5,4.4-.5,2.5-1.9-1.4-1-2.9-2-4.5-2.7-1.9-.9-4-1.2-6-1.2-5.1-.1-10.4,1.1-15.3,2.5-2.3.7-4.5,1.9-6.7,2.8-2.7,1.2-5.3,2.7-8,3.9-1.7.8-4.1,2.1-6,1.2-.1,0-.3,0-.3.1-.4,2.8,12.3-1,13.3-1.3h0Z"/>
  <path class="st0" d="M234.8,103.5c.3.8.7,1.6,1.1,2.4.2.3.6.4.9.3.3,0,.7-.1.7-.5,0-.8,0-1.7-.2-2.5,0-.5-.1-.9-.3-1.4-.2-.4-.4-.8-.7-1.2-.2-.3-.7-.4-1.1-.4-.3,0-.8.2-.8.6,0,.4,0,.8,0,1.3,0,.5.3.9.4,1.3h0Z"/>
  <path class="st0" d="M360.6,172.8c.4,0,.7,0,1.1.1,0,0,.1,0,.2,0,0,0,.2,0,.2.1.2,0,.3.2.4.3,0,0,.1,0,.2.1t0,0h0c.1.2.3.3.4.4.1.1.3.3.4.4,0,0,.1.1.1.2,0,0,0,.1.1.2.2.3.4.7.6,1,.2.4.4.8.6,1.1.5.7,1,1.5,1.3,2.3.3.6,1.2.7,1.8.7.5,0,1.5-.3,1.4-1-.1-.9-.3-2-.7-2.8-.3-.5-.7-1-1-1.4s-.8-.8-1.3-1.1c-.9-.7-2-1.3-3.1-1.5-.5,0-1.1-.1-1.6,0-.4,0-1,.1-1.4.4-.2.2,0,.4.2.4h0Z"/>
  <path class="st0" d="M403.2,359.4s0,0,0,0c0,0,0,.1,0,.2,0,0,.1.1.2.2.1.1.2.2.4.2.1,0,.2,0,.3.1.2,0,.4,0,.6,0,.2,0,.5,0,.7-.1.2,0,.3-.1.4-.2.1,0,.2-.2.2-.3h0c.1,0,.2-.2.3-.3,0,0,0-.1.1-.2,0,0,.1-.2.2-.3,0,0,0,0,0-.1,0,0,0,0,0,0h0c0-.1,0-.3,0-.4,0,0,0,0,0-.1s0,0,0,0c0-.1,0-.2-.1-.3-.2-.2-.5-.3-.8-.3h0c-.1,0-.2,0-.3,0-.2,0-.4,0-.6,0-.1,0-.2,0-.4,0-.1,0-.2.1-.3.2,0,0,0,0,0,0,0,0-.1,0-.2,0-.1,0-.2.2-.3.2,0,0,0,0,0,0-.1.1-.2.2-.3.4,0,0,0,.1,0,.2,0,.1,0,.2,0,.3h0c0,.1,0,.2,0,.2,0,0,0,.1,0,.2h0Z"/>
  <path class="st0" d="M167.3,353.5c-.4-.1-.8-.1-1.2,0-.2,0-.5.2-.7.3,0,0,0,0,0,0-.3,0-.5.1-.7.2.2,0,.3,0,.4-.1-.3,0-.6.2-1,.3h-.2c.1,0,.2,0,.4,0-.2,0-.4.2-.6.3,0,0,0,0,0,0,0,0,0,0,0,0,0,0-.2,0-.3.1,0,0-.1,0-.2,0-.1,0-.3.2-.3.3,0,.3.2.4.4.5.2.1.4.2.6.3.3,0,.5.1.8.2.4,0,.9,0,1.3,0,1,0,2.1-.8,2.2-1.9,0-.3-.3-.5-.6-.6Z"/>
  <path class="st0" d="M210,349.1c-1.1-1.2-2.5-2.1-3.9-2.9-2.9-1.5-6.2-2.1-9.5-1.3-.4,0-.3.4.1.4,2.5,0,5,1.2,7.1,2.6,1.1.7,2,1.5,3,2.4,1,1,2,1.9,2.9,3.1.4.6,1.1.7,1.8.6.5,0,1.3-.4,1-1-.6-1.4-1.4-2.8-2.4-3.8h0Z"/>
  <path class="st0" d="M497.5,221.2c-1.5-14.3-2.9-28.7-5.4-42.9-2.3-13.3-5.4-26.6-11.4-38.8-5.9-11.8-13.7-22.5-20.6-33.7-12.6-20.4-30.1-39.1-50.8-51.5-22.9-13.7-50.7-13.4-74.2-25.6-5.6-2.9-11.2-5.7-17.4-7.2-6.7-1.6-13.5-2.7-20.3-3.8-13.7-2-27.3-4.9-41.1-6-6.3-.5-12.4-.4-18.6.9-2,.4-4,.9-5.9,1.4-3.5.3-7.1.8-10.6,1.4-.7,0-1.3,0-2,0-.8,0-2.1.2-2.7,1-14,2.9-27.6,7.8-40.7,13.4-12.6,5.4-24.9,11.4-37.1,17.6-10.9,5.5-21.8,11-31.9,17.9-20,13.9-37.1,31.5-51.4,51.2-7,9.6-13.4,19.8-19,30.3-6.4,12-10.6,24.5-14.7,37.4-4.2,13.2-4.4,26.8-4.2,40.5.3,14.4-.5,28.7-.7,43.1-.4,27.5,1.6,55.1,10.8,81.2,16.1,45.2,49.5,84.1,89.2,110.5,42.4,28.2,92.1,44.7,143.2,44.2,49.3-.4,97.6-16,138.1-44.1,19.9-13.8,38.5-30.6,52.4-50.6,14.5-20.9,23.9-44.9,31.7-69,8.4-25.6,14.4-51.6,16-78.6.8-13.5.7-27-.7-40.5h0ZM486.7,302.2c-2.6,12.6-6.4,24.9-10.3,37.1-3.8,11.7-8,23.3-12.9,34.6-5,11.5-10.8,22.7-17.9,33.1-6.8,10-14.9,18.9-23.6,27.3-34.3,32.9-79.3,55.5-126.2,63.1-49.1,8-99.3-.3-143.8-22.4-43-21.3-80.3-53.8-104.2-95.7-12.6-22-20.6-45.8-23.4-71-3.1-27.5-.4-55.1-.9-82.7-.3-14-.1-27.8,4.2-41.3,3.9-12.4,8-24.4,14.1-35.9,11.1-20.9,25-40.4,41.6-57.3,8.3-8.4,17.2-16.1,26.9-22.9,10-7,20.8-12.5,31.8-18,23.5-11.8,47.4-23.8,73.1-30,1.9-.5,3.9-.9,5.8-1.3,5.1,0,10-1,15-2.2,5.5-.5,10.9-.7,16.4-.5,1.1,0,1.8-.6,1.9-1.2,1,0,2,.1,3.1.2,13.3,1.3,26.5,4,39.7,6,6.4,1,12.9,2,19.1,3.6,6.3,1.6,11.9,4.9,17.7,7.8,11.6,5.8,24.3,8.4,36.9,11.4,12.4,3,24.4,6.5,35.4,13.2,10.5,6.5,20,14.7,28.4,23.7,8.2,8.7,15.1,18.1,21.4,28.2,6.8,10.8,14.2,21.2,19.8,32.7,5.9,12.2,8.8,25.7,11,39.1,2.3,13.9,3.8,27.9,5.1,41.9,2.5,26.4.5,53.3-4.9,79.3h0Z"/>
  <path class="st0" d="M431,383.7c-1.7,0-3.4-.4-4.8-1.3-2.7,3.7-5.5,7.3-8.5,10.8-14,16.5-30.9,30-50.3,39.6-21.3,10.5-44.2,16.4-66.3,24.9-11.2,4.3-22.3,8.2-34.5,8.7-11.1.4-22,.7-33-.8-20.1-2.8-39.8-8.3-58.3-16.8-9.2-4.2-18-9.2-26.3-15-8.6-6-16.1-13.1-23.8-20.3-16.4-15.4-33-31.2-45.5-50.1-.9-1.4-1.8-2.9-2.7-4.3-1.4-4.1-3.8-7.8-6.1-11.4-2-4.2-3.7-8.6-5.1-13.1-.3-.9-1-1.3-1.5-1.2-.3-.8-.5-1.7-.7-2.5-2.8-11.1-4.5-22.5-6.8-33.7-1.1-5.4-2.2-10.9-2.7-16.4-.5-5.6.5-11,1.1-16.5,1.3-11-.3-22.1-1.6-33-1.2-10.8-1.9-21.6.3-32.3,2.1-10.4,6-20.4,10.7-29.8,4.1-8.2,9-15.7,14.5-23-.5-1.9-1.1-3.7-1.6-5.6-.2.2-.3.5-.5.7-12.8,16.1-22.7,35.7-26.6,56-4.3,22.5,4,44.8,1.1,67.2-.7,5.4-1.3,10.7-.7,16.1.6,5.9,1.7,11.7,2.9,17.5,2.3,11.6,4,23.4,7.2,34.9,1.4,5.2,3.3,10.1,6.2,14.7.9,1.5,1.9,2.9,2.8,4.4,1.3,2.8,2.7,5.5,4.2,8.1.2.5.4,1.1.5,1.6.2.6.8,1.6,1.6,1.9,6.4,10.4,14.4,20,22.7,28.9,8,8.6,16.5,16.7,25,24.7,7.6,7.2,15.2,14.3,23.8,20.4,17,12,36.2,20.7,56.2,26.4,9.8,2.8,19.8,5,29.9,6.4,11.5,1.6,22.9,1.4,34.4.9,11.9-.5,22.8-4.3,33.8-8.5,11.5-4.4,23.3-8,34.9-12.1,22.2-7.7,43.9-17.4,62.2-32.5,12.1-10,22.7-21.7,31.7-34.6h0Z"/>
  <path class="st0" d="M153.8,85.5c2.7-1.3,5.5-2.6,8.2-3.9,20.5-9.8,42.8-16,65.3-19.2,10.9-1.5,21.9-2.2,32.9-2.5,10.5-.3,21.1-.4,31.6.3,10.7.7,21.4,2.1,31.9,4.7,10,2.5,19.6,6.4,28.8,11,36.6,18,67.8,47.6,87.7,83.2,20.8,37.2,28.8,80.1,24,122.3-3.1,26.9-10.7,53.3-23.3,77.2,1.5.3,2.9.8,4.2,1.6,7.5-14.7,13.2-30.2,17-45.9,10.3-42.4,9.1-87.2-6.2-128.2-14.7-39.5-41.4-73.9-75.8-98.3-16.9-12-35.9-22.1-56-27.4-21.1-5.6-43.2-6.1-64.8-5.4-23.1.7-45.8,3.5-68,10.1-11.1,3.3-22,7.4-32.4,12.4-3.5,1.7-7,3.4-10.4,5.1.3.2.6.3.9.4,1.5.8,3,1.6,4.5,2.6h0Z"/>
  <path class="st0" d="M68.9,374.2c1.7-.6,3.5-1.4,4.7-2.9,1.1-1.4-1-2-2.1-2.1-4-.1-7.7,1.4-11.3,2.8-1.6.6-3.1,1.3-4.7,1.9-1.7.7-3.8,1.2-5.1,2.5-1.4,1.4,1.3,2.3,2.3,2.3,2.2,0,4.2-.8,6.2-1.4,1.7-.5,3.4-1,5.1-1.5,1.7-.5,3.3-1.1,5-1.6h0Z"/>
  <path class="st0" d="M55.4,358.2c2.9-1.3,6.1-2.5,8.2-4.9.7-.8.4-1.8-.5-2.3-1.2-.6-2.7-.7-3.9-.3-2.1.7-2.9,1.1-4.7,2.1-1.2.7-2.5,1.4-3.8,2-1.2.6-2.5,1.2-3.7,1.9-1.3.6-3,1.2-3.8,2.4-.4.5.1,1.1.5,1.4.6.5,1.4.6,2.1.6,1.1,0,2.1-.3,3.2-.5.7-.2,1.5-.4,2.2-.7,1.4-.5,2.8-1,4.2-1.6h0Z"/>
  <path class="st0" d="M48.9,340.4c1-.3,2-.8,2.9-1.3.9-.5,1.4-1.6.5-2.4-.4-.3-.8-.5-1.2-.7-.7-.3-1.9-.4-2.7-.2-1.1.3-2.3.5-3.3.9-.8.3-1.6.7-2.4,1-1.7.7-3.5,1.3-5,2.4-.3.3-.7.5-.8.9,0,.4,0,.7.3,1,.8.8,2.1.9,3.1.7,2-.3,4-1,5.9-1.5.8-.3,1.7-.5,2.6-.8Z"/>
  <path class="st0" d="M49,319.6c1.1-1.1-.6-2.1-1.5-2.2-1.7-.2-3.6-.2-5.3.2-1.5.4-3,.8-4.4,1.2-1.3.3-2.5.7-3.7,1.1-1.5.5-3.4.8-4.4,2.2-.3.4,0,1.1.3,1.4.5.5,1.2.7,1.8.8,1.6.4,3.5-.2,5.1-.5,1.3-.3,2.7-.6,4-.9,2.8-.7,6.1-1,8.2-3.2h0Z"/>
  <path class="st0" d="M33.4,303c1.3-.1,2.5-.4,3.8-.6,1.5-.3,2.9-.7,4.4-1.1,1.6-.4,3.2-.9,4.4-2,.8-.7.5-1.7-.3-2.3,0,0,0,0,0,0,0,0-.2-.2-.8-.5-.3-.1-.6-.2-1-.3-.1,0-.2,0-.4,0h-1c-.2,0-.4,0-.6,0h0c-.2,0-.4,0-.6,0-.8.2-1.6.4-2.4.7-1.3.5-2.5.9-3.8,1.3-.3,0-.6.2-.9.2-.1,0-.2,0-.3,0,0,0,0,0-.1,0-.6.1-1.3.3-1.9.4-1.5.3-3.2.4-4.6,1.2-1.2.7-.9,1.9.3,2.4,0,0,.2,0,.3.1h0c1.7.6,3.7.4,5.4.2h0Z"/>
  <path class="st0" d="M42.3,277.5c-1,0-2,0-3.1.2-.8.2-1.5.3-2.3.3h0c-.1,0-.2,0-.3,0-.4,0-.7,0-1.1,0-1,0-2,0-3,.2-.8.2-1.8.4-2.1,1.2-.3.7.2,1.4.8,1.7,1.1.6,2.3.8,3.5.9,1.1.1,2.1.2,3.2.1,2.3,0,4.8-.1,6.8-1.4.7-.5,1.3-1.3.7-2.1-.7-.9-2-1.1-3-1.2h0Z"/>
  <path class="st0" d="M46.5,253.5c-.6-1.2-2.2-1.4-3.3-1.5-2.4-.1-4.8.3-7.2.7-1,.2-2,.4-3.1.6-1.4.3-2.8.6-4.1,1.3-.7.4-1.1,1.2-.6,1.9.6.8,1.8,1,2.7,1.1,1.2,0,2.5-.2,3.8-.4,1.1-.1,2.2-.3,3.3-.4,1.1-.1,2.1-.2,3.2-.4.5,0,1.1,0,1.6-.2.7-.1,1.5-.4,2.2-.6.9-.2,2.1-1.2,1.6-2.3h0Z"/>
  <path class="st0" d="M31.9,234.1c1.5.2,3.1.3,4.6.3,1.5,0,3,0,4.6-.2,1-.1,2.1-.3,2.9-.8.6-.4,1.3-1.1,1-1.9-.4-.8-1.7-1.2-2.4-1.3-1.1-.2-2.3,0-3.3.1-1.3.2-2.5.4-3.8.6-.3,0-.6,0-.9,0-.2,0-.6,0-.6,0-.7,0-1.4,0-2.1.1-.9,0-4.3,0-3.9,1.5.2.6,1.2.9,1.7,1,.7.2,1.5.4,2.3.5h0Z"/>
  <path class="st0" d="M27.6,209.8c.6.2,1.2.2,1.9.2h.5c-.2,0-.2,0,0,0,.4,0,.8,0,1.2,0,1,0,2.1,0,3.1,0,.3,0,.5,0,.8,0,.1,0,.2,0,.3,0,.3,0,.2,0-.3,0,.2,0,.7,0,.9,0s.4,0,.7,0c1.3.1,2.6.1,3.9.2.9,0,2.6-.3,3-1.3.4-1-.5-1.8-1.4-2.1-1.5-.4-3-.7-4.6-.8-1.3,0-2.7.1-4,.3-1.2.2-2.5.4-3.7.8-.6.2-.9.4-1.3.6-.6.2-1.2.4-1.5,1-.2.5.3.8.7,1h0Z"/>
  <path class="st0" d="M30.4,188.3c1.4.6,2.9.7,4.4.8,1,0,1.9,0,2.8.1,1,0,2,0,3,.1.7,0,1.5,0,2.2-.1,1-.1,2.7-.8,2.7-2s-1.7-1.9-2.7-2c-.7-.1-1.4-.2-2.2-.1-1,0-2,0-3,.1-1,0-1.9,0-2.8.1-1.5,0-3,.2-4.4.8-1,.5-1,1.7,0,2.2h0Z"/>
  <path class="st0" d="M38.7,162.4c.2.2.4.3.7.4,0,0,.2,0,.2.1.6.3,1.1.5,1.7.7.9.3,1.8.5,2.7.7,1.1.3,2.2.6,3.4.9,1.3.3,2.5.3,3.8.3.9,0,2.1-.2,2.6-1,.5-.7.1-1.5-.6-1.8-1.4-.7-2.8-1.2-4.3-1.4-1.3-.2-2.6-.4-3.8-.6-1.4-.2-2.8-.4-4.3-.4-.8,0-1.8.2-2.4.8-.5.5-.3,1.1.2,1.4h0Z"/>
  <path class="st0" d="M51,142.1c.5.2.9.5,1.4.7,1.1.5,2.1,1,3.2,1.5,1.1.5,2.2,1.1,3.4,1.4,1.8.5,3.7.8,5.6.3.6-.2,1.2-.6,1.2-1.2,0-1.2-1.5-2.1-2.4-2.5-1.2-.6-2.6-1-3.9-1.3-1.1-.3-2.3-.7-3.4-1-1.6-.5-3.2-1-4.9-.7-.9.1-1.9.6-1.6,1.7.2.6,1,1.1,1.5,1.4h0Z"/>
  <path class="st0" d="M63.5,127.5c.1,0,.2.2.3.2t0,0h0c.2.2.4.3.6.4.7.4,1.3.8,2,1.3.2.1.3.2.5.3,0,0,0,0,0,0,0,0,.2.2.3.2,0,0,.1,0,.2.1.3.2.6.5.9.7,1,.6,2.1,1,3.1,1.4.9.4,2,.3,2.9-.1.6-.3,1.2-.8.9-1.6-.4-1.1-1.1-2-2.1-2.6-1-.6-2.2-1.1-3.3-1.6-1.1-.4-2.3-.7-3.4-.9-.7-.1-1.5-.1-2.3,0-.3,0-.5.1-.8.2-.4.1-.6.3-.7.7s.2.5.3.7c.1.2.2.3.4.4h0Z"/>
  <path class="st0" d="M130.5,62.5c.1,0,.1.1.1.1,0,0,0,0,0,0,0,0,0,0,0,0,.3.3.5.5.7.8.2.2.4.4.6.6.1.1.2.2.3.4,0,0,0,0,0,0,0,0,0,0,0,.1.7,1.1,1.3,2.2,1.9,3.4.6,1.3,1.1,2.6,1.9,3.8.3.4.6.8.9,1.2.4.4.8.7,1.2,1,.7.5,1.4,1,2.2,1.3.8.4,1.7.5,2.6.2.6-.2,1.2-.7,1-1.4-.1-.3-.2-.6-.3-.9,0-.1,0-.3-.1-.4,0,0,0,0,0,0,0,0,0,0,0-.1-.2-.8-.4-1.6-.8-2.3-.7-1.3-1.5-2.6-2.4-3.9-.9-1.3-1.9-2.6-3.1-3.5-.7-.5-1.4-1-2.1-1.4-.5-.3-1.1-.4-1.7-.6.4,0-.5-.1-.6-.1-.2,0-.4,0-.6-.1-.7-.1-1.7,0-2.2.5-.5.5-.2,1.1.3,1.4h0Z"/>
  <path class="st0" d="M130.6,62.6c-.1,0,0,0,0,0h0Z"/>
  <path class="st0" d="M151.7,58.2c.3,1.1.6,2.2,1.1,3.2.6,1.2,1.4,2.4,2.5,3.1,1,.6,2.3.8,3.4.9,1.2,0,2.3-.2,3.2-.9.3-.3.4-.7.3-1.1-.2-.5-.7-.9-1-1.3,0,0,0,0,0,0,0,0-.1-.2-.2-.2-.2-.1-.3-.2-.5-.4,0,0,0,0,0,0-.1,0-.2-.2-.3-.3-.3-.3-.6-.6-.8-1-.7-1-1.3-1.9-1.9-2.9-.4-.7-.9-1.3-1.4-2-.4-.5-.7-.9-1.2-1.2-.4-.3-.9-.4-1.3-.5-.4-.3-1.5-.4-1.6.3,0,0-.2.2-.1.1-.3.2-.4.3-.6.7-.2.4-.1.7,0,1.1.2.8.3,1.6.5,2.3h0Z"/>
  <path class="st0" d="M183.2,57.9s0,0,0,0c.3-.1.2,0,0,0Z"/>
  <path class="st0" d="M176.6,50.5c.3,1.2.6,2.4.8,3.6.1.7.2,1.6.6,2.3.4.5.7.9,1.2,1.3.5.3,1,.4,1.6.5,0,0,0,0,.1,0h0c.6.1,1.2.1,1.9-.1,0,0,.2,0,.3-.1.5-.2.9-.4,1.2-.8.7-.9.4-2,.1-3-.5-1.5-1.1-3.1-1.8-4.6-.6-1.5-1.3-3-2.2-4.3-.5-.8-1.1-1.6-1.9-2.2-.7-.5-2.1-.9-2.8-.2-.6.5-.7,1-.7,1.7,0,.7.2,1.4.3,2.1.3,1.3.7,2.6,1.1,3.9h0Z"/>
  <path class="st0" d="M202,44.8c.4.6,1.1,1,1.7,1.3.8.5,1.7.8,2.7.8.9,0,2-.3,2.3-1.2.2-.5.2-1,0-1.5-.1-.6-.3-1-.6-1.5-.3-.4-.6-.8-.8-1.3-.5-.8-.9-1.7-1.3-2.5-.4-1-.8-2.1-1.2-3.1-.3-.6-.5-1.1-.9-1.6-.6-.7-1.9-1-2.8-.7-.6.2-1.1.6-1.4,1.3-.2.5-.2,1.1-.3,1.6-.1,1,0,1.9.3,2.8.4,2,1,4,2.2,5.6h0Z"/>
  <path class="st0" d="M231.6,45.6c.8,0,1.6,0,2.3-.4.4-.2.9-.8.6-1.3-.2-.3-.4-.6-.5-1,0,0,0-.2,0-.2,0,0,0,0,0-.1,0-.4-.2-.7-.4-1-.2-.5-.3-.9-.4-1.3-.1-.7-.2-1.3-.4-2-.3-1.6-.7-3.1-1.2-4.6-.3-.7-.5-1.5-.9-2.2-.2-.4-.4-.7-.5-1.1-.2-.4-.5-.8-.8-1.2s-1.5-.5-1.5.1c0,.4-.1.8-.2,1.3,0,.4,0,.7,0,1.1,0,.8,0,1.7,0,2.5,0,1.7-.2,3.3-.3,5-.1,1.2-.2,2.5.2,3.6.6,1.6,2.5,2.6,4,2.7h0Z"/>
  <path class="st0" d="M255.3,45.1c1.3,0,2.8-.4,3.1-1.8.3-1.2.4-2.4.3-3.7,0-1.2-.2-2.4-.3-3.7-.1-1.3-.3-2.5-.6-3.8-.3-1.2-1-2.3-1.6-3.4-.3-.5-1.5-.5-1.7,0-.5,1.1-1.1,2.2-1.4,3.4-.3,1.2-.5,2.5-.6,3.8-.2,2.4-.7,4.9-.3,7.3.2,1.4,1.9,1.8,3.1,1.8h0Z"/>
  <path class="st0" d="M279.1,44.5c.8.8,3.2.8,3.4-.5.2-1.2.3-2.3,0-3.6-.2-1.3-.6-2.5-.9-3.8-.3-1.2-.4-2.4-.7-3.6-.3-1.2-.6-2.4-.9-3.6-.2-.6-1.6-.5-1.8,0-.6,1.2-1.1,2.4-1.4,3.8-.3,1.2-.4,2.5-.4,3.8,0,1.3,0,2.6.4,3.9.4,1.5,1.2,2.6,2.2,3.7h0Z"/>
  <path class="st0" d="M307.1,46.1c1.3,0,2.9-.4,3.2-1.9.2-1.2.4-2.3.3-3.5,0-1.2-.2-2.4-.5-3.5-.4-2.3-1-4.7-1.6-7-.2-.8-2-.6-2.1.2-.4,2.3-.8,4.6-1.4,6.8-.3,1.2-.6,2.4-.8,3.5-.2,1.2-.2,2.3-.3,3.5,0,1.4,2.2,1.9,3.2,1.9h0Z"/>
  <path class="st0" d="M325.3,55.5c.7,0,2.6,0,2.8-1.1.3-1.4.6-2.8.9-4.2.2-1.4.3-2.8.6-4.1.5-2.6,1.3-5,1.7-7.6,0-.4-.6-.6-.9-.7-.5,0-1,0-1.4.3-2.3,2-3.9,4.6-4.9,7.4-1.1,2.8-1.6,5.6-1,8.5.2,1,1.3,1.4,2.2,1.5h0Z"/>
  <path class="st0" d="M347,59.5h0c.2,0,.4,0,.5,0h0c.3,0,.4-.1.5-.1h0c.4-.1.8-.4,1.2-.7.4-.4.8-.9,1-1.4.4-1,.4-2.2.5-3.2,0-.9.2-1.9.2-2.8,0-.5,0-1,0-1.5,0-.5-.4-.9-.7-1.3-.2-.2-.7-.2-.9,0-.5.3-1.1.6-1.4,1.1-.3.5-.6.9-.8,1.4-.5.9-.9,1.8-1.4,2.7-.5,1-1.2,2.1-1.4,3.2-.2,1.6,1.1,2.7,2.6,2.6h0Z"/>
  <path class="st0" d="M371.2,69.3c1.2.4,2.9.4,3.9-.6.2-.2.4-.5.4-.8s0,0,0-.1c0,0,0-.1,0-.2.1-.3.2-.6.2-.9,0,0,0-.2,0-.3,0,0,0,0,0,0,.1-.2.2-.4.2-.6.4-1.1.9-2.2,1.3-3.3.2-.6.4-1.3.7-1.9.2-.6.4-1.3.6-1.9.4-1.3.9-2.6,1.3-4,.4-1-1.8-1.1-2.2-.5-1.6,2.1-3.2,4.2-4.8,6.3-.8,1.1-1.6,2.1-2.3,3.2-.6.9-1.6,1.9-1.6,3.1,0,1.3,1.3,2.2,2.3,2.6h0Z"/>
  <path class="st0" d="M394.6,81.6c1,.2,2.1.3,3-.1.8-.3,1.4-.6,1.9-1.3.2-.3.3-.5.4-.8.3-.5.6-1,.8-1.6.6-1,1.1-2.1,1.6-3.2.5-1.1,1-2.1,1.3-3.2s.6-2.2,1-3.3c.4-1.1-1.9-1.2-2.4-.6-.8,1-1.7,2-2.6,2.9-.9.9-1.7,1.9-2.5,3-.8,1-1.5,2-2.3,3-.4.5-.8,1-1.2,1.5-.2.2-.4.5-.6.7-.5.6-.6,1-.3,1.7.3.7,1.3,1.1,1.9,1.3Z"/>
  <path class="st0" d="M412.5,98.7c.9.3,1.9.4,2.8.2.7-.1,1.7-.4,2.2-1,1.8-2.1,3.5-4.2,5.3-6.4.4-.5.9-1.1,1.3-1.6.4-.6.7-1.2,1.2-1.8.7-1.1,1.5-2.2,2.4-3.2.4-.5,0-.9-.5-1.1-.6-.2-1.4-.1-1.9.3-2.4,2-4.9,3.7-7.2,5.7-2.3,2-4.5,3.9-6.7,5.9-1.3,1.1.2,2.5,1.3,2.9h0Z"/>
  <path class="st0" d="M426.4,118c0,.9.9,1.4,1.6,1.6,1,.4,2.3.4,3.3,0,1.1-.4,2-.9,2.7-1.8.5-.5,1-1.1,1.4-1.6,1-1.1,2-2.1,3-3.2,2-2,3.8-4.1,5.7-6.1.5-.5,0-1-.4-1.2-.6-.3-1.5-.3-2.1,0-2.9,1.7-5.7,3.3-8.4,5.3-1.2.9-2.4,1.9-3.6,2.9-.6.5-1.3,1-1.9,1.5-.8.6-1.4,1.3-1.4,2.4h0Z"/>
  <path class="st0" d="M442.9,137c-.4,1.2.6,2,1.7,2.4.6.2,1.3.3,1.9.3,0,0,0,0-.1,0,.5,0,.9,0,1.4-.2,0,0,0,0,0,0,0,0,0,0,.1,0,.3,0,.6-.2.9-.4,0,0,0,0,0,0h0c0,0,.1,0,.2,0,.5-.3.8-.6,1.2-1,.5-.6,1-1.1,1.5-1.6,1-1,2.1-2,3.2-3,2.1-1.7,4.1-3.6,6.2-5.2.4-.3.5-.6.1-1-.4-.4-1.1-.4-1.6-.2-3.1,1-6.1,2.2-8.9,3.9-1.3.8-2.6,1.7-3.9,2.7-.7.5-1.3,1-2,1.5-.7.5-1.7,1.1-2,1.9h0Z"/>
  <path class="st0" d="M455.2,154.5c-1.4.8-3.4,1.6-4.2,3.1-.4.9.4,1.7,1.2,2,1.1.5,2.5.5,3.7.2,1.9-.6,2.6-1.4,4-2.4,1.1-.8,2.3-1.5,3.4-2.2,1.1-.7,2.3-1.3,3.4-1.9,1.1-.6,2.1-1.2,3.3-1.6.4-.2.9-.5.6-1.1-.3-.5-1.2-.6-1.7-.5-3.2.5-6.2,1.2-9.2,2.4-1.5.6-3,1.3-4.4,2.1h0Z"/>
  <path class="st0" d="M466.2,175.9c-.2,0-.4.1-.6.2-.2.1-.5.2-.7.3.2-.1.2-.1,0,0-.6.2-1.2.5-1.5,1-.3.4.1.9.5,1,.7.4,1.5.4,2.2.5h.2c.1,0,.2,0,.4,0,.1,0,.5,0,.7,0,0,0,0,0,.3,0,0,0,0,0-.2,0,.1,0,.3,0,.6,0h.2c.3,0,.6,0,1,0,.5,0,1,0,1.5,0,2.6,0,5.1-.6,7.4-1.6.6-.3,1.5-.7,1.3-1.6-.2-.8-1.2-1.3-2-1.3-2.9-.2-5.7-.2-8.5.6-1,.3-2,.5-3,.8h0Z"/>
  <path class="st0" d="M473.6,198.3c-1,0-1.9.2-2.9.3-.8.2-1.8.3-2.5.7,0,0-.1,0-.2,0-.4.1-.8.4-.7.9.1.5.7.7,1.1.7,0,0,0,0,.1,0,.7.3,1.5.3,2.2.4.7.1,1.5.2,2.3.3.8.1,1.5.2,2.3.3.4,0,.7.1,1.1.2.9.1,1.8,0,2.8,0,.9,0,2.1-.6,2.3-1.6.2-1-.8-1.6-1.6-1.9-2-.8-4.2-.6-6.3-.5h0Z"/>
  <path class="st0" d="M478.6,219.2c-.8,0-1.5,0-2.3,0-.5,0-1.1,0-1.6.1-.4,0-.9.2-1.3.4h0c-.4,0-.9.2-1.1.6-.2.4,0,.7.4.9,0,0,.1,0,.2,0,.2.2.4.4.7.6.6.4,1.4.5,2,.7.8.2,1.5.3,2.3.4,1,.1,2.1.3,3.1.2,1.3,0,2.5-.2,3.7-.6.7-.2,1.6-.8,1.4-1.7-.2-.9-1.3-1.2-2.1-1.4,1,.3-.3,0-.6-.1-.2,0-.3,0-.5-.1-.6-.1-1.3-.2-1.9-.2-.8,0-1.5,0-2.3,0h0Z"/>
  <path class="st0" d="M486.6,247.3c-1.1-.3-2.1-.5-3.2-.5h-1.3c-.6,0-1.2-.2-1.8-.3,0,0-.1,0-.2,0s-.2,0-.2,0c-.1,0-.2,0-.3,0,0,0,0,0-.1,0-.5-.3-1.2-.4-1.8-.4-.9,0-2,.3-2.5,1.1-.1.1-.3.3-.4.5-.3.5,0,1.1.3,1.4.7.7,1.7,1.1,2.6,1.4.8.3,1.7.5,2.6.7.9.2,1.9.3,2.8.3,1.5,0,2.8-.3,4.1-.9.6-.3,1.1-.9.9-1.6-.2-.7-.9-1.2-1.6-1.4h0Z"/>
  <path class="st0" d="M475.9,265.5h0c.4,0-.1,0,0,0Z"/>
  <path class="st0" d="M484.8,266.4c-.4-.1-.8-.2-1.2-.3-.4,0-.8-.1-1.2-.1-.7,0-1.4-.2-2.1-.3-.7-.1-1.4-.3-2.2-.4-.3,0-.7,0-1,0-.5,0-.8.1-1.3.2h0c-.3,0-.7.2-.8.5,0,.2-.2.4-.2.6,0,.5.6,1,1,1.3.7.5,1.4.8,2.2,1.2.6.3,1.3.5,1.9.6.9.2,1.6.4,2.5.4,1,0,2.2,0,3.1-.6.5-.4,1.4-1.1.9-1.9-.4-.6-.9-1-1.6-1.2h0Z"/>
  <path class="st0" d="M482.9,291.7c0-.2,0-.4-.1-.6-.1-.2-.3-.4-.4-.5-.2-.3-.6-.4-.9-.6-.1,0-.3-.2-.4-.2-.5-.3-1-.6-1.6-.9-.5-.3-1-.6-1.6-.9-.7-.4-1.5-.7-2.2-1.1-.2,0-.5-.1-.7-.2-.4,0-.8,0-1.2,0-.6,0-1.3.2-1.7.5-.3.2-.6.4-.8.8-.3.5,0,1,.3,1.4.3.4.7.7,1.1,1.1.4.3.8.7,1.2,1,.4.3.8.7,1.3,1,.4.3.7.6,1.2.9.7.4,1.5.5,2.3.7,1,.2,2,0,3-.4.3-.1.6-.3.9-.5.3-.3.4-.6.5-1,0,0,0-.2,0-.2s0,0,0-.1h0Z"/>
  <path class="st0" d="M476.8,308.1c-.1,0-.2-.1-.3-.2-.6-.3-1.2-.4-1.8-.6-.7-.1-1.3-.2-2-.3s-1.4-.2-2-.3c-.9,0-1.8-.1-2.7-.1-.8,0-2.6.6-1.7,1.7.4.5.9.9,1.5,1.3.7.4,1.5.7,2.3,1,2.2.8,4.9,1.3,7.1.1.5-.3,1.1-1,.7-1.5-.3-.5-.6-.8-1.1-1h0Z"/>
  <path class="st0" d="M473.2,333.1c-.4-.3-.8-.5-1.2-.7-.8-.4-1.7-.9-2.5-1.3-1-.5-2-1-3.1-1.4-1-.4-2.1-.9-3.1-1.1-.6-.1-1.4,0-2,.3-.4.2-.8.7-.5,1.1.4.7,1.2,1.3,1.8,1.9.7.7,1.5,1.3,2.3,1.9.7.5,1.4,1,2.1,1.6.4.3.7.5,1.2.8.6.3,1.2.6,1.9.7.4,0,.9,0,1.4,0,1.1,0,3-.4,3.1-1.8,0-1-.6-1.4-1.3-1.9h0Z"/>
  <path class="st0" d="M466.6,349.3c-.4-.2-.9-.4-1.4-.6-.4-.2-.8-.3-1.3-.5-.8-.4-1.5-.7-2.3-1.1-.4-.2-.9-.5-1.3-.8-.2-.1-.4-.3-.6-.4-.3-.2-.4-.3-.8-.4-.1,0-.6-.3,0,0-1-.4-2.2-.6-3.2-.2-.7.3-1.6.9-1.2,1.7.4.8,1,1.3,1.6,1.9.7.6,1.4,1.2,2.1,1.7.6.4,1.2.8,1.9,1.2.3.2.7.4,1,.5.3.1.6.3.9.4.6.2,1.2.2,1.9.3.2,0,.4,0,.6,0,.9,0,2.2-.3,2.9-1,.6-.6.6-1.3,0-2-.3-.3-.5-.5-.9-.8h0Z"/>
  <path class="st0" d="M461.9,370.1c-.3-.3-.6-.4-.9-.6,0,0,0,0,0,0-.8-.5-1.9-.8-2.8-1.2-.2,0-.3-.1-.4-.2-.4-.2-.8-.4-1.2-.6-.8-.4-1.6-.9-2.4-1.4-.3-.2-.6-.3-1-.5-.4-.2-.7-.3-1.1-.4s-.9,0-1.4,0c-.2,0-.3,0-.5.1-.1,0-.2.1-.4.2-.2.1-.4.3-.5.5-.8.7.4,1.9.9,2.4s1,1,1.5,1.5c1.5,1.2,3,2.2,4.8,2.9,1.1.4,2.2.5,3.3.4.7,0,1.4-.3,2-.7.6-.4.7-1,.5-1.6,0-.3-.2-.5-.4-.7h0Z"/>
  <path class="st0" d="M453.1,365.6h0s0,0,0,0c0,0,0,0,0,0Z"/>
  <path class="st0" d="M453.1,365.6s0,0,0,0c-.2,0,0,0,0,0Z"/>
  <path class="st0" d="M451.3,380.8c-.6-.3-1.1-.5-1.7-.7-.4-.1-.8-.3-1.2-.4-.9-.2-2-.5-2.9-.3-.5.1-1.1.3-1.4.6,0,.1-.2.2-.2.3-.1.3-.1.5,0,.7,0,.2.2.4.4.5.2.2.4.3.6.5.1,0,.2.1.3.2.3.2.5.4.8.7.2.1.3.3.4.4.3.3.6.6,1,.8.7.4,1.7.6,2.5.6.7,0,1.5-.1,2.1-.4.5-.2,1.1-.6,1.3-1.1,0-.2,0-.4.1-.5,0-.4-.2-.7-.5-1-.4-.5-1-.7-1.5-1h0Z"/>
  <path class="st0" d="M437.7,397.5c-.8-.5-1.7-.9-2.6-1.3-2-1-4-2.1-6.2-2.4-.5,0-1,0-1.5.2-.3.1-.7.4-.7.8,0,.2,0,.4.1.6,0,.2.2.3.3.5.3.4.5.8.8,1.1.3.3.7.6,1,.8.5.4,1,.7,1.4,1.1.7.5,1.4,1.1,2.2,1.5,1.2.7,2.7,1,4,1.3.9.2,2.1,0,2.8-.6.3-.2.5-.4.5-.7.1-.4,0-.7-.3-1-.5-.7-1.2-1.4-2-1.9h0Z"/>
  <path class="st0" d="M427.7,415.7c-.8-.9-1.6-1.8-2.5-2.5-1-.9-2.1-1.7-3.2-2.4-.3-.2-.5-.3-.8-.4-.3-.1-1-.5-.5-.2-.3-.1-.5-.2-.8-.3-.7-.3-1.4-.4-2.2-.5-.5,0-.9,0-1.3.2-.2.1-.7.4-.6.7,0,.3.1.6.3.9.1.2.3.4.4.6.1.2.1.1,0,0,.1.2.2.3.3.5.4.5.9,1,1.3,1.5.9,1,1.8,2.1,2.6,3.2.4.5.7,1,1,1.6.2.3.3.6.5.9.3.5.6.9,1.1,1.2.4.2.8.4,1.2.5,1.4.6,4,.3,4.8-1.1.6-1.1-.1-1.9-.7-2.7-.3-.4-.7-.9-1-1.3h0Z"/>
  <path class="st0" d="M410.5,431.2c-.9-.7-1.8-1.4-2.7-2.1-1.8-1.3-3.9-2.8-6.3-2.9-.7,0-1.6.3-1.8,1-.2.8.8,1.7,1.4,2.2.6.6,1.2,1.2,1.9,1.8.6.6,1.2,1.2,1.7,1.9.3.3.5.6.8,1,.6.7,1.5,1.1,2.3,1.3,1,.3,2.1.3,3.1,0,.7-.2,1.5-.7,1.5-1.5,0-.7-.3-1.3-.8-1.8-.3-.3-.7-.6-1.1-.9h0Z"/>
  <path class="st0" d="M391.2,441c-.8-.8-1.6-1.6-2.4-2.4-.9-.9-1.7-1.8-2.7-2.6-.4-.3-.9-.4-1.4-.3-.3,0-.9.3-.9.7,0,1.1.4,2.1.8,3.1.4,1,.8,2,1.4,2.9.6,1,1.3,2,2.1,2.9,1.1,1.3,2.5,2.2,4.2,2.5.9.1,2.2,0,2.7-.9.6-1.2-.5-2.5-1.3-3.3s-1.6-1.6-2.4-2.5h0Z"/>
  <path class="st0" d="M373.9,455.5c-.6-1-1.3-2-2.1-3-1.5-1.7-3.1-3.4-5.1-4.5-.7-.4-1.7-.5-2.4-.2-.5.2-1.2.7-.9,1.3.1.2.2.4.3.6,0,.2.2.3.3.5-.1-.1,0,0,0,0,.3.4.5.7.7,1.1.5.8.9,1.6,1.3,2.5.4.9.8,1.7,1.1,2.6.2.4.3.9.5,1.4.3.6.9,1.2,1.3,1.6.8.8,2.4,1,3.4.8.5,0,.9-.2,1.3-.5.5-.3.8-.7.9-1.3.1-.6.2-1.3,0-1.9-.2-.5-.5-.9-.7-1.3h0Z"/>
  <path class="st0" d="M350.8,466.5c-.6-.7-1.2-1.4-1.8-2.2-.1-.2-.3-.3-.4-.5,0,0,0,0,0,0h0c0-.1-.1-.2-.2-.3-.3-.5-.7-1-1.1-1.4,0,0,0,.1,0,0-.1-.1-.2-.3-.3-.4-.2-.2-.3-.5-.5-.7-.3-.4-.6-.8-.9-1.2-.7-1-1.4-1.9-2-2.9-.4-.6-2.1-.7-2.1.2-.1,1.8,0,3.7.4,5.4.2.8.5,1.7.8,2.5.4.8.8,1.6,1.2,2.3.7,1.2,1.4,2.4,2.9,2.9,1.3.5,3.2.4,4.3-.5.5-.4.6-.6.6-1.3,0-.5.1-.5,0-.8-.2-.4-.5-.7-.7-1h0Z"/>
  <path class="st0" d="M330.4,473.1c-.4-1.2-.8-2.4-1.4-3.5-.3-.6-.7-1.3-1.1-1.8s-.9-1.1-1.3-1.7c-.5-.7-2.2-.8-2.4.2-.1.6-.3,1.2-.5,1.9-.1.6-.2,1.2-.2,1.9,0,1.2.1,2.4.3,3.6.2,1.2.4,2.4.6,3.6.3,1.7.8,3.1,2.4,4,1.2.6,3.1.7,4.1-.3,1.3-1.2,1-2.7.5-4.2-.4-1.2-.7-2.4-1.1-3.5h0Z"/>
  <path class="st0" d="M307,477.8c-.2-1.1-.4-2.2-.7-3.3-.1-.5-.2-1-.3-1.5-.2-.8-.3-1.6-1-2.1-.7-.5-1.5-.8-2.3-.8s-1.8.2-2.3.8c-.4.4-.5.7-.6,1.2,0,.3,0,.6,0,.9,0,.5,0,1,0,1.5,0,1.1.1,2.2.2,3.3,0,1,.1,2.1.2,3.1,0,.3,0,.6,0,.9.1.9.6,1.2,1.3,1.7.8.6,1.6.9,2.6.9s2-.4,2.8-1.2c.4-.4.8-.8.8-1.4s-.1-.6-.2-.9c-.2-1-.4-2.1-.6-3.1h0Z"/>
  <path class="st0" d="M282.3,488.4c-.3-1.1-.5-2.2-.8-3.3-.5-2.2-.9-4.5-1.8-6.6-.5-1.1-2.3-1.3-3.3-1.3-1,0-2.6.5-2.6,1.7,0,2.2.4,4.4.7,6.6.1,1.1.3,2.1.4,3.2.2,1.3.2,2.6.9,3.7.7,1.1,2.1,1.5,3.4,1.5.6,0,1.2-.1,1.8-.3.5-.2,1.5-.6,1.6-1.2.1-.4.3-.8.3-1.2s-.1-.7-.2-1.1c-.1-.6-.3-1.1-.4-1.7h0Z"/>
  <path class="st0" d="M257.4,488.7c-.2-1.1-.3-2.3-.6-3.4-.1-.6-.3-1.2-.5-1.7-.2-.7-.6-1.2-1.1-1.7s-1.5-.6-2.1-.6c-.7,0-1.4.3-1.8.9-.2.3-.4.5-.5.8-.1.3-.2.6-.2.9-.1.5-.2,1.1-.2,1.7,0,1.1,0,2.2,0,3.3s-.2,2.5.1,3.7c.5,1.9,2.1,3.1,4.1,3,1.9-.2,3.2-1.6,3.2-3.4,0-.5-.1-1.1-.2-1.7,0-.6-.2-1.1-.3-1.7h0Z"/>
  <path class="st0" d="M232.2,476.6c-.6,0-1.3,0-1.8.4-.4.4-.7.8-1.2,1.2-.4.4-.8,1-1.1,1.4-.5.8-1,1.7-1.4,2.5s-.9,1.7-1.2,2.6c-.2.5-.3,1-.5,1.4-.1.3-.3.8-.3,1.1s.2.7.4,1c.5.9,1.7,1.3,2.7,1.3,1.1,0,2.4,0,3.2-.9.3-.3.6-.6.8-.9.2-.3.1-.7.2-1.1,0-.4.1-.8.2-1.3.1-.9.3-1.8.4-2.8v-.6c.1,0,.2-.4.2-.5.1-.5.2-.9.4-1.4.1-.4.2-.9.2-1.4,0-.5,0-.9,0-1.3,0-.5-.8-.8-1.2-.9h0Z"/>
  <path class="st0" d="M212.2,472.5c-.7-.2-1.6-.1-2.2.4-1,.9-1.9,1.8-2.7,2.8-.7,1-1.4,2.1-1.9,3.2-.5,1-.9,2.1-1.3,3.3-.2.7-.4,1.3-.5,2-.1.6,0,1.2.1,1.8.2,1.5,2.1,2,3.4,2,1.4,0,3-.4,3.4-2,.1-.5.3-1,.4-1.7,0-.6,0-1.1,0-1.7.1-1,.3-2.1.5-3.1.2-.9.4-1.8.7-2.8.4-1,.6-2,1.1-3,.3-.7-.5-1.1-1-1.2h0Z"/>
  <path class="st0" d="M81.9,387.6c-.3-.6-.8-.9-1.4-1.2-.1,0-.3-.1-.5-.2h0c-.2,0-.4-.1-.6-.2,0,0-.2,0-.2,0h0s0,0-.1,0c-1.3-.2-2.7,0-3.7.6h.1c-.3.2-.6.3-.8.5-.6.5-1.2.9-1.8,1.4-1.1.9-2.2,1.8-3.3,2.7-1.1.9-2.2,1.7-3.2,2.6-.5.4-1,.8-1.5,1.3-.5.5-1.3,1.2-1.2,2,0,1.4,2.2,1.5,3.1,1.4,1.6-.2,3-1.2,4.4-2,1.2-.7,2.3-1.5,3.4-2.3,2.4-1.6,4.8-3.1,7-4.8.5-.4.7-1.2.4-1.7h0Z"/>
  <path class="st0" d="M95.1,405.4c-.5-.4-1-.5-1.6-.6-.8,0-1.4-.1-2.2,0-1,.1-1.7.5-2.5,1.2-1.2,1-2.4,1.9-3.5,2.9-1.1,1-2.2,1.9-3.3,2.9-.5.5-1.1.9-1.5,1.5-.2.3-.3.5-.5.8-.2.3-.5.6-.7.9-.6.8,1,1.1,1.5.9,1.3-.5,2.6-.9,3.9-1.5,1.2-.6,2.3-1.3,3.5-1.9,2.3-1.3,4.4-2.6,6.7-3.9.5-.3,1.1-.9,1.1-1.5,0-.6-.3-1.1-.7-1.4h0Z"/>
  <path class="st0" d="M92.5,404.6c.3,0,.6,0,.9,0h0c-.3,0-.6,0-.8,0Z"/>
  <path class="st0" d="M112.8,419.3c-1.6-.7-4.2-.7-5.5.6-1.9,2-3.9,3.8-5.9,5.7-.9.9-1.9,1.9-2.8,2.8-.9,1-1.6,2.1-2.5,3.1-.4.5-.1.9.4,1.2.6.3,1.4.3,2,0,1.3-.8,2.7-1.5,4-2.4,1.2-.8,2.4-1.7,3.5-2.5,2.4-1.7,4.7-3.5,7.1-5.1.6-.4,1-.8,1.1-1.5,0-.8-.8-1.4-1.5-1.7h0Z"/>
  <path class="st0" d="M128.1,436.2c-1.2.2-2.3.7-3.1,1.5-.8.8-1.5,1.7-2.2,2.5-.7.8-1.4,1.6-2.1,2.4-1.6,1.8-3.1,3.7-4.1,5.9-.3.6.4,1.1.9,1.2.7.2,1.6.2,2.3-.2,2.2-1.3,4.1-2.7,6-4.4,1.7-1.5,3.4-3.1,5.1-4.6.5-.4,1-.8,1.3-1.4.3-.7.3-1.6-.4-2.2-.9-.9-2.4-.9-3.6-.7h0Z"/>
  <path class="st0" d="M143.8,446.9c-1.3,1.6-2.7,3.3-3.9,4.9-.7.9-1.4,1.8-2,2.8-.3.4-.5.8-.8,1.2-.3.4-.4.6-.5,1.1,0,.2,0,.5,0,.7,0,.5.4.9.7,1.2.5.4,1.1.6,1.7.7,1.2.2,2.8,0,3.8-.9.5-.5.9-.9,1.2-1.6.2-.5.4-.9.5-1.4.3-.8.6-1.7.9-2.6.6-1.8,1-3.6,1.5-5.4.4-1.4-2.4-1.5-3-.7h0Z"/>
  <path class="st0" d="M166.3,458c-1.5.2-2.7,1.4-3.7,2.5-.8,1-1.6,2.1-2.3,3.2-.6,1-1.3,1.9-1.9,2.9-.3.5-.6,1-.8,1.4-.4.6-.8,1.3-.9,2.1-.1,1.3,1.8,1.9,2.7,2.1.6,0,1.3,0,2,0,.7,0,1.7-.4,2.2-1,.5-.6.7-1.3,1-2l.7-1.6c.5-1.1,1-2.2,1.6-3.2.5-1,1.1-2,1.5-3.1.2-.5.6-1.1.6-1.7,0-1.4-1.7-1.7-2.8-1.6h0Z"/>
  <path class="st0" d="M189.6,465.6c-.7-.1-1.6,0-2.1.5-2,1.8-3.4,4.1-4.7,6.4-.6,1.1-1.3,2.2-2,3.3-.3.5-.6,1-.8,1.5-.7,1.6,1.3,2.6,2.5,2.8,1.5.3,3.9-.1,4.7-1.6.3-.5.4-1,.6-1.5.5-1.1.9-2.3,1.4-3.4.9-2.2,1.8-4.5,1.8-6.9,0-.6-.9-1-1.4-1.1h0Z"/>
</svg>