<?xml version="1.0" encoding="UTF-8"?>
<svg id="Camada_1" xmlns="http://www.w3.org/2000/svg" version="1.1" viewBox="0 0 853.9 426">
  <!-- Generator: Adobe Illustrator 29.8.5, SVG Export Plug-In . SVG Version: 2.1.1 Build 2)  -->
  <defs>
    <style>
      .st0 {
        fill: #f18322;
      }
    </style>
  </defs>
  <path class="st0" d="M832.6,183.2c-5.7-10.2-13.8-18.6-24.7-23.4-10.8-4.7-23-5.4-34.4-3.5-14.2,2.4-28.1,7.5-41.8,11.8-14.7,4.6-29.4,9.4-44.4,13.1-15.1,3.7-30.6,6.2-46.1,7.4-12.9,1-26.4,1.8-39.4,1.1-4.9-.3-10.2-1-14.3-4-2.3-1.7-3.5-4.2-4.8-6.7-3.5-6.9-6.5-14.7-7.8-22.4,0-.4-.2-.9-.2-1.3,2.5-7.3,1.8-16.2,1.4-23.4-.6-11.1-2.2-22.1-3.5-33.1-2.3-20.4,4.6-42.2-2.1-62-6.4-19-29.7-23.3-47.1-25.2-26.6-2.8-53-2.8-79.7-1.9-7.9.3-15.8.7-23.6.6-6.4-.1-12.8-1.4-19.1-2.2-8.6-1.1-19.3-2.4-27.9.6-2.9-.2-5.7-.3-8.6-.2-13.4.1-26.7,2.1-40.1,3.5-25.1,2.7-49.8,2-74.4-3.6-12.4-2.9-24.7-4.3-37.5-3.5-13.1.8-26,3.1-39,4.4-25.9,2.7-52.1,3.4-78.2,2.2-6.5-.3-12.9-.4-19.3.1-6,.5-11.9,2.1-17.8,2.5-9.5.7-19.3-.6-26.6,6.9-10.4,10.7-10.4,29.5-10.5,43.4-.2,23.9,3.1,47.5,4.3,71.3,1.4,26.1,1.1,51.8-5.3,77.2-3.1,12.5-6.4,24.9-7,37.8-.6,12.6.2,25.1,1.2,37.7,1.1,13.2,2.6,26.5,3.5,39.7.6,8.9.6,17.8,1,26.7.7,16.3,1.7,35.9,16.4,46,7,4.8,15.8,7.5,24,9.6,9.5,2.4,19.3,3.4,29.1,3.9,23.3,1.2,46.7,1.5,70,1.9,26.6.5,53.2,0,79.6-3.2,26.8-3.2,53.8-5.7,80.7-7.6,25.2-1.8,49.8,4.7,74.9,6.4,13.3.9,26.7.9,40,1.5,6.2.3,12.3.8,18.4,1.9,6.2,1.2,12.4,2.4,18.8,2.6,13,.3,25.5-4.1,38.4-5,11.9-.8,24.2.2,36-2.3,34.5-7.3,30.4-48.5,30-75.5,0-3.4.2-6.7.2-9.9.1-.3.2-.7.3-1,1.7-5.5,2.4-11.7,2.7-17.4.3-5.7.6-13.7-2-19.3-.5-8.9-1.2-18.3,1.4-26.7,3.6-11.5,13.6-15.3,25-14.4,15.7,1.3,31.3,3.3,46.9,4.6,14.9,1.3,29.7,2.8,44.5,5.7,14.3,2.9,28.3,6.9,42.1,11.7,12.1,4.2,23.7,9.3,36.6,10.8,24.3,2.9,48.2-5.1,61.5-26.6,13.1-21.2,9.9-48.1-1.9-69h0ZM827.7,226.4c-2.1,24.4-20.8,44.9-46,44.3-12.5-.3-23.6-5.3-35.1-9.4-14.1-5-28.5-9.2-43.2-12.4-30.2-6.6-61.4-7.7-92.1-11-13.6-1.4-28.4-1.7-39.7,7.4-7.9,6.4-10.1,16.9-10.5,26.5-.2,3.5,0,6.9,0,10.4,0,0,0,0,0,0-1.2,2.1-.6,4.4.4,6.8.2,4.6.4,9.2.2,13.8,0,1.5-.2,3-.3,4.5-1.1.8-1.6,1.9-1,3.3.3.6.5,1.3.6,1.9-.9,11.4-2.2,22.8-2.6,34.3-.2,6.6,1.2,13.1,1.1,19.7,0,.5.2,1,.5,1.3-.7,10.4-2.9,21.3-10,28.6-5.7,5.8-13.5,6.2-21.3,6.6-12.2.5-24.3.5-36.4,2.7-5.5,1-11,2.2-16.6,2.8-6.2.6-12.1-.6-18.1-1.8-12.6-2.4-25.3-2.7-38.1-3-12.7-.3-25.4-.6-37.9-2.3-11.8-1.6-23.5-3.6-35.4-4.6-25.1-2.2-50.3,1.2-75.3,3.5-25.3,2.3-50.4,6-75.9,6.8-25.1.7-50.2-.1-75.3-.8-18.8-.5-37.9,0-56.5-3.7-7.4-1.5-14.6-4.4-20-9.9-5.2-5.3-6.9-13.8-7.9-20.8-2.7-18-1.8-36.5-3.3-54.7-2.1-24.9-6.3-50.6-3.1-75.5,1.5-12,5.1-23.6,7.8-35.3,2.8-12.1,4.1-24.2,4.3-36.6.3-25.2-1.9-50-3.8-75.1-1.3-17.3-2.4-35.7.6-52.9,1-5.8,2.9-13.7,7.8-17.6,2.9-2.2,6.8-1.5,10.2-1.6,6,0,11.7-1.4,17.6-2.2,12.1-1.7,24.3-.3,36.4-.1,12.5.2,25.1,0,37.6-.7,12.4-.6,24.9-1.6,37.2-3.1,12.2-1.4,24.4-3.6,36.7-3.6,12.7,0,25.1,3.4,37.7,4.6,11.4,1.1,22.9,2,34.3,3,12.5,1.1,24.4.7,36.9-.7,12.6-1.4,25.2-3.3,37.9-3.1,11.8.2,23.4,1.7,35.2.8.6,0,1.5-.1,2.3-.3,9.6,1.2,18.9,1.5,28.8,1.2,25.8-.7,51.2-1.6,77,.6,14.6,1.2,36.9,1.7,43.7,17.6,3.7,8.8,3.2,19.1,2.8,28.4-.4,9.6-1.6,19.3-.9,28.9.8,11.1,2.8,22.1,3.6,33.3.4,5.7.6,11.4.3,17.1-.3,5.4-1.9,10.7-1,16,.2,1,.7,1.7,1.5,2.3,1.6,7.3,5,14.9,6.7,18.4,4.2,8.3,10.5,13,19.7,15.3,11.9,3.1,24.5,1.8,36.7,1.6,31.8-.7,62.6-6.6,93.1-15.7,15.1-4.5,30-9.5,45.2-13.9,11-3.2,22.5-6.5,33.8-2.6,11.4,3.9,18.7,13.7,23.7,24.1,5.5,11.3,8.4,23.7,7.3,36.2h0Z"/>
  <path class="st0" d="M777.6,203.1c-3.8-2-9.6-1.5-13.3-.9-5.8,1-12.2,3.8-14.5,9.6-2,5.1-.2,10.2,3.9,13.6,4.8,4,10.4,3.8,15.9,5.1,10.9,2.6,26.5,1.7,27.8-12.5,1-10.3-10.6-14.3-19.9-15h0ZM771.3,225.7c-1.5-.9-3.9-3.8-5.3-5.4-2.1-2.2-2.9-4.9-1.1-7.7,1.2-1.9,3-2.7,5.1-3.2,2.1,1.2,4.2,1.8,7,2.4,2.1.5,4.6,1.1,5.5,3.3,2.7,6.7-4.5,14.2-11.1,10.5h0Z"/>
  <path class="st0" d="M761.2,91.9c.9,0,.9-.9,0-.9s-.9.9,0,.9Z"/>
  <path class="st0" d="M413.4,363.1c1.4.6,2.9,1,4.3,1.3,6,3.4,12.6,6.1,18.8,8,4.9,1.5,10.9,3.1,16.3,2.7,0,0,.2,0,.2,0,1.2,0,3.1-.2,4.5-1,4.2-1.6,6.4-5.1,9.3-8.5,11.4-13.7,20.8-30.6,25.9-47.6,5.6-18.8,9.4-39.5,7.4-59.1-1-9.7-2.8-20.3-6.1-29.5-2.4-6.7-6.2-12.9-12.8-16.2-7.3-3.6-16.9-3.8-24.9-3.2-6.1.5-13.3,1.7-19.1,4.7-1.7.2-3.5.5-5.2.9-1.7-4-7.7-6.3-11.4-7.4-7-2.1-14.6-2.8-21.8-2.1-13.3,1.4-26.4,6.3-39.4,9.1-2.7.6-5.5,1.2-8.2,2-4.2-.6-8.3-1.1-12.6-1.3-6.7-.3-13.3.2-20,.6-10.4.6-21.8-.1-31.9,2.7-3.7,1-7.3,2.7-10.6,4.7-2.2-.9-4.3-1.9-6.3-2.8-4.8-2.1-9.8-4.2-14.8-5.7-1.3-.4-2.6-.7-4-.9-.5-3.6-2.3-7.6-3.8-10.5-2.5-4.6-5.9-8.8-9.8-12.2-4.1-3.6-8.8-6-13.8-7,.3-1.1.5-2.2.8-3.2,1.3-5.2,2.1-10.4,2.5-15.7.9-10.9.2-21.8.5-32.8.2-4.6.3-9.2,2-13.5,1.5-3.8,3.4-7.3,4.9-11.1,1.1-2.7,2.6-5.8,1.5-8.7-.6-1.6-1.8-2.8-2.8-4.1-1.2-1.6-1.1-2.4-2-4.2-1.9-4.1-10.1-3.9-12.9-1-4.3,4.4-6.9,9.9-9.3,15.6-.1-.1-.3-.2-.4-.3,0-2.8-.2-5.6-.3-8.4.5-12.8.6-25.8-2.4-38.3,0-.3-.1-.6-.2-.8-.1-.7-.2-1.5-.3-2.2-1.1-6.5-2.5-15.9-7.8-20.3-2-1.7-6-2.2-8.3-.6-2.5,1.8-7.3,1.6-10.3,2.4-3.1.9-6.4,2.2-7.9,5.3-2.6,5.3-.7,13.3,1.8,19.1-1,0-1.9,0-2.8,0-2.7,0-5.5,0-8.2,0-.4,0-.6,0-.8,0-.9-.2-1.9-.5-2.8-.6s-1.5,0-2.9-.3c-2.2-.4-9.3.1-9,4,.2,2.4.4,4.9,1.3,7.1-11.2,12.7-19.5,27.5-27,42.8,0,0,0,0,0,0,2-11.2,3.6-22.4,4.4-33.8.4-6.3.7-13.8-3.3-19.1,0-.1-.2-.2-.2-.3.5-1.4-.8-2.5-2-2.9-1.6-.5-3.1-.8-4.7-.8-2.7-.4-5.6,0-8.3.6,0-.1,0-.2,0-.4,0-.6,0-.9-.2-1.4-.6-1.1-2.5-.9-3.4-.3-1.6,1.3-3,4.6-4.1,6.2-2.6,3.8-4.4,8.1-5.8,12.5-2.6,8.2-4.9,16.6-7.1,25-1.1,4.1-2.2,8.2-3.2,12.3v-1c0-7.7-.3-15.4-2.9-22.7-.4-1.2-2.2-1.7-3.3-1.9-7-1.3-14.2,2.3-17.8,8.4-4.6,7.7-5.3,18.6-5,27.3.5,13.6,3.8,26.9,5.4,40.3.8,6.7,1.1,13.5,2.1,20.2.9,6.6,2.4,12.9,3.9,19.3-.4,2.2-.8,4.4-1.2,6.7-3.3,18-5.9,35.5-3.3,53.8.3,2.2,4.2,1.8,5.2.4.4-.6.8-1.1,1.3-1.6-2,4.9-3.1,10.1-3.5,15.5-1.2,15.5-.4,35,13.1,45.4,9.4,7.2,23.1,7.2,31.3,16.2,7.8,8.6,8.7,21.6,16.3,30.5,8.6,10.2,23.1,11.1,35.2,8,14.7-3.8,28.2-9.5,43.7-7.5,12.2,1.5,22.5,8.7,34.7,9.8,9,.8,25.4-2.6,22.9-15-.7-3.4-6.6-3-8.2-.6-2.2,3.2-4.5,7-8,8.9-3.3,1.7-7.1,2.2-10.7,2-10.4-.5-19.7-5-29.9-6.6-11.7-1.8-23.4-.2-34.8,2.4-5.9,1.3-12,2.9-18.1,2.6-5.9-.3-10.3-3.3-14-7.7-6.9-8.1-9.6-18.8-17.1-26.4-8.4-8.5-18.7-9.6-29.5-13-9.1-2.9-14.2-8.6-15.9-17.7-1.3-7.2-1.5-15.1-.8-22.4.8-8.7,4.3-17.3,8.6-24.9,1.7-3.1,3.7-6,6.5-8.3,2.4-2,6.7-3.2,8.2-5.8,1-1.6-1.2-3-2.4-3.4-1.4-.5-2.9-.6-4.4-.6.9-1.6,1.8-3.2,2.5-4.9,3.1,1.7,9.7,1.4,11.3-1.8,0,0,0,0,0,0,2-3.1,3.1-6.8,4.8-10.1,1.6-3.3,3.5-6.5,5.3-9.7,3.5-6.5,7.5-12.7,10.6-19.4.6-1.2,1.1-2.5,1.6-3.7-2.3,9.8-4.1,19.8-5.9,29.8-.3.1-.6.2-.8.4-1.4.8-1.3,2.2,0,3,1.5.9,3.1,1.3,4.9,1.5-.7.5-1.3,1.1-2,1.7-5.5,5-9.5,11.5-12.4,18.7-.3.4-.5.9-.7,1.4-.2.5-.3,1-.3,1.4-3,8.4-4.8,17.5-6.1,25.7-1.7,10.7,2.7,20.2,7.4,29.5,1.7,3.4,4.2,8,8,9.3,2.3.9,5.8,1,8.5.4.5.4,1.2.7,1.8.9,3.2,1.2,7.7.8,10.3-1.6,5.5-5.1,12.7-6.7,19-10.5,6.4-3.9,12-9,17.6-14,1-.9,1.9-1.7,2.9-2.6-1,5-1.8,10.1-2.5,15-1.8,14.3,2.8,28.8,16.3,35.3,9.2,4.4,20.1,7.2,30.3,8.5,6.1.8,12.2,1.3,18.3,1.5,4.7.2,11,1,14.8-2.5,3,2.8,6.5,5.1,10.5,6.9,1,.4,2,.8,3,1.2.3.2.7.4,1,.6,10.5,5.9,21.3,6.8,32,5.1,5.7,3.2,12.4,3.5,19.1,1.9,1.2-.3,1.9-.8,2.2-1.4,4.9.2,11.6.8,15.2-1.6,0,0,.1,0,.2-.1,5.6,2.7,11.5,4.6,17.5,5.9,10.7,2.4,21.6,4.1,32.6,4.4,4.3.1,21.3-.3,24.9-6h0ZM348.4,234.5c1.1-1.8,2.5-3.3,3.7-4.9,3.1-1.9,6.5-3.5,9.7-4.9,9.3-4,19.5-7,29.7-8.4-4.7,1.1-9.5,2-14.2,3.2-8.4,2-15.9,5.6-22.4,11.4-4.3,3.8-7.9,8.2-10.8,13,.7-3.4,2.3-6.4,4.2-9.4h0ZM341.7,238.2c-.2,1.3-.4,2.6-.8,3.8-.8,2.7-2.6,5.4-4.2,8,.8-4.5,2.3-8.4,5-11.8ZM238.2,220.5c1,.5,2.1.9,2.9.8,1,0,1.9-.1,2.9-.2.1,0,.2,0,.3,0-3.4.1-6.8.5-10.1,1-2.8.4-5.8.5-8.6,1.1.1-.3-.8-.3-1-.2-.1,0-.2.1-.3.2,0,0,0,0,0-.1.8-.5,1.6-.9,2.5-1.4.4-.2.8-.4,1.2-.5,1.2-.2,2.3-.2,3.1-.3.6,0,2.6-.2,3-.2,1.4,0,2.8-.1,4.2-.3h0ZM208.7,170.6c.3,1.5.7,2.9,1.1,4.3-.3.2-.6.5-1,.8,0-1.4-.1-2.7-.2-4.1v-1ZM189.7,125.2c-.3,11.9-1.9,23.7-1.7,35.6.1,5.6.4,11.2.3,16.8,0,2.4-.3,4.8-.6,7.3-.8-3-1.9-5.9-2.8-8.7-1.7-5.2-3.6-9.2-6.5-13.9-.3-.5-.6-1-.9-1.6,2.9-9.8,5.3-19.7,6.7-30,1.2-8.8,2.1-17.6,3.4-26.3.4-2.7,1-5.2,1.7-7.6.4,9.5.7,18.9.5,28.4h0ZM193.7,206.9c3.5-1.2,6.9-2.5,10.3-3.9,3.9-1.6,7.8-3.1,11.7-4.5-.2.2-.4.4-.7.7-.5.4-1,.8-1.5,1.1-.7.3-1.3.6-1.6,1-2.4,1.4-5,2.5-7.5,3.7-4.3,2.1-8.7,4.2-13.1,6.2-2,.9-4,1.8-6,2.6,2.8-2.3,5.6-4.6,8.4-6.9ZM207.8,132.2c.2-2.4.3-4.7.4-7,4.5-2.1,7.4-8.4,9.7-12.3,2.7-4.6,5.3-9.1,8.4-13.4,1.8,1.2,3.4,2.7,3.5,4.8.1,3.4-2.6,7.3-4.4,10.1-4.5,7.2-6.3,14.3-7.7,22.7-1.7,9.6-2.6,19.2-4.1,28.8-.4,2.4-.8,4.8-1.4,7.2,0,0-.2.1-.3.2.3-2.8-.2-5.9-.5-8.5-.5-5.6-1.3-11.1-2.1-16.7-.7-5.2-1.3-10.3-1.6-15.3,0-.2,0-.4,0-.6h0ZM188.1,40.8c.4,1.2,1,2.4,1.5,3.6-1.1-.2-2.2-.5-3.3-.7-.3-1-1.3-1.6-2.6-2,1.4-.4,2.9-.7,4.4-.9h0ZM183.5,48.6c3.1-1.4,5.7-1.2,7.9.2,0,.3.2.6.3.9-.5.1-.8.4-1,.8-1.2,4.6-1.8,9.4-2.1,14.3-.3-.1-.6-.3-.9-.4-2-.8-4.1-1.3-6.3-1.7-.8-4.6-3-9.2-3.1-13.9,1.8.4,3.9.2,5.1-.3h0ZM106.2,63.3c.8.1,1.6,0,2.3-.2.3-.1.5-.2.8-.3,1-.1,2-.2,3-.1,0,1.6.3,3.2-1,4.7-.7.8,1,1,1.5.8,1.4-.6,3.1-1.3,4.6-2.3,2.7,6.9-1,21.5-1.8,26.2-.8,4.3-1.6,8.7-2.5,13,.7-5.2,1.2-10.4,1.6-15.7.4-5.4.6-11.1-1-16.4-1.3-4.3-4.2-7.2-7.8-9.7.2,0,.3,0,.5,0h0ZM68.2,105.3c.2-3.3.3-6.8,1-10,.6-2.5.7-3.4,1.7-3.5,2.4,7,2.8,14.1,2.5,21.4-.3,7.2-1.7,14.4,0,21.5.3,1.1,1.8,1.6,3.4,1.6-1.2,5.9-2.5,11.9-3.6,17.9-1.2,6.3-2.3,12.6-3.4,18.9,0-1.2,0-2.5,0-3.7,0-11.8-1.8-23.3-2.7-35-.7-9.8.3-19.3,1-29.1h0ZM95.1,186.9c-2,12.9-4.8,25.4-7.8,38,.3-4.9.4-9.9.8-14.8.5-7.7,2-14.9,4.8-22,.9-2.5,2-4.8,3.2-7.1-.3,2-.7,4-1,5.9h0ZM89.4,165.4c-1.4,6.7-2.3,13.2-4.2,19.8-1.8,6.1-3.4,12.4-4.1,18.8-.9,8.2-.5,16.5-1.4,24.7-.5,4.5-1.5,8.8-2.9,13-1.1,3.2-2.1,7-3.8,10.2-.5.6-1,1.2-1.5,1.8-.2.2-.3.4-.5.6-1.6.8-3.1,1.6-4.6,2.6,2.5-15.7,7.1-31.2,10.9-46.7,4.3-17.5,6.4-35.5,9.1-53.4,2.7-17.8,5.8-35.5,9.7-53,2-8.7,4-17.5,6.2-26.1,1-4,2.1-8.1,2.9-12.2.1-.6.2-1.1.3-1.7,0,.1.2.2.3.3,1.4,1.6.8,2.1.7,3.9,0,2,.5,4.1.5,6.1,0,5.1-1,10.2-2.2,15.2-2.9,11.2-4.8,22.5-6.6,33.9-2.3,14.3-5.8,28.2-8.8,42.3h0ZM118.9,181.6c-2.5,7.3-5,14.5-8.1,21.6-3,4.2-6.1,8.4-9.1,12.6-1.2,1.6-2.5,3.4-3.8,5.2,3.3-11.8,5.7-23.7,7.8-35.9.6-3.4,1.3-6.8,2-10.2.3,0,.6-.1.9-.3,1-.7,1.2-1.1,1.5-2.4,0-.3-.1-.5-.4-.6,1.4-4.4,3.6-8.7,5-13.1,1.7-5.3,3.4-10.5,5.5-15.6,3.6-8.8,6.9-17.6,10.4-26.4,5.4-13.7,11.2-28,19.1-40.7.1,0,.3,0,.4,0,.6.4,1.3.8,2,1,.8.3,2.7.3,4.1,0,1.4.4,2.7.8,4,1.4-1.8.1-4.1.8-4.7,2.1-3.4-.5-7.6.7-7.8,3.6-.8,11.3-5.5,21.7-10.2,31.8-2.2,4.8-4.5,9.8-5.8,14.9-1.4,5.6-2.1,11.3-3,16.9-1.9,11.7-5.8,22.9-9.7,34h0ZM125.2,173.7c3.4-8.7,7.4-17,11.3-25.6,1.4-3,2.9-6,4.4-9.1-4.3,11.2-9.5,22-14.7,32.7-.3.6-.6,1.3-.9,1.9h0ZM139.4,162.9c.2-.6-.3-1-.9-1.2,1.2-3.2,2.4-6.4,3.6-9.6.6-1.6,1.2-3.2,1.8-4.8,2.9-6.1,5.6-12.3,8.1-18.6,0-.2.2-.5.3-.7,2.8-5.4,5.9-10.7,9.8-15.4,3.7-4.6,7.8-9,11.1-14,2.8-4.2,6.1-8.8,5.7-14.2-.6-9.3-10.5-13.3-19.6-14,0-.2,0-.5,0-.7h0c1.2,0,2.4.2,3.6.3,4.5.3,9.1.4,13.6,1,2.4.4,5.1.7,7.5,1.6-.2.4-.3.9-.3,1.5,0,.7.2,1.5.3,2.2.3,1.7,3.9,1.7,4.2,0,0-.3.1-.6.2-.9,0,0,0,.1.1.2,0,3,.2,6,.3,8.9-.4,1.1-.9,2.1-1.4,3.1-3.8,8-6.7,16.1-9.2,24.3-.2,0-.3,0-.4.2-5.8,7.3-9.4,16-13.1,24.5-4.3,10.1-9.6,19.5-13.1,30-3.6,10.9-6.3,22.2-10.7,32.9-1.9,4.5-4.9,8.3-7,12.7-1,2-1.6,3.8-2.8,5.7-.9,1.4-1.6,2.5-1.5,3.8-.6.1-1.3.2-1.9.3-1.2.1-2.4.2-3.6.4,8.3-18.8,9-40.1,15.2-59.5h0ZM176.6,117.7c-.9,3.5-1.8,6.9-2.7,10.5-3.1,12.5-6.9,24.5-11.3,36.5,2.1-8.4,4.8-16.6,7-25,1.9-7.3,3.8-14.9,7-21.9ZM163.4,202.7c2.3-7.5,4.8-15,7.5-22.4.4-1,.7-2,1.1-3,1.1,4.6,2.1,9.3,2.9,14,.5,3.3,1.2,6.2,2,9.2-3.9,2.1-7.7,4.3-11.6,6.3-1.2.6-2.5,1.3-3.8,1.9.7-2,1.3-4.1,1.9-6.1h0ZM148.3,224.8c-1,1-2,2-2.9,3.1-4.5,1.8-8.9,3.6-13.3,5.6-.8.4-1.7.8-2.7,1.2,5.9-4,12.3-7.1,18.9-9.9h0ZM159.5,220.2c2.8-1.1,5.5-2.3,8.3-3.5,1.2-.5,2.3-1.1,3.5-1.6-2.9,2.1-5.9,3.9-9.1,5.5-3.6,1.8-7.3,3.4-10.9,4.9,2.6-2,5.4-3.8,8.3-5.3h0ZM113.1,253.5c.7,0,1.4,0,2-.1-1,1.8-1.9,3.8-2.6,5.8-.1.3-.6,1.5-1.2,3.1.3-3,.9-6,1.8-8.8h0ZM186.2,326.3c-1.9-4.3-1.8-8.3-.8-12.2,0,4.1,0,8.7,1.1,12.8-.1-.2-.2-.4-.3-.6h0ZM190.3,251.1c-3,6.2-5.6,12.7-7.7,19.4-.4.3-.8.6-1.2.9-5.7,4.6-11.6,9.1-17.1,13.9-6.1,5.3-12.1,11-19.4,14.8-6.7,3.5-14.2,5.4-19.4,11.2-.3.4-.6.7-.7,1.1-.4-.9-1.1-1.9-1.5-2.8-1.2-2.9-1.8-5.9-2.7-8.8-2.1-7.6-5.7-14.8-7.9-22.4-.8-2.8-1.3-5.8-1.5-8.8,2.8-3.3,5.8-8.5,6.4-9.5,6.3-9.5,16.9-15.4,27.1-20,19.4-8.8,39.9-14.7,59.2-23.7,4.4-2,8.6-4.4,12.4-7.4.7-.5,1.5-1.2,2.3-1.8,4.5,1.6,9.7,2,14.2,3.4.6.7,1.3,1.4,1.9,2-3.9.4-7.9,1.6-10.7,2.8-2,.8-5.4,2.7-5.4,5.3h0c-12.1,7-22.1,18.2-28.2,30.5h0ZM223,226.3c-1.2,0-2.4,0-3.6.2.7-.5,1.4-1,2.1-1.5.1,0,.2.2.3.3,0,.2.2.4.4.5.1,0,.2.1.3.2.1.1.3.2.4.3h0ZM247.6,258.9c-4.2,8.5-8,17.9-9.2,27.4-.7,5.2-.8,10.7-.4,16.1-3.1.7-6.5,1.8-8.2,4.2-.8,1.2,2,1.6,2.5,1.5,2.1-.4,4-1.3,6-2.2.2,2.1.5,4.1.8,6.1,1.6,10.3,5.1,20.7,11.3,29-1.6-.3-3.3-.4-4.8-.4-.7-1.6-4.5-2.5-7.3-2,.1,0-.1-.1-.6,0,.2,0,.4,0,.5,0-1,.2-1.8.5-2.3,1,.7-.7,1.4-1,1.8-1.1-.1,0-.3,0-.4,0-.8-.2-1.8-.2-2.6-.3-3.1-.4-6.2-1-9.3-1.6-5.1-1-10.1-1.9-15.2-2.5-3.7-.4-6.4-.9-8.4-2.4-1.1-2.9-.7-7.4-.8-9.8-.3-4.6.2-9.2.5-13.8.4-5.1.2-10.2.9-15.3,1-7.1,1.8-14.1,2.8-21.2,1.2-8.6,2.6-17.7,6.2-25.8,0-.1.2-.3.2-.4,2.7-4.3,6-8.7,9.9-12.2,2.2-1,4.6-1.5,7.6-1.9,3.2-.5,6.2-1.2,8.8-2.8,2.5.2,5,.4,7.4.6,4.2.3,8.5,0,12.6.7,2.9.5,5.6,1.8,8.3,2.5-7.8,7.8-13.9,17.7-18.4,26.7h0ZM269.3,339.2c-1.3-1.8-2.4-3.7-3.3-5.8,0-.5,0-1,0-1.6.1-2.4.8-4.6,1.2-6.9.6-2.7.7-5.6,1.1-8.4.9-4.9,2.1-9.8,2.6-14.8.6-5.8.7-11.7,1.4-17.5,1.8-14.8,4.9-28.8,11-42.4,1.1-2.6,2.3-5.7,3.8-8.2,3.1-1.2,6.3-2.3,9.3-3.2,5.7-1.8,11.8-3.1,17.8-3.4,2.1.1,4.2.2,6.3,0,2.9.2,4.9-1.7,4.7-3.4,4-.4,8-.8,12-1.3.3,0,.6,0,.8-.1-4.9,2.5-9.3,5.9-12.8,10.3-7.1,9.1-10.6,21.4-14,32.3-3.2,10.4-5.6,20.8-5.7,31.7,0,5.2.9,10.5,1.6,15.6.7,4.7,1.6,9.3,3,13.8,2.1,6.8,5.2,13.2,9.7,18.7-14.1-1.6-28.4-1.4-42.5-3.3-3.1-.4-5.9-1-8-2.3h0ZM335.8,266.7c-.3,1.4-.6,2.7-1,4.1-.8,3.2-2,6.4-3.3,9.6.2-1.9.5-3.8.8-5.7.8-2.2,1.7-4.5,2.8-6.7.2-.4.4-.9.6-1.3h0ZM280.7,349.3c-2.2-1.2-4.2-2.7-6-4.2,3.6,1.8,7.4,2.7,11.3,3.7,3.3.9,5.8,2,8.3,4.5-4.5-.3-8.9-1.5-13.5-4ZM321.5,348.1c-1.1-.2-3.7.7-3.2,1.8-4.6,1.1-9.1,2.2-13.5,2.9-1.2-.4-2.4-.9-3.7-1.3-8.7-3-18.3-3-26.6-6.8,0,0-.2,0-.3,0-.4-.3-.7-.6-1.1-1,6.2,1.7,13.4,1.8,19.3,2.1,9.7.5,19.4.2,29,.9.5.6,1.1,1.2,1.7,1.7-.5,0-1-.2-1.6-.3h0ZM319.3,328.3c-.6-1.6-1.1-3.2-1.5-4.9,1.2,0,2.4-.3,3.3-.7,0,1.7-.1,3.3.1,5,.6,4.4,2.4,8.2,5.1,11.7,5.5,7.1,14.3,11.3,22.3,15.1-12.9-4.4-24.1-12.4-29.3-26.1h0ZM374.3,357.4c-1.1-.3-2.2-.6-3.3-.9,5.2.3,10.4.3,15.6.2,0,.1-.1.2-.2.4-.3,1,.1,1.8.8,2.4-4.2.5-9.8-1.3-13-2.1h0ZM397.8,355c-2.7,0-5.3-.1-8,.2h0c-.6,0-1.3.2-1.8.4-12.3-.5-25.2-1.1-36.5-6-6.4-2.8-12.1-7.1-16.3-12.8-4.6-6.1-5.2-14.2-3.3-21.4,3.6-14,11.8-26,16.5-39.6,4.3-12.4,5.5-25.9,12.5-37.3,4.5-7.3,11.8-12.6,19.8-15.7,8.4-3.2,17.5-4.2,25.9-7.6.5-.2.9-.5,1.1-.7.9,0,1.7.1,2.6.2,4.5.4,8.9,1.9,13.2,3.1-20.3,6.1-39.2,19.4-45.8,39.5-4.5,13.7-7.6,29.4-6.4,43.8,1.2,14.6,7.4,27.8,15.6,39.7,3.6,5.2,7.5,10.2,12.6,14.1-.5,0-1.1.1-1.6.2h0ZM394,251.9h0c1-2,2.2-4,3.6-5.9-.9,1.9-1.6,3.8-2.3,5.8-.5,0-1,0-1.3,0h0ZM394.2,255.7c-.7,2.6-1.2,5.2-1.6,7.7-1.4,8.2-.8,16.1-3.9,24-.2.5-.4,1-.6,1.5-.4-1-.8-2.1-.9-3.2-.6-3.9-.4-8,.1-12,.9-6.1,2.9-13,6.9-18h0ZM398,320.3c-2.7-7-2.6-14.9-1.9-22.2.6-7.5.9-14.9,1.7-22.4.7-7.2,2.6-14.6,6.9-20.7,4.3-6.1,9.4-12.1,14.3-17.8,4.6-5.3,10-10.1,16-13.7.2-.2.5-.3.8-.5,1.1,0,2,0,2.5,0,6.2-1.6,11.3-5.2,17.4-6.9.1,0,.2,0,.3,0,.3,0,.6-.2,1-.2,6.4-1.4,14.2-1.6,19.5,2.7,4.6,3.7,7.2,9.4,9.4,14.7,3.3,7.9,5.7,15.3,6.1,24,.8,17.6-4.1,33.3-9.6,49.7-.5-.2-1.2-.4-2.1-.4-4.6,0-4.6,4.4,0,4.4s.5,0,.7,0c-5.1,14.7-11,28.6-18.3,42.4-1.4,2.6-2,5.3-2.7,8.1-.5,2.2-.2,5.9-2.6,6.7-.3,0-.6.2-.9.2-1.2-.4-2.6-.6-3.5-.6-11.9.6-22.5-6.6-30.3-14.8-5.1-5.3-9.9-10.4-16-14.1-2.2-6.4-6.2-12.2-8.6-18.5h0Z"/>
  <path class="st0" d="M436.2,202c-.3.1-.7.5-.4.8,1,.8,2.1,1.6,3.4,1.9.2,0,.5,0,.8,0,.1,0,.3-.3,0-.4-.9-.6-1.8-1.3-2.5-2-.3-.3-.9-.4-1.3-.2h0Z"/>
  <path class="st0" d="M397.6,194.8c1.5,6.4,6.9,9.5,13.1,10.5,1.6.3,3.2.3,4.8.4.4,0,.8,0,1.2,0,.3,0,.5,0,.6,0,.1,0,.2,0,.4,0,0,0,0,0,.1,0,.3.1,1.2.5,1.3.5.8.2,1.5.4,2.3.5,1.3,2,7.2,2.5,7.4-.6,0-1.1.4-1.5,1.1-2.4,1.1-1.6-.7-3.4-1.9-4.2-2-1.3-4.4-2-6.8-2.3-1.3-.2-2.6-.2-3.9-.3-.5,0-2.8-.2-2,0-1.5-.1-1.6,0-2.6-1.5-2-2.9-1.3-6.9-1-10.2.3-3.4.7-7.2-.9-10.4-1.4-2.7-4.4-4.9-6.9-6.5-6.4-4.1-13.1-8.3-19.8-12-11.8-6.6-25-8.4-37.9-4-7.5,2.6-14.9,6.3-21,11.4-5.5,4.5-9.7,10.3-14.2,15.8-5.3,6.4-10.4,12.5-18.5,15.3-4.1,1.4-8.2,2.1-12.6,2-4-.1-8.1-1.5-12.1-1.2,0,0,0,0,.1,0-1.6.1-3,.8-2.4,2.3.8,2.1,4.6,3.1,6.5,3.7,3.8,1.2,7.8,1.8,11.8,1.9,8.1.3,16.2-1.7,23.3-5.4,6.7-3.5,12.3-8.8,16.6-15,4-5.7,7.3-12,11.7-17.3,11.7-14,30.8-17.5,46.2-7.4,3.3,2.2,6,4.9,9.1,7.5,2.5,2,5.7,4.2,7,7.3,3.1,6.8-2.1,14.3-.4,21.4h0Z"/>
  <path class="st0" d="M365,188.1c-2.9-2.5-6.5-3.4-10.2-3.4-1.5-.3-3.6-.2-4.9.7-1.4,1-2,2-2.1,3.7,0,.8.1,1.8.4,2.5.7,1.8,2.5,3,4,4.1,1.6,1.1,3.9,1.2,5.7,1.1,1.8-.1,3.7-.6,5-1.9.5-.5.9-1.1,1.4-1.7.2-.3.5-.6.7-.9,0,0,.2-.2.2-.3,0,0-.1.2-.2.3,1-1.3,1.5-2.9,0-4.2h0Z"/>
  <path class="st0" d="M365.2,191.9c.2-.2.1-.1,0,0h0Z"/>
  <path class="st0" d="M265.8,172.6c-2.9-.2-5.7.4-8.4,1.1-2.7.7-6,1.5-8.1,3.5-5.7,5.5,2.8,11.7,8.1,12.7,5.2,1,11.9-1.2,11.4-7.6-.4-4.1-3.4-7.6-7.2-8.4,1.4-.4,2.9-.6,4.3-.5,1,0,.9-.8,0-.9h0ZM261.6,181.9c0,1.1-.4,2.2-1.2,3,0,0-.1.1-.2.2,0,0-.2,0-.4-.1-3.3-1.5-6.7-3.1-4.1-6.9.5-.8,1.2-1.5,1.9-2,2.1,1.3,4.1,3,4,5.9h0Z"/>
  <path class="st0" d="M82.8,299.2c-1.3.3-3.4.9-3.6,2.4-.3,1.5,1.2,2.4,2.4,2.9.3,0,.5.2.8.3.6.5,1.3.9,2,1.1,1.2.4,2.4.4,3.7.5,1.8.1,4.2-.5,5.4-1.8,1-1,1.2-2.7,0-3.7-1.8-1.5-3.6-1.9-5.7-2-1.6-.1-3.3-.2-4.9.1h0Z"/>
  <path class="st0" d="M156.9,343.5c1.5-.8-1-1.8-1.9-1.4-4.5,1.8-8.8,5.6-10.3,10.4-1.8,5.8,3,8.9,8.4,8.6,5-.3,14.4-4.4,11.7-10.9-2.1-4.9-8-4.6-12.1-2.3.9-1.8,2.4-3.3,4.2-4.3h0ZM153.6,351.4c.4-.3,1.6-1.3,2.1-1.4.1,0,.3.1.4.4.5.9.7,1.6.1,2.7-.7,1.2-2.3,2-3.7,2.4-.3-.5-.8-1.3-.9-1.6-.2-.7-.2-1.4-.1-2.2.8,0,1.6,0,2-.3h0Z"/>
  <path class="st0" d="M116.5,370.9c-2.4-1.2-5-1.7-7.6-2.5-1.3-.4-2.6-.7-3.9-.8-.5-.2-1-.3-1.5-.3-.2,0-1.3.2-1.5.2-.2-.1-1,0-.7.3,0,0,.1.1.2.2-.4,0-.7.2-1,.4,0,0,0,0,0,0-.4.2-.7.3-1,.5-.2.1-.4.3-.6.4h0c-.4.4-.6.8-.7,1.5-.2.9,1,1.7,1.5,2.1,3.5,2.6,9.2,1,13.3,1.5,1.2.2,3.1,0,4-.9.8-.8.5-2-.6-2.5h0Z"/>
  <path class="st0" d="M209.1,380c-.8-.4-1.8-.3-2.5,0-2.3,1.2-4.4,2.8-6.8,3.9,0,0,0,0,0,0-.2.1-.4.3-.6.4-1.7,1.3.7,2.8,1.8,3.1,1.6.4,3.5.2,4.6-.9,0,0,0,0,0,0,0,0,.1-.2.2-.3.8-.1,1.7-.4,2.1-1.2.2-.5,0-.9-.3-1.3.6-.8,1.2-1.6,1.9-2.4.5-.6.1-1.2-.5-1.4h0Z"/>
  <path class="st0" d="M230.7,272.6c-.7,0-1.4,0-2,0-1.6-1-3.9-1.3-5.7-1.1-1.8,0-3.5.6-4.4,1.9-1.9,2.8,2.8,4.3,4.8,4.2.1,0,.3,0,.4,0,.8.8,1.7,1.5,2.7,2,1.2.7,2.9.8,4.2.1,1-.5,1.7-1.4.8-2.4-.9-1-.7-1.7-1.1-2.7.2,0,.4,0,.7-.1,2-.3,1.2-1.9-.5-2h0Z"/>
  <path class="st0" d="M287.2,287.3c1.2.6,2.7.7,4,.3,1-.3,1.9-1.1,1.5-2.2,0-.3-.1-.5-.1-.6,0-.1,0-1,0-.4.1-.7.2-1.2.1-1.9,0-2.9-3.2-3.7-5.6-3.3-2.2.4-4.9,2.1-3.9,4.7.6,1.6,2.5,2.6,4,3.4Z"/>
  <path class="st0" d="M288.5,307.4c-.8,1,1.5,1.2,2.1.7,1.6-1.4,3.4-2.6,5.6-2.7.8,0,1.3-.9.2-1-3-.3-6,.6-7.9,3h0Z"/>
  <path class="st0" d="M355.6,303.5c0,0-.5-.7-.6-.8,0,0-.9-.7-.9-.7-.1,0-1.1-.5-1.2-.5-.2,0-1.2-.3-1.4-.3-.5,0-1,0-1.5-.1h0c-.5,0-1.1,0-1.6.1-.3,0-.5.1-.8.2-.2,0-.5.1-.8.2-.7.2-1.3.5-1.9.8-.7.4-1.3.9-1.6,1.6-.3.7-.3,1.3,0,2,.4.7.9,1.3,1.6,1.6.6.4,1.3.6,2.1.8.8.2,1.6.3,2.5.3,1.1,0,2.2-.2,3.2-.5.9-.3,1.6-.7,2.3-1.3.5-.5.8-1.1.9-1.9,0,0,0-.1,0-.2,0-.1,0-.3,0-.3,0-.3,0-.7-.2-1h0Z"/>
  <path class="st0" d="M364.6,269.5c-1.4-.8-3.1-1.1-4.7-1.1-2,0-4.3.4-5.7,2.1-.5.6-.9,1.1-.9,1.9,0,.4.1.8.2,1.2.2.6.5,1.1.7,1.8l.5.7c.4.4.8.6,1.2.8.9.4,1.9.6,2.9.6,1.3,0,3-.3,4-1.3.2,0,.4,0,.5-.1,1.2-.3,2.5-.9,2.7-2.3h0c.2-.5.4-1.1.4-1.6,0-1.1-.9-2-1.8-2.5h0Z"/>
  <path class="st0" d="M359.8,300.5h0c0,0,.2,0,.3,0,.2,0,.3,0,.5,0,.5,0,1.1.1,1.6,0,.5,0,1-.1,1.5-.3.3-.1.5-.2.8-.4.4-.2.8-.6,1-1l.4-.5c.2-.5.2-1,0-1.6-.3-.6-.7-1-1.3-1.3-.7-.4-1.4-.6-2.2-.8-.9-.1-1.8-.1-2.7,0-.8.1-1.1.2-1.7.5-.3.1-.6.3-.9.5-.4.2-.7.6-.9,1,.7,2.3,1.9,3.6,3.7,3.7h0Z"/>
  <path class="st0" d="M363.5,322.5c-1.9-.5-4.1-.2-5.6,1.1,0,0,0,0,0,0-.8.7-.8,1.9,0,2.6,0,0,0,0,0,0,1.4,1.2,3.3,1.5,5.1,1.2.8-.1,1.7-.4,2.3-.9.5-.4,1-.9,1-1.6-.1-1.4-1.6-2.1-2.8-2.4h0Z"/>
  <path class="st0" d="M420.6,300.1c1.6.7,3.9.9,5.6.2,1.1-.4,2.5-1.2,2.5-2.5s-1.5-2.2-2.7-2.6c-.3-.4-.5-.8-.7-1.2-.9-1.7-4.6-1.7-5.6,0-.4.7-.6,1.4-.7,2.1,0,.1,0,.3,0,.4v.2h0c0,0-.1.2-.2.3-.7,1.4.7,2.6,1.8,3.1h0Z"/>
  <path class="st0" d="M424.3,274.6c1.1-1.4,2.4-2.5,3.6-3.8,1-1.1,2-1.6,3.5-1.8,1.7-.2,1.6-1.8,0-2-5.4-.9-12.3.6-13.3,6.7-.4,2.4,5.2,2.2,6.2,1Z"/>
  <path class="st0" d="M449.6,267.3c.4.2.9.5,1.3.7.5.2,1,.4,1.5.4.5,0,1.1,0,1.6-.2.3-.1.7-.3.9-.5.3-.3.4-.7.3-1.1-.1-.3-.3-.7-.4-1-.3-.8-1.4-1.2-2.2-1.3-.8-.1-1.6,0-2.4.2-.5.2-1.2.5-1.4,1.1-.3.7.2,1.4.8,1.7h0Z"/>
  <path class="st0" d="M447.8,299.1c1.9-.2,4.5-1,5.9-2.4.9-.9,1.4-1.9,1.6-3.1.2-1.2-1.2-2-2.1-2.4-1.5-.7-3-.7-4.6-.6,0,0,0,0-.1,0-.4,0-.8,0-1.2,0-.2,0-.6,0-.7,0-.2,0-.5,0-.7,0-1.6.3-3.2.8-4.6,1.6-.9.5-1.6,1.2-1.9,2.3-.2.9,0,1.9.8,2.5,2.1,1.9,5.1,2,7.7,1.8h0Z"/>
  <path class="st0" d="M446.8,281.4c1.2.3,2.5.4,3.7.2,1.2-.2,2.5-.6,3.4-1.5.1-.1.2-.2.4-.3.4-.4.6-.8.7-1.2.1-.3.2-.7.2-1,0-.3.9,1.3-.2-.8-.3-.5-.7-.9-1.2-1.2-.3-.2-.8-.4-1.2-.5-.9-.3-1.9-.4-2.8-.4s-1.2,0-1.8.2c-.5.1-1,.2-1.5.4-.7.2-1.6.7-2.1,1.2-.3.4-.6.8-.8,1.2-.5.8,0,2,.6,2.6.8.7,1.7,1.1,2.7,1.4h0Z"/>
  <path class="st0" d="M450.7,316.6h0s0,0,0-.1c0,0,0-.1-.1-.2,0,0,0,0-.1-.1s0,0-.1-.1h0c0-.1-.1-.2-.2-.3-.5-.6-1.5-1-2.2-1.3-.7-.2-1.4-.4-2.1-.4-.7,0-1.5,0-2.2,0,0,0-.1,0-.2,0-.9.2-1.7.4-2.6.9-.7.4-1.6,1.3-1.6,2.2,0,1,.7,1.8,1.6,2.2,1.9,1,4.3,1.2,6.4.7.8-.2,2.2-.7,2.9-1.5,0,0,0,0,.1-.2.2-.1.3-.3.4-.5h0c0-.1,0-.1,0-.2,0-.1,0-.2,0-.3,0,0,0-.2,0-.3h0c0-.3,0-.5-.1-.7h0Z"/>
  <path class="st0" d="M150.8,272.3c0-.1,0-.2,0-.3,0-.4,0-.8-.1-1.2,0-1.4-1.8-1.8-2.9-1.9-1.2,0-3.1.1-3.7,1.4-.2.4-.4.9-.6,1.3,0,.2-.1.5-.2.7,0,0,0,0,.1,0,0,0-.2.2-.3.3-.7.8-1.3,2.4-.7,3.4,1.4,2.3,4.7,2.6,7.1,2,1.1-.3,2.1-.7,2.8-1.6.7-1,.4-1.8-.3-2.7-.3-.3-.8-1-1.2-1.2h0Z"/>
  <path class="st0" d="M157.3,248.1c-1.2-.9-3-.9-4.4-.8-1.3.1-3.8.9-3.7,2.6.1,1.5,2.4,1.8,3.5,1.6,1.3-.3,2-.7,2.7-1.2t0,0s0,0,0,0c0,0,0,0,0,0,.3,0,.5,0,.8-.1,1.2-.1,2.1-1.2.9-2h0Z"/>
  <path class="st0" d="M178.3,256.3c-.6-.5-1.4-.7-2.2-.7-.7,0-1.4,0-2.1.2-.4,0-.7.3-.9.5-.3.2-.5.4-.6.7,0,.2,0,.3-.1.5,0,.4.2.7.5,1,.5.4,1.2.8,1.8.9.3.1.7.2,1.1.2s.8,0,1.1-.2c.4,0,.9-.2,1.3-.4.3-.1.5-.4.7-.6.2-.2.3-.5.3-.8,0-.2,0-.3-.1-.5-.1-.3-.3-.5-.6-.7h0Z"/>
  <path class="st0" d="M171.9,239.3c-2.4,0-2.4,2.3,0,2.3s2.4-2.3,0-2.3Z"/>
  <path class="st0" d="M239.6,84.2c7.1.4,14.3.1,21.4-.3,5.8-.3,11.5-.6,17.2-.7,1,3.4,2.8,6.3,5.1,8.9,2,2.8,4.3,5.4,7.3,7.7,6.1,4.7,13.5,7.7,20.8,9.9,4.3,1.3,8.8,2.4,13.4,3.4-17.2.4-35,3.1-49.8,12.4-6.4,4-14.2,8.3-19.6,13.6-5,4.9-10.8,10.3-14.1,16.5-.4.8,1,1.2,1.5,1.2,9.2,0,17.2-3.3,25.6-6.8,9.9-4.1,20.2-5.6,30.4-8.6,10.1-2.9,19.2-7.3,27.8-13.4,3.5-2.5,7-5.1,10.7-7.3,13.9-.4,28-.4,41.7.9.3,0,.7,0,1,.1,2.8,2.4,5.5,4.9,8.3,7.5-10-.9-19.9-2-29.9,0-8.4-.9-16.8-.4-24.9,3.2-3.3,1.5-5,4.1-1.5,6.6,1.1.8,2.3,1.4,3.6,2-4.5,3.3-9,6.6-13,10.4-4.3,4.1,6.6,5.8,9.2,4.1,1-.6,2-1.2,2.9-1.8,5.8-3.7,11.9-7.3,18.3-9.7,7.3.2,14.7-.4,22-.9,5.1-.3,9.3-.5,13.6,0,2.9.8,5.8,1.6,8.7,2.5,1.6.5,3.3,1,4.8,1.6-.8.4-1.6.9-2.4,1.3-4.4,2.5,2.9,4.8,5.3,4,1.5-.6,3-1.1,4.6-1.6,1.6,1.2,3,2.6,4.2,4.3.4.6,2.2.4,1.8-.3-.7-1.2-1.4-2.3-2.2-3.3,3.4,2.8,6.7,5.7,9.7,9.1,2.2,2.5,4.1,5.2,6.8,7.1,3.3,2.3,6.6,4.6,10.3,6.2,6.3,2.9,13,5.4,20,5.2.5,0,1.1-.5.4-.8-5.4-1.8-9.8-6.1-14.2-9.6-5.4-4.3-11-7.3-17.1-10.4-5.3-2.7-10.5-5.6-15.4-8.9,1.1-.3,2.2-.6,3.3-1,1.8-.1,3.5-.6,5-1.4,3.1-.9,6.2-1.8,9.3-2.8,4.4,3.4,8.6,7,13.3,10,7,4.4,14.7,7.2,22.8,8.9.8.2,2.1-.7.8-1.1-7.5-2.6-13.4-7.9-19.7-12.6,1.3-.6,2-1.6,1.3-2.9-1.3-2.3-2.3-5.3-3.4-8.4.4-.2.8-.4,1.2-.6,1.2-.7,1.4-1.8.6-2.8-1.6-2-3.3-3.9-5-5.7-.6-1.5-1.2-2.9-1.8-4.2,2.2.7,4.3,1.4,6.2,2,5.1,1.5,10.1,3,15.2,4.3,9.1,2.4,17.5,5.9,26,9.7,3,6,6.3,12.7,11.6,16.9,2.2,1.8,13.4,2.5,10.9-2.7-3.1-6.6-7-12.7-10-19.3-.7-1.6-1.5-3.1-2.4-4.6-.3-3.3-1.2-6.7-1.8-9.9-1.1-5.7-1.9-11.5-3.2-17.1-2-8-5.6-15.8-9.1-23.3-3.9-8.3-8.2-16.5-13.6-23.9-3.6-5-8.6-10.8-14.5-13-1.7-.7-8,.3-5.5,3.2,1.9,2.2,2.2,5.7,3,8.5.9,3.5,2.1,7,3.2,10.5,2.2,6.8,4.1,13.7,6.7,20.4,1,2.5,2,5,3.1,7.5-.8-1.1-1.7-2.1-2.6-3.1.2-.3.2-.7-.3-1.2-3.2-3.5-6.8-6.5-10.6-9.3-2.4-2.5-4.5-5.3-6.2-8.4-5.9-11-11.6-25.6-23.8-30.9-1.8-.8-9.3.6-6.6,3.5.8,1.4,1.8,2.6,2.9,3.8,2.1,3.7,3.4,8.4,5.5,11.8,2.5,4,5.6,7.5,9,10.8.6.6,1.2,1.1,1.7,1.6.7,1.1,1.4,2.1,2.2,3.1,4.9,6.1,11.8,9.7,18.5,13.6.9.7,1.8,1.4,2.7,2.1.3.2.8.4,1.4.5,2.9,1.9,5.6,4,8,6.5.2.3.3.6.4.9-3.9-3.2-8-6.1-12.4-8.9-10.8-6.8-22.3-13.1-33.9-18.6-4.7-9.2-17.2-12.1-26.6-14.5-2.6-.7-5.2-1.3-7.7-2-3.5-1-6.6-2.9-10-4-6.8-2.2-12.9-2.5-18.7,2-1,.8-.2,2,.6,2.5,6.7,4.5,12.6,7.9,20.4,10,8.2,2.2,16.3,4.4,24.5,6.6,16.5,4.5,32.4,8.9,46.9,18.3,1.9,1.2,3.8,2.5,5.6,3.9-1.1-.4-2.2-.7-3.4-1-6.9-1.7-14-2.3-21-2.7-7.5-.5-14.9-1.2-22.3-1.6-7.5-.4-15.4-1-22.7,1.2-1.4.4-2.2,1-2.6,1.7-6.5-7.2-14.1-14-23.7-13.8-.8,0-3.2.4-3,1.7,1.3,6.7,6.4,11.1,11.2,15.6,6.2,5.7,12.1,11.7,18.8,16.8,4.3,3.3,8.7,6.3,13.2,9.3-2.6-.7-5.3-1.2-8-1.9-8.4-6.5-17.1-12.5-27.2-16.2-2.1-1.6-4.2-3.1-6.3-4.6-2.6-1.8-5.3-3.6-8-5.3-1.7-2.8-3-5.8-4.5-8.9-.4-.8-.8-1.6-1.2-2.4,2.6.4,5.2.3,7.9-.5,1.6-.5,0-1.7-1.1-1.5-2.8.6-5.6.2-8.3-.7-1.7-2.9-3.6-5.7-5.5-8.4-6-8.6-12.6-17.8-21.5-23.5-2-1.3-10.2-.3-7.1,3.2.4.5.7.9,1.1,1.4,2.3,3,4,6.5,6.2,9.5,1.6,2.2,3.4,4.2,5.2,6.2,1.6,2.8,3.2,5.5,4.9,8.3.6,1,1.2,2,1.9,3-.3-.2-.6-.3-1-.5-2.5-1.6-5.1-3.2-7.7-4.6-7-3.7-14.6-6.8-21.2-11.4-7.4-5.2-11.3-13.7-16.3-20.9-.6-.9-2.3-1.1-3.2-.5-4.3,2.8-7.8,6.7-6.5,12.1,1.3,5.3,6,9.4,10.3,12.2,4,2.7,8.4,5.1,13,6.6.3.2.5.4.8.6-9.5-2.7-19-5.5-28.7-7.5-10.9-2.2-22.2-2.1-33.2-.6-6,.8-23.6,5.6-14.3,14.4,4.1,3.9,10.4,4.6,15.8,4.9h0ZM377,133.1h0c-1.5-.4-2.9-.8-4.4-1.2,1.6-.2,3.1-.3,4.7-.5,3.3-.3,6.5-.4,9.8-.5-3.3.8-6.7,1.6-10.1,2.2h0ZM369.2,54c1.1,0,2.2.4,3.3,1.1-1.1-.3-2.2-.7-3.3-1.1ZM469.2,127.7c-5.5-1.2-10.9-2.6-16.3-4.2,3.2,0,6.4,0,9.6.3,7.9.7,15.8,4.1,22.9,8,.1.4.3.7.4,1.1-5-2.8-10.9-4-16.5-5.2h0ZM482.2,84.2c3.1,7.1,6.4,14.3,8,21.9,1,4.8,1.4,9.6,1.2,14.4-.7-.8-1.3-1.6-2-2.4-1.6-1.8-3.2-3.6-4.8-5.3-3.4-10.2-5.6-20.9-8.8-30.9-2-6.4-3.2-13-5.1-19.4,4.5,6.8,8.1,14.3,11.4,21.7h0ZM412.7,96.9c5.3.1,10.6.4,15.9.5-5.2.3-10.4.4-15.5,0-1.2-.1-2.5-.3-3.7-.4,1.1,0,2.2,0,3.3,0h0ZM379.7,96.7c-4.4-3.6-11.6-8.3-13.5-14.3,5.8,2,10.8,7.7,14.6,11.8,3.6,3.8,7,7.7,10.5,11.5-4-2.9-7.8-5.9-11.7-9h0ZM394.1,100.8c-1-1.1-2.1-2.4-3.1-3.6,5.1.9,10.1,2.5,15.3,3.3,5.7.8,11.4,1.2,17.1,1.4,12,.4,24.2.6,36.2,1.7,1.3.1,6.1-1.5,3-3-2.4-1.1-4.8-1.9-7.3-2.5,3.3.3,6.8.7,9.9,1.8.1,0,.2,0,.3.1,6.4,5.7,12,12.4,15.5,20.1.7,1.5,1.3,3.1,1.9,4.7-.7-.6-1.4-1.2-2.1-1.8-3.7-2.8-8-4.3-12.4-5.3-6.3-1.5-12.7-1.7-19.1-1.9-4.5-.1-9.9-.7-14.8-.2-2.5-1.6-5.4-2.3-9.1-1.8-1.7.2-4.4,1.8-2.6,3.7,3.1,3.2,6.3,6.3,9.5,9.4.4,1,.7,1.9,1.1,2.9-1.8-1-3.6-2-5.4-3-.2-.8-1.2-1.6-3.2-2-.3,0-.6-.1-.8-.2-5.1-2.8-10.2-5.6-15.3-8.4-.9-.9-1.7-1.8-2.6-2.7-4-4.2-8.1-8.5-12-12.9h0ZM408.7,125.5c-.4,0-.8.2-1.2.3-.6-.3-1.2-.6-1.9-.9.4,0,.7,0,1.1-.1.2,0,.4-.1.5-.2.5.3,1,.6,1.5,1h0ZM413.7,132.9c3.5,1.8,6.9,3.8,10.2,5.9-1.5.2-3,.5-4.5.9-.3,0-.5.2-.8.2-1.2-.3-2.3-.4-3.4-.7-4.7-.9-9.3-2.2-13.9-3.3,4.1-1,8.3-2.1,12.4-3.1h0ZM401.4,127.2c-3,.7-6,1.5-9,2.3-1.7-2.2-3.4-4.4-5-6.6,4.8,1,9.5,2.5,14,4.3h0ZM369.3,114.9c-3.1-.4-6.2-.7-9.4-.9,0,0-.2,0-.2,0,.6-.7.2-1.7-1.2-1.8-1.4-.2-2.7-.3-4.1-.4-1.2-.5-2.4-1-3.6-1.5,6.3,1.1,12.4,2.6,18.5,4.8h0ZM351.9,105.5c-1.3-.3-2.5-.5-3.8-.7,1.3.1,2.6.4,3.8.7ZM283.5,55.8c-3.6-3.7-3.5-7.3-.9-10.5,1.2,4.7,2.7,9.4,4.8,13.8-1.4-1-2.7-2.1-3.9-3.3h0ZM325.6,123.3c-9.4,5.3-19.5,8.9-29.8,12.1-8.6,2.7-17.3,5.1-25.5,9-7.5,3.6-16.4,10.5-25.2,10.6,4.7-5.4,11-8.5,17.8-10.8,6.4-2.2,12.6-5.5,18.1-9.5,13.3-9.5,28.3-12.9,44.4-13.6,1.4,0,2.8-.1,4.3-.2-1.4.8-2.8,1.6-4.2,2.3h0ZM321.8,85.2c.2,0,.5,0,.8,0,.4.3.9.5,1.3.8,7.2,4.5,14.7,8.8,22,13.2-4.9.3-9.6,1.7-13.8,5,0,0,0,0-.1,0-3.7-.9-7.3-1.8-10.9-2.8-13.6-4-27.2-8.6-37.8-18.3.5,0,1.1,0,1.6,0,12.3,0,24.5,1.6,36.8,2.1h0ZM233.6,74.3c2.3-1,7.3-1.9,11-2.3,4.5-.6,9-.8,13.6-.8.8,0,1.6,0,2.4,0h.7s0,0,0,0c4.9.6,9.8,1.6,14.7,2.6,2.9.6,5.8,1.2,8.7,1.9-4.9.1-9.9.5-14.7.9-10.8,1.1-23.4,4.7-34.1,1.4-1.6-.5-2.7-1-3.3-2.7-.2-.7,0-.7.9-1.2h0Z"/>
  <path class="st0" d="M292.6,176.1c2.7-1,5.4-1.3,8.2-1,.3,0,.6-.3.2-.3-3-.4-6-.1-8.8.9-.5.2,0,.5.4.4h0Z"/>
  <path class="st0" d="M487.4,199.3h0c.7.3,1.3.6,2,.9.3.3.5.6.7.9,1.9,2.6,9,2,9.6-1.5,1.6-9.6-17-9.7-22.2-5.4-1.4,1.1-.6,3.1.8,3.8,1.8.8,3.5,1,5.4,1.1.6,0,1.1,0,1.7,0,.3,0,1.6,0,1.2,0,.2,0,.4,0,.6,0,0,0,.1,0,.2,0h0Z"/>
  <path class="st0" d="M527.4,313.6c-2.7-5.4-7.7-14-3.8-19.8.8-1.2-2.3-1.3-2.9-.7-4.1,3.8-7.6,7.4-7.8,13.3-.2,5.5,2.2,10.8,4.2,15.7,2.2,5.3,5.3,10.8,5.4,16.7,0,6.7-4.8,14-10.1,17.8-13.2,9.3-32.5,8.7-42.2,23.1-2.9,4.4-5.1,8.7-10,11.1-3.8,1.9-8.1,2.7-12.2,3-5.9.4-11.8-.4-17.4-2.2-5.7-1.8-9.5-5.3-14.5-8.3-1.5-.9-5.2-.9-5.5,1.3-.7,4.5,4.9,8.8,8.3,10.9,5.2,3.3,11.4,4.9,17.5,5.8,11.9,1.7,26.4,1,36.8-5.7,5.8-3.7,8-9.5,12.1-14.8,2.7-3.5,6.5-5.6,10.3-7.8,3.9-2.3,7.6-4.7,11.5-7,11.8-7,27.8-16.3,27.2-32-.2-7.2-3.8-14-6.9-20.4h0Z"/>
  <path class="st0" d="M506.6,255.6c.4,4.2-2.2,7.7-1.8,12,.4,4.1,2.6,7.3,5.7,9.9,1.2,1,6.9,1.8,6.5-1-.5-4,1.8-7.4,2.1-11.3.3-4.1-2.3-7.7-4.9-10.7-1.3-1.5-7.9-1.9-7.6,1.2Z"/>
  <path class="st0" d="M143.4,87.6c0,0,0,0,0,0s0,0,0,0Z"/>
  <path class="st0" d="M115.9,72.4c0,0,0,0,0,0s0,0,0,0Z"/>
  <path class="st0" d="M87.6,339.4c-3.4-.5-7.2.5-9.4,3.2-2.6,3.2-1.2,7.1,2.6,8.5,3.7,1.4,9.2,1,11.7-2.4,1.5-2.1,1.9-5.5.6-7.8-1.1-1.8-3.6-2.2-5.4-1.4h0ZM86.8,348.4c-2.1.5-3.8-1.1-3.8-3.1,0-2.2,1.2-3.8,3-4.5-.2.3-.4.6-.5,1-.3.9,1.4.9,1.8.6.6-.4,1.3-.7,1.9-1.1,0,0,0,0,.1,0,.4.6.6,1.2.7,2,.1,2-1,4.7-3.2,5.2h0Z"/>
  <path class="st0" d="M380.8,175.9c-.8-.6-1.8-.7-2.8-.8-.3,0-.6,0-1,0-1.4,0-3.2.3-4.2,1.4-.4.4-.6.9-.7,1.4,0,.4.1.8.4,1.1.7,1,2,1.4,3.2,1.6.9.1,1.7.1,2.6,0,.8-.1,1.5-.4,2.2-.7.5-.4,1.3-.7,1.4-1.4.2-.5.2-1,0-1.4-.3-.5-.7-.9-1.2-1.2h0Z"/>
  <path class="st0" d="M492.8,165.4c-.5,0-.9.2-1.3.4h-.2q0,.1,0,.1c-.6.2-1.3.8-1.1,1.5.2.8,1.2,1.2,1.9,1.3.9.1,1.8,0,2.6-.4.6-.4,1-1,.6-1.7,0-.1,0-.2,0-.3,0,0,0-.1,0-.2-.2-.4-.6-.6-1-.6-.3,0-.4,0-.7,0s-.4,0-.5,0c.3,0,.3,0,0,0h0Z"/>
</svg>