<?xml version="1.0" encoding="UTF-8"?>
<svg id="Camada_1" xmlns="http://www.w3.org/2000/svg" version="1.1" viewBox="0 0 356.4 336.2">
  <!-- Generator: Adobe Illustrator 29.8.5, SVG Export Plug-In . SVG Version: 2.1.1 Build 2)  -->
  <defs>
    <style>
      .st0 {
        fill: #f18322;
      }
    </style>
  </defs>
  <path class="st0" d="M353.8,329.9h0c0,0-.2,0-.3,0-.2,0-.3-.1-.5-.1-4.7-1.8-9.7-2.7-14.5-4.2-4.8-1.4-9.5-3-14.2-4.7-7.6-2.7-14.9-5.8-22.3-9.1-6-3.4-11.7-7.2-17.2-11.1-10-7.1-19-15.2-28.5-23-9.4-7.6-20.6-12-32-15.5-6.5-2-12.9-4.4-19.4-6-3-.7-6-1.7-9-2.4,0,0-.2,0-.2,0-1.9-1.3-3.9-2.7-6-3.6-2.8-1.2-6-2-8.9-2.8-.3,0-2-.6-2.3-.6-1.2-.4-2.4-.8-3.6-1.3-2.8-1.1-5.3-2.4-7.9-3.9-5.2-3-10-6.5-15-9.7-9.4-6.1-19.1-11.6-27.7-18.9-8.3-7.1-16-14.7-22.9-23.2-13.1-16-24.7-34.3-32.6-53.3-2-4.8-3.6-9.6-4.9-14.6-1.3-5.1-3.1-10-4.8-14.9-3.4-9.9-6.6-19.9-9.3-30.1-3-11.3-5.6-22.8-7.4-34.3-.9-5.9-1.5-11.8-2.3-17.7-.8-6-1.8-12.2-1.9-18.3,0-2.8-2.5-4-5.3-4.4C31.9.6,29.4,0,28,0c-2,0-4.4.3-5.7,2.2-3.2,4.8-4.1,10.9-4.2,16.5h0c0,.2,0,.2,0,.3-2,4.1-3.8,8.3-5.6,12.6-3.5,8.7-6.1,17.6-8.1,26.8C.4,76.5-.9,94.9.6,113.4c1.4,18.5,5.3,36.9,11.5,54.4,6.6,18.6,16.2,35.7,27.5,51.8,11.3,16,23.5,31.6,36.6,46.1,12.3,13.7,26,26.5,41.7,36.3,17,10.7,37.5,18.4,57.7,18.9,10.1.3,20.5.3,30.7-.6h0c2.5.8,5.6.8,7.9.2,1.1-.3,2.4-.7,3.5-1.2,1.1-.4,2.2-1,3.2-1.6,4-1,8.3-1.8,11.8-4,6.2-3.9,9.7-14.1,17.9-14.2,3.8,0,7.8,1.8,11.2,3.3,4.3,1.9,8.3,4.3,12.4,6.5,19.1,10.2,39.4,17.6,60.2,23.4,2.4.7,4.8,1.4,7.2,2.1,2.8.8,5.7,1.1,8.6,1.4,1.9.2,5.4-.4,6-2.7.4-1.7-1.1-2.9-2.7-3.6h.2ZM209,269.1c1,.3,2.1.6,3.1.9-.6.3-1.1.8-1.3,1.4-.2.5-.3.9-.2,1.3-1-1-1.9-2-2.8-3-.4-.5-.9-.9-1.4-1.4.9.3,1.8.6,2.7.8h0ZM51.5,208.5c.3,0,.5,0,.6-.2.4-1.5.7-3,.9-4.6,1.9,1.9,3.7,3.7,5.6,5.5-1.9.8-3.1,2.1-2.2,3.9.7,2.1,1.6,4.1,2.4,6.1-2.5-3.5-5-7.1-7.4-10.7ZM89.1,240.6c-1.7-1.3-3.3-2.6-5-3.9-2.1-3-4-6.1-5.9-9.3,1.6,1.5,3.1,2.9,4.7,4.3,7.2,6.8,14.5,13.7,21.9,20.4-5.2-3.8-10.5-7.6-15.6-11.5h0ZM109.1,236.7c-20-18.4-39.8-37.1-61.3-53.7-.3-.6-.6-1.2-.9-1.8-5.1-10-9.6-20.3-13.4-30.9-2-5.5-3.9-10.9-5.6-16.5-1.8-5.7-3.8-11.3-5.7-17-1.8-5.6-3.2-11.5-4-17.5-.1-8.8.3-17.6,1.1-26.2,1.1-10.9,2.9-22,5.5-32.8,1.2,9.8,2.9,19.5,5.1,29.2,2.4,10.6,5.7,20.9,9.5,31.1,1.9,5.1,4.1,10,6.4,14.9,2.4,5.1,5.9,9.7,8.9,14.4,11.7,18.4,22.7,36.9,36.7,53.7,13.4,16,26.9,31.9,41.2,47.2,9.1,9.7,19.7,18.2,32.3,22.9,6.2,2.3,13.2,4.3,19.8,4.9.4,0,.7,0,1,0,1,2.2,1.8,4.3,3.1,6.3,2.8,4.6,5.7,9,8.8,13.3.7,1,1.4,2,2.1,3-1.4-.3-2.8-.6-4.2-.8-5.6-.9-11.3-1.4-16.9-2-1,0-2-.2-3.1-.4h-.2c-.7-.1-1.5-.2-2.2-.4-1.4-.2-2.8-.5-4.2-.9-.6-.2-1.2-.3-1.9-.5,0,0-1.6-.5-1.7-.5-21.9-7.1-39.6-23.8-56.4-39.3h0ZM179.5,295.1c-10.7-2.2-20.7-6.8-30.1-12.4-.5-.3-1.1-.6-1.6-1,10.7,4.6,21.9,6.8,33.6,7.9,1.5.2,3,.3,4.6.5.5,0,1.1.1,1.7.2h.2c.2,0,.5,0,.7.1,2.6.4,5.3.9,7.8,1.6.1,0,2.2.8,2.6,1,.3.1.6.3.9.4.2.1,1,.6,1.2.7.8.5,1.2.8,1.5,1.1-7.6,2.1-15.8,1.4-23.1-.1h0ZM216.2,304.9c-1.2.1-2.4.5-3.5.9-1.5.7-1.8.5-3.2.7-.8,0-1.5.1-2.3.2-.3,0-.5,0-.6,0h-.6c-2.2,0-4.4-.2-6.5-.4.4-.2.8-.4,1.2-.6.7-.3,1.4-.6,2.2-.9,4.6-.5,9.1-1.4,13.6-2.6,0,.9,0,1.8-.3,2.6h0ZM213.5,275.8h0c3.6,1.6,6.6,5,8.6,8.4,1,1.7,1.6,3.4,1.9,5.2-2.9-5.1-6.6-9.4-10.5-13.6ZM233.7,296.4c0-1.1-.1-2.2-.3-3.3,1.4.5,3,.8,4.6.9-1.5.7-2.9,1.5-4.3,2.4ZM246.9,291.8c1-.7,1.9-1.7,2.5-2.8,1.2,1,2.4,1.9,3.7,2.8-2.1-.2-4.2-.2-6.2,0h0Z"/>
</svg>